<svg width="379" height="232" viewBox="0 0 379 232" fill="none" xmlns="http://www.w3.org/2000/svg">
<g clip-path="url(#clip0_7350_17456)">
<path d="M0.333496 8C0.333496 3.58173 3.91522 0 8.3335 0H371C375.418 0 379 3.58172 379 8V232H0.333496V8Z" fill="#F0F2F5"/>
<path d="M151.488 65.244C152.228 64.689 152.972 64.1432 153.731 63.6113" stroke="#DDDDDD" stroke-width="1.3875" stroke-linecap="round" stroke-linejoin="round"/>
<path d="M158.217 60.6679C170.567 53.0134 184.804 48.9489 199.333 48.9297C205.417 48.927 211.479 49.6427 217.394 51.0618" stroke="#DDDDDD" stroke-width="1.3875" stroke-linecap="round" stroke-linejoin="round" stroke-dasharray="5.35 5.35"/>
<path d="M219.961 51.7324C220.852 51.9791 221.74 52.2412 222.625 52.5187" stroke="#DDDDDD" stroke-width="1.3875" stroke-linecap="round" stroke-linejoin="round"/>
<path d="M158.583 227.764C157.792 227.302 157.006 226.793 156.233 226.289" stroke="#DDDDDD" stroke-width="1.3875" stroke-linecap="round" stroke-linejoin="round"/>
<path d="M151.742 223.135C135.476 210.948 123.178 192.693 117.461 171.279" stroke="#DDDDDD" stroke-width="1.3875" stroke-linecap="round" stroke-linejoin="round" stroke-dasharray="5.5 5.5"/>
<path d="M116.768 168.608C116.555 167.711 116.353 166.809 116.162 165.902" stroke="#DDDDDD" stroke-width="1.3875" stroke-linecap="round" stroke-linejoin="round"/>
<path d="M283.906 157.326C283.792 158.251 283.666 159.167 283.527 160.073" stroke="#DDDDDD" stroke-width="1.3875" stroke-linecap="round" stroke-linejoin="round"/>
<path d="M282.523 165.65C281.181 172.124 279.211 178.452 276.64 184.544" stroke="#DDDDDD" stroke-width="1.3875" stroke-linecap="round" stroke-linejoin="round" stroke-dasharray="5.67 5.67"/>
<path d="M275.503 187.158C275.117 188 274.723 188.834 274.319 189.66" stroke="#DDDDDD" stroke-width="1.3875" stroke-linecap="round" stroke-linejoin="round"/>
<path d="M136.304 191.279L110.894 195.034C110.44 195.099 109.978 194.993 109.598 194.737C109.217 194.481 108.946 194.092 108.836 193.647L105.894 179.92C105.846 179.705 105.844 179.483 105.887 179.267C105.93 179.051 106.017 178.847 106.144 178.667C106.271 178.487 106.434 178.335 106.623 178.222C106.811 178.109 107.022 178.037 107.24 178.01L132.65 174.259C133.104 174.194 133.566 174.3 133.946 174.556C134.327 174.813 134.598 175.201 134.708 175.646L137.65 189.341C137.702 189.558 137.708 189.783 137.667 190.002C137.626 190.221 137.54 190.429 137.412 190.613C137.285 190.796 137.121 190.95 136.929 191.065C136.738 191.179 136.525 191.252 136.304 191.279Z" fill="#F9F9F9" stroke="#EDEDED" stroke-width="0.925" stroke-linecap="round" stroke-linejoin="round"/>
<path d="M109.655 180.25C109.927 180.199 124.801 185.065 124.801 185.065L131.739 176.314" stroke="#EDEDED" stroke-width="0.925" stroke-linecap="round" stroke-linejoin="round"/>
<path d="M113.493 190.239L121.772 184.078" stroke="#EDEDED" stroke-width="0.925" stroke-linecap="round" stroke-linejoin="round"/>
<path d="M128.779 184.078L135.078 186.071" stroke="#EDEDED" stroke-width="0.925" stroke-linecap="round" stroke-linejoin="round"/>
<path d="M146.983 212.591L140.369 213.835C140.28 213.851 140.197 213.891 140.129 213.951L135.966 217.586C135.895 217.647 135.808 217.686 135.715 217.701C135.623 217.716 135.528 217.704 135.441 217.669C135.355 217.633 135.28 217.574 135.225 217.498C135.17 217.422 135.136 217.332 135.129 217.239L134.421 206.282C134.414 206.19 134.434 206.097 134.477 206.016C134.52 205.934 134.586 205.866 134.667 205.82C134.737 205.779 134.817 205.758 134.898 205.758C134.979 205.758 135.059 205.779 135.129 205.82L147.117 211.647C147.213 211.693 147.292 211.768 147.342 211.862C147.392 211.956 147.411 212.063 147.396 212.168C147.381 212.273 147.333 212.371 147.259 212.447C147.184 212.523 147.088 212.573 146.983 212.591Z" fill="white" stroke="#EDEDED" stroke-width="0.925" stroke-linecap="round" stroke-linejoin="round"/>
<path d="M146.983 212.591L140.369 213.835C140.28 213.851 140.197 213.891 140.129 213.951L134.667 205.82C134.737 205.779 134.817 205.758 134.898 205.758C134.979 205.758 135.059 205.779 135.129 205.82L147.117 211.647C147.213 211.693 147.292 211.768 147.342 211.862C147.392 211.956 147.411 212.063 147.396 212.168C147.381 212.273 147.333 212.371 147.259 212.447C147.184 212.523 147.088 212.573 146.983 212.591Z" fill="#EDEDED" stroke="#EDEDED" stroke-width="0.925" stroke-linecap="round" stroke-linejoin="round"/>
<mask id="mask0_7350_17456" style="mask-type:luminance" maskUnits="userSpaceOnUse" x="69" y="73" width="100" height="77">
<path d="M168.058 80.1V149.142H69.6107V80.1C69.6101 79.1855 69.7896 78.2799 70.1392 77.4349C70.4887 76.5898 71.0013 75.822 71.6477 75.1751C72.2942 74.5283 73.0617 74.0151 73.9065 73.665C74.7513 73.315 75.6568 73.1348 76.5713 73.1348H161.098C162.012 73.1348 162.918 73.315 163.763 73.665C164.607 74.0151 165.375 74.5283 166.021 75.1751C166.668 75.822 167.18 76.5898 167.53 77.4349C167.879 78.2799 168.059 79.1855 168.058 80.1Z" fill="white"/>
</mask>
<g mask="url(#mask0_7350_17456)">
<path d="M147.468 147.397C149.586 148.461 152.329 146.472 155.377 143.78L152.074 140.82C152.074 140.82 146.894 145.649 147.468 147.397Z" fill="#9065F2"/>
<path d="M175.704 134.666L168.059 150.248H151.978L149.3 142.764L158.402 134.666H175.704Z" fill="#FEBD9D"/>
<path d="M163.244 134.666L155.715 146.432" stroke="#EF8A66" stroke-width="0.346875" stroke-linecap="round" stroke-linejoin="round"/>
<path d="M160.377 135.881C154.924 138.994 147.468 147.397 147.468 147.397L145.466 151.375L144.3 153.687H104.738C103.813 150.353 103.017 146.01 102.425 142.49C101.963 139.766 101.667 137.537 101.547 136.663L101.496 136.269C100.488 137.162 99.9973 137.194 99.9973 137.194L98.1473 142.083L97.9761 142.546C91.4086 138.152 79.3929 137.375 79.3929 137.375L81.007 131.922C80.5221 130.801 80.3867 129.56 80.6185 128.361C80.8821 126.996 84.4989 120.669 88.1434 115.36C89.5804 113.2 91.1741 111.149 92.9118 109.222C93.0551 109.074 93.2031 108.931 93.3511 108.797C97.7495 104.75 105.039 105.337 109.83 105.772C110.542 105.837 111.218 105.883 111.847 105.911C113.262 105.985 114.681 105.985 116.097 105.911C117.258 105.851 117.896 105.763 117.896 105.763C118.044 105.088 118.183 104.375 118.322 103.594C119.186 98.5387 119.672 91.7908 118.9 87.3555L131.073 92.7898C131.281 95.0006 132.095 99.8522 132.654 103.043C132.969 104.829 133.196 106.096 133.196 106.096C134.176 105.916 135.101 105.754 135.971 105.606C148.329 103.511 151.511 104.297 154.933 110.323C155.026 110.48 155.113 110.647 155.206 110.823C157.315 114.985 158.753 123.31 159.553 129.193C160.122 133.06 160.377 135.881 160.377 135.881Z" fill="#C5AFF9"/>
<path d="M160.377 135.88C155.03 138.937 147.746 147.087 147.473 147.387C147.57 147.184 149.161 143.891 149.323 142.762C149.485 141.634 148.921 138.294 148.046 135.154L159.609 129.211C160.122 133.059 160.377 135.88 160.377 135.88Z" fill="#C5AFF9"/>
<path d="M119.205 137.684C119.117 142.115 108.739 142.739 102.439 142.494C101.977 139.77 101.681 137.54 101.561 136.666L101.51 136.273C103.799 133.951 105.691 131.268 107.111 128.332C110.811 130.857 106.065 133.452 105.885 134.668C105.395 138.003 119.33 131.357 119.205 137.684Z" fill="#9065F2"/>
<path d="M155.252 110.842C151.644 109.589 147.593 109.63 144.786 114.112C138.463 124.204 126.595 132.075 114.723 120.161C113.1 118.489 111.324 116.971 109.418 115.629C102.402 110.828 96.4682 111.799 88.171 115.356C89.6079 113.196 91.2017 111.145 92.9393 109.219C93.0827 109.071 93.2307 108.927 93.3787 108.793C97.7771 104.746 105.066 105.334 109.858 105.768C110.57 105.833 111.245 105.879 111.874 105.907C113.29 105.982 114.709 105.982 116.124 105.907C117.285 105.847 117.924 105.759 117.924 105.759C118.072 105.084 118.21 104.372 118.349 103.59C119.214 98.5348 119.7 91.7869 118.927 87.3516L131.1 92.7859C131.308 94.9967 132.122 99.8483 132.682 103.04C132.996 104.825 133.223 106.092 133.223 106.092C134.204 105.912 135.129 105.75 135.998 105.602C148.356 103.507 151.538 104.293 154.961 110.319C155.072 110.5 155.159 110.666 155.252 110.842Z" fill="#E1D4FB"/>
<path d="M136.017 105.626C135.98 108.753 135.642 114.451 134.282 118.479C132.525 123.705 130.453 121.582 128.177 119.52C126.119 117.642 118.618 111.393 111.879 105.922C113.295 105.997 114.714 105.997 116.129 105.922C117.29 105.862 117.928 105.774 117.928 105.774C118.076 105.099 118.215 104.387 118.354 103.605C123.243 103.286 129.107 102.971 132.691 103.055C133.006 104.84 133.233 106.107 133.233 106.107C134.204 105.917 135.129 105.774 136.017 105.626Z" fill="#7444DC"/>
<path d="M131.225 117.576C131.225 117.576 120.81 110.491 116.129 105.917C117.29 105.857 117.928 105.769 117.928 105.769C119.043 100.649 119.82 92.472 118.932 87.3613L126.845 90.8902L131.105 92.7957C131.258 94.4283 131.748 97.5271 132.215 100.311C132.733 103.392 133.228 106.102 133.228 106.102C133.607 115.084 131.225 117.576 131.225 117.576Z" fill="#FEBD9D"/>
<path d="M147.469 147.399C147.566 147.196 149.157 143.903 149.319 142.774C149.48 141.646 148.916 138.306 148.042 135.166C147.996 135.004 147.95 134.838 147.899 134.676" stroke="#7444DC" stroke-width="0.346875" stroke-linecap="round" stroke-linejoin="round"/>
<path d="M132.211 100.325C123.992 100.83 124.917 91.9958 124.986 91.7738L126.836 90.9043L131.096 92.8098C131.253 94.4424 131.743 97.5412 132.211 100.325Z" fill="#F4A789"/>
<path d="M79.4209 137.365C79.1896 138.045 79.1896 138.785 84.3465 140.237L85.142 136.856C85.142 136.856 80.4522 135.589 79.4209 137.365Z" fill="#9065F2"/>
<path d="M82.2466 135.584C81.0348 139.534 76.8076 152.761 76.8076 152.761C75.6606 157.613 90.0489 160.781 95.1688 152.539L97.9854 139.27C93.3306 136.241 87.7623 134.937 82.2466 135.584Z" fill="#FEBD9D"/>
<path d="M105.903 130.561C105.886 130.587 105.87 130.615 105.857 130.644C105.247 131.62 104.567 132.614 103.827 133.641L103.776 133.71C103.082 134.616 102.325 135.47 101.51 136.268C100.501 137.161 100.011 137.193 100.011 137.193L98.004 142.535C97.8005 142.401 97.5924 142.267 97.375 142.137C93.712 139.917 88.6707 138.696 84.8875 138.049C83.6434 137.836 82.5334 137.688 81.65 137.586C80.2902 137.424 79.4485 137.369 79.4485 137.369L81.0626 131.916C80.5777 130.795 80.4423 129.554 80.6741 128.355C80.9377 126.99 84.5545 120.663 88.199 115.354C89.636 113.194 91.2297 111.143 92.9674 109.216C93.1107 109.068 93.2587 108.925 93.4067 108.791C99.6412 105.873 107.744 106.589 109.34 115.002C109.381 115.21 109.418 115.419 109.446 115.627C110.334 121.228 108.951 125.672 105.903 130.561Z" fill="#C5AFF9"/>
<path d="M109.418 115.627C102.402 110.826 96.4682 111.797 88.171 115.354C89.6079 113.194 91.2017 111.143 92.9393 109.216C93.0827 109.068 93.2307 108.925 93.3787 108.791C99.6132 105.873 107.716 106.589 109.312 115.002C109.353 115.224 109.39 115.432 109.418 115.627Z" fill="#E1D4FB"/>
<path d="M83.597 133.074C87.9399 133.074 92.1856 134.85 92.9025 135.188" stroke="#7444DC" stroke-width="0.346875" stroke-linecap="round" stroke-linejoin="round"/>
<path d="M101.51 136.269C102.325 135.471 103.082 134.616 103.776 133.711L103.827 133.642C104.558 132.68 105.236 131.68 105.857 130.645C105.87 130.615 105.886 130.588 105.904 130.561C106.394 129.733 106.801 128.97 107.111 128.327C107.365 127.828 107.55 127.402 107.68 127.088" stroke="#7444DC" stroke-width="0.346875" stroke-linecap="round" stroke-linejoin="round"/>
<path d="M139.106 132.409C139.273 134.597 137.987 135.156 137.987 135.156C138.163 140.475 136.6 143.019 134 143.694C131.401 144.369 124.686 145.794 124.686 145.794C123.99 146.077 123.318 146.417 122.678 146.811C121.929 147.237 121 147.782 119.903 148.43C116.564 150.382 111.306 152.204 105.057 155.497C93.9849 161.334 86.0946 158.17 85.5674 151.977C84.6146 140.641 99.0123 139.901 104.271 139.027C108.082 138.389 113.983 136.877 117.642 136.03C119.029 135.716 120.07 135.494 120.56 135.448C122.318 135.29 125.962 133.366 132.359 131.354C138.755 129.343 143.921 128.177 143.921 129.588C143.921 130.998 139.106 132.409 139.106 132.409Z" fill="#FEBD9D"/>
<path d="M132.368 131.356C138.759 129.335 143.93 128.179 143.93 129.589C143.93 131 139.088 132.425 139.088 132.425C139.254 134.612 137.969 135.172 137.969 135.172C138.144 140.491 136.581 143.034 133.982 143.71" stroke="#EF8A66" stroke-width="0.346875" stroke-linecap="round" stroke-linejoin="round"/>
<path d="M88.2501 144.304C91.0251 141.616 95.4697 140.456 99.2252 139.799" stroke="#EF8A66" stroke-width="0.346875" stroke-linecap="round" stroke-linejoin="round"/>
<path d="M122.678 146.813C121.929 147.239 120.999 147.784 119.903 148.432C117.327 145.56 115.99 141.11 117.641 136.018C119.029 135.704 120.07 135.482 120.56 135.436C119.367 138.696 119.145 144.015 122.678 146.813Z" fill="#683F1D"/>
<path d="M139.106 132.406L135.152 133.687" stroke="#EF8A66" stroke-width="0.346875" stroke-linecap="round" stroke-linejoin="round"/>
<path d="M137.987 135.156L135.555 136.04" stroke="#EF8A66" stroke-width="0.346875" stroke-linecap="round" stroke-linejoin="round"/>
<path d="M135.818 138.594L137.89 138.029" stroke="#EF8A66" stroke-width="0.346875" stroke-linecap="round" stroke-linejoin="round"/>
<path d="M121.744 141.992C121.744 142.654 121.548 143.3 121.18 143.85C120.813 144.4 120.291 144.829 119.68 145.082C119.069 145.335 118.396 145.401 117.748 145.272C117.099 145.143 116.503 144.824 116.036 144.357C115.568 143.889 115.249 143.293 115.12 142.645C114.991 141.996 115.058 141.324 115.311 140.713C115.564 140.102 115.992 139.579 116.542 139.212C117.092 138.845 117.739 138.648 118.4 138.648C119.287 138.648 120.137 139.001 120.765 139.628C121.392 140.255 121.744 141.105 121.744 141.992Z" fill="white" stroke="#683F1D" stroke-width="0.4625" stroke-linecap="round" stroke-linejoin="round"/>
</g>
<path d="M168.058 80.102V149.144H69.6104V80.102C69.6098 79.1875 69.7894 78.2819 70.1389 77.4368C70.4885 76.5918 71.0011 75.8239 71.6475 75.1771C72.2939 74.5302 73.0614 74.0171 73.9063 73.667C74.7511 73.3169 75.6566 73.1367 76.571 73.1367H161.098C162.012 73.1367 162.918 73.3169 163.762 73.667C164.607 74.0171 165.375 74.5302 166.021 75.1771C166.667 75.8239 167.18 76.5918 167.53 77.4368C167.879 78.2819 168.059 79.1875 168.058 80.102Z" stroke="#DDDDDD" stroke-width="0.925" stroke-linecap="round" stroke-linejoin="round"/>
<path d="M168.058 80.102V80.4118H69.6104V80.102C69.6098 79.1875 69.7894 78.2819 70.1389 77.4368C70.4885 76.5918 71.0011 75.8239 71.6475 75.1771C72.2939 74.5302 73.0614 74.0171 73.9063 73.667C74.7511 73.3169 75.6566 73.1367 76.571 73.1367H161.098C162.012 73.1367 162.918 73.3169 163.762 73.667C164.607 74.0171 165.375 74.5302 166.021 75.1771C166.667 75.8239 167.18 76.5918 167.53 77.4368C167.879 78.2819 168.059 79.1875 168.058 80.102Z" stroke="#DDDDDD" stroke-width="0.925" stroke-linecap="round" stroke-linejoin="round"/>
<path d="M154.733 76.7751C154.733 77.0257 154.659 77.2707 154.52 77.4791C154.38 77.6875 154.183 77.8499 153.951 77.9459C153.719 78.0418 153.465 78.0669 153.219 78.018C152.973 77.9691 152.747 77.8484 152.57 77.6711C152.393 77.4939 152.272 77.2681 152.223 77.0223C152.174 76.7765 152.199 76.5217 152.295 76.2901C152.391 76.0585 152.554 75.8606 152.762 75.7214C152.97 75.5821 153.215 75.5078 153.466 75.5078C153.632 75.5078 153.797 75.5406 153.951 75.6043C154.105 75.668 154.244 75.7613 154.362 75.879C154.48 75.9967 154.573 76.1364 154.637 76.2901C154.701 76.4439 154.733 76.6086 154.733 76.7751Z" fill="#DDDDDD"/>
<path d="M157.596 78.0423C158.296 78.0423 158.864 77.4749 158.864 76.7751C158.864 76.0752 158.296 75.5078 157.596 75.5078C156.897 75.5078 156.329 76.0752 156.329 76.7751C156.329 77.4749 156.897 78.0423 157.596 78.0423Z" fill="#EDEDED"/>
<path d="M162.994 76.7751C162.994 77.0259 162.919 77.2711 162.78 77.4796C162.64 77.6881 162.442 77.8505 162.21 77.9463C161.979 78.0421 161.724 78.0669 161.478 78.0176C161.232 77.9684 161.006 77.8472 160.829 77.6695C160.652 77.4918 160.531 77.2656 160.483 77.0195C160.435 76.7733 160.46 76.5184 160.557 76.2869C160.654 76.0554 160.817 75.8578 161.026 75.7191C161.235 75.5805 161.48 75.5069 161.731 75.5078C161.897 75.5078 162.062 75.5406 162.215 75.6044C162.369 75.6681 162.508 75.7615 162.626 75.8793C162.743 75.997 162.836 76.1367 162.899 76.2905C162.962 76.4442 162.994 76.6089 162.994 76.7751Z" fill="#DDDDDD"/>
<path d="M144.171 137.319C145.752 135.64 148.393 135.432 148.393 135.432L151.45 138.591C151.45 138.591 152.32 129.262 148.393 116.465C147.649 122.713 145.35 132.768 144.171 137.319Z" fill="#DDDDDD" stroke="#DDDDDD" stroke-width="0.4625" stroke-linecap="round" stroke-linejoin="round"/>
<path d="M174.335 114.567C178.752 128.581 178.539 138.589 178.539 138.589H151.45C151.45 138.589 147.801 124.682 148.393 116.463C148.393 116.463 147.88 114.526 149.577 114.354C151.275 114.183 174.335 114.567 174.335 114.567Z" fill="#F9F9F9" stroke="#DDDDDD" stroke-width="0.4625" stroke-linecap="round" stroke-linejoin="round"/>
<path d="M152.63 114.43C152.628 114.391 152.628 114.352 152.63 114.314C152.669 113.94 152.816 113.585 153.053 113.292C153.29 113 153.606 112.782 153.964 112.666C154.322 112.549 154.706 112.539 155.07 112.637C155.433 112.734 155.761 112.934 156.013 113.214C156.265 113.494 156.43 113.84 156.489 114.212C156.548 114.584 156.499 114.965 156.346 115.308C156.193 115.652 155.943 115.945 155.628 116.15C155.312 116.355 154.944 116.464 154.568 116.465" stroke="#EDEDED" stroke-width="0.4625" stroke-linecap="round" stroke-linejoin="round"/>
<path d="M166.394 114.43C166.443 114.06 166.599 113.711 166.841 113.427C167.084 113.142 167.403 112.933 167.761 112.825C168.119 112.717 168.5 112.715 168.86 112.818C169.219 112.921 169.542 113.125 169.788 113.406C170.034 113.687 170.195 114.033 170.25 114.403C170.304 114.773 170.252 115.151 170.098 115.492C169.944 115.832 169.695 116.121 169.381 116.324C169.067 116.527 168.701 116.636 168.327 116.636C168.002 116.636 167.683 116.55 167.402 116.387" stroke="#EDEDED" stroke-width="0.4625" stroke-linecap="round" stroke-linejoin="round"/>
<path d="M158.157 114.346C158.178 113.838 158.388 113.357 158.746 112.997C159.104 112.637 159.583 112.423 160.09 112.398C160.624 112.454 161.118 112.705 161.477 113.103C161.837 113.502 162.036 114.019 162.036 114.556C162.036 115.093 161.837 115.61 161.477 116.009C161.118 116.407 160.624 116.658 160.09 116.714C159.654 116.707 159.235 116.542 158.911 116.251" stroke="#EDEDED" stroke-width="0.4625" stroke-linecap="round" stroke-linejoin="round"/>
<path d="M162.282 114.393C162.331 114.023 162.485 113.675 162.727 113.391C162.968 113.106 163.287 112.897 163.644 112.789C164.001 112.68 164.382 112.677 164.741 112.78C165.1 112.882 165.421 113.086 165.668 113.366C165.914 113.647 166.074 113.992 166.129 114.361C166.184 114.73 166.132 115.107 165.978 115.448C165.824 115.788 165.576 116.076 165.262 116.279C164.949 116.481 164.584 116.59 164.211 116.59" stroke="#EDEDED" stroke-width="0.4625" stroke-linecap="round" stroke-linejoin="round"/>
<path d="M172.882 119.07H153.901V121.239H172.882V119.07Z" stroke="#DDDDDD" stroke-width="0.4625" stroke-linecap="round" stroke-linejoin="round"/>
<path d="M158.605 136.229L158.365 134.402L157.144 125L156.94 123.455" stroke="#EDEDED" stroke-width="0.4625" stroke-linecap="round" stroke-linejoin="round"/>
<path d="M164.766 136.229L164.512 134.273L163.318 125.12L163.101 123.455" stroke="#EDEDED" stroke-width="0.4625" stroke-linecap="round" stroke-linejoin="round"/>
<path d="M169.266 123.447L170.926 136.231" stroke="#EDEDED" stroke-width="0.4625" stroke-linecap="round" stroke-linejoin="round"/>
<path d="M173.086 126.008H163.434H157.273H154.572" stroke="#EDEDED" stroke-width="0.4625" stroke-linecap="round" stroke-linejoin="round"/>
<path d="M174.025 131.586H164.16H157.999H155.506" stroke="#EDEDED" stroke-width="0.4625" stroke-linecap="round" stroke-linejoin="round"/>
<path d="M159.031 123.891C155.969 125.454 154.494 131.971 159.688 132.405C167.342 133.044 167.707 123.618 161.001 124.506" fill="#F9F9F9"/>
<path d="M159.031 123.891C155.969 125.454 154.494 131.971 159.688 132.405C167.342 133.044 167.707 123.618 161.001 124.506" stroke="#DDDDDD" stroke-width="0.925" stroke-linecap="round" stroke-linejoin="round"/>
<path d="M164.16 131.59H157.999L157.273 126.008H163.434L164.16 131.59Z" fill="#EDEDED"/>
<path d="M175.227 130.747C175.357 132.87 179.39 130.534 179.112 128.675C178.835 126.816 175.075 128.286 175.227 130.747Z" fill="#FEBD9D" stroke="#EF8A66" stroke-width="0.346875" stroke-linecap="round" stroke-linejoin="round"/>
<path d="M174.543 127.887C174.691 130.014 179.233 127.678 178.937 125.815C178.641 123.951 174.372 125.431 174.543 127.887Z" fill="#FEBD9D" stroke="#EF8A66" stroke-width="0.346875" stroke-linecap="round" stroke-linejoin="round"/>
<path d="M174.224 125.755C174.381 127.878 179.251 125.542 178.932 123.683C178.613 121.823 174.043 123.294 174.224 125.755Z" fill="#FEBD9D" stroke="#EF8A66" stroke-width="0.346875" stroke-linecap="round" stroke-linejoin="round"/>
<path d="M173.54 123.126C173.701 125.054 178.724 122.936 178.396 121.248C178.067 119.56 173.35 120.896 173.54 123.126Z" fill="#FEBD9D" stroke="#EF8A66" stroke-width="0.346875" stroke-linecap="round" stroke-linejoin="round"/>
<path d="M159.031 123.891C155.969 125.454 154.494 131.971 159.688 132.405C167.342 133.044 167.707 123.618 161.001 124.506" stroke="#DDDDDD" stroke-width="0.925" stroke-linecap="round" stroke-linejoin="round"/>
<path d="M140.752 74.4045C140.35 77.7484 135.878 79.7094 135.878 79.7094L123.469 90.5411C122.197 92.5715 118.733 93.5936 116.624 91.8963C115.389 90.9065 114.621 88.9871 115.037 85.7913C114.692 85.7914 114.354 85.6901 114.066 85.4999C112.637 84.6165 111.754 81.7999 113.9 78.456C113.747 78.604 110.889 81.3836 107.947 80.5419C107.441 80.4067 106.97 80.1658 106.564 79.8349C106.158 79.504 105.827 79.0908 105.593 78.6225C104.668 76.7309 104.992 73.5766 107.633 69.2523C109.511 66.1674 112.124 65.6124 114.362 66.1905C116.897 66.838 118.95 68.9193 118.95 70.4316C119.509 69.7454 120.158 69.1372 120.879 68.6233C121.869 67.9341 123.094 67.467 124.19 68.133C124.19 68.133 128.048 66.0564 130.24 67.356C132.969 68.9655 132.367 70.0848 135.022 70.2605C136.997 70.39 140.11 70.8895 140.678 73.128C140.787 73.5445 140.812 73.9783 140.752 74.4045Z" fill="#DD6819"/>
<path d="M118.95 70.4327L113.909 78.4479C113.549 78.7847 113.164 79.0939 112.757 79.3729C111.624 80.1591 109.811 81.0564 107.961 80.5291C107.455 80.394 106.984 80.153 106.578 79.8221C106.172 79.4912 105.841 79.078 105.607 78.6097C111.351 78.4895 113.372 76.8846 112.193 73.7257C111.097 70.7842 109.959 67.0889 114.376 66.1777C116.104 66.608 117.605 67.6752 118.58 69.1655C118.81 69.5492 118.937 69.9856 118.95 70.4327Z" fill="#CC5E0D"/>
<path d="M140.752 74.4075C140.35 77.7514 135.877 79.7124 135.877 79.7124L123.468 90.5442C122.197 92.5745 118.732 93.5966 116.623 91.8993C115.894 90.1503 115.715 88.2207 116.11 86.3674C116.505 84.514 117.455 82.8251 118.834 81.5254C121.378 79.2129 119.514 77.4878 119.759 74.4445C120.004 71.4013 125.573 66.7162 129.56 70.9203C132.686 74.2179 138.569 70.2312 140.701 73.131C140.802 73.5491 140.819 73.9828 140.752 74.4075Z" fill="#CC5E0D"/>
<path d="M133.144 96.5369C127.566 95.9634 121.905 90.1775 121.905 90.1775C119.778 92.601 115.583 88.9796 117.659 85.9641C119.019 83.98 121.147 85.1594 121.665 86.2416C122.528 85.6844 123.161 84.8344 123.447 83.8479C123.733 82.8614 123.654 81.8046 123.223 80.872C122.767 79.7269 122.569 78.4949 122.645 77.2645C124.532 74.397 129.536 73.7402 129.536 73.7402C130.276 74.5201 131.176 75.1306 132.174 75.5298C133.172 75.929 134.244 76.1074 135.318 76.0527C135.318 76.0527 137.034 79.4059 138.43 82.8145C138.458 82.8885 138.495 82.9717 138.523 83.0457C138.916 84.017 139.281 84.9882 139.568 85.8762C139.596 85.9641 139.619 86.0427 139.647 86.126C139.876 86.8273 140.046 87.5467 140.155 88.2766C140.604 91.9442 138.717 97.1335 133.144 96.5369Z" fill="#FEBD9D"/>
<path d="M135.461 81.2829C135.461 81.4018 135.496 81.5181 135.562 81.6169C135.628 81.7158 135.722 81.7929 135.832 81.8384C135.942 81.8839 136.063 81.8958 136.18 81.8726C136.296 81.8494 136.403 81.7921 136.487 81.708C136.572 81.624 136.629 81.5168 136.652 81.4002C136.675 81.2836 136.663 81.1627 136.618 81.0528C136.572 80.9429 136.495 80.849 136.396 80.783C136.297 80.7169 136.181 80.6816 136.062 80.6816C135.903 80.6829 135.751 80.7466 135.639 80.8591C135.526 80.9716 135.462 81.1238 135.461 81.2829Z" fill="#683F1D"/>
<path d="M132.367 82.4877C132.699 82.4877 132.968 82.2185 132.968 81.8864C132.968 81.5543 132.699 81.2852 132.367 81.2852C132.035 81.2852 131.766 81.5543 131.766 81.8864C131.766 82.2185 132.035 82.4877 132.367 82.4877Z" fill="#683F1D"/>
<path d="M131.659 85.957C132.864 86.5614 134.201 86.8555 135.549 86.8127C135.549 86.8127 135.29 89.065 133.357 88.4638C131.669 87.9412 131.659 85.957 131.659 85.957Z" fill="white" stroke="#EF8A66" stroke-width="0.346875" stroke-linecap="round" stroke-linejoin="round"/>
<path d="M129.754 80.1212C129.976 80.8612 132.756 80.1212 132.451 78.9187C132.146 77.7162 129.435 79.0945 129.754 80.1212Z" fill="#DD6819"/>
<path d="M134.476 78.63C134.435 79.4348 137.279 79.4903 137.279 78.7965C137.279 78.1675 134.55 77.3304 134.476 78.63Z" fill="#DD6819"/>
<path d="M115.037 85.7908C115.382 83.5146 116.483 81.4209 118.164 79.8477" stroke="#FF79A0" stroke-width="0.346875" stroke-linecap="round" stroke-linejoin="round"/>
<path d="M124.19 68.125C123.316 68.8234 122.007 71.0943 121.498 72.1164" stroke="#FF79A0" stroke-width="0.346875" stroke-linecap="round" stroke-linejoin="round"/>
<path d="M123.413 74.4075C124.445 71.6603 126.429 70.4208 127.358 71.4753C128.288 72.5298 129.537 73.7323 129.537 73.7323" stroke="#FF79A0" stroke-width="0.346875" stroke-linecap="round" stroke-linejoin="round"/>
<path d="M135.318 76.0761C136.474 76.0299 137.575 74.8505 137.908 74.166" stroke="#FF79A0" stroke-width="0.346875" stroke-linecap="round" stroke-linejoin="round"/>
<path d="M112.179 77.9539C107.915 78.6199 105.81 72.3068 109.275 67.3164" stroke="#FF79A0" stroke-width="0.346875" stroke-linecap="round" stroke-linejoin="round"/>
<path d="M116.452 72.1218C117.345 69.8093 114.366 66.0769 112.752 68.6392C110.902 71.5714 113.603 75.4611 116.452 75.1142" stroke="#FF79A0" stroke-width="0.346875" stroke-linecap="round" stroke-linejoin="round"/>
<path d="M113.909 78.4487C114.93 75.415 116.658 72.6676 118.95 70.4336C118.95 70.4336 117.655 73.0606 118.603 74.9291C116.957 75.9903 115.389 77.1665 113.909 78.4487Z" fill="#FED81D"/>
<path d="M118.164 87.9404C119.024 86.4188 120.518 86.502 121.304 87.7831" stroke="#EF8A66" stroke-width="0.346875" stroke-linecap="round" stroke-linejoin="round"/>
<path d="M120.989 87.3783C119.218 86.9158 119.213 89.293 121.096 88.9554" stroke="#EF8A66" stroke-width="0.346875" stroke-linecap="round" stroke-linejoin="round"/>
<path d="M133.856 80.8477C133.829 82.2352 134.939 83.0307 135.669 83.4145C136.4 83.7984 136.16 84.802 136.109 84.95" stroke="#EF8A66" stroke-width="0.346875" stroke-linecap="round" stroke-linejoin="round"/>
<path d="M121.91 90.1952C122.194 89.8287 122.43 89.4278 122.613 89.002" stroke="#EF8A66" stroke-width="0.346875" stroke-linecap="round" stroke-linejoin="round"/>
<path d="M129.92 85.5034C129.458 86.3822 128.038 86.5441 126.683 85.8734C125.328 85.2028 124.62 83.9402 125.064 83.0614C125.508 82.1827 126.946 82.0208 128.302 82.6961C129.657 83.3713 130.364 84.6432 129.92 85.5034Z" fill="#F4AF90"/>
<path d="M139.647 86.1435C139.357 86.2777 139.034 86.3267 138.718 86.285C138.401 86.2432 138.102 86.1124 137.857 85.9077C137.186 85.237 137.441 83.8773 138.43 82.832C138.458 82.906 138.495 82.9893 138.523 83.0633C138.916 84.0345 139.281 85.0058 139.568 85.8938C139.596 85.9817 139.619 86.0603 139.647 86.1435Z" fill="#F4AF90"/>
<path d="M304.367 64.0258V133.068H205.938V64.0258C205.938 62.1785 206.671 60.4069 207.978 59.1006C209.284 57.7944 211.056 57.0605 212.903 57.0605H297.429C299.272 57.0667 301.037 57.8034 302.338 59.1091C303.638 60.4148 304.368 62.1829 304.367 64.0258Z" stroke="#EDEDED" stroke-width="0.925" stroke-linecap="round" stroke-linejoin="round"/>
<path d="M304.367 64.0258V64.3357H205.938V64.0258C205.938 62.1785 206.671 60.4069 207.978 59.1006C209.284 57.7944 211.056 57.0605 212.903 57.0605H297.429C299.272 57.0667 301.037 57.8034 302.338 59.1091C303.638 60.4148 304.368 62.1829 304.367 64.0258Z" stroke="#DDDDDD" stroke-width="0.925" stroke-linecap="round" stroke-linejoin="round"/>
<path d="M291.061 60.6989C291.061 60.9497 290.986 61.1949 290.847 61.4034C290.707 61.6119 290.509 61.7743 290.277 61.8701C290.046 61.9659 289.791 61.9907 289.545 61.9415C289.299 61.8922 289.073 61.771 288.896 61.5933C288.719 61.4156 288.598 61.1894 288.55 60.9433C288.502 60.6972 288.527 60.4422 288.624 60.2107C288.721 59.9793 288.884 59.7817 289.093 59.643C289.302 59.5043 289.547 59.4307 289.798 59.4316C289.964 59.4316 290.129 59.4645 290.282 59.5282C290.436 59.5919 290.575 59.6854 290.693 59.8031C290.81 59.9208 290.903 60.0606 290.966 60.2143C291.029 60.368 291.061 60.5327 291.061 60.6989Z" fill="#EDEDED"/>
<path d="M295.195 60.6989C295.195 60.9495 295.121 61.1945 294.982 61.4029C294.842 61.6113 294.645 61.7738 294.413 61.8697C294.181 61.9656 293.927 61.9907 293.681 61.9418C293.435 61.8929 293.209 61.7722 293.032 61.595C292.855 61.4177 292.734 61.1919 292.685 60.9461C292.636 60.7003 292.661 60.4455 292.757 60.2139C292.853 59.9824 293.016 59.7845 293.224 59.6452C293.432 59.506 293.677 59.4316 293.928 59.4316C294.264 59.4316 294.586 59.5652 294.824 59.8028C295.062 60.0405 295.195 60.3628 295.195 60.6989Z" fill="#DDDDDD"/>
<path d="M299.326 60.6989C299.326 60.9495 299.252 61.1945 299.112 61.4029C298.973 61.6113 298.775 61.7738 298.544 61.8697C298.312 61.9656 298.057 61.9907 297.811 61.9418C297.566 61.8929 297.34 61.7722 297.163 61.595C296.985 61.4177 296.865 61.1919 296.816 60.9461C296.767 60.7003 296.792 60.4455 296.888 60.2139C296.984 59.9824 297.146 59.7845 297.355 59.6452C297.563 59.506 297.808 59.4316 298.059 59.4316C298.395 59.4316 298.717 59.5652 298.955 59.8028C299.192 60.0405 299.326 60.3628 299.326 60.6989Z" fill="#EDEDED"/>
<path d="M208.038 94.0396C207.783 91.1536 220.525 85.6822 222.63 89.9049L218.467 94.0396C218.467 94.0396 209.869 97.4482 208.038 94.0396Z" fill="#824CF6"/>
<path d="M214.272 73.402C212.422 67.6485 212.283 66.927 213.523 66.4969C214.762 66.0667 217.902 72.6019 218.259 73.402C219.503 75.9204 220.461 78.57 221.117 81.3015C221.667 83.8545 222.389 89.7329 222.504 91.1481C222.995 97.1236 213.143 98.9413 212.713 94.2931C212.283 89.645 212.251 88.1419 212.251 88.1419C212.251 88.1419 207.163 88.6044 206.451 84.8211C205.739 81.0379 205.938 75.8486 205.938 75.8486C205.938 75.8486 198.205 74.5675 198.473 72.5279C198.741 70.4883 213.874 74.6091 213.874 74.6091L214.272 73.402Z" fill="#B25E47"/>
<path d="M205.938 75.8465C205.938 75.8465 198.205 74.5653 198.473 72.5257C198.741 70.4861 213.874 74.607 213.874 74.607L214.272 73.4137C212.422 67.6602 212.283 66.9387 213.523 66.5086C214.762 66.0785 217.902 72.6136 218.259 73.4137" stroke="#934735" stroke-width="0.346875" stroke-linecap="round" stroke-linejoin="round"/>
<path d="M213.874 74.5938C213.21 77.1434 213.316 79.8328 214.179 82.3221" stroke="#934735" stroke-width="0.346875" stroke-linecap="round" stroke-linejoin="round"/>
<path d="M210.253 70.1812C211.465 70.8102 212.422 70.9444 212.783 69.2146C213.144 67.4849 211.437 67.4432 210.887 67.5357C210.04 67.6745 209.73 69.9084 210.253 70.1812Z" fill="#683F1D"/>
<path d="M210.479 69.7383C210.289 70.4127 210.135 71.0966 210.016 71.7872C210.215 71.8889 211.404 72.2913 211.561 71.8889C211.743 71.1826 211.871 70.4637 211.945 69.7383H210.479Z" fill="#683F1D"/>
<path d="M209.397 72.3625C208.764 75.1977 205.489 90.7377 205.378 91.2464C205.267 91.7552 205.415 94.1047 205.614 94.1925C205.813 94.2804 206.955 92.6015 207.371 91.7505C207.788 90.8995 211.469 73.8472 211.696 73.0517C212.26 71.1138 209.813 70.5079 209.397 72.3625Z" fill="#683F1D"/>
<path d="M206.516 81.1818C204.929 81.5472 204.481 83.0596 205.651 84.0632C206.909 85.1455 210.008 84.6645 210.151 83.2816C210.294 81.8987 207.839 80.8812 206.516 81.1818Z" fill="#B25E47" stroke="#934735" stroke-width="0.346875" stroke-linecap="round" stroke-linejoin="round"/>
<path d="M206.372 78.7016C204.744 78.4611 204.347 80.0891 205.507 81.3378C206.668 82.5866 210.502 82.8687 210.72 81.3841C210.937 79.8995 207.371 78.8496 206.372 78.7016Z" fill="#B25E47" stroke="#934735" stroke-width="0.346875" stroke-linecap="round" stroke-linejoin="round"/>
<path d="M204.929 75.9214C206.974 75.4589 211.404 78.442 211.224 79.3717C211.007 80.5418 208.912 80.7175 205.961 79.4642C203.19 78.2894 203.93 76.1573 204.929 75.9214Z" fill="#B25E47" stroke="#934735" stroke-width="0.346875" stroke-linecap="round" stroke-linejoin="round"/>
<mask id="mask1_7350_17456" style="mask-type:luminance" maskUnits="userSpaceOnUse" x="205" y="57" width="100" height="77">
<path d="M304.367 64.0317V133.074H205.938V64.0317C205.938 62.1844 206.671 60.4127 207.978 59.1065C209.284 57.8002 211.056 57.0664 212.903 57.0664H297.429C299.272 57.0725 301.037 57.8092 302.338 59.1149C303.638 60.4206 304.368 62.1888 304.367 64.0317Z" fill="white"/>
</mask>
<g mask="url(#mask1_7350_17456)">
<path d="M303.336 98.4662C296.99 98.1564 291.736 103.877 290.108 110.454C290.062 110.639 290.02 110.838 289.983 111.055C289.81 112.068 289.688 113.088 289.618 114.113C288.943 122.794 289.581 140.059 289.646 140.475C289.669 140.618 285.155 140.475 278.893 140.179C276.58 140.073 274.046 139.957 271.4 139.823C257.951 139.162 241.976 138.269 241.976 138.269L241.005 127.465C241.005 127.465 238.993 130.869 232.111 137.515C225.229 144.161 214.226 140.457 215.41 132.099C216.15 126.85 219.249 123.011 223.004 116.582C224.165 114.594 225.391 112.36 226.621 109.756C228.267 106.296 229.858 102.994 231.394 100.011C232.065 98.6975 232.726 97.4441 233.369 96.2694C235.783 91.8155 237.948 88.4439 239.691 86.8667C244.931 82.1215 256.161 84.8549 259.153 85.8169C263.611 87.2679 268.237 88.1399 272.917 88.4115C279.554 88.874 289.632 91.7369 294.969 93.5961C298.048 94.6296 300.881 96.2841 303.294 98.457L303.336 98.4662Z" fill="#9065F2"/>
<path d="M307.804 108.314C301.995 102.486 293.175 99.9426 284.322 107.851C274.027 117.023 266.128 118.618 254.547 105.224C246.171 95.5119 243.266 93.0653 233.369 96.2889C235.783 91.835 237.948 88.4634 239.691 86.8863C244.931 82.141 256.161 84.8744 259.153 85.8364C263.612 87.2811 268.238 88.1469 272.917 88.4125C279.554 88.875 289.632 91.7379 294.969 93.5971C298.048 94.6307 300.881 96.2851 303.294 98.458C305.616 100.29 306.971 103.953 307.804 108.314Z" fill="#C5AFF9"/>
<path d="M231.227 124.982C227.527 128.997 224.202 120.292 223.004 116.583C224.165 114.594 225.39 112.36 226.621 109.757C228.267 106.297 229.858 102.995 231.394 100.012C234.122 104.174 230.436 108.004 230.177 109.891C229.502 114.937 236.532 119.219 231.227 124.982Z" fill="#824CF6"/>
<path d="M208.037 94.0508C213.754 95.2579 222.629 89.916 222.629 89.916C222.629 89.916 227.518 111.751 228.794 116.593C230.071 121.435 238.239 140.403 222.319 141.18C212.103 141.679 211.418 122.259 210.812 115.867C210.206 109.475 208.037 94.0508 208.037 94.0508Z" fill="#9065F2"/>
<path d="M211.825 96.5427C216.224 96.8526 221.122 93.8926 221.122 93.8926" stroke="#7444DC" stroke-width="0.346875" stroke-linecap="round" stroke-linejoin="round"/>
<path d="M222.629 89.916C222.629 89.916 227.518 111.751 228.794 116.593C229.493 119.234 232.24 126.079 232.009 131.883" stroke="#7444DC" stroke-width="0.346875" stroke-linecap="round" stroke-linejoin="round"/>
<path d="M254.547 89.3516C257.396 94.638 264.953 99.7209 274.073 92.7048C274.073 92.7048 275.054 89.791 274.952 89.791C274.85 89.791 255.837 87.4785 255.837 87.4785L254.547 89.3516Z" fill="white"/>
<path d="M262.053 82.823C259.703 82.2911 256.299 82.8877 253.95 86.4952C251.6 90.1027 251.3 93.0766 251.434 93.0442C251.568 93.0118 255.134 90.7595 256.729 90.926C258.325 91.0925 261.9 92.147 261.9 92.147L262.053 82.823Z" fill="#FED81D"/>
<path d="M272.64 83.8809C272.64 83.8809 277.833 83.9132 278.527 87.5531C279.221 91.193 277.306 95.559 274.957 97.5755C272.607 99.592 273.898 94.6617 265.462 92.3492L272.64 83.8809Z" fill="#FED81D"/>
<path d="M275.174 88.138C275.174 88.138 272.288 92.5225 265.859 92.6196C259.431 92.7167 258.196 88.8872 258.196 88.8872C258.894 87.1482 259.731 83.439 260.268 80.8397C260.61 79.1979 260.832 77.9954 260.832 77.9954C260.832 77.9954 261.896 67.7001 272.931 68.3199L273.121 70.008L275.174 88.138Z" fill="#B25E47"/>
<path d="M260.267 80.9409C260.61 79.3036 260.832 78.0965 260.832 78.0965L267.112 75.1504C267.112 75.1504 268.107 82.3284 260.267 80.9409Z" fill="#914839"/>
<path d="M241.005 127.463C240.117 117.325 240.117 109.115 240.117 109.115" stroke="#7444DC" stroke-width="0.346875" stroke-linecap="round" stroke-linejoin="round"/>
</g>
<path d="M282.939 152.116C282.4 151.919 281.886 151.66 281.408 151.343C278.171 149.22 277.916 145.086 278.892 140.155C279.651 136.381 281.14 132.145 282.592 127.992C284.253 123.256 285.876 118.635 286.334 114.935C286.399 114.417 286.436 113.922 286.454 113.451C286.543 110.614 287.062 107.807 287.994 105.126C290.649 97.661 296.435 92.9619 303.317 98.4611C305.597 100.283 306.952 103.946 307.785 108.308C308.081 109.866 308.312 111.517 308.502 113.201C309.131 118.917 309.223 125.064 309.505 129.643C310.897 151.81 305.583 160.663 282.939 152.116Z" fill="#9065F2"/>
<path d="M307.803 108.307C302.804 103.294 295.565 100.708 288.004 105.116C290.658 97.6512 296.444 92.9522 303.326 98.4513C305.616 100.283 306.971 103.946 307.803 108.307Z" fill="#C5AFF9"/>
<path d="M289.645 140.454C289.668 140.598 285.154 140.454 278.892 140.158C276.58 140.052 274.045 139.936 271.4 139.802C266.876 137.767 264.064 134.821 266.474 130.599C273.032 119.124 285.08 135.02 285.709 123.661C286.135 115.873 288.022 114.18 289.618 114.129C288.942 122.792 289.567 140.057 289.645 140.454Z" fill="#824CF6"/>
<path d="M291.185 107.062C290.287 109.311 289.757 111.689 289.617 114.106C289.016 122.792 289.58 140.053 289.645 140.469" stroke="#7444DC" stroke-width="0.346875" stroke-linecap="round" stroke-linejoin="round"/>
<path d="M282.939 152.118C282.4 151.921 281.887 151.662 281.408 151.345C286.598 152.46 294.358 153.464 297.776 150.545C303.164 145.957 299.742 140.074 302.72 136.837C305.699 133.599 309.996 132.554 308.52 113.217C309.149 118.933 309.242 125.08 309.524 129.659C310.897 151.812 305.583 160.665 282.939 152.118Z" fill="#824CF6"/>
<path d="M269.961 113.202C270.784 109.502 266.132 109.664 266.132 109.664C266.543 106.25 262.02 105.302 260.975 108.637C257.298 107.527 256.137 108.637 255.6 110.57L269.961 113.202Z" fill="#DDDDDD"/>
<path d="M263.69 110.02C264.295 110.02 264.786 109.53 264.786 108.924C264.786 108.319 264.295 107.828 263.69 107.828C263.084 107.828 262.593 108.319 262.593 108.924C262.593 109.53 263.084 110.02 263.69 110.02Z" fill="#F9F9F9" stroke="#DDDDDD" stroke-width="0.4625" stroke-linecap="round" stroke-linejoin="round"/>
<path d="M248.616 107.822L241.753 145.04L269.003 150.543L276.325 113.275L248.616 107.822Z" fill="#F9F9F9" stroke="#DDDDDD" stroke-width="0.4625" stroke-linecap="round" stroke-linejoin="round"/>
<path d="M257.011 132.484C255.623 136.106 255.54 139.912 256.178 141.184C256.178 141.184 258.778 141.67 261.377 134.616L257.011 132.484Z" fill="#824CF6"/>
<path d="M260.54 125.485C254.305 123.343 251.327 122.048 250.203 121.743C249.079 121.438 245.018 121.096 244.371 121.743C243.723 122.391 243.677 123.214 243.908 124.056C244.139 124.897 243.446 125.55 243.348 126.419C243.251 127.289 244.297 127.552 244.084 128.417C243.871 129.282 243.159 130.23 243.649 131.192C244.139 132.154 243.187 133.135 244.084 134.3C244.981 135.466 254.176 136.03 256.192 135.6L260.151 137.371C260.151 137.371 267.116 130.216 260.54 125.485Z" fill="#B25E47"/>
<path d="M250.203 121.742C249.079 121.441 245.018 121.094 244.371 121.742C243.723 122.389 243.677 123.212 243.908 124.054C244.139 124.896 243.446 125.548 243.348 126.418C243.251 127.287 244.297 127.551 244.084 128.416C243.871 129.28 243.159 130.229 243.649 131.191C244.139 132.153 243.187 133.133 244.084 134.299" stroke="#934735" stroke-width="0.346875" stroke-linecap="round" stroke-linejoin="round"/>
<path d="M297.78 150.539C296.157 153.472 292.096 154.882 284.368 152.556C282.286 151.927 280.279 151.275 278.355 150.613C275.173 149.522 272.236 148.407 269.605 147.339C265.019 145.516 260.53 143.46 256.155 141.178C257.318 139.897 258.256 138.429 258.93 136.836C259.351 135.893 259.697 134.919 259.966 133.922C260.685 131.167 260.878 128.302 260.535 125.477C261.585 125.791 262.713 126.115 263.902 126.439C266.774 127.225 269.993 128.039 273.254 128.894C283.026 131.471 293.192 134.421 295.667 138.089C295.893 138.427 296.129 138.764 296.314 139.116C296.393 139.254 296.476 139.393 296.55 139.537C296.573 139.572 296.593 139.609 296.61 139.648C296.703 139.814 296.79 139.985 296.874 140.152C297.031 140.452 297.17 140.753 297.304 141.054C298.761 144.393 299.172 148.028 297.78 150.539Z" fill="#9065F2"/>
<path d="M260.54 125.48C271.732 128.852 292.027 132.695 295.69 138.093C296.325 139.029 296.873 140.021 297.327 141.057" stroke="#7444DC" stroke-width="0.346875" stroke-linecap="round" stroke-linejoin="round"/>
<path d="M263.902 126.438C264.596 133.454 260.974 140.188 260.974 140.188" stroke="#7444DC" stroke-width="0.346875" stroke-linecap="round" stroke-linejoin="round"/>
<path d="M297.775 150.545C296.152 153.477 292.091 154.888 284.363 152.561C282.282 151.932 280.274 151.28 278.35 150.619C282.888 151.812 293.576 154.12 297.775 150.545Z" fill="#824CF6"/>
<path d="M272.917 68.4028L273.106 70.0863C269.198 76.182 263.856 78.1014 260.818 78.0737C255.795 76.8203 254.079 72.297 253.788 67.4362C253.716 66.2841 253.716 65.1287 253.788 63.9767C254.012 60.6842 254.567 57.4226 255.444 54.241C255.444 54.241 270.53 47.2203 271.576 61.3127C271.576 61.3127 274.813 60.7207 275.41 64.3189C275.918 67.3067 272.917 68.4028 272.917 68.4028Z" fill="#B25E47"/>
<path d="M256.211 63.9955C256.543 63.9955 256.812 63.7263 256.812 63.3942C256.812 63.0622 256.543 62.793 256.211 62.793C255.879 62.793 255.61 63.0622 255.61 63.3942C255.61 63.7263 255.879 63.9955 256.211 63.9955Z" fill="#683F1D"/>
<path d="M260.411 63.2259C260.743 63.2259 261.012 62.9568 261.012 62.6247C261.012 62.2926 260.743 62.0234 260.411 62.0234C260.079 62.0234 259.809 62.2926 259.809 62.6247C259.809 62.9568 260.079 63.2259 260.411 63.2259Z" fill="#683F1D"/>
<path d="M259.504 59.3828C259.569 60.206 262.381 60.5252 262.543 60.058C262.769 59.355 259.342 57.4542 259.504 59.3828Z" fill="#604730"/>
<path d="M254.134 60.6109C254.134 61.0734 257.192 61.2631 257.081 59.6859C257.007 58.5436 254.199 59.3714 254.134 60.6109Z" fill="#604730"/>
<path d="M270.794 65.7769C272.052 63.9269 274.031 64.1212 274.249 64.4727" stroke="#934735" stroke-width="0.346875" stroke-linecap="round" stroke-linejoin="round"/>
<path d="M271.33 65.1457C273.18 64.0542 274.198 66.5008 271.848 66.5008" stroke="#934735" stroke-width="0.346875" stroke-linecap="round" stroke-linejoin="round"/>
<path d="M257.834 61.6445C258.343 62.6297 258.297 63.2263 257.964 63.8599C257.631 64.4935 256.609 65.9365 257.141 67.2177" stroke="#934735" stroke-width="0.346875" stroke-linecap="round" stroke-linejoin="round"/>
<path d="M261.128 67.4355C260.665 68.9664 258.843 69.9238 257.997 69.748C257.997 69.748 258.871 72.1207 260.411 71.5148C262.182 70.7979 261.128 67.4355 261.128 67.4355Z" fill="white" stroke="#934735" stroke-width="0.346875" stroke-linecap="round" stroke-linejoin="round"/>
<path d="M270.516 67.957C270.863 68.2012 271.257 68.3688 271.673 68.4485C272.09 68.5283 272.518 68.5184 272.93 68.4195" stroke="#934735" stroke-width="0.346875" stroke-linecap="round" stroke-linejoin="round"/>
<path d="M276.002 59.8731C277.731 62.2503 275.128 63.2817 275.128 63.2817C274.865 62.8925 274.517 62.5682 274.11 62.3336C273.854 62.1828 273.569 62.0904 273.273 62.0629C272.978 62.0355 272.68 62.0738 272.401 62.175C272.122 62.2763 271.869 62.4379 271.66 62.6484C271.451 62.859 271.291 63.1131 271.192 63.3927C267.644 63.4667 269.175 60.6963 269.175 60.6963C265.993 61.9682 265.891 58.7076 267.26 57.2368C264.777 60.0118 261.623 57.2368 262.136 54.7255C261.257 57.4681 258.126 57.5745 258.542 55.299C258.274 55.7665 257.947 56.1984 257.571 56.5847C255.42 58.7492 253.487 56.4367 254.301 54.7347C251.064 57.815 249.676 54.3693 252.752 52.5193C250.314 50.5213 253.214 47.6723 255.161 49.1523C254.699 45.605 258.362 45.4523 259.967 47.5197C260.596 43.6255 265.461 45.753 265.656 47.5983C269.24 45.0916 272.015 46.937 271.668 51.0116C273.116 49.0737 276.219 50.2115 275.026 55.1741C278.004 54.9613 278.508 58.6567 276.002 59.8731Z" fill="#604730"/>
<path d="M274.11 62.3365C273.854 62.1857 273.568 62.0932 273.273 62.0658C272.978 62.0384 272.68 62.0767 272.401 62.1779C272.122 62.2791 271.869 62.4408 271.66 62.6513C271.451 62.8618 271.291 63.116 271.191 63.3956C267.644 63.4696 269.175 60.6992 269.175 60.6992C265.993 61.9711 265.891 58.7105 267.26 57.2397C264.776 60.0147 261.622 57.2397 262.136 54.7284C261.257 57.471 258.126 57.5774 258.542 55.3019C258.273 55.7694 257.947 56.2013 257.571 56.5876C256.701 53.956 258.648 50.4826 261.622 52.0551C262.015 49.9369 266.876 48.5632 266.848 53.9051C268.648 51.3937 272.722 52.254 270.794 57.0455C272.311 55.9124 275.798 57.8734 274.11 62.3365Z" fill="#473526"/>
<path d="M267.575 63.2632C268.005 64.1235 267.196 65.3953 265.771 66.1122C264.347 66.8291 262.839 66.7088 262.409 65.8486C261.979 64.9884 262.784 63.7165 264.213 62.9996C265.642 62.2827 267.145 62.403 267.575 63.2632Z" fill="#A0503D"/>
<path d="M255.674 66.5325C255.452 67.1384 254.708 67.4575 253.792 67.4575C253.72 66.3055 253.72 65.1501 253.792 63.998C255.152 64.5762 255.989 65.6723 255.674 66.5325Z" fill="#A0503D"/>
<path d="M268.569 163.133V232.175H170.121V163.133C170.118 162.218 170.296 161.311 170.645 160.465C170.994 159.619 171.506 158.851 172.153 158.204C172.8 157.557 173.569 157.044 174.415 156.696C175.261 156.347 176.167 156.169 177.082 156.172H261.609C262.524 156.169 263.43 156.347 264.276 156.696C265.122 157.044 265.89 157.557 266.537 158.204C267.184 158.851 267.697 159.619 268.046 160.465C268.394 161.311 268.572 162.218 268.569 163.133Z" stroke="#EDEDED" stroke-width="0.925" stroke-linecap="round" stroke-linejoin="round"/>
<path d="M268.569 163.133V163.447H170.121V163.133C170.118 162.218 170.296 161.311 170.645 160.465C170.994 159.619 171.506 158.851 172.153 158.204C172.8 157.557 173.569 157.044 174.415 156.696C175.261 156.347 176.167 156.169 177.082 156.172H261.609C262.524 156.169 263.43 156.347 264.276 156.696C265.122 157.044 265.89 157.557 266.537 158.204C267.184 158.851 267.697 159.619 268.046 160.465C268.394 161.311 268.572 162.218 268.569 163.133Z" stroke="#DDDDDD" stroke-width="0.925" stroke-linecap="round" stroke-linejoin="round"/>
<path d="M255.245 159.806C255.245 160.057 255.17 160.302 255.031 160.51C254.892 160.719 254.694 160.881 254.462 160.977C254.231 161.073 253.976 161.098 253.73 161.049C253.484 161 253.258 160.88 253.081 160.702C252.904 160.525 252.783 160.299 252.734 160.054C252.686 159.808 252.711 159.553 252.807 159.321C252.902 159.09 253.065 158.892 253.273 158.753C253.482 158.613 253.727 158.539 253.977 158.539C254.313 158.539 254.636 158.673 254.873 158.91C255.111 159.148 255.245 159.47 255.245 159.806Z" fill="#EDEDED"/>
<path d="M258.108 161.074C258.807 161.074 259.375 160.506 259.375 159.806C259.375 159.106 258.807 158.539 258.108 158.539C257.408 158.539 256.84 159.106 256.84 159.806C256.84 160.506 257.408 161.074 258.108 161.074Z" fill="#DDDDDD"/>
<path d="M262.242 161.074C262.942 161.074 263.51 160.506 263.51 159.806C263.51 159.106 262.942 158.539 262.242 158.539C261.543 158.539 260.975 159.106 260.975 159.806C260.975 160.506 261.543 161.074 262.242 161.074Z" fill="#EDEDED"/>
<path d="M175.926 196.491C173.114 188.166 172.453 183.671 173.22 183.028C173.683 182.621 174.455 182.32 174.515 181.497C174.575 180.674 173.632 177.908 176.925 177.261C176.925 177.261 178.039 170.735 179.099 167.678C179.099 167.678 184.982 191.094 185.393 192.852C185.805 194.609 177.836 202.171 175.926 196.491Z" fill="#FEBD9D"/>
<path d="M176.925 177.262C176.709 178.309 176.555 179.369 176.462 180.434" stroke="#EF8A66" stroke-width="0.346875" stroke-linecap="round" stroke-linejoin="round"/>
<path d="M173.017 185.489C172.846 184.101 172.929 183.278 173.225 183.028C173.687 182.621 174.46 182.32 174.52 181.497C174.58 180.674 173.637 177.908 176.93 177.261C176.93 177.261 178.044 170.735 179.103 167.678" stroke="#EF8A66" stroke-width="0.346875" stroke-linecap="round" stroke-linejoin="round"/>
<path d="M204.529 153.672L178.756 160.941C177.251 161.365 176.376 162.929 176.8 164.433L181.803 182.172C182.227 183.676 183.791 184.552 185.295 184.128L211.069 176.859C212.573 176.435 213.449 174.871 213.024 173.366L208.022 155.628C207.597 154.123 206.034 153.248 204.529 153.672Z" fill="#F9F9F9" stroke="#DDDDDD" stroke-width="0.4625" stroke-linecap="round" stroke-linejoin="round"/>
<path d="M203.255 156.261L181.203 162.48C180.208 162.761 179.628 163.795 179.909 164.791L184.266 180.242C184.547 181.237 185.582 181.817 186.578 181.536L208.63 175.317C209.625 175.036 210.205 174.001 209.924 173.006L205.566 157.555C205.286 156.559 204.251 155.98 203.255 156.261Z" stroke="#EDEDED" stroke-width="0.4625" stroke-linecap="round" stroke-linejoin="round"/>
<path d="M196.864 171.211C196.871 171.342 196.871 171.473 196.864 171.604C196.792 172.599 196.444 173.554 195.86 174.363C195.276 175.172 194.478 175.801 193.555 176.182C192.633 176.562 191.623 176.678 190.639 176.517C189.654 176.355 188.734 175.923 187.982 175.267C187.229 174.612 186.674 173.761 186.379 172.808C186.084 171.855 186.06 170.838 186.309 169.873C186.559 168.907 187.073 168.03 187.794 167.34C188.514 166.65 189.413 166.174 190.389 165.966C190.753 165.883 191.125 165.843 191.499 165.846C192.204 165.845 192.902 165.984 193.554 166.253C194.206 166.522 194.798 166.917 195.297 167.415C195.796 167.913 196.192 168.505 196.462 169.156C196.733 169.808 196.872 170.506 196.873 171.211H196.864Z" stroke="#EDEDED" stroke-width="0.4625" stroke-linecap="round" stroke-linejoin="round"/>
<path d="M196.845 171.589C196.781 172.48 196.495 173.34 196.015 174.092C195.535 174.844 194.874 175.465 194.094 175.898C193.314 176.331 192.437 176.562 191.545 176.572C190.652 176.581 189.772 176.367 188.982 175.951C190.023 173.846 191.475 170.863 191.475 170.863L196.845 171.589Z" stroke="#EDEDED" stroke-width="0.4625" stroke-linecap="round" stroke-linejoin="round"/>
<path d="M196.863 171.21C196.87 171.341 196.87 171.472 196.863 171.603L191.508 170.891L195.559 167.686C196.407 168.663 196.87 169.916 196.863 171.21Z" stroke="#EDEDED" stroke-width="0.4625" stroke-linecap="round" stroke-linejoin="round"/>
<path d="M195.54 167.687L191.489 170.892C191.489 170.892 190.795 167.918 190.379 165.966C190.743 165.883 191.116 165.843 191.489 165.846C192.257 165.845 193.016 166.009 193.715 166.326C194.414 166.644 195.036 167.108 195.54 167.687Z" fill="#DDDDDD" stroke="#DDDDDD" stroke-width="0.4625" stroke-linecap="round" stroke-linejoin="round"/>
<path d="M202.963 169.241C203.976 168.885 203.042 168.367 203.713 168.081C204.693 167.664 205.012 161.606 200.656 162.85C197.353 163.775 199.758 169.163 201.377 168.668C201.816 168.534 201.803 169.653 202.963 169.241Z" fill="#F9F9F9" stroke="#DDDDDD" stroke-width="0.4625" stroke-linecap="round" stroke-linejoin="round"/>
<path d="M201.775 164.801C201.345 165.573 201.687 166.114 202.39 166.373C203.57 166.813 201.817 168.196 201.433 167.437C201.012 166.605 203.315 167.16 202.82 169.028" stroke="#DDDDDD" stroke-width="0.4625" stroke-linecap="round" stroke-linejoin="round"/>
<path d="M202.445 170.481C202.741 171.189 203.107 171.314 203.666 171.152C204.226 170.99 204.249 170.601 204.101 170.037L202.445 170.481Z" fill="#F9F9F9" stroke="#EDEDED" stroke-width="0.4625" stroke-linecap="round" stroke-linejoin="round"/>
<path d="M201.969 170.032C202.237 169.569 203.819 169.287 204.041 169.338C204.263 169.389 204.462 170.032 204.171 170.198C203.56 170.471 202.908 170.641 202.242 170.702C202.175 170.683 202.114 170.648 202.062 170.602C202.01 170.555 201.97 170.497 201.944 170.433C201.918 170.368 201.906 170.299 201.911 170.229C201.915 170.16 201.935 170.092 201.969 170.032Z" fill="#F9F9F9" stroke="#EDEDED" stroke-width="0.4625" stroke-linecap="round" stroke-linejoin="round"/>
<path d="M201.664 169.171C201.951 168.709 203.653 168.422 203.87 168.478C204.157 168.547 204.333 169.171 204.013 169.333C203.358 169.607 202.663 169.777 201.955 169.837C201.888 169.82 201.825 169.787 201.772 169.742C201.718 169.696 201.676 169.639 201.648 169.575C201.62 169.511 201.607 169.441 201.61 169.371C201.612 169.301 201.631 169.233 201.664 169.171Z" fill="#F9F9F9" stroke="#EDEDED" stroke-width="0.4625" stroke-linecap="round" stroke-linejoin="round"/>
<path d="M196.239 164.391L197.645 164.483" stroke="#EDEDED" stroke-width="0.4625" stroke-linecap="round" stroke-linejoin="round"/>
<path d="M199.004 160.111L199.62 161.466" stroke="#EDEDED" stroke-width="0.4625" stroke-linecap="round" stroke-linejoin="round"/>
<path d="M203.81 160.469L203.315 161.468" stroke="#EDEDED" stroke-width="0.4625" stroke-linecap="round" stroke-linejoin="round"/>
<path d="M180.148 180.892C178.192 184.393 179.741 188.588 182.105 189.73C184.468 190.872 185.444 183.62 185.726 181.789C186.008 179.957 186.013 177.187 186.216 175.8C186.42 174.412 185.115 173.316 184.26 175.434C183.404 177.552 182.997 178.847 182.997 178.847L180.148 180.892Z" fill="#FEBD9D"/>
<path d="M185.726 181.789C186.013 179.939 186.013 177.187 186.217 175.8C186.42 174.412 185.116 173.316 184.26 175.434C183.405 177.552 182.998 178.847 182.998 178.847L180.149 180.892" stroke="#EF8A66" stroke-width="0.346875" stroke-linecap="round" stroke-linejoin="round"/>
<mask id="mask2_7350_17456" style="mask-type:luminance" maskUnits="userSpaceOnUse" x="170" y="156" width="99" height="77">
<path d="M268.569 163.136V232.178H170.121V163.136C170.118 162.222 170.296 161.315 170.644 160.469C170.993 159.623 171.506 158.855 172.153 158.208C172.8 157.561 173.568 157.048 174.414 156.699C175.26 156.351 176.166 156.173 177.081 156.176H261.608C262.523 156.173 263.429 156.351 264.275 156.699C265.121 157.048 265.89 157.561 266.537 158.208C267.184 158.855 267.696 159.623 268.045 160.469C268.394 161.315 268.572 162.222 268.569 163.136Z" fill="white"/>
</mask>
<g mask="url(#mask2_7350_17456)">
<path d="M243.316 167.268L241.744 187.155L224.52 188.778C225.996 184.093 227.184 179.322 228.077 174.492C228.465 172.406 228.817 170.191 229.085 167.929L235.431 167.638L243.316 167.268Z" fill="#FEBD9D"/>
<path d="M236.841 169.511C236.138 172.24 232.286 174.173 228.105 174.483C228.493 172.397 228.845 170.182 229.113 167.92L235.458 167.629C236.453 168.068 237.035 168.679 236.841 169.511Z" fill="#F4A789"/>
<path d="M270.067 188.769V235.043H266.478C266.478 235.043 264.36 226.648 255.239 209.055C255.239 209.055 255.064 209.836 254.707 211.192C254.217 213.069 253.38 216.038 252.191 219.567C250.187 225.636 247.607 231.5 244.486 237.078C237.906 239.897 230.965 241.786 223.863 242.692C223.669 242.692 223.47 242.743 223.271 242.762C216.195 243.636 207.981 243.641 199.647 241.495C194.471 240.184 189.532 238.072 185.009 235.237C185.258 234.83 196.511 212.801 200.017 205.716C200.29 205.165 200.563 204.629 200.84 204.097C204.133 197.802 208.083 192.909 218.748 188.769C221.222 187.817 223.396 186.97 225.302 186.23C232.327 183.506 235.828 182.16 237.974 181.522C239.491 181.072 240.933 180.651 242.299 180.26C255.443 176.486 261.964 175.602 267.491 184.034C268.462 185.549 269.323 187.131 270.067 188.769Z" fill="#FED81D"/>
<path d="M267.491 184.034C262.94 183.756 257.214 185.009 253.977 192.136C247.996 205.29 236.193 210.798 227.54 202.367C220.741 195.749 209.156 196.609 200.84 204.097C204.133 197.802 208.083 192.909 218.748 188.769C221.222 187.817 223.396 186.97 225.302 186.23C232.327 183.506 235.828 182.16 237.974 181.522C239.491 181.072 240.933 180.651 242.298 180.26C255.443 176.486 261.964 175.602 267.491 184.034Z" fill="#FFE05C"/>
<path d="M270.067 222.538V235.025H266.478C266.478 235.025 264.36 226.631 255.239 209.038C255.762 207.007 256.164 205.051 256.488 203.316C262.38 205.897 262.884 211.359 262.242 214.444C261.645 217.316 264.674 224.356 270.067 222.538Z" fill="#FCC71F"/>
<path d="M221 212.212C220.075 217.05 216.047 225.532 208.855 237.649C207.75 239.407 206.495 241.066 205.104 242.607C203.267 242.331 201.446 241.96 199.647 241.497L201.922 235.046C203.213 230.055 205.622 227.831 210.812 226.832C215.418 225.939 211.561 211.851 221 212.212Z" fill="#FCC71F"/>
<path d="M197.829 250.056C197.829 250.056 201.728 246.485 205.104 242.605C206.495 241.063 207.75 239.404 208.855 237.647C216.047 225.534 220.071 217.052 221 212.209C221.29 210.711 221.283 209.562 220.977 208.764" stroke="#F7AD2B" stroke-width="0.346875" stroke-linecap="round" stroke-linejoin="round"/>
<path d="M257.404 196.984C257.404 196.984 257.159 199.644 256.479 203.335C256.165 205.069 255.753 207.035 255.23 209.056" stroke="#F7AD2B" stroke-width="0.346875" stroke-linecap="round" stroke-linejoin="round"/>
<path d="M201.918 224.659C202.089 235.783 189.393 246.998 182.433 233.234C179.524 227.485 172.258 200.656 172.766 196.983C173.229 193.714 182.794 186.434 186.72 187.858C186.72 187.858 188.362 192.178 190.619 197.691C193.491 204.707 197.358 213.67 200.077 218.12C201.265 220.095 201.901 222.354 201.918 224.659Z" fill="#FED81D"/>
<path d="M196.863 212.005C195.355 214.988 193.625 218.425 191.933 221.718C190.781 219.613 190.573 216.515 193.024 213.624C196.141 209.956 186.383 203.555 190.619 197.682C192.478 202.233 194.754 207.584 196.863 212.005Z" fill="#FCC71F"/>
<path d="M196.923 211.889C196.923 211.926 196.881 211.963 196.863 212.004C195.355 214.987 193.625 218.424 191.932 221.717L190.346 224.829" stroke="#F7AD2B" stroke-width="0.346875" stroke-linecap="round" stroke-linejoin="round"/>
</g>
<path d="M224.734 157.745C222.421 166.094 220.363 170.663 234.604 171.597C234.604 171.597 243.641 161.422 242.411 146.65C242.411 146.65 234.359 140.175 227.384 152.787C227.384 152.787 224.826 153.768 224.535 154.115C224.244 154.462 224.438 156.617 224.734 157.745Z" fill="#FEBD9D"/>
<path d="M227.384 152.789C227.384 152.789 224.826 153.77 224.535 154.116C224.243 154.463 224.437 156.619 224.733 157.747" stroke="#EF8A66" stroke-width="0.346875" stroke-linecap="round" stroke-linejoin="round"/>
<path d="M229.331 154.578C229.663 154.578 229.932 154.308 229.932 153.976C229.932 153.644 229.663 153.375 229.331 153.375C228.999 153.375 228.73 153.644 228.73 153.976C228.73 154.308 228.999 154.578 229.331 154.578Z" fill="#5C1A55"/>
<path d="M229.854 149.113C231.047 148.285 233.142 153.105 231.625 153.086C231.014 153.086 228.401 150.121 229.854 149.113Z" fill="#BF8228"/>
<path d="M255.24 189.877C254.537 196.74 251.179 199.473 251.832 201.791C252.484 204.108 254.089 203.604 254.089 203.604C254.089 203.604 252.812 207.304 247.914 205.828C247.914 205.828 243.631 212.368 239.589 207.678C235.935 212.669 228.235 213.691 227.999 206.846C227.999 206.846 230.973 207.59 232.49 205.662C234.007 203.733 234.34 200.519 232.693 198.826C231.047 197.133 228.656 195.44 228.503 192.615C228.35 189.789 230.436 184.831 233.466 181.145C233.466 181.145 221.376 177.736 220.483 188.082L218.069 189.007C218.069 189.007 215.493 187.763 215.553 183.605C215.613 179.447 219.41 176.395 223.545 176.469C227.68 176.543 237.656 174.748 232.795 162.154C232.795 162.154 236.763 163.607 237.799 160.429C238.835 157.252 235.242 155.559 233.174 157.335C233.174 157.335 231.482 154.722 236.5 148.968C235.94 147.146 234.002 146.656 234.835 144.806C235.51 143.317 239.746 143.317 242.928 143.96C243.612 144.095 244.284 144.281 244.94 144.515C246.763 145.162 248.351 146.339 249.501 147.895C250.19 148.816 250.644 149.891 250.823 151.027C251.28 150.839 251.772 150.75 252.266 150.768C253.265 150.805 254.486 151.364 254.921 153.7C255.555 157.081 253.238 158.787 251.684 159.569C251.251 159.784 250.799 159.956 250.333 160.082C250.673 161.141 250.83 162.25 250.796 163.361C250.776 164.087 250.678 164.808 250.504 165.512C249.843 168.153 248.409 172.75 249.043 175.946C249.112 176.333 249.224 176.712 249.376 177.075C250.675 180.247 255.943 183.013 255.24 189.877Z" fill="#BF8228"/>
<path d="M251.665 159.593C251.233 159.807 250.78 159.979 250.315 160.106C250.315 160.106 248.145 160.633 247.285 156.841C246.596 153.802 248.303 151.753 250.823 151.05C251.28 150.862 251.772 150.774 252.266 150.791C247.706 154.764 249.921 157.992 251.665 159.593Z" fill="#B57724"/>
<path d="M255.24 189.877C254.537 196.74 251.179 199.473 251.832 201.791C252.484 204.108 254.089 203.604 254.089 203.604C254.089 203.604 252.812 207.304 247.914 205.828C247.914 205.828 243.631 212.368 239.589 207.678C235.935 212.669 228.235 213.691 227.999 206.846C227.999 206.846 230.973 207.59 232.49 205.662C234.007 203.733 234.34 200.519 232.693 198.826C231.047 197.133 228.656 195.44 228.503 192.615C228.35 189.789 230.436 184.831 233.466 181.145C233.466 181.145 221.376 177.736 220.483 188.082L218.069 189.007C218.069 189.007 215.493 187.763 215.553 183.605C215.613 179.447 219.41 176.395 223.545 176.469C227.68 176.543 237.656 174.748 232.795 162.154C232.795 162.154 236.763 163.607 237.799 160.429C238.835 157.252 235.242 155.559 233.174 157.335C233.174 157.335 231.482 154.722 236.5 148.968C235.94 147.146 234.002 146.656 234.835 144.806C235.51 143.317 239.746 143.317 242.928 143.96C240.801 145.264 239.376 147.313 240.56 150.518C243.47 158.38 242.651 162.164 240.13 165.521C237.61 168.879 234.761 175.696 237.184 181.145C239.608 186.593 236.046 184.086 237.115 194.867C238.183 205.648 251.822 199.08 251.397 190.297C251.013 182.361 246.198 179.692 249.006 175.96C249.075 176.347 249.187 176.725 249.339 177.088C250.675 180.247 255.943 183.013 255.24 189.877Z" fill="#B57724"/>
<path d="M233.105 159.235C234.428 158.412 235.681 158.486 236.407 159.008" stroke="#EF8A66" stroke-width="0.346875" stroke-linecap="round" stroke-linejoin="round"/>
<path d="M233.221 160.524C235.168 161.361 235.533 158.855 233.942 158.822" stroke="#EF8A66" stroke-width="0.346875" stroke-linecap="round" stroke-linejoin="round"/>
<path d="M243.266 148.021C245.398 148.687 248.59 152.041 248.59 152.041" stroke="#9B621F" stroke-width="0.346875" stroke-linecap="round" stroke-linejoin="round"/>
<path d="M250.823 151.049C248.303 151.747 246.596 153.801 247.285 156.839C248.145 160.632 250.315 160.105 250.315 160.105" stroke="#9B621F" stroke-width="0.346875" stroke-linecap="round" stroke-linejoin="round"/>
<path d="M248.048 152.794C250 152.012 252.331 151.679 253.219 154.149C254.107 156.619 252.807 158.533 250.823 159.944" stroke="#9B621F" stroke-width="0.346875" stroke-linecap="round" stroke-linejoin="round"/>
<path d="M238.23 154.301C242.207 155.494 247.244 155.18 247.244 155.18" stroke="#9B621F" stroke-width="0.346875" stroke-linecap="round" stroke-linejoin="round"/>
<path d="M239.326 161.201C242.799 162.057 247.188 159.536 247.882 158.537" stroke="#9B621F" stroke-width="0.346875" stroke-linecap="round" stroke-linejoin="round"/>
<path d="M247.169 156.169C247.734 154.615 249.329 153.593 250.513 155.128C251.697 156.664 249.921 158.292 248.483 156.594" stroke="#9B621F" stroke-width="0.346875" stroke-linecap="round" stroke-linejoin="round"/>
<path d="M233.47 181.166C236.837 177.193 239.677 174.02 238.234 168.285" stroke="#9B621F" stroke-width="0.346875" stroke-linecap="round" stroke-linejoin="round"/>
<path d="M239.617 207.7C241.657 204.583 238.507 200.004 238.026 196.984C237.545 193.964 237.439 190.176 241.231 186.064" stroke="#9B621F" stroke-width="0.346875" stroke-linecap="round" stroke-linejoin="round"/>
<path d="M244.737 172.465C247.568 179.666 248.012 180.827 246.476 186.22C244.941 191.612 244.016 194.286 246.476 198.134C249.21 202.398 248.354 203.943 247.91 205.83" stroke="#9B621F" stroke-width="0.346875" stroke-linecap="round" stroke-linejoin="round"/>
<path d="M232.184 157.131C232.365 158.111 231.426 159.106 230.094 159.346C228.762 159.587 227.536 158.99 227.356 158.005C227.176 157.02 228.115 156.03 229.447 155.79C230.779 155.549 232.004 156.146 232.184 157.131Z" fill="#F4AF90"/>
<path d="M268.569 174.732V232.175H170.121" stroke="#EDEDED" stroke-width="0.925" stroke-linecap="round" stroke-linejoin="round"/>
</g>
<defs>
<clipPath id="clip0_7350_17456">
<path d="M0.333496 8C0.333496 3.58173 3.91522 0 8.3335 0H371C375.418 0 379 3.58172 379 8V232H0.333496V8Z" fill="white"/>
</clipPath>
</defs>
</svg>
