<svg width="782" height="232" viewBox="0 0 782 232" fill="none" xmlns="http://www.w3.org/2000/svg">
<g clip-path="url(#clip0_7350_17002)">
<path d="M0 8C0 3.58173 3.58172 0 8 0H773.333C777.752 0 781.333 3.58172 781.333 8V232H0V8Z" fill="#F0F2F5"/>
<g clip-path="url(#clip1_7350_17002)">
<path d="M464.878 148.012H350.186C348.872 148.012 347.808 149.076 347.808 150.39V150.601C347.808 151.914 348.872 152.979 350.186 152.979H464.878C466.191 152.979 467.256 151.914 467.256 150.601V150.39C467.256 149.076 466.191 148.012 464.878 148.012Z" stroke="#DDDDDD" stroke-width="0.982667" stroke-miterlimit="10"/>
<path d="M464.062 63.6719H351.001C349.238 63.6719 347.808 65.1017 347.808 66.8655V67.1554C347.808 68.9192 349.238 70.3491 351.001 70.3491H464.062C465.826 70.3491 467.256 68.9192 467.256 67.1554V66.8655C467.256 65.1017 465.826 63.6719 464.062 63.6719Z" stroke="#DDDDDD" stroke-width="0.982667" stroke-miterlimit="10"/>
<path d="M462.868 70.3496H352.19V148.01H462.868V70.3496Z" stroke="#DDDDDD" stroke-width="0.982667" stroke-miterlimit="10"/>
<path d="M454.678 93.0261L442.208 92.7608C442.208 92.7608 445.288 85.1647 443.284 79.652L455.272 79.3965C455.83 80.9278 456.189 82.5247 456.338 84.1477C456.594 86.7468 456.392 90.0191 454.678 93.0261Z" stroke="#DDDDDD" stroke-width="0.491333" stroke-linecap="round" stroke-linejoin="round"/>
<path d="M446.345 83.7383H454.206" stroke="#DDDDDD" stroke-width="0.491333" stroke-linecap="round" stroke-linejoin="round"/>
<path d="M445.957 88.2793H453.818" stroke="#DDDDDD" stroke-width="0.491333" stroke-linecap="round" stroke-linejoin="round"/>
<path d="M447.716 85.9453L453.901 86.0681" stroke="#DDDDDD" stroke-width="0.491333" stroke-linecap="round" stroke-linejoin="round"/>
<path d="M360.563 81.7871H372.748C372.748 81.7871 372.08 91.2453 375.863 94.4733L362.346 94.8074C362.346 94.8074 359.674 90.356 360.563 81.7871Z" stroke="#DDDDDD" stroke-width="0.491333" stroke-linecap="round" stroke-linejoin="round"/>
<path d="M368.611 85.7246H370.586" stroke="#DDDDDD" stroke-width="0.491333" stroke-linecap="round" stroke-linejoin="round"/>
<path d="M362.739 85.7246H367.623" stroke="#DDDDDD" stroke-width="0.491333" stroke-linecap="round" stroke-linejoin="round"/>
<path d="M363.132 88.584H368.124" stroke="#DDDDDD" stroke-width="0.491333" stroke-linecap="round" stroke-linejoin="round"/>
<path d="M363.643 90.9816C363.742 90.8833 371.067 90.8047 371.067 90.8047" stroke="#DDDDDD" stroke-width="0.491333" stroke-linecap="round" stroke-linejoin="round"/>
<path d="M380.044 93.3848H391.443C391.443 93.3848 390.647 103 393.693 106.425H381.734C379.544 102.448 378.94 97.7889 380.044 93.3848Z" fill="#EDEDED" stroke="#DDDDDD" stroke-width="0.491333" stroke-linecap="round" stroke-linejoin="round"/>
<path d="M382.579 100.072H389.153" stroke="#F9F9F9" stroke-width="0.491333" stroke-linecap="round" stroke-linejoin="round"/>
<path d="M382.904 102.586H386.712" stroke="#F9F9F9" stroke-width="0.491333" stroke-linecap="round" stroke-linejoin="round"/>
<path d="M382.579 96.6309L388.436 96.9109" stroke="#F9F9F9" stroke-width="0.491333" stroke-linecap="round" stroke-linejoin="round"/>
<path d="M381.071 123.616L389.694 123.287L395.654 106.424L415.695 104.488L425.296 88.584" stroke="#DDDDDD" stroke-width="0.982667" stroke-linecap="round" stroke-linejoin="round"/>
<path d="M425.807 87.709L419.832 91.9738L424.814 94.9856L425.807 87.709Z" fill="#DDDDDD" stroke="#DDDDDD" stroke-width="0.982667" stroke-linecap="round" stroke-linejoin="round"/>
<path d="M320.775 92.3813C330.172 92.3813 337.789 84.7635 337.789 75.3664C337.789 65.9694 330.172 58.3516 320.775 58.3516C311.378 58.3516 303.76 65.9694 303.76 75.3664C303.76 84.7635 311.378 92.3813 320.775 92.3813Z" stroke="#DDDDDD" stroke-width="0.982667" stroke-linecap="round" stroke-linejoin="round"/>
<path d="M312.569 66.4824L320.775 75.3657L327.604 71.6513" stroke="#DDDDDD" stroke-width="0.982667" stroke-linecap="round" stroke-linejoin="round"/>
<path d="M448.983 206.076H420.083C417.093 206.076 414.668 208.5 414.668 211.491V211.982C414.668 214.972 417.093 217.396 420.083 217.396H448.983C451.973 217.396 454.398 214.972 454.398 211.982V211.491C454.398 208.5 451.973 206.076 448.983 206.076Z" stroke="#DDDDDD" stroke-width="0.491333" stroke-miterlimit="10"/>
<path d="M333.933 124.98H317.832C313.932 124.98 310.771 128.142 310.771 132.041V132.68C310.771 136.579 313.932 139.74 317.832 139.74H333.933C337.832 139.74 340.993 136.579 340.993 132.68V132.041C340.993 128.142 337.832 124.98 333.933 124.98Z" stroke="#DDDDDD" stroke-width="0.491333" stroke-miterlimit="10"/>
<path d="M517.622 79.2227H494.51C493.153 79.2227 492.053 80.3225 492.053 81.6793V81.9004C492.053 83.2572 493.153 84.3571 494.51 84.3571H517.622C518.979 84.3571 520.079 83.2572 520.079 81.9004V81.6793C520.079 80.3225 518.979 79.2227 517.622 79.2227Z" stroke="#DDDDDD" stroke-width="0.491333" stroke-miterlimit="10"/>
<path d="M281.994 70.998H253.093C250.103 70.998 247.679 73.4222 247.679 76.4125V76.9039C247.679 79.8942 250.103 82.3184 253.093 82.3184H281.994C284.984 82.3184 287.408 79.8942 287.408 76.9039V76.4125C287.408 73.4222 284.984 70.998 281.994 70.998Z" stroke="#DDDDDD" stroke-width="0.491333" stroke-miterlimit="10"/>
<path d="M626.208 163.258C626.221 166.042 625.514 168.782 624.158 171.213C622.753 173.709 620.69 175.772 618.194 177.177C615.955 178.444 613.426 179.109 610.853 179.108C607.667 179.08 604.568 178.064 601.983 176.201C599.398 174.337 597.454 171.718 596.421 168.703C596.032 167.607 595.763 166.472 595.618 165.318C595.533 164.634 595.49 163.946 595.489 163.258C595.489 154.509 602.371 147.412 610.853 147.412C614.023 147.442 617.107 148.449 619.684 150.296C622.261 152.142 624.206 154.738 625.254 157.73C625.889 159.504 626.212 161.374 626.208 163.258Z" fill="#9065F2"/>
<path d="M625.254 157.729C624.844 157.508 624.423 157.309 623.993 157.132C622.933 156.682 621.824 156.356 620.689 156.16C616.634 155.439 612.459 156.389 608.083 158.293C604.11 160.018 599.972 162.532 595.609 165.298C595.524 164.615 595.481 163.927 595.48 163.238C595.48 154.49 602.362 147.393 610.844 147.393C614.018 147.422 617.105 148.431 619.684 150.281C622.263 152.131 624.209 154.732 625.254 157.729Z" fill="#C5AFF9"/>
<path d="M620.887 161.4C620.644 163.919 619.602 169.763 618.162 177.177C617.928 178.393 617.703 179.65 617.423 180.939C613.872 198.886 608.592 223.48 606.325 233.99H544.332L548.948 207.41C548.948 207.41 533.483 203.932 530.349 198.078C526.307 190.527 528.514 184.742 533.194 176.824C536.588 171.062 543.369 157.964 548.649 149.701C550.631 146.596 552.402 144.196 553.696 143.081C560.536 137.324 567.596 139.567 574.079 141.246C574.079 141.246 574.079 142.623 574.152 144.857C574.193 146.669 574.253 149.05 574.336 151.738C574.478 156.468 574.693 162.161 575.001 167.41C575.056 168.327 575.111 169.245 575.171 170.162C575.629 176.801 576.217 182.246 577.033 183.32C577.24 183.59 577.552 183.517 577.951 183.159C579.111 182.095 581.006 178.544 583.116 174.007C583.754 172.631 584.406 171.195 585.066 169.699C588.654 161.551 592.406 151.986 594.136 147.559C594.682 146.155 595.021 145.265 595.081 145.105C595.08 145.095 595.08 145.086 595.081 145.077L596.338 145.247L599.045 145.618C601.398 145.939 604.619 146.389 608.22 146.917C609.138 147.05 609.996 147.206 610.849 147.408C614.909 148.353 618.377 150.16 620.001 153.94C620.309 154.659 620.541 155.408 620.694 156.175C621.019 157.897 621.084 159.658 620.887 161.4Z" fill="#9065F2"/>
<path d="M620.689 156.18C616.634 155.459 612.459 156.409 608.083 158.313C604.11 160.038 599.972 162.552 595.609 165.318L594.232 166.194C590.916 168.309 587.851 169.383 585.057 169.704C589.782 158.978 594.797 145.802 595.077 145.11C595.076 145.1 595.076 145.091 595.077 145.082L599.04 145.623C601.394 145.945 604.614 146.394 608.216 146.922C609.133 147.055 609.991 147.211 610.844 147.413C614.904 148.358 618.373 150.165 619.997 153.945C620.304 154.664 620.537 155.413 620.689 156.18Z" fill="#C5AFF9"/>
<path d="M548.948 207.428C555.035 209.052 567.532 211.992 567.532 211.992" stroke="#7444DC" stroke-width="0.344074" stroke-linecap="round" stroke-linejoin="round"/>
<path d="M556.109 164.816L553.049 185.713C548.718 183.63 546.8 183.048 544.92 183.309C544.621 179.203 553.856 182.988 551.989 174.703C550.851 169.656 553.136 165.986 556.109 164.816Z" fill="#824CF6"/>
<path d="M553.049 185.712L556.109 164.815L556.609 161.393" stroke="#7444DC" stroke-width="0.344074" stroke-linecap="round" stroke-linejoin="round"/>
<path d="M542.653 183.934C546.824 182.411 547.865 183.017 562.022 190.242" stroke="#7444DC" stroke-width="0.344074" stroke-linecap="round" stroke-linejoin="round"/>
<path d="M574.079 141.263C574.079 141.263 574.304 155.485 574.996 167.413C570.184 164.509 567.009 159.614 565.688 156.591C563.734 152.136 560.027 146.654 548.64 149.709C550.622 146.603 552.393 144.204 553.687 143.089C560.536 137.341 567.596 139.584 574.079 141.263Z" fill="#C5AFF9"/>
<path d="M598.756 158.831C598.38 159.354 590.246 164.203 590.397 164.878C590.549 165.552 591.888 168.309 591.888 168.832C591.888 169.162 586.888 175.388 582.841 179.549C580.506 181.962 578.488 183.678 577.946 183.164C576.703 181.98 587.732 153.486 591.283 144.426L595.086 145.082L599.049 145.623C598.71 152.165 599.086 158.372 598.756 158.831Z" fill="#7444DC"/>
<path d="M595.086 145.08C595.085 145.089 595.085 145.098 595.086 145.107C594.852 146.025 589.071 168.537 582.85 179.547C580.905 182.997 578.919 185.318 577.042 185.511C569.055 186.268 574.088 141.281 574.088 141.281C577.051 141.946 586.089 143.538 591.292 144.442L595.086 145.08Z" fill="white"/>
<path d="M593.585 143.099C592.709 145.709 584.782 151.412 579.919 148.664C577.116 147.077 576.602 144.159 577.336 139.337C577.689 136.975 578.35 134.153 579.171 130.809C579.589 129.134 580.052 127.331 580.547 125.391C581.726 120.72 584.474 117.803 589.475 118.67C594.476 119.537 594.205 124.414 594.063 129.68C593.92 134.947 594.462 140.493 593.585 143.099Z" fill="#B25E47"/>
<path d="M587.204 129.973C586.828 134.868 584.672 140.189 577.336 139.336C577.689 136.973 578.35 134.152 579.171 130.808L587.204 129.973Z" fill="#914839"/>
<path d="M577.946 147.683C578.153 152.454 578.203 153.945 578.666 154.197C579.13 154.45 581.231 155.018 581.795 154.656C582.359 154.294 585.585 148.977 585.585 148.977C585.585 148.977 581.745 146.348 577.946 147.683Z" fill="#683F1D"/>
<path d="M581.492 152.393C582.158 160.674 583.561 180.378 583.763 181.91C583.965 183.443 577.685 189.925 577.052 189.122C576.418 188.319 573.212 182.406 573.212 180.653C573.212 178.901 579.02 152.059 579.02 152.059L581.492 152.393Z" fill="#683F1D"/>
<path d="M581.378 146.741C584.892 146.379 592.962 141.346 594.012 140.667C595.063 139.988 596.462 144.64 596.343 145.557C596.223 146.475 585.993 153.246 585.993 153.246C585.993 153.246 583.451 148.104 581.199 148.044C578.946 147.984 575.574 153.246 575.574 153.246C571.299 149.397 574.143 142.773 577.07 141.708C577.07 141.708 579.956 146.888 581.378 146.741Z" fill="#FED81D"/>
<path d="M572.473 216.023L569.335 234.007" stroke="#7444DC" stroke-width="0.344074" stroke-linecap="round" stroke-linejoin="round"/>
<path d="M598.347 111.323C597.777 112.175 597.001 112.868 596.09 113.338C595.179 113.808 594.165 114.04 593.14 114.012C589.47 113.952 585.947 111.043 585.947 111.043C585.947 111.043 582.735 107.786 583.084 104.896C583.191 104.067 583.601 103.307 584.236 102.763C586.988 100.285 591.282 102.593 592.865 105.245C594.448 107.896 594.925 107.878 596.742 107.901C598.32 107.919 599.013 109.718 598.347 111.323Z" fill="#604730"/>
<path d="M593.14 114.011C589.47 113.952 585.947 111.043 585.947 111.043C585.947 111.043 582.735 107.786 583.084 104.896C586.685 104.042 591.067 105.052 593.824 107.859C596.021 110.098 594.631 112.461 593.14 114.011Z" fill="#473526"/>
<path d="M588.016 108.819C585.823 105.998 586.208 102.777 588.534 101.938" stroke="#896442" stroke-width="0.344074" stroke-linecap="round" stroke-linejoin="round"/>
<path d="M590.938 110.475C588.745 107.658 589.131 104.433 591.457 103.594" stroke="#896442" stroke-width="0.344074" stroke-linecap="round" stroke-linejoin="round"/>
<path d="M595.925 117.324C595.357 118.585 594.713 119.81 593.998 120.994C593.027 122.65 591.913 124.217 590.668 125.678C588.374 128.33 585.383 130.656 581.901 130.954C573.542 131.67 573.932 125.765 574.198 123.976C574.198 123.935 574.198 123.898 574.198 123.861C574.198 123.825 576.01 120.132 578.024 116.457C579.033 114.563 580.145 112.725 581.355 110.952C584.039 107.208 587.741 106.437 591.402 107.983C595.063 109.529 595.476 111.75 595.925 117.324Z" fill="#B25E47"/>
<path d="M593.998 121.026C593.025 122.671 591.911 124.227 590.668 125.678H590.429C589.735 125.679 589.055 125.486 588.465 125.121C587.876 124.755 587.4 124.232 587.092 123.61C586.785 122.988 586.657 122.293 586.725 121.602C586.792 120.912 587.051 120.254 587.473 119.703C587.894 119.152 588.462 118.73 589.111 118.485C589.76 118.24 590.465 118.182 591.145 118.317C591.826 118.452 592.455 118.774 592.962 119.248C593.468 119.722 593.832 120.329 594.012 120.999L593.998 121.026Z" fill="#A0503D"/>
<path d="M579.318 119.586C579.318 120.764 578.85 121.894 578.017 122.728C577.185 123.561 576.055 124.03 574.877 124.031C574.645 124.032 574.413 124.013 574.184 123.976C574.184 123.935 574.184 123.898 574.184 123.862C574.184 123.825 575.996 120.132 578.01 116.457C578.844 117.285 579.314 118.411 579.318 119.586Z" fill="#A0503D"/>
<path d="M597.012 121.252L595.76 122.403C593.714 124.33 593.274 124.807 593.274 124.807C592.131 121.945 591.865 117.137 594.026 113.591C596.187 110.044 598.756 109.92 600.109 111.017C600.243 111.125 600.351 111.261 600.426 111.416C601.403 113.228 600.077 118.408 597.012 121.252Z" fill="#604730"/>
<path d="M600.426 111.428C597.902 112.125 595.774 116.259 595.76 122.415C593.714 124.342 593.274 124.819 593.274 124.819C592.131 121.956 591.865 117.149 594.026 113.602C596.187 110.056 598.756 109.932 600.109 111.029C600.243 111.136 600.351 111.273 600.426 111.428Z" fill="#473526"/>
<path d="M591.654 126.073C593.168 128.179 597.999 126.991 598.311 123.903C598.623 120.816 595.884 119.146 593.457 120.536C591.03 121.926 591.2 125.445 591.654 126.073Z" fill="#B25E47"/>
<path d="M596.577 110.934C597.035 113.406 599.04 115.402 600.302 115.741" stroke="#896442" stroke-width="0.344074" stroke-linecap="round" stroke-linejoin="round"/>
<path d="M594.462 112.947C594.92 115.149 596.508 118.063 599.577 117.856" stroke="#896442" stroke-width="0.344074" stroke-linecap="round" stroke-linejoin="round"/>
<path d="M581.446 114.325C581.446 114.453 581.484 114.578 581.555 114.684C581.626 114.79 581.728 114.873 581.846 114.922C581.964 114.971 582.094 114.984 582.219 114.959C582.345 114.934 582.46 114.872 582.551 114.782C582.641 114.692 582.703 114.576 582.728 114.451C582.753 114.325 582.74 114.195 582.691 114.077C582.642 113.959 582.559 113.858 582.453 113.787C582.346 113.716 582.221 113.678 582.093 113.678C581.922 113.678 581.757 113.746 581.636 113.867C581.515 113.989 581.446 114.153 581.446 114.325Z" fill="#683F1D"/>
<path d="M586.397 116.7C586.754 116.7 587.043 116.41 587.043 116.053C587.043 115.696 586.754 115.406 586.397 115.406C586.039 115.406 585.75 115.696 585.75 116.053C585.75 116.41 586.039 116.7 586.397 116.7Z" fill="#683F1D"/>
<path d="M593.824 121.645C593.87 122.351 591.893 124.93 591.723 125.732C591.131 128.568 591.099 129.981 587.943 132.077C584.484 134.371 577.85 136.431 574.501 133.779C573.202 132.756 572.482 130.783 572.482 128.476C572.517 126.687 572.908 124.923 573.632 123.287C574.355 121.651 575.398 120.176 576.698 118.947C576.289 120.45 575.786 121.925 575.194 123.365C575.862 122.462 576.583 121.6 577.354 120.782C578.265 120.356 579.268 120.165 580.272 120.227C580.846 120.383 584.208 121.778 584.341 122.416C584.474 123.053 583.942 125.246 584.649 125.402C585.355 125.558 588.452 125.223 589.236 124.719C590.021 124.214 592.136 120.892 592.333 120.383C592.457 120.067 592.98 120.356 593.37 120.792C593.606 121.022 593.765 121.32 593.824 121.645Z" fill="#604730"/>
<path d="M596.416 123.59C595.631 121.755 593.622 121.81 592.526 123.278" stroke="#934735" stroke-width="0.344074" stroke-linecap="round" stroke-linejoin="round"/>
<path d="M593.053 122.733C595.219 122.196 596.173 125.398 593.283 125.393" stroke="#934735" stroke-width="0.344074" stroke-linecap="round" stroke-linejoin="round"/>
<path d="M580.859 110.824C580.699 111.742 584.933 112.526 584.988 111.154C585.043 109.783 581.034 109.847 580.859 110.824Z" fill="#604730"/>
<path d="M591.292 112.722C591.259 113.64 586.956 113.566 587.163 112.208C587.369 110.85 591.328 111.736 591.292 112.722Z" fill="#604730"/>
<path d="M580.772 122.673C583.396 123.095 584.557 122.673 585.24 121.562" stroke="#934735" stroke-width="0.344074" stroke-linecap="round" stroke-linejoin="round"/>
<path d="M580.162 118.674C581.034 116.899 582.19 116.256 583.332 116.128C583.873 116.053 584.376 115.808 584.769 115.429C585.163 115.05 585.426 114.556 585.52 114.018" stroke="#934735" stroke-width="0.344074" stroke-linecap="round" stroke-linejoin="round"/>
<path d="M593.824 121.646C593.87 122.353 591.893 124.931 591.723 125.734C591.131 128.569 591.099 129.982 587.943 132.079C584.484 134.372 577.85 136.432 574.501 133.781C573.202 132.758 572.482 130.785 572.482 128.477C576.152 131.624 581.534 131.959 584.837 131.014C589.498 129.675 592.347 123.477 593.379 120.793C593.612 121.025 593.767 121.323 593.824 121.646Z" fill="#473526"/>
<path d="M573.06 124.82C577.909 128.949 584.589 125.683 584.988 125.394" stroke="#896442" stroke-width="0.344074" stroke-linecap="round" stroke-linejoin="round"/>
<path d="M572.51 129.211C576.547 131.33 582.928 131.918 587.704 125.188" stroke="#896442" stroke-width="0.344074" stroke-linecap="round" stroke-linejoin="round"/>
<path d="M577.529 134.959C578.524 133.527 581.139 132.903 583.883 132.142C589.223 130.651 590.044 128.44 590.562 123.205" stroke="#896442" stroke-width="0.344074" stroke-linecap="round" stroke-linejoin="round"/>
<path d="M593.682 208.363C593.68 209.343 593.464 210.311 593.049 211.198C592.521 212.312 591.766 213.302 590.833 214.107C588.365 216.3 584.52 217.708 580.199 217.708C577.772 217.727 575.367 217.259 573.125 216.332C571.014 215.499 569.195 214.063 567.895 212.203C567.133 211.068 566.722 209.734 566.711 208.368C566.711 207.975 566.748 207.583 566.821 207.198C567.376 204.092 570.133 201.459 573.982 200.073C575.978 199.366 578.081 199.01 580.199 199.018C582.965 198.998 585.697 199.626 588.177 200.853C589.243 201.384 590.226 202.067 591.094 202.881C592.723 204.404 593.682 206.303 593.682 208.363Z" fill="#9065F2"/>
<path d="M593.049 211.197C592.521 212.311 591.766 213.301 590.833 214.106C588.365 216.299 584.52 217.707 580.199 217.707C577.772 217.726 575.367 217.258 573.125 216.331C571.014 215.498 569.195 214.062 567.895 212.202C577.52 214.711 587.915 212.597 593.049 211.197Z" fill="#824CF6"/>
<path d="M623.534 172.275C621.46 175.669 614.427 185.083 607.505 194.071C601.664 201.645 595.902 208.912 593.26 211.999C592.556 212.814 591.739 213.523 590.833 214.105C589.205 215.136 587.386 215.83 585.484 216.145C583.583 216.461 581.637 216.391 579.763 215.94C577.084 215.266 574.762 213.729 573.496 211.293C572.948 210.224 572.614 209.058 572.514 207.861C572.313 205.677 572.859 203.021 573.983 200.062C576.107 194.493 580.277 187.882 585.291 181.413C585.906 180.62 586.539 179.826 587.177 179.037C588.158 177.813 589.165 176.614 590.195 175.44C590.553 175.023 590.911 174.614 591.278 174.201C591.562 173.88 591.847 173.559 592.136 173.243L593.122 172.155L593.177 172.096L594.182 171.018C594.866 170.288 595.558 169.568 596.242 168.866L597.159 167.948C597.494 167.609 597.834 167.269 598.173 166.939C598.187 166.923 598.203 166.907 598.219 166.893C598.935 166.187 599.649 165.502 600.362 164.838L600.458 164.751C602.872 162.472 605.41 160.328 608.06 158.328C610.858 156.254 613.386 154.754 615.432 154.034C618.882 152.823 622.038 154.291 623.97 157.167C626.452 160.796 626.933 166.714 623.534 172.275Z" fill="#9065F2"/>
<path d="M615.129 184.047C612.753 187.217 610.124 190.676 607.505 194.071C601.664 201.645 595.902 208.912 593.26 211.999C592.556 212.814 591.739 213.524 590.833 214.105" stroke="#7444DC" stroke-width="0.344074" stroke-linecap="round" stroke-linejoin="round"/>
<path d="M573.982 200.067C576.106 194.498 580.277 187.887 585.291 181.418C589.887 175.505 594.933 169.956 600.384 164.82" stroke="#7444DC" stroke-width="0.344074" stroke-linecap="round" stroke-linejoin="round"/>
<path d="M607.275 163.26C604.862 161.883 602.486 162.397 598.178 166.93" stroke="#7444DC" stroke-width="0.344074" stroke-linecap="round" stroke-linejoin="round"/>
<path d="M623.992 157.15C622.932 156.7 621.824 156.373 620.689 156.177C616.634 155.457 612.459 156.407 608.082 158.311C610.881 156.237 613.409 154.737 615.455 154.016C618.905 152.805 622.061 154.273 623.992 157.15Z" fill="#C5AFF9"/>
<path d="M607.505 194.072C601.664 201.646 595.902 208.913 593.26 212.001C592.556 212.816 591.739 213.525 590.833 214.107C589.205 215.138 587.386 215.832 585.484 216.147C583.583 216.462 581.637 216.392 579.763 215.942C577.084 215.267 574.762 213.73 573.496 211.294C577.799 212.969 582.075 212.973 585.131 211.432C586.832 210.608 588.17 209.185 588.888 207.436C589.525 205.862 590.262 204.329 591.094 202.848C596.067 194.095 602.866 190.902 607.505 194.072Z" fill="#824CF6"/>
<path d="M558.352 156.508C558.132 155.274 562.275 153.957 565.495 153.59L566.101 159.035C566.101 159.035 559.114 160.792 558.352 156.508Z" fill="#824CF6"/>
<path d="M564.825 153.247C563.151 146.994 563.109 136.874 563.683 135.442C564.256 134.011 565.412 134.548 566.101 134.589C566.789 134.63 567.11 132.791 569.436 132.791C569.436 132.791 569.564 130.469 571.175 130.203C571.175 130.203 570.56 126.822 573.271 127.363C573.886 127.487 573.271 131.24 574.831 136.539C574.918 136.837 578.203 134.483 578.96 133.947C580.176 133.07 582.529 132.781 580.997 135.355C580.079 136.919 578.551 139.392 577.487 140.943C575.373 144.112 574.276 147.851 574.345 151.66L564.825 153.247Z" fill="#B25E47"/>
<path d="M563.366 138.516C563.343 137.482 563.45 136.45 563.683 135.442C564.252 134.016 565.412 134.548 566.101 134.589C566.789 134.63 567.11 132.791 569.436 132.791C569.436 132.791 569.564 130.469 571.175 130.203C571.175 130.203 570.56 126.822 573.271 127.363C573.886 127.487 573.271 131.24 574.831 136.539C574.918 136.837 578.203 134.483 578.96 133.947C580.175 133.07 582.529 132.781 580.997 135.355C580.538 136.135 579.919 137.144 579.29 138.154" stroke="#934735" stroke-width="0.344074" stroke-linecap="round" stroke-linejoin="round"/>
<path d="M569.436 132.789C569.426 133.22 569.452 133.651 569.514 134.078" stroke="#934735" stroke-width="0.344074" stroke-linecap="round" stroke-linejoin="round"/>
<path d="M571.175 130.203C571.372 131.336 571.661 132.387 571.661 132.387" stroke="#934735" stroke-width="0.344074" stroke-linecap="round" stroke-linejoin="round"/>
<path d="M561.88 150.665L562.609 160.941C562.609 160.941 575.973 158.648 575.771 158.349C575.57 158.051 575.221 149.633 575.221 149.633L561.88 150.665Z" fill="white"/>
<path d="M588.103 200.853C588.103 201.119 588.089 201.385 588.062 201.651C588.062 201.853 588.034 202.055 588.016 202.256C588.018 202.296 588.018 202.336 588.016 202.376C588.016 202.605 587.97 202.834 587.943 203.055C587.883 203.568 587.805 204.078 587.709 204.578C587.291 207.024 586.393 209.363 585.066 211.459C583.801 213.494 581.921 215.074 579.699 215.969C577.595 216.741 575.311 216.881 573.129 216.373H573.06C568.665 215.423 566.041 210.528 564.426 204.931C562.954 199.816 562.32 194.113 561.958 190.292C561.187 182.263 558.288 156.554 558.288 156.554C560.339 157.582 578.689 153.297 578.689 153.297C578.689 153.297 582.46 168.253 585.231 181.47C586.718 188.558 587.92 195.15 588.094 198.664C588.117 199.357 588.126 200.096 588.103 200.853Z" fill="#9065F2"/>
<path d="M564.417 204.881C562.944 199.766 562.311 194.063 561.949 190.242C561.178 182.213 558.279 156.504 558.279 156.504" stroke="#7444DC" stroke-width="0.344074" stroke-linecap="round" stroke-linejoin="round"/>
<path d="M578.675 153.248C578.675 153.248 582.446 168.204 585.217 181.421C586.704 188.509 587.906 195.101 588.08 198.615C588.117 199.359 588.126 200.097 588.08 200.831C588.036 202.172 587.882 203.507 587.621 204.823" stroke="#7444DC" stroke-width="0.344074" stroke-linecap="round" stroke-linejoin="round"/>
<path d="M585.057 211.405C583.792 213.44 581.912 215.02 579.689 215.915C577.586 216.687 575.302 216.827 573.12 216.319H573.051C568.656 215.369 566.032 210.474 564.417 204.877C565.141 205.694 565.92 206.46 566.747 207.171C568.72 208.909 570.978 210.294 573.423 211.263C577.726 212.96 582.001 212.965 585.057 211.405Z" fill="#824CF6"/>
<path d="M201.948 158.658C201.948 161.523 199.124 165.829 194.526 165.138C189.929 164.446 184.361 160.954 185.044 152.794C185.241 150.413 187.961 135.523 188.399 132.229C189.081 127.142 201.844 122.878 201.284 135.928C201.284 136.323 201.251 136.709 201.237 137.095C201.143 139.881 201.138 142.436 201.19 144.751C201.355 151.613 201.948 156.361 201.948 158.658Z" fill="#B25E47"/>
<path d="M201.19 144.752C197.209 144.724 194.131 142.004 194.559 137.491L201.237 137.096C201.143 139.882 201.138 142.46 201.19 144.752Z" fill="#914839"/>
<path d="M226.607 197.312L228.884 231.059H207.364L211.265 193.152L206.089 179.326L196.856 161.571C197.507 159.505 198.021 157.398 198.395 155.265L202.503 147.937C203.175 147.625 203.863 147.349 204.564 147.109L204.654 147.081H204.738C207.237 146.234 211.501 145.199 215.807 145.975C219.407 146.629 222.395 148.013 224.8 151.81C227.496 156.079 229.44 163.397 230.645 176.154C231.915 189.392 228.569 195.275 226.607 197.312Z" fill="#C5AFF9"/>
<path d="M224.814 151.768C221.289 153.307 218.127 156.323 216.55 161.895C215.738 164.783 214.62 167.575 213.214 170.225C211.431 173.683 209.016 176.776 206.093 179.345L196.86 161.589C197.512 159.524 198.026 157.417 198.399 155.283C198.569 154.912 201.279 148.963 201.938 147.787C203.162 147.495 204.084 147.264 204.569 147.133L204.658 147.104H204.743C207.242 146.257 211.505 145.222 215.811 145.999C219.421 146.587 222.414 147.97 224.814 151.768Z" fill="#E1D4FB"/>
<path d="M217.764 231.059H182.601V218.791H217.021L217.764 231.059Z" fill="#683F1D"/>
<path d="M214.941 218.792H184.051C184.051 218.792 178.065 189.191 179.166 168.702C179.477 162.866 180.361 157.77 182.126 154.306C182.62 153.294 183.269 152.365 184.051 151.553C184.794 151.421 185.613 151.271 186.484 151.083C187.896 152.678 190.644 154.899 194.526 157.153C194.526 157.153 195.91 161.069 196.879 161.553C197.849 162.038 198.418 155.247 198.418 155.247C198.587 154.876 201.298 148.927 201.957 147.751C203.26 147.44 204.225 147.2 204.677 147.068H204.762C204.762 147.068 205.232 148.682 205.999 151.045C207.223 154.81 209.185 160.48 211.176 164.537C212.046 166.36 212.728 168.266 213.214 170.226C214.625 175.756 214.757 182.42 213.439 191.116C213.345 191.742 213.265 192.377 213.199 192.999C211.981 204.608 214.941 218.792 214.941 218.792Z" fill="white"/>
<path d="M213.214 170.225C211.431 173.683 209.016 176.777 206.093 179.345C200.136 184.381 193.034 185.039 187.444 177.628C186.032 175.745 184.681 174.089 183.35 172.635C182.075 171.207 180.675 169.896 179.166 168.719C179.477 162.884 180.361 157.787 182.126 154.324C182.62 153.311 183.269 152.382 184.051 151.571C184.794 151.439 185.613 151.288 186.484 151.1C187.895 152.695 190.644 154.917 194.526 157.171C194.526 157.171 195.91 161.086 196.879 161.571C197.531 159.505 198.045 157.399 198.418 155.265C198.587 154.893 201.298 148.945 201.957 147.768C203.26 147.458 204.225 147.218 204.677 147.086H204.762C204.762 147.086 205.232 148.7 205.999 151.062C207.223 154.827 209.185 160.498 211.176 164.554C212.045 166.371 212.727 168.271 213.214 170.225Z" fill="#F9F9F9"/>
<path d="M208.785 158.969C209.538 160.926 210.343 162.851 211.138 164.508C212.023 166.338 212.718 168.254 213.214 170.225C214.127 174 214.504 177.885 214.334 181.764" stroke="#7444DC" stroke-width="0.352947" stroke-linecap="round" stroke-linejoin="round"/>
<path d="M188.686 231.058H165.476C165.401 222.639 165.246 216.187 164.78 210.667C164.325 204.307 163.07 198.03 161.043 191.984C157.542 181.476 157.796 172.13 159.876 165.353C161.067 161.457 162.865 158.412 164.902 156.473C165.364 156.055 165.88 155.7 166.436 155.419C171.712 152.643 184.041 151.551 184.041 151.551C182.517 154.737 182.672 163.316 183.34 172.615C184.088 182.968 185.467 194.262 185.853 199.952C186.131 204.074 186.794 211.354 187.486 218.775C187.9 223.015 188.314 227.288 188.686 231.058Z" fill="#C5AFF9"/>
<path d="M183.35 172.615C182.075 171.187 180.675 169.876 179.166 168.699C178.837 168.445 178.502 168.2 178.168 167.979C173.312 164.652 167.938 163.885 159.876 165.353C158.968 165.513 158.027 165.711 157.053 165.932C160.304 160.243 163.603 156.05 166.465 155.419C171.74 152.643 184.07 151.551 184.07 151.551C182.531 154.737 182.681 163.311 183.35 172.615Z" fill="#E1D4FB"/>
<path d="M194.526 157.17C189.721 155.824 185.943 162.515 185.943 162.515C184.027 160.126 182.717 157.309 182.126 154.304C181.934 153.476 181.875 152.623 181.952 151.776C182.253 149.795 184.775 148.247 185.481 149.711C185.752 150.216 186.089 150.683 186.484 151.099C187.91 152.694 190.644 154.915 194.526 157.17Z" fill="#FED81D"/>
<path d="M205.99 151.016C205.91 153.948 205.647 157.242 205.647 157.242C202.103 154.479 200.136 154.418 198.399 155.265L201.284 147.637C202.381 145.684 205.783 145.515 205.962 147.83C206.023 148.639 206.023 149.797 205.99 151.016Z" fill="#FED81D"/>
<path d="M194.526 157.172C194.526 157.172 195.91 161.087 196.879 161.572C197.19 160.536 198.418 155.266 198.418 155.266" stroke="#DDDDDD" stroke-width="0.470596" stroke-linecap="round" stroke-linejoin="round"/>
<path d="M196.86 161.57C196.86 161.57 200.733 170.865 202.508 177.044C204.282 183.222 205.501 189.081 205.11 197.016C204.719 204.95 203.872 212.173 204.07 213.016C204.268 213.858 206.931 216.098 203.03 218.785" stroke="#DDDDDD" stroke-width="0.470596" stroke-linecap="round" stroke-linejoin="round"/>
<path d="M221.59 200.991C217.76 200.799 213.745 196.309 210.465 191.363C207.763 187.185 205.395 182.799 203.383 178.248L208.837 170.492C216.033 174.944 226.979 182.008 229.962 186.718C230.18 187.052 230.365 187.407 230.513 187.777C232.687 193.434 231.473 201.486 221.59 200.991Z" fill="#C5AFF9"/>
<path d="M221.59 200.991C217.76 200.798 213.745 196.309 210.465 191.363C213.52 190.68 217.562 192.422 218.367 195.17C219.826 200.154 231.393 197.796 229.962 186.699C230.18 187.033 230.365 187.388 230.513 187.758C232.687 193.433 231.473 201.485 221.59 200.991Z" fill="#9065F2"/>
<path d="M230.499 187.777C230.351 187.407 230.166 187.052 229.948 186.718C226.964 182.012 216.018 174.953 208.823 170.492L203.369 178.248C205.381 182.799 207.749 187.185 210.451 191.363C213.745 196.309 217.746 200.799 221.576 200.991" stroke="#7444DC" stroke-width="0.352947" stroke-linecap="round" stroke-linejoin="round"/>
<path d="M198.239 173.358L196.178 176.812L198.592 176.596C198.592 176.596 216.268 161.489 216.541 160.972C216.814 160.454 215.331 158.821 214.842 159C214.352 159.179 198.239 173.358 198.239 173.358Z" fill="#683F1D"/>
<path d="M198.239 173.358C198.578 171.386 198.54 170.704 198.846 170.29C199.152 169.876 202.291 167.523 203.049 167.259C203.806 166.996 205.741 167.942 205.741 167.942C205.741 167.942 207.218 168.13 208.126 168.28C209.035 168.431 208.969 170.582 209.562 170.949C210.155 171.316 210.894 171.118 211.35 172.069C211.807 173.019 211.007 173.659 211.35 174.266C211.694 174.873 212.559 175.25 212.291 176.314C212.023 177.377 211.496 177.372 211.647 177.979C211.797 178.586 212.404 180.252 210.395 180.897C208.385 181.542 206.917 182.008 205.811 181.579C204.705 181.151 203.392 180.403 203.204 179.697C203.204 179.697 200.851 179.349 199.863 177.452C199.863 177.452 197.326 176.695 199.18 175.41C199.18 175.41 198.272 174.497 198.842 173.739L198.239 173.358Z" fill="#B25E47"/>
<path d="M205.816 181.58C204.71 181.147 203.397 180.403 203.209 179.697C203.209 179.697 200.856 179.349 199.867 177.453C199.867 177.453 197.331 176.695 199.185 175.41C199.185 175.41 198.277 174.497 198.846 173.74L198.239 173.363C198.578 171.391 198.54 170.709 198.846 170.295" stroke="#934735" stroke-width="0.352947" stroke-linecap="round" stroke-linejoin="round"/>
<path d="M198.846 173.733C201.378 171.428 205.905 168.086 207.552 168.19" stroke="#934735" stroke-width="0.352947" stroke-linecap="round" stroke-linejoin="round"/>
<path d="M199.185 175.401C203.011 175.227 206.216 173.561 208.446 171.961" stroke="#934735" stroke-width="0.352947" stroke-linecap="round" stroke-linejoin="round"/>
<path d="M199.868 177.448C201.618 178.177 208.192 176.3 209.816 174.709" stroke="#934735" stroke-width="0.352947" stroke-linecap="round" stroke-linejoin="round"/>
<path d="M203.209 179.692C204.103 179.866 207.581 179.565 209.369 178.365" stroke="#934735" stroke-width="0.352947" stroke-linecap="round" stroke-linejoin="round"/>
<path d="M178.168 167.979C178.06 170.366 177.689 172.733 177.063 175.038L176.615 176.737C176.545 177.015 176.47 177.297 176.39 177.589C176.179 178.379 175.957 179.206 175.721 180.069L175.58 180.582C175.298 181.603 174.997 182.676 174.681 183.777C174.578 184.149 174.47 184.521 174.361 184.893C173.599 187.518 172.747 190.314 171.815 193.147C171.684 193.551 171.547 193.961 171.411 194.366C170.752 196.314 170.06 198.276 169.331 200.21C169.175 200.625 169.02 201.034 168.86 201.439L168.389 202.653C168.262 202.973 168.135 203.288 168.004 203.594C166.992 206.069 165.914 208.451 164.789 210.653L164.672 210.879C160.94 218.051 156.629 223.081 151.966 222.554C148.074 222.121 145.476 220.583 143.777 218.512C141.245 215.401 140.747 211.095 140.991 207.519C141.069 206.314 141.237 205.117 141.495 203.938C142.366 199.999 149.608 178.996 157.09 165.937C160.342 160.247 163.641 156.054 166.502 155.424C173.175 153.932 178.507 158.459 178.168 167.979Z" fill="#C5AFF9"/>
<path d="M178.168 167.981C173.312 164.653 167.938 163.886 159.876 165.355C158.968 165.515 158.027 165.712 157.053 165.933C160.305 160.244 163.603 156.051 166.465 155.42C173.175 153.933 178.507 158.46 178.168 167.981Z" fill="#E1D4FB"/>
<path d="M178.168 167.98C178.06 170.367 177.689 172.734 177.063 175.039C174.808 183.661 170.474 199.609 164.78 210.645" stroke="#7444DC" stroke-width="0.352947" stroke-linecap="round" stroke-linejoin="round"/>
<path d="M164.648 210.893C160.916 218.065 156.606 223.096 151.942 222.569C148.05 222.136 145.453 220.597 143.754 218.526C141.222 215.416 140.723 211.11 140.968 207.533C141.56 207.646 142.13 207.852 142.657 208.145C145.109 209.496 146.718 212.507 148.606 214.7C152.883 219.637 158.276 211.402 164.648 210.893Z" fill="#9065F2"/>
<path d="M189.082 113.386L182.794 120.252C175.166 119.268 173.001 114.134 174.258 109.748C174.305 109.593 174.357 109.433 174.418 109.278C176.197 105.014 184.997 102.496 188.117 109.645C188.622 110.837 188.947 112.098 189.082 113.386Z" fill="#7F542D"/>
<path d="M189.082 113.386L182.794 120.252C175.166 119.268 173.001 114.134 174.258 109.748C174.305 109.593 174.357 109.433 174.418 109.277C175.693 114.477 179.124 116.614 180.87 113.216C182.441 110.181 185.637 109.019 188.117 109.644C188.622 110.837 188.947 112.098 189.082 113.386Z" fill="#704725"/>
<path d="M200.414 114.567C200.414 114.567 191.868 131.603 185.745 129.156C184.397 128.624 183.235 127.708 182.404 126.52C179.905 122.962 180.606 117.466 183.467 114.859C185.847 112.706 188.781 111.262 191.938 110.689C194.653 107.202 200.183 106.045 202.291 108.398C202.338 108.445 202.381 108.496 202.423 108.548C204.4 111.08 202.508 113.334 200.414 114.567Z" fill="#7F542D"/>
<path d="M200.414 114.568C200.414 114.568 191.867 131.604 185.745 129.156C184.397 128.625 183.235 127.709 182.404 126.521C185.227 126.681 187.11 125.994 187.449 123.726C187.919 120.563 188.611 113.923 188.611 113.923C188.611 113.923 198.865 114.243 202.258 108.398C202.305 108.445 202.348 108.497 202.39 108.549C204.399 111.081 202.508 113.335 200.414 114.568Z" fill="#704725"/>
<path d="M202.296 139.716C197.783 140.865 192.498 137.994 189.096 134.855C187.213 135.796 183.83 133.735 184.075 130.987C184.347 128.003 186.564 127.505 188.136 128.54C188.616 128.198 189.024 127.764 189.336 127.265C189.936 126.272 190.291 125.151 190.371 123.994C190.813 119.495 188.62 113.904 188.62 113.904C190.348 115.058 192.353 115.727 194.427 115.844C196.5 115.961 198.568 115.52 200.414 114.568C200.517 114.568 203.708 119.646 205.435 124.921C205.633 125.528 205.811 126.135 205.962 126.742C206.163 127.557 206.321 128.381 206.433 129.213C207.162 134.182 206.164 138.728 202.296 139.716Z" fill="#B25E47"/>
<path d="M196.865 123.707C196.865 123.838 196.904 123.966 196.977 124.075C197.05 124.184 197.154 124.269 197.275 124.32C197.396 124.37 197.529 124.383 197.658 124.357C197.787 124.332 197.905 124.269 197.998 124.176C198.091 124.083 198.154 123.965 198.18 123.836C198.205 123.707 198.192 123.574 198.142 123.453C198.092 123.331 198.007 123.228 197.897 123.155C197.788 123.082 197.66 123.043 197.529 123.043C197.353 123.043 197.184 123.113 197.06 123.237C196.935 123.362 196.865 123.531 196.865 123.707Z" fill="#683F1D"/>
<path d="M201.284 122.464C201.284 122.596 201.323 122.724 201.396 122.833C201.469 122.942 201.572 123.027 201.694 123.077C201.815 123.128 201.948 123.141 202.077 123.115C202.206 123.09 202.324 123.026 202.417 122.934C202.51 122.841 202.573 122.722 202.598 122.594C202.624 122.465 202.611 122.332 202.561 122.21C202.51 122.089 202.425 121.986 202.316 121.913C202.207 121.84 202.079 121.801 201.948 121.801C201.772 121.801 201.603 121.871 201.478 121.995C201.354 122.12 201.284 122.288 201.284 122.464Z" fill="#683F1D"/>
<path d="M189.722 135.932C190.649 135.932 191.402 135.18 191.402 134.252C191.402 133.324 190.649 132.572 189.722 132.572C188.794 132.572 188.042 133.324 188.042 134.252C188.042 135.18 188.794 135.932 189.722 135.932Z" fill="#FED81D"/>
<path d="M192.136 120.967C192.507 121.776 196.493 120.101 195.562 118.562C194.804 117.32 191.58 119.781 192.136 120.967Z" fill="#7F542D"/>
<path d="M198.748 117.893C198.606 119.013 201.773 118.811 201.75 118.006C201.726 117.201 198.931 116.425 198.748 117.893Z" fill="#7F542D"/>
<path d="M189.322 131.203C187.59 129.753 186.249 130.539 185.863 131.763" stroke="#934735" stroke-width="0.352947" stroke-linecap="round" stroke-linejoin="round"/>
<path d="M188.178 133.047C186.842 132.464 187.458 130.501 189.086 131" stroke="#934735" stroke-width="0.352947" stroke-linecap="round" stroke-linejoin="round"/>
<path d="M196.677 128.77C197.225 129.278 197.891 129.643 198.614 129.832C199.337 130.022 200.096 130.03 200.823 129.857" stroke="#934735" stroke-width="0.352947" stroke-linecap="round" stroke-linejoin="round"/>
<path d="M199.741 121.801C199.741 123.966 201.105 124.935 202.286 125.189C202.463 125.239 202.626 125.326 202.765 125.445C202.905 125.564 203.016 125.712 203.092 125.879C203.168 126.046 203.207 126.227 203.206 126.41C203.205 126.593 203.164 126.774 203.086 126.94" stroke="#934735" stroke-width="0.352947" stroke-linecap="round" stroke-linejoin="round"/>
<path d="M195.425 127.871C194.955 129.043 193.049 129.373 191.19 128.605C190.468 128.315 189.823 127.861 189.307 127.278C189.908 126.286 190.263 125.165 190.343 124.008C191.231 123.88 192.138 124.004 192.959 124.365C194.813 125.118 195.91 126.685 195.425 127.871Z" fill="#A0503D"/>
<path d="M206.442 129.208C205.477 129.368 204.625 129.137 204.197 128.516C203.548 127.575 204.098 126.036 205.43 124.916C205.628 125.523 205.807 126.13 205.957 126.737C206.163 127.551 206.325 128.376 206.442 129.208Z" fill="#A0503D"/>
<path d="M199.35 214.685H169.547L161.556 171.969H191.364L199.35 214.685Z" fill="#F9F9F9" stroke="#DDDDDD" stroke-width="0.470596" stroke-linecap="round" stroke-linejoin="round"/>
<path d="M181.966 169.823H178.766C178.763 169.687 178.749 169.551 178.724 169.418C178.565 168.665 178.159 167.987 177.571 167.49C176.983 166.994 176.246 166.709 175.477 166.679C175.135 166.667 174.795 166.734 174.483 166.876C174.172 167.017 173.898 167.229 173.682 167.495C173.466 167.76 173.315 168.072 173.24 168.406C173.165 168.739 173.169 169.086 173.251 169.418C173.279 169.555 173.317 169.691 173.364 169.823H170.154L171.025 174.482H182.837L181.966 169.823Z" fill="#DDDDDD"/>
<path d="M177.23 170.552C177.75 169.981 177.614 169.011 176.926 168.384C176.238 167.758 175.259 167.712 174.739 168.283C174.219 168.854 174.356 169.824 175.044 170.451C175.731 171.077 176.71 171.123 177.23 170.552Z" fill="#F9F9F9" stroke="#DDDDDD" stroke-width="0.470596" stroke-linecap="round" stroke-linejoin="round"/>
<path d="M177.293 190.657C180.117 189.222 181.815 188.86 182.225 188.243C182.634 187.627 188.032 183.509 189.472 182.921C190.912 182.332 193.387 183.796 193.387 183.796C193.387 183.796 195.74 182.61 196.86 182.921C197.98 183.231 198.846 185.467 196.987 187.368C195.707 188.681 198.296 189.198 197.284 190.662C196.813 191.33 197.952 191.641 197.797 193.133C197.642 194.624 196.898 194.775 196.987 195.391C197.077 196.008 197.458 197.603 195.947 198.215C194.437 198.827 187.312 200.22 186.183 200.37C185.053 200.521 179.5 204.432 179.5 204.432L177.293 190.657Z" fill="#B25E47"/>
<path d="M193.387 183.795L189.265 185.757" stroke="#934735" stroke-width="0.352947" stroke-linecap="round" stroke-linejoin="round"/>
<path d="M189.472 182.932C190.912 182.344 193.387 183.808 193.387 183.808C193.387 183.808 195.74 182.622 196.86 182.932C197.98 183.243 198.846 185.478 196.987 187.38C195.707 188.692 198.296 189.21 197.284 190.674C196.813 191.342 197.952 191.653 197.797 193.144C197.642 194.636 196.898 194.787 196.987 195.403C197.077 196.02 197.458 197.615 195.947 198.227" stroke="#934735" stroke-width="0.352947" stroke-linecap="round" stroke-linejoin="round"/>
<path d="M183.712 205.96C179.237 209.414 175.241 212.256 171.707 214.558C154.493 225.758 147.495 224.214 143.749 218.529C143.738 218.516 143.728 218.502 143.721 218.487C141.161 214.557 141.071 211.15 142.652 208.134C146.502 200.807 160.276 195.87 172.356 191.564C174.676 190.736 176.931 189.931 179.044 189.141L183.712 205.96Z" fill="#C5AFF9"/>
<path d="M171.707 214.558C154.493 225.759 147.495 224.215 143.749 218.53C143.738 218.517 143.728 218.503 143.721 218.488C141.161 214.558 141.071 211.151 142.652 208.135C145.104 209.485 146.714 212.497 148.601 214.69C152.883 219.641 158.276 211.405 164.648 210.897C166.53 210.742 168.493 211.26 170.535 212.982C171.057 213.396 171.461 213.94 171.707 214.558Z" fill="#9065F2"/>
<path d="M160.14 220.891C164.178 219.132 168.05 217.012 171.707 214.556C175.255 212.255 179.237 209.413 183.712 205.959L179.03 189.135" stroke="#7444DC" stroke-width="0.352947" stroke-linecap="round" stroke-linejoin="round"/>
<path d="M179.029 189.135C168.624 193.045 154.7 197.215 147.104 203.13" stroke="#7444DC" stroke-width="0.352947" stroke-linecap="round" stroke-linejoin="round"/>
<path d="M257.726 156.38L274.132 151.088L286.106 158.183L288.361 229.161H266.742L257.726 156.38Z" fill="#FED81D"/>
<path d="M272.393 226.847H233.931L235.798 173.783C235.236 172.622 234.743 171.427 234.324 170.206C229.843 156.94 239.149 151.089 245.35 149.61C249.595 148.602 255.707 148.789 259.255 148.941C260.331 148.986 261.171 149.025 261.652 149.025C264.502 158.243 266.799 167.623 268.531 177.115C268.783 178.454 269.016 179.778 269.229 181.084C269.231 181.096 269.231 181.108 269.229 181.119C273.754 207.97 272.393 226.847 272.393 226.847Z" fill="#9065F2"/>
<path d="M307.543 208.539C301.544 212.052 293.5 209.875 293.5 209.875L292.606 227.627L284.745 228.119C284.745 228.119 286.013 212.366 285.521 197.297C285.339 191.976 284.809 186.11 284.087 180.277C283.9 178.803 283.708 177.354 283.502 175.905C282.205 166.761 280.505 158.059 279.011 152.104C280.417 151.298 281.941 150.718 283.526 150.385C287.101 149.676 290.803 150.003 294.198 151.328C294.542 153.505 295.029 157.922 295.515 162.855C296.498 172.809 297.515 184.871 297.515 184.871C298.561 169.984 312.947 169.183 314.593 191.706C314.692 202.329 312.122 205.866 307.543 208.539Z" fill="#9065F2"/>
<path d="M307.248 190.902L289.496 195.108L291.417 163.82L291.83 157.123L294.203 151.33C294.203 151.33 302.723 156.332 304.555 161.579C305.07 163.396 305.421 165.256 305.602 167.136C306.722 176.054 307.248 190.902 307.248 190.902Z" fill="#9065F2"/>
<path d="M305.602 167.141C302.973 165.5 299.038 163.382 295.52 162.862L291.417 163.82L291.83 157.123L294.203 151.33C294.203 151.33 302.723 156.332 304.555 161.579C305.071 163.398 305.421 165.26 305.602 167.141Z" fill="#C5AFF9"/>
<path d="M261.667 149.025C264.517 158.243 266.814 167.623 268.546 177.115C266.742 175.895 265.159 174.378 263.863 172.629C253.658 159.363 242.2 161.023 234.324 170.206C229.843 156.94 239.149 151.089 245.35 149.61C249.595 148.602 255.707 148.789 259.255 148.941C260.345 148.986 261.185 149.025 261.667 149.025Z" fill="#C5AFF9"/>
<path d="M295.52 162.862C294.188 163.574 293.225 164.439 292.798 165.318C291.688 167.647 288.16 172.624 283.497 175.892C282.2 166.748 280.5 158.047 279.006 152.092C280.412 151.286 281.936 150.705 283.522 150.372C287.1 149.662 290.808 149.995 294.203 151.33C294.547 153.512 295.033 157.929 295.52 162.862Z" fill="#C5AFF9"/>
<path d="M269.258 181.084C267.956 174.913 259.097 166.202 259.097 166.202L261.038 160.945L257.161 159.122L259.269 148.941C260.345 148.986 261.185 149.025 261.667 149.025C264.921 159.527 267.457 170.238 269.258 181.084Z" fill="#7444DC"/>
<path d="M289.496 165.014C287.05 169.851 285.234 174.981 284.091 180.279C282.93 170.801 281.235 161.395 279.016 152.106C280.422 151.3 281.946 150.72 283.531 150.387L288.794 158.7L285.57 162.39L289.496 165.014Z" fill="#7444DC"/>
<path d="M264.109 146.191C263.156 147.013 262.329 147.97 261.652 149.031L262.517 160.946C262.517 160.946 266.448 155.541 273.032 155.93L264.109 146.191Z" fill="white"/>
<path d="M278.269 147.889C278.269 147.997 276.083 155.814 276.083 155.814C276.083 155.814 280.372 157.735 283.33 160.968C283.33 160.968 281.89 152.212 281.365 150.748C280.839 149.284 278.269 147.889 278.269 147.889Z" fill="white"/>
<path d="M293.525 167.896C293.712 173.227 293.761 204.692 293.525 209.876" stroke="#7444DC" stroke-width="0.3685" stroke-linecap="round" stroke-linejoin="round"/>
<path d="M280.5 140.176L279.321 142.5L279.085 142.991C279.085 142.991 278.652 145.168 278.392 147.001C278.262 147.747 278.2 148.503 278.205 149.261C278.318 150.489 279.085 156.989 272.756 156.341C266.428 155.692 263.912 147.443 263.912 147.443C264.148 145.394 266.462 135.046 266.462 135.046C266.462 135.046 268.88 129.273 276.186 130.3C281.099 130.988 280.716 136.481 279.935 140.009L280.5 140.176Z" fill="#FEBD9D"/>
<path d="M280.5 140.176L279.321 142.5L279.085 142.991C279.085 142.991 278.652 145.168 278.392 147.001C275.247 146.18 271.282 143.424 271.946 137.488L279.94 140.009L280.5 140.176Z" fill="#F4A789"/>
<path d="M266.143 130.933C259.377 125.263 260.68 117.82 266.143 119.019C266.143 119.019 264.114 116.1 268.172 112.459C270.546 110.327 274.609 109.811 277.385 111.884C279.203 113.25 282.74 111.771 283.369 110.69C286.73 113.914 285.207 119.559 280.839 120.08L266.143 130.933Z" fill="#BF8228"/>
<path d="M266.851 130.732C263.082 126.801 262.92 121.751 266.335 119.859C266.335 119.859 265.642 114.194 272.27 113.594C279.463 112.946 281.699 118.346 278.736 122.36L266.851 130.732Z" fill="#B57724"/>
<path d="M271.145 120.752C271.636 116.748 274.437 114.394 277.404 114.724C280.372 115.053 282.858 114.168 283.212 112.527" stroke="#9B621F" stroke-width="0.3685" stroke-linecap="round" stroke-linejoin="round"/>
<path d="M275.616 117.57C275.876 117.57 282.785 120.115 284.037 114.838" stroke="#9B621F" stroke-width="0.3685" stroke-linecap="round" stroke-linejoin="round"/>
<path d="M265.868 128.967C265.868 128.854 268.217 125.527 267.804 122.24" stroke="#9B621F" stroke-width="0.3685" stroke-linecap="round" stroke-linejoin="round"/>
<path d="M265.947 130.619C264.311 128.246 262.37 122.325 266.143 120.91" stroke="#9B621F" stroke-width="0.3685" stroke-linecap="round" stroke-linejoin="round"/>
<path d="M266.143 119.018C266.513 119.001 266.882 119.068 267.222 119.213C267.562 119.359 267.865 119.579 268.108 119.858" stroke="#9B621F" stroke-width="0.3685" stroke-linecap="round" stroke-linejoin="round"/>
<path d="M267.833 117.214C268.271 113.461 273.813 110.626 277.252 111.81" stroke="#9B621F" stroke-width="0.3685" stroke-linecap="round" stroke-linejoin="round"/>
<path d="M284.288 132.736L284.077 133.149L280.5 140.175L279.321 142.499L279.08 142.99L272.983 137.817L269.052 134.466C268.213 134.737 267.351 134.931 266.477 135.046C265.74 135.024 265.03 134.763 264.453 134.303C263.876 133.844 263.464 133.209 263.279 132.496C262.438 129.774 264.507 127.911 266.718 128.304C267.031 128.355 267.335 128.449 267.622 128.585C270.634 126.526 270.624 122.482 269.003 121.273C268.418 118.055 275.415 114.636 276.559 117.117C278.166 120.61 280.839 120.065 280.839 120.065C281.922 122.589 282.809 125.192 283.492 127.852C283.531 128.01 283.571 128.172 283.605 128.319C283.987 129.764 284.216 131.244 284.288 132.736Z" fill="#FEBD9D"/>
<path d="M274.353 137.689C276.521 137.689 278.279 135.932 278.279 133.764C278.279 131.596 276.521 129.838 274.353 129.838C272.185 129.838 270.428 131.596 270.428 133.764C270.428 135.932 272.185 137.689 274.353 137.689Z" fill="#F4AF90"/>
<path d="M284.288 132.737L284.077 133.15C283.663 132.862 283.316 132.489 283.059 132.056C282.802 131.623 282.64 131.14 282.584 130.639C282.529 130.139 282.581 129.632 282.738 129.153C282.894 128.674 283.152 128.235 283.492 127.863C283.531 128.021 283.571 128.183 283.605 128.33C283.986 129.771 284.215 131.248 284.288 132.737Z" fill="#F4AF90"/>
<path d="M280.5 140.175L279.321 142.499L279.08 142.99L272.983 137.816L280.5 140.175Z" fill="#F4A789"/>
<path d="M276.741 127.633C277.105 127.633 277.4 127.338 277.4 126.975C277.4 126.611 277.105 126.316 276.741 126.316C276.378 126.316 276.083 126.611 276.083 126.975C276.083 127.338 276.378 127.633 276.741 127.633Z" fill="#683F1D"/>
<path d="M281.311 126.311C281.674 126.311 281.969 126.016 281.969 125.653C281.969 125.289 281.674 124.994 281.311 124.994C280.947 124.994 280.652 125.289 280.652 125.653C280.652 126.016 280.947 126.311 281.311 126.311Z" fill="#683F1D"/>
<path d="M278.412 120.595C278.358 121.661 281.36 121.494 281.561 121.174C281.836 120.752 278.505 118.816 278.412 120.595Z" fill="#BF8228"/>
<path d="M272.422 123.416C272.236 124.59 275.41 122.802 275.591 122.119C275.624 121.973 275.624 121.822 275.589 121.676C275.555 121.531 275.488 121.395 275.393 121.28C275.298 121.164 275.178 121.072 275.042 121.009C274.907 120.947 274.758 120.917 274.609 120.92C273.916 121.009 272.55 122.605 272.422 123.416Z" fill="#BF8228"/>
<path d="M286.504 136.245C286.5 136.823 286.434 137.4 286.308 137.964C285.084 143.266 278.692 145.074 272.948 139.93C268.099 135.591 266.718 128.315 266.718 128.315C266.717 128.305 266.717 128.295 266.718 128.285C267.031 128.335 267.335 128.43 267.622 128.565C267.622 128.565 268.86 131.892 271.351 133.916C272.452 134.815 273.479 135.292 274.496 135.301C275.773 135.301 277.036 134.589 278.427 133.041C280.883 130.27 282.74 130.521 283.423 130.678C283.621 129.907 283.686 129.108 283.615 128.315C284.632 129.479 286.543 132.825 286.504 136.245Z" fill="#BF8228"/>
<path d="M278.721 123.416C279.149 126.585 280.254 127.17 281.787 127.637C282.74 127.931 281.787 129.749 281.787 129.749" stroke="#EF8A66" stroke-width="0.3685" stroke-linecap="round" stroke-linejoin="round"/>
<path d="M283.143 131.922C282.858 135.283 279.498 135.528 278.839 133.725C278.839 133.725 281.679 133.258 283.143 131.922Z" fill="white" stroke="#EF8A66" stroke-width="0.3685" stroke-linecap="round" stroke-linejoin="round"/>
<path d="M266.458 135.037C267.034 135.006 267.6 134.878 268.133 134.658" stroke="#EF8A66" stroke-width="0.3685" stroke-linecap="round" stroke-linejoin="round"/>
<path d="M264.856 131.253C265.244 130.649 267.023 129.872 267.779 131.921" stroke="#EF8A66" stroke-width="0.3685" stroke-linecap="round" stroke-linejoin="round"/>
<path d="M267.435 131.258C265.726 131.017 265.627 133.621 267.711 133.125" stroke="#EF8A66" stroke-width="0.3685" stroke-linecap="round" stroke-linejoin="round"/>
<path d="M277.549 125.049L273.156 126.567C272.818 126.684 272.638 127.054 272.755 127.392L273.514 129.589C273.632 129.927 274.001 130.107 274.339 129.99L278.732 128.471C279.071 128.354 279.25 127.985 279.133 127.646L278.374 125.45C278.257 125.111 277.888 124.932 277.549 125.049Z" stroke="#683F1D" stroke-width="0.491333" stroke-linecap="round" stroke-linejoin="round"/>
<path d="M280.888 124.064L284.735 122.733C284.89 122.68 285.06 122.69 285.208 122.762C285.355 122.834 285.468 122.961 285.521 123.116L286.298 125.371C286.351 125.526 286.341 125.695 286.27 125.842C286.2 125.99 286.073 126.103 285.919 126.157L282.78 127.238" stroke="#683F1D" stroke-width="0.491333" stroke-linecap="round" stroke-linejoin="round"/>
<path d="M286.504 136.245C286.5 136.823 286.434 137.4 286.308 137.964C285.084 143.266 278.692 145.074 272.948 139.93C268.099 135.591 266.718 128.315 266.718 128.315C266.717 128.305 266.717 128.295 266.718 128.285C267.031 128.335 267.335 128.43 267.622 128.565C267.622 128.565 268.86 131.892 271.351 133.916C272.452 134.815 273.479 135.292 274.496 135.301C277.154 138.303 279.154 139.232 281.581 138.898C283.487 138.633 285.235 137.692 286.504 136.245Z" fill="#B57724"/>
<path d="M276.304 142.162C280.112 140.29 283.104 139.99 285.104 140.555" stroke="#9B621F" stroke-width="0.3685" stroke-linecap="round" stroke-linejoin="round"/>
<path d="M273.272 140.224C276.5 138.475 282.608 138.072 286.106 138.647" stroke="#9B621F" stroke-width="0.3685" stroke-linecap="round" stroke-linejoin="round"/>
<path d="M268.615 133.891C271.936 138.947 280.755 136.952 282.74 135.778C284.622 134.658 284.485 131.739 283.522 130.172" stroke="#9B621F" stroke-width="0.3685" stroke-linecap="round" stroke-linejoin="round"/>
<path d="M278.643 126.157L280.018 125.666" stroke="#683F1D" stroke-width="0.491333" stroke-linecap="round" stroke-linejoin="round"/>
<path d="M285.06 122.139C284.499 122.778 285.836 124.075 287.86 124.767C289.064 125.18 290.149 125.882 291.019 126.811C291.019 126.811 290.553 129.592 292.184 130.58C292.184 130.58 291.462 131.445 290.995 130.835C290.528 130.226 289.56 127.032 287.752 127.239C286.504 127.381 288.391 130.983 288.661 132.393C288.931 133.803 289.752 135.783 291.462 136.609C293.171 137.434 294.955 142.401 294.955 142.401C294.955 142.401 301.863 139.891 301.888 139.832C301.912 139.773 300.959 137.375 300.959 137.375C300.959 137.375 301.151 133.882 301.126 131.287C301.102 128.693 300.222 126.762 298.139 126.698C298.139 126.698 298.35 125.411 296.724 125.288C296.724 125.288 296.616 123.323 293.284 124.34C293.294 124.35 286.258 120.768 285.06 122.139Z" fill="#FEBD9D"/>
<path d="M294.203 144.804C294.105 144.662 293.594 141.635 293.594 141.635L302.04 138.908L303.514 142.348L294.203 144.804Z" fill="white"/>
<path d="M298.139 126.708C298.139 126.708 298.35 125.421 296.724 125.298C296.724 125.298 296.616 123.333 293.284 124.35C293.284 124.35 286.249 120.768 285.05 122.139C284.49 122.777 285.826 124.075 287.85 124.767C289.055 125.18 290.139 125.882 291.01 126.811C291.01 126.811 290.543 129.592 292.174 130.58C292.174 130.58 291.452 131.445 290.985 130.835C290.518 130.226 289.55 127.032 287.742 127.239C286.494 127.381 288.381 130.983 288.651 132.393C288.921 133.803 289.742 135.783 291.452 136.609" stroke="#EF8A66" stroke-width="0.3685" stroke-linecap="round" stroke-linejoin="round"/>
<path d="M291.088 130.934C291.761 131.366 295.363 131.71 295.545 134.456" stroke="#EF8A66" stroke-width="0.3685" stroke-linecap="round" stroke-linejoin="round"/>
<path d="M292.184 130.58C292.377 130.672 292.589 130.715 292.802 130.707C293.015 130.698 293.223 130.638 293.407 130.531" stroke="#EF8A66" stroke-width="0.3685" stroke-linecap="round" stroke-linejoin="round"/>
<path d="M291.019 126.81C291.2 126.262 291.497 125.758 291.89 125.334C292.282 124.91 292.761 124.576 293.294 124.354" stroke="#EF8A66" stroke-width="0.3685" stroke-linecap="round" stroke-linejoin="round"/>
<path d="M296.64 125.287C293.658 126.334 293.162 128.525 293.294 129.773C293.427 131.021 293.967 131.517 294.675 131.409C294.858 131.364 295.025 131.271 295.16 131.14C295.294 131.009 295.392 130.844 295.441 130.662" stroke="#EF8A66" stroke-width="0.3685" stroke-linecap="round" stroke-linejoin="round"/>
<path d="M298.139 126.707C297.409 126.78 296.73 127.113 296.225 127.645C295.72 128.177 295.423 128.873 295.387 129.606C295.23 131.394 296.193 131.802 296.861 131.399C297.598 130.932 298.335 129.228 298.335 129.228" stroke="#EF8A66" stroke-width="0.3685" stroke-linecap="round" stroke-linejoin="round"/>
<path d="M314.598 191.712C313.69 205.469 298.846 203.086 297.52 184.878C297.52 184.878 296.503 172.815 295.52 162.861C295.029 157.948 294.537 153.526 294.203 151.334L293.181 144.372L306.393 140.441C306.393 140.441 308.992 150.818 311.267 163.377C312.211 168.595 313.1 174.186 313.724 179.561C314.229 183.593 314.521 187.649 314.598 191.712Z" fill="#9065F2"/>
<path d="M297.52 184.877C297.52 184.877 296.503 172.815 295.52 162.861C295.029 157.947 294.537 153.525 294.203 151.334" stroke="#7444DC" stroke-width="0.3685" stroke-linecap="round" stroke-linejoin="round"/>
<path d="M317.753 183.266C317.787 183.153 320.249 179.385 322.563 178.412C324.877 177.439 327.899 175.955 328.872 174.585C329.844 173.214 331.82 173.189 330.586 175.916C329.353 178.643 327.938 179.159 327.938 179.159C327.938 179.159 334.242 177.297 337.937 176.55C341.632 175.803 342.786 177.444 338.983 178.864C336.863 179.627 334.815 180.576 332.861 181.699C332.861 181.699 339.278 180.879 341.926 180.913C344.575 180.947 345.366 182.387 341.779 183.266C344.206 183.301 344.58 184.681 341.705 185.315C338.831 185.949 333.981 187.197 333.981 187.197C333.981 187.197 339.096 186.863 341.165 187.197C343.233 187.531 342.147 189.162 339.357 189.472C336.566 189.781 321.669 192.454 319.354 192.12L317.753 183.266Z" fill="#FEBD9D"/>
<path d="M325.531 177.008C327.005 176.241 328.292 175.381 328.872 174.551C329.854 173.195 331.82 173.156 330.586 175.882C329.353 178.609 327.938 179.125 327.938 179.125C327.938 179.125 334.242 177.263 337.937 176.516C341.632 175.769 342.786 177.41 338.983 178.83C336.863 179.594 334.815 180.542 332.861 181.665C332.861 181.665 339.278 180.845 341.926 180.879C344.575 180.914 345.366 182.353 341.779 183.233C344.206 183.267 344.58 184.648 341.705 185.282C338.831 185.915 333.981 187.198 333.981 187.198C333.981 187.198 339.096 186.864 341.165 187.198C343.233 187.532 342.147 189.163 339.357 189.473" stroke="#EF8A66" stroke-width="0.3685" stroke-linecap="round" stroke-linejoin="round"/>
<path d="M313.724 182.092L318.2 180.898L320.961 193.398L317.34 194.592L313.724 182.092Z" fill="white"/>
<path d="M325.585 179.929L327.938 179.143" stroke="#EF8A66" stroke-width="0.3685" stroke-linecap="round" stroke-linejoin="round"/>
<path d="M333.259 184.48L341.779 183.252" stroke="#EF8A66" stroke-width="0.3685" stroke-linecap="round" stroke-linejoin="round"/>
<path d="M319.197 195.599C319.197 195.599 306.03 201.058 294.92 206.015C292.189 207.239 289.585 208.428 287.324 209.494C275.891 214.923 271.037 217.355 263.205 214.466C257.653 212.412 251.904 203.445 244.962 190.853C242.122 185.694 239.095 179.93 235.798 173.784C234.157 167.499 244.456 162.974 251.609 164.095C251.644 164.095 253.796 164.095 256.1 166.551C258.847 169.46 272.584 192.911 272.584 192.911C277.006 190.769 315.389 179.586 315.389 179.586L319.197 195.599Z" fill="#9065F2"/>
<path d="M294.92 206.014C292.189 207.238 289.585 208.427 287.324 209.493C275.891 214.922 271.037 217.354 263.205 214.465C257.653 212.411 251.904 203.445 244.962 190.852C248.583 189.997 252.872 190.493 254.626 196.384C257.987 207.685 265.927 213.325 274.058 206.073C280.407 200.423 290.96 199.258 294.92 206.014Z" fill="#824CF6"/>
<path d="M251.619 164.105C251.619 164.105 253.791 164.105 256.11 166.562C258.857 169.476 272.594 192.927 272.594 192.927C277.016 190.78 315.399 179.602 315.399 179.602L319.207 195.615C319.207 195.615 298.768 204.085 287.334 209.51C275.901 214.934 271.052 217.371 263.22 214.477C256.626 212.05 249.742 199.879 240.967 183.464" stroke="#7444DC" stroke-width="0.3685" stroke-linecap="round" stroke-linejoin="round"/>
<path d="M267.612 197.3C267.612 197.3 269.676 194.032 272.584 192.912" stroke="#7444DC" stroke-width="0.3685" stroke-linecap="round" stroke-linejoin="round"/>
<path d="M346.181 164.705C346.294 160.941 348.825 158.018 349.945 156.612C351.065 155.207 349.252 154.131 349.945 151.05C351.016 146.334 356.578 148.987 356.578 141.391C356.578 139.032 357.138 138.526 357.138 138.526C357.138 138.526 352.981 129.378 360.509 126.341C360.509 126.341 361.182 122.46 368.036 120.716C374.89 118.971 381.071 126.051 376.634 136.276L376.295 144.368C376.938 144.49 377.523 144.821 377.96 145.308C378.397 145.795 378.661 146.413 378.713 147.066C379.204 150.505 383.596 148.358 383.822 157.231L346.181 164.705Z" fill="#7F542D"/>
<path d="M362.12 152.671C358.715 153.728 356.042 153.536 356.042 150.495C356.042 147.635 359.575 146.112 358.99 141.469C358.406 136.826 359.31 134.62 360.872 132.625C362.435 130.63 364.69 123.781 370.242 124.995C375.794 126.208 376.629 136.295 376.629 136.295L373.681 145.655C373.681 145.655 377.273 150.642 376.217 152.455C375.16 154.268 362.12 152.671 362.12 152.671Z" fill="#704725"/>
<path d="M375.435 146.059C375.435 146.059 378.246 146.103 377.528 149.714C377.273 150.948 377.44 152.233 378.003 153.36C378.567 154.488 379.493 155.393 380.634 155.929" stroke="#A56F42" stroke-width="0.3685" stroke-linecap="round" stroke-linejoin="round"/>
<path d="M360.509 128.932C357.389 132.587 358.597 136.238 358.597 136.238" stroke="#A56F42" stroke-width="0.3685" stroke-linecap="round" stroke-linejoin="round"/>
<path d="M357.482 148.275C354.097 150.01 352.122 153.4 354.229 156.692C354.661 157.334 354.945 158.063 355.062 158.827C355.18 159.592 355.127 160.372 354.908 161.114" stroke="#A56F42" stroke-width="0.3685" stroke-linecap="round" stroke-linejoin="round"/>
<path d="M360.509 126.342C360.509 126.342 363.015 127.069 363.737 128.622" stroke="#A56F42" stroke-width="0.3685" stroke-linecap="round" stroke-linejoin="round"/>
<path d="M365.52 126.116C365.52 126.116 371.126 120.957 375.146 125.624" stroke="#A56F42" stroke-width="0.3685" stroke-linecap="round" stroke-linejoin="round"/>
<path d="M378.192 142.575C378.315 149.075 373.858 150.721 371.711 150.849C366.798 151.026 362.233 145.444 360.71 143.346C360.656 142.909 360.597 142.462 360.523 142.01C357.6 142.634 356.401 141.268 356.072 139.204C355.743 137.141 358.258 134.748 361.521 137.391C364.577 135.283 365.004 132.355 364.366 129.756C365.087 128.718 366.121 127.939 367.317 127.531C368.514 127.124 369.809 127.11 371.013 127.491C374.428 128.473 376.811 133.161 377.75 138.246C377.964 139.407 378.104 140.58 378.167 141.759C378.177 142.034 378.187 142.304 378.192 142.575Z" fill="#FEBD9D"/>
<path d="M373.023 131.108C373.126 131.973 375.357 132.091 376.359 131.599C377.361 131.108 372.728 128.642 373.023 131.108Z" fill="#7F542D"/>
<path d="M366.1 132.959C365.928 133.726 368.119 132.719 368.92 132.665C369.721 132.611 370.139 132.257 369.736 131.274C369.333 130.292 366.483 131.309 366.1 132.959Z" fill="#7F542D"/>
<path d="M370.483 137.407C370.846 137.407 371.141 137.112 371.141 136.748C371.141 136.385 370.846 136.09 370.483 136.09C370.119 136.09 369.824 136.385 369.824 136.748C369.824 137.112 370.119 137.407 370.483 137.407Z" fill="#683F1D"/>
<path d="M375.146 135.745C375.509 135.745 375.804 135.45 375.804 135.086C375.804 134.723 375.509 134.428 375.146 134.428C374.782 134.428 374.487 134.723 374.487 135.086C374.487 135.45 374.782 135.745 375.146 135.745Z" fill="#683F1D"/>
<path d="M373.151 134.738C373.107 136.704 374.055 137.382 374.281 137.603C374.821 138.128 376.064 137.603 375.499 139.519" stroke="#EF8A66" stroke-width="0.3685" stroke-linecap="round" stroke-linejoin="round"/>
<path d="M370.876 142.914C371.726 142.064 374.959 142.241 375.298 142.58C375.637 142.919 375.047 144.378 373.642 144.358C372.237 144.339 370.478 143.312 370.876 142.914Z" fill="white" stroke="#EF8A66" stroke-width="0.3685" stroke-linecap="round" stroke-linejoin="round"/>
<path d="M357.91 139.421C358.656 138.33 360.199 138.694 360.823 139.239C358.823 138.905 358.642 141.136 360.882 140.541" stroke="#EF8A66" stroke-width="0.3685" stroke-linecap="round" stroke-linejoin="round"/>
<path d="M371.087 141.43C370.778 142.359 369.122 142.634 367.368 142.049C365.614 141.464 364.469 140.236 364.783 139.307C365.098 138.379 366.749 138.104 368.503 138.693C370.257 139.283 371.402 140.521 371.087 141.43Z" fill="#F4AF90"/>
<path d="M378.162 141.759C377.342 141.911 376.659 141.759 376.344 141.307C375.853 140.565 376.462 139.253 377.745 138.246C377.959 139.407 378.099 140.58 378.162 141.759Z" fill="#F4AF90"/>
<path d="M358.73 142.58C358.73 142.863 358.814 143.139 358.971 143.375C359.128 143.61 359.351 143.793 359.613 143.901C359.874 144.009 360.161 144.038 360.439 143.982C360.716 143.927 360.971 143.791 361.171 143.591C361.371 143.391 361.507 143.136 361.562 142.859C361.617 142.582 361.589 142.294 361.481 142.033C361.373 141.772 361.189 141.548 360.954 141.391C360.719 141.234 360.443 141.15 360.16 141.15C359.972 141.15 359.786 141.187 359.613 141.259C359.439 141.331 359.282 141.436 359.149 141.569C359.016 141.702 358.911 141.86 358.839 142.033C358.767 142.206 358.73 142.392 358.73 142.58Z" fill="#C5AFF9"/>
<path d="M416.481 162.838L409.49 171.888C409.49 171.888 400.154 209.5 395.433 212.669C393.945 213.65 392.24 214.252 390.467 214.424C388.693 214.595 386.905 214.33 385.257 213.652C385.257 213.627 385.257 213.607 385.257 213.583C385.257 213.558 381.086 210.07 381.882 204.901C381.955 204.41 391.3 188.274 395.305 181.16C398.503 175.431 402.395 168.876 402.395 168.876L416.481 162.838Z" fill="#FEBD9D"/>
<path d="M402.414 168.883C402.414 168.883 402.96 160.387 403.151 159.429C403.343 158.471 409.082 152.954 409.897 152.516C410.713 152.079 415.793 153.583 416.211 154.049C416.629 154.516 416.157 155.607 414.791 155.523C413.425 155.44 414.599 158.746 414.599 158.746C414.599 158.746 416.806 161.085 416.481 162.839C416.481 162.839 407.908 171.477 407.795 171.447C407.682 171.418 402.414 168.883 402.414 168.883Z" fill="#FEBD9D"/>
<path d="M402.414 168.883C402.414 168.883 402.96 160.387 403.151 159.429C403.343 158.471 409.082 152.954 409.897 152.516C410.713 152.079 415.793 153.583 416.211 154.049C416.629 154.516 416.157 155.607 414.791 155.523C413.425 155.44 414.599 158.746 414.599 158.746C414.599 158.746 416.806 161.085 416.481 162.839C416.481 162.839 407.908 171.477 407.795 171.447C407.682 171.418 402.414 168.883 402.414 168.883Z" fill="#FEBD9D"/>
<path d="M403.151 159.429C403.343 158.447 409.082 152.954 409.897 152.516C410.713 152.079 415.793 153.583 416.211 154.049C416.629 154.516 416.157 155.607 414.791 155.523" stroke="#EF8A66" stroke-width="0.3685" stroke-linecap="round" stroke-linejoin="round"/>
<path d="M411.347 155.93C411.43 155.743 414.624 154.677 415.169 154.869C415.715 155.06 418.339 159.428 418.422 160.303C418.506 161.177 417.263 165.015 416.128 164.676C414.993 164.337 416.172 161.079 416.172 161.079L411.347 155.93Z" fill="#FEBD9D" stroke="#EF8A66" stroke-width="0.3685" stroke-linecap="round" stroke-linejoin="round"/>
<path d="M413.558 163.497C414.487 164.111 415.563 162.701 416.172 161.08L414.108 159.404C414.108 159.404 412.192 162.598 413.558 163.497Z" fill="#FEBD9D" stroke="#EF8A66" stroke-width="0.3685" stroke-linecap="round" stroke-linejoin="round"/>
<path d="M416.668 159.841L417.336 161.526C417.356 161.575 417.362 161.629 417.354 161.681C417.346 161.733 417.324 161.782 417.29 161.822C417.256 161.863 417.212 161.893 417.162 161.91C417.112 161.927 417.059 161.931 417.007 161.92L415.233 161.546L400.493 149.106C400.382 149.011 400.289 148.896 400.222 148.767C400.155 148.637 400.114 148.495 400.102 148.349C400.089 148.204 400.106 148.057 400.15 147.918C400.195 147.779 400.266 147.65 400.361 147.538C400.551 147.313 400.823 147.173 401.117 147.149C401.411 147.124 401.702 147.216 401.928 147.406L416.668 159.841Z" fill="#683F1D"/>
<path d="M407.117 159.09C408.777 156.692 410.6 154.806 411.484 154.589C412.821 154.265 413.126 155.852 409.981 160.441C410.496 161.748 410.577 163.186 410.214 164.543C409.85 165.9 409.061 167.104 407.962 167.978" fill="#FEBD9D"/>
<path d="M407.117 159.09C408.777 156.692 410.6 154.806 411.484 154.589C412.821 154.265 413.126 155.852 409.981 160.441C410.496 161.748 410.577 163.186 410.214 164.543C409.85 165.9 409.061 167.104 407.962 167.978" stroke="#EF8A66" stroke-width="0.3685" stroke-linecap="round" stroke-linejoin="round"/>
<path d="M393.644 187.198C393.541 187.689 392.794 189.055 392.661 189.532C390.485 198.798 386.839 207.76 385.257 213.568C384.809 215.253 384.45 216.96 384.181 218.682C383.385 223.537 383.135 228.111 383.135 228.111L347.228 227.438L342.88 227.359L343.047 208.993L343.086 205.131C343.086 205.131 332.822 204.424 332.743 204.64C332.665 204.856 333.235 199.029 333.235 199.029C329.869 195.172 329.663 189.517 330.493 186.112C331.053 183.832 333.338 177.69 335.682 172.571C336.618 170.412 337.717 168.328 338.969 166.336C341.917 161.973 343.744 161.643 347.611 160.848C351.478 160.052 358.042 156.597 358.042 156.597L370.522 155.207C370.522 155.207 377.047 155.659 382.859 155.413C388.387 155.178 391.492 156.426 393.919 161.516C394.052 161.781 394.175 162.061 394.303 162.351C396.096 166.532 397.707 172.502 398.489 175.588C396.012 181.572 393.644 187.198 393.644 187.198Z" fill="#FED81D"/>
<path d="M393.924 161.516C388.829 160.961 385.645 165.191 381.906 173.2C377.44 182.736 367.697 184.053 358.366 176.575C350.151 169.981 344.118 168.429 335.706 172.576C336.643 170.417 337.741 168.333 338.993 166.341C341.941 161.978 343.769 161.648 347.636 160.852C351.503 160.056 358.067 156.602 358.067 156.602L370.522 155.207C370.522 155.207 377.047 155.659 382.859 155.413C388.392 155.178 391.497 156.426 393.924 161.516Z" fill="#FFE05C"/>
<path d="M348.274 202.522L351.611 181.223C352.539 182.648 355.099 184.628 354.274 188.652C352.171 198.812 359.187 190.764 361.924 195.653C363.059 197.687 353.468 201.014 348.274 202.522Z" fill="#FCC71F"/>
<path d="M360.445 155.137C359.462 154.714 358.067 156.095 358.067 156.611C358.067 157.127 359.482 161.524 361.368 163.578C363.255 165.632 366.704 166.084 368.011 161.259C371.495 164.885 374.89 163.519 374.433 159.102C373.976 154.685 370.822 153.83 370.822 153.83L360.445 155.137Z" fill="white"/>
<path d="M347.975 204.434L348.274 202.522L351.611 181.223L352.657 174.57" stroke="#F7AD2B" stroke-width="0.3685" stroke-linecap="round" stroke-linejoin="round"/>
<path d="M333.259 199.04C338.36 197.409 343.747 196.869 349.07 197.453" stroke="#F7AD2B" stroke-width="0.3685" stroke-linecap="round" stroke-linejoin="round"/>
<path d="M369.923 168.358C370.661 168.358 371.259 167.76 371.259 167.022C371.259 166.284 370.661 165.686 369.923 165.686C369.184 165.686 368.586 166.284 368.586 167.022C368.586 167.76 369.184 168.358 369.923 168.358Z" fill="white"/>
<path d="M371.264 173.966C372.002 173.966 372.6 173.367 372.6 172.629C372.6 171.891 372.002 171.293 371.264 171.293C370.526 171.293 369.927 171.891 369.927 172.629C369.927 173.367 370.526 173.966 371.264 173.966Z" fill="white"/>
<path d="M336.183 217.792H336.158C330.513 215.851 332.252 207.194 332.906 202.668L339.209 201.145L348.859 198.816C348.859 198.816 350.515 220.071 336.183 217.792Z" fill="#FEBD9D"/>
<path d="M371.711 150.839C371.711 150.962 371.632 153.197 371.569 154.804C371.544 155.511 371.515 156.101 371.505 156.322C371.465 157.064 369.893 160.159 366.591 159.334C363.29 158.508 360.523 155.664 360.445 155.123C360.366 154.583 361.87 150.343 361.069 143.823C363.943 140.462 372.369 142.579 371.711 150.839Z" fill="#FEBD9D"/>
<path d="M371.711 150.838C371.711 150.838 371.632 153.157 371.569 154.808C369.294 154.499 364.98 153.152 365.24 147.35C366.188 148.784 369.456 150.951 371.711 150.838Z" fill="#F4A789"/>
<path d="M399.245 184.393C399.208 184.392 399.172 184.381 399.14 184.363C399.107 184.346 399.08 184.32 399.059 184.29L388.107 168.734C388.085 168.707 388.07 168.675 388.063 168.641C388.056 168.607 388.058 168.571 388.067 168.538C388.075 168.505 388.089 168.474 388.11 168.447C388.13 168.42 388.156 168.397 388.185 168.381C388.875 167.938 389.667 167.68 390.485 167.629C392.263 167.629 394.067 169.285 396.715 173.348C401.628 180.875 400.041 183.666 399.442 184.315C399.418 184.339 399.39 184.359 399.359 184.372C399.328 184.386 399.294 184.393 399.26 184.393H399.245Z" fill="#F9F9F9"/>
<path d="M390.485 167.874C392.037 167.874 393.728 169.215 396.509 173.485C400.592 179.745 400.311 182.973 399.26 184.147L388.303 168.591C388.957 168.17 389.708 167.923 390.485 167.874ZM390.485 167.383C389.625 167.432 388.793 167.701 388.067 168.164C388.007 168.197 387.955 168.243 387.913 168.298C387.872 168.353 387.842 168.416 387.827 168.483C387.811 168.551 387.811 168.621 387.824 168.688C387.838 168.756 387.865 168.82 387.905 168.876L398.857 184.432C398.9 184.492 398.956 184.542 399.02 184.578C399.085 184.614 399.157 184.634 399.231 184.638H399.26C399.329 184.638 399.396 184.624 399.459 184.596C399.522 184.568 399.578 184.527 399.624 184.476C400.253 183.774 401.918 180.89 396.921 173.215C394.219 169.073 392.357 167.383 390.485 167.383Z" fill="#DDDDDD"/>
<path d="M403.746 187.252C403.699 187.251 403.653 187.237 403.613 187.213L399.127 184.358C399.095 184.337 399.068 184.309 399.049 184.275C399.029 184.242 399.017 184.205 399.014 184.167C399.012 184.129 399.018 184.092 399.032 184.057C399.045 184.023 399.066 183.991 399.093 183.965C399.579 183.526 400.212 183.285 400.867 183.287C401.366 183.305 401.856 183.427 402.306 183.644C402.756 183.862 403.156 184.17 403.481 184.55C404.724 185.93 403.972 187.129 403.972 187.139C403.948 187.176 403.914 187.206 403.874 187.226C403.834 187.246 403.79 187.255 403.746 187.252Z" fill="#F9F9F9"/>
<path d="M400.867 183.532C401.332 183.551 401.788 183.666 402.207 183.869C402.626 184.073 402.997 184.362 403.299 184.717C404.429 185.969 403.746 187.006 403.746 187.006L399.26 184.147C399.699 183.747 400.273 183.528 400.867 183.532ZM400.867 183.041C400.151 183.037 399.46 183.301 398.931 183.783C398.874 183.834 398.83 183.897 398.802 183.967C398.774 184.038 398.762 184.114 398.768 184.189C398.775 184.265 398.798 184.338 398.838 184.403C398.877 184.468 398.931 184.523 398.995 184.564L403.481 187.419C403.59 187.489 403.722 187.514 403.849 187.487C403.976 187.461 404.087 187.385 404.159 187.276C404.193 187.222 405.033 185.906 403.667 184.387C403.32 183.981 402.893 183.652 402.411 183.42C401.93 183.188 401.406 183.059 400.872 183.041H400.867Z" fill="#DDDDDD"/>
<path d="M364.547 181.655L389.325 167.023C389.325 167.023 397.565 175.661 399.26 184.146L372.979 197.791C372.979 197.791 370.06 188.401 364.547 181.655Z" fill="#F9F9F9" stroke="#DDDDDD" stroke-width="0.491333" stroke-linecap="round" stroke-linejoin="round"/>
<path d="M374.207 197.147L380.55 199.039L403.746 187.006C402.514 185.692 400.972 184.708 399.26 184.146L374.207 197.147Z" fill="#DDDDDD" stroke="#DDDDDD" stroke-width="0.491333" stroke-miterlimit="10"/>
<path d="M385.871 189.3C385.635 190.416 383.385 190.676 382.004 190.588C380.624 190.499 376.035 190.764 376.035 190.764C376.035 190.764 378.58 192.14 378.845 192.401C379.675 193.626 380.318 194.97 380.751 196.385C381.42 198.434 380.923 199.662 380.26 199.515C379.597 199.368 379.356 198.292 379.356 198.292C379.12 199.662 378.27 198.523 378.27 198.523C378.27 198.96 376.162 202.709 375.322 201.962C374.482 201.215 375.666 199.304 375.666 199.304H374.797C373.191 200.619 371.5 201.827 369.736 202.92C368.12 203.858 366.352 204.505 364.513 204.831C364.513 204.831 360.45 207.71 355.33 210.776C349.006 214.579 341.081 218.682 337.229 218.043C336.23 217.915 335.286 217.51 334.504 216.873C333.723 216.237 333.135 215.395 332.807 214.442C332.798 214.411 332.786 214.382 332.773 214.353C332.748 214.285 332.709 214.176 332.665 214.034C332.09 212.069 330.783 203.598 348.849 198.803L348.962 198.773L361.914 195.643C364.611 192.892 370.61 187.536 371.603 187.242C372.595 186.947 386.107 188.18 385.871 189.3Z" fill="#FEBD9D"/>
<path d="M375.647 199.29C375.647 199.29 374.453 201.187 375.303 201.948C376.153 202.71 378.251 198.961 378.251 198.509C378.251 198.509 379.101 199.649 379.336 198.273C379.336 198.273 379.567 199.359 380.24 199.506C380.914 199.654 381.415 198.421 380.732 196.372C380.301 194.956 379.658 193.615 378.825 192.392C378.565 192.127 376.015 190.751 376.015 190.751C376.015 190.751 380.609 190.485 381.99 190.574C383.37 190.662 385.621 190.402 385.852 189.287C386.082 188.171 372.561 186.943 371.568 187.238C371.077 187.385 369.318 188.795 367.358 190.515" stroke="#EF8A66" stroke-width="0.3685" stroke-linecap="round" stroke-linejoin="round"/>
<path d="M376.035 190.764L373.735 189.855" stroke="#EF8A66" stroke-width="0.3685" stroke-linecap="round" stroke-linejoin="round"/>
<path d="M374.335 192.912C374.335 192.912 378.01 194.494 378.265 195.03C378.521 195.565 379.273 197.192 379.346 198.287" stroke="#EF8A66" stroke-width="0.3685" stroke-linecap="round" stroke-linejoin="round"/>
<path d="M374.747 195.6C374.747 195.6 377.479 197.285 377.803 197.609C378.027 197.873 378.184 198.186 378.26 198.523" stroke="#EF8A66" stroke-width="0.3685" stroke-linecap="round" stroke-linejoin="round"/>
<path d="M484.897 194.751C485.06 199.33 484.927 203.914 484.499 208.476C483.795 216.208 483.287 222.722 484.271 227.691H536.53C536.53 227.691 538.552 220.371 535.775 205.516C532.998 190.661 529.21 183.14 527.998 180.564L484.897 194.751Z" fill="#FFE05C"/>
<path d="M527.934 180.648C526.74 182.185 521.922 187.551 510.142 191.527L509.593 191.71C506.792 192.636 503.946 193.419 501.065 194.057C489.706 196.555 484.275 194.972 484.275 194.972C484.124 191.367 482.569 187.945 481.352 185.785C480.909 184.995 480.42 184.231 479.888 183.498C479.639 185.582 479.199 187.638 478.575 189.642C477.417 193.348 475.006 196.436 475.13 196.559C469.032 205.81 457.937 191.252 460.623 177.999C460.623 177.999 463.706 165.404 466.113 155.769C466.451 154.397 466.799 153.23 467.16 152.205C469.375 145.942 472.092 145.265 476.168 143.394C478.406 142.429 483.74 141.537 483.74 141.537C484.087 140.754 484.585 140.049 485.208 139.461C485.83 138.874 486.562 138.416 487.363 138.115L487.231 137.2C487.985 137.103 488.777 136.998 489.591 136.879L491.005 136.669L491.17 136.641L491.851 136.536C492.679 136.404 493.526 136.257 494.368 136.102L495.159 135.955L495.754 135.836C498.765 135.29 501.721 134.471 504.583 133.389C504.954 133.238 505.324 133.1 505.686 132.981L506.015 132.872L506.262 132.798L506.669 132.684C506.807 132.643 506.944 132.611 507.081 132.579L507.292 132.529L507.749 132.437L507.905 132.405L508.362 132.332L508.563 132.304H508.641C508.797 132.28 508.949 132.262 509.099 132.249L509.588 132.213H509.726H510.265C514.57 132.213 518.212 134.537 520.458 139.226C521.306 141.054 521.912 142.984 522.261 144.968C524.361 156.144 522.942 167.568 522.942 167.568L528.053 179.733C528.116 179.882 528.138 180.045 528.117 180.206C528.096 180.367 528.033 180.519 527.934 180.648Z" fill="#C5AFF9"/>
<path d="M520.449 139.195C511.72 138.225 503.577 144.905 499.903 152.005C495.145 161.2 483.671 161.932 479.7 157.723C477.029 154.887 472.596 151.131 467.165 152.183C469.379 145.92 472.097 145.243 476.173 143.372C478.369 142.425 483.543 141.542 483.74 141.519C484.087 140.737 484.586 140.031 485.208 139.444C485.83 138.856 486.562 138.398 487.363 138.097L487.231 137.182C487.986 137.086 488.777 136.981 489.591 136.862L491.005 136.651L491.17 136.624L491.851 136.519C492.679 136.386 493.526 136.24 494.368 136.084L495.159 135.938L495.754 135.819C498.35 135.331 500.91 134.662 503.412 133.815C503.819 133.673 504.208 133.522 504.583 133.357C504.959 133.193 505.325 133.069 505.686 132.95L506.015 132.84L506.262 132.767L506.67 132.653C506.807 132.612 506.944 132.58 507.081 132.548L507.292 132.497L507.749 132.406L507.905 132.374L508.362 132.301L508.564 132.273H508.641C508.797 132.249 508.949 132.23 509.099 132.218L509.588 132.182H509.726H510.265C514.561 132.182 518.203 134.506 520.449 139.195Z" fill="#E1D4FB"/>
<path d="M479.888 183.47C479.833 183.928 479.773 184.385 479.7 184.797C479.476 184.545 472.531 176.667 463.821 176.032C465.449 175.052 467.746 173.945 469.343 174.325C472.088 174.975 468.885 161.973 474.654 158.391C473.94 161.355 472.733 166.063 473.003 170.18C473.424 176.37 477.175 180.03 479.888 183.47Z" fill="#9065F2"/>
<path d="M510.48 189.061C510.434 189.883 510.32 190.7 510.142 191.504L509.593 191.687C506.792 192.613 503.946 193.396 501.065 194.034L500.722 193.741C494.697 188.466 500.722 184.792 499.194 175.999C497.469 166.081 500.269 160.518 502.305 157.924C501.726 162.944 501.421 167.991 501.39 173.044C501.482 180.643 502.053 183.397 503.22 184.17C504.739 185.039 507.164 185.703 509.922 186L510.48 189.061Z" fill="#9065F2"/>
<path d="M503.554 136.675C503.436 140.572 501.973 144.309 499.414 147.252C498.348 145.637 496.362 143.441 495.026 143.564C491.366 143.898 490.785 150.042 490.785 150.042C490.785 150.042 489.413 143.638 487.738 144.196C485.369 144.978 483.237 150.257 483.237 150.257C482.572 147.35 482.746 144.313 483.74 141.501C484.087 140.719 484.585 140.013 485.208 139.426C485.83 138.838 486.562 138.38 487.363 138.079L487.231 137.164C487.985 137.068 488.777 136.963 489.591 136.844L491.005 136.633L491.17 136.606L491.851 136.501C492.679 136.368 493.526 136.222 494.368 136.066L495.159 135.92L495.754 135.801C498.35 135.313 500.909 134.644 503.412 133.797C503.521 134.752 503.568 135.713 503.554 136.675Z" fill="#7444DC"/>
<path d="M520.431 185.336C518.65 191.756 516.373 198.027 513.619 204.093C508.962 214.437 499.587 231.616 499.587 231.616L490.849 230.394C490.849 230.394 495.571 217.058 497.254 208.558C498.124 204.157 499.501 198.53 500.717 193.731C501.857 189.261 502.859 185.496 503.193 184.16C504.711 185.029 507.136 185.693 509.895 185.99C513.417 186.43 516.99 186.208 520.431 185.336Z" fill="#B25E47"/>
<path d="M520.431 185.338C521.803 183.892 522.933 167.537 522.933 167.537" stroke="#7444DC" stroke-width="0.343119" stroke-linecap="round" stroke-linejoin="round"/>
<path d="M504.14 145.879C504.14 145.879 503.682 149.479 503.197 151.524C502.991 152.352 502.644 154.795 502.282 157.929C501.703 162.949 501.398 167.996 501.367 173.049C501.459 180.648 502.031 183.402 503.197 184.176" stroke="#7444DC" stroke-width="0.343119" stroke-linecap="round" stroke-linejoin="round"/>
<path d="M501.559 178.109C505.948 180.229 510.901 180.888 515.691 179.99" stroke="#7444DC" stroke-width="0.343119" stroke-linecap="round" stroke-linejoin="round"/>
<path d="M516.066 186.107C516.185 182.959 517.247 176.957 518.971 174.766C520.884 172.336 522.357 174.271 522.357 174.271" stroke="#7444DC" stroke-width="0.343119" stroke-linecap="round" stroke-linejoin="round"/>
<path d="M519.04 177.945C519.039 178.143 519.097 178.337 519.207 178.503C519.317 178.668 519.473 178.798 519.657 178.874C519.84 178.95 520.042 178.971 520.236 178.932C520.431 178.894 520.61 178.798 520.751 178.658C520.891 178.517 520.986 178.338 521.025 178.144C521.063 177.949 521.043 177.747 520.967 177.564C520.89 177.38 520.761 177.224 520.596 177.114C520.43 177.004 520.236 176.946 520.038 176.947C519.773 176.948 519.52 177.054 519.334 177.241C519.147 177.427 519.041 177.68 519.04 177.945Z" fill="#7444DC"/>
<path d="M490.854 146.625C491.147 148.707 491.037 149.324 490.246 152.078C489.454 154.832 487.473 163.68 488.923 169.966C490.47 176.678 494.185 184.606 494.07 186.893C493.956 189.181 493.196 193.619 497.424 194.739" stroke="#7444DC" stroke-width="0.343119" stroke-linecap="round" stroke-linejoin="round"/>
<path d="M479.7 184.801C479.476 184.55 472.531 176.672 463.821 176.036C463.624 176.036 463.432 176.008 463.24 176.004" stroke="#7444DC" stroke-width="0.343119" stroke-linecap="round" stroke-linejoin="round"/>
<path d="M474.974 153.766C475.077 154.434 475.138 155.108 475.157 155.783C475.069 156.666 474.9 157.539 474.654 158.391C473.941 161.355 472.733 166.063 473.003 170.18C473.41 176.37 477.175 180.03 479.865 183.471" stroke="#7444DC" stroke-width="0.343119" stroke-linecap="round" stroke-linejoin="round"/>
<path d="M435.506 167.103C433.242 167.212 432.464 166.878 430.57 165.767C428.676 164.655 426.082 161.192 425.561 155.821L431.686 152.664C431.686 152.664 440.292 163.507 435.506 167.103Z" fill="#B25E47"/>
<path d="M423.374 156.699C423.831 159.736 424.449 161.04 425.163 160.963C425.876 160.885 426.498 159.133 425.561 155.82L423.374 156.699Z" fill="#B25E47" stroke="#934735" stroke-width="0.457492" stroke-miterlimit="10"/>
<path d="M425.693 156.027C426.151 159.065 426.764 160.368 427.477 160.291C428.191 160.213 428.813 158.461 427.88 155.148L425.693 156.027Z" fill="#B25E47" stroke="#934735" stroke-width="0.457492" stroke-miterlimit="10"/>
<path d="M402.078 121.715L428.351 111.102L445.109 147.262L421.338 159.179L402.078 121.715Z" fill="#EDEDED" stroke="#EDEDED" stroke-width="0.914985" stroke-linecap="round" stroke-linejoin="round"/>
<path d="M405.504 121.715L431.782 111.102L445.109 147.262L423.172 156.082L405.504 121.715Z" fill="#F9F9F9" stroke="#DDDDDD" stroke-width="0.914985" stroke-linecap="round" stroke-linejoin="round"/>
<path d="M432.176 155.355C428.845 152.514 426.686 147.71 427.967 147.075C428.946 146.59 431.394 149.33 433.548 150.359C435.37 151.278 436.884 152.709 437.904 154.477C438.393 155.506 440.745 159.861 441.82 160.548C442.895 161.234 457.974 171.907 460.618 173.522C463.262 175.137 475.505 183.02 476.173 191.442C476.841 199.865 467.567 202.61 461.945 198.639C457.686 195.642 436.632 168.572 435.506 167.104C435.506 167.104 437.002 163.732 434.056 161.769C432.322 160.612 431.636 158.233 432.176 155.355Z" fill="#B25E47"/>
<path d="M434.079 161.768C432.345 160.61 431.659 158.241 432.199 155.363C428.868 152.522 426.709 147.718 427.99 147.082C428.969 146.597 431.417 149.338 433.571 150.367C435.393 151.286 436.907 152.717 437.927 154.485C438.192 155.038 438.993 156.552 439.844 157.943" stroke="#934735" stroke-width="0.343119" stroke-linecap="round" stroke-linejoin="round"/>
<path d="M487.368 138.101C487.464 138.509 487.464 138.933 487.368 139.341C487.368 139.341 486.979 139.899 488.027 141.468C488.838 142.635 489.93 143.579 491.202 144.213C491.513 144.282 497.964 140.69 498.979 136.298C498.979 136.298 496.156 128.21 498.284 126.746C500.411 125.282 503.513 114.751 494.134 117.473C494.134 117.473 492.35 109 486.512 109.59C480.675 110.18 478.543 115.794 477.541 121.37C476.539 126.947 479.179 136.257 483.575 135.873L487.368 138.101Z" fill="#B25E47"/>
<path d="M480.702 122.783C480.245 123.698 478.936 123.94 477.802 123.35C476.667 122.76 476.123 121.552 476.589 120.651C477.056 119.749 478.36 119.493 479.495 120.083C480.629 120.674 481.174 121.881 480.702 122.783Z" fill="#A0503D"/>
<path d="M486.787 134.197C487.878 133.904 488.842 133.261 489.532 132.367C489.532 132.367 491.495 135.776 486.627 137.249C486.641 137.249 485.538 134.444 486.787 134.197Z" fill="#914839"/>
<path d="M509.895 130.655C509.785 131.487 506.738 132.411 507.571 133.697C508.486 135.106 507.438 136.964 504.972 135.71C502.845 134.635 501.935 135.024 501.129 136.68C500.324 138.336 498.645 136.712 497.071 136.794C495.498 136.877 493.764 136.433 493.869 134.69C493.974 132.947 496.751 132.402 495.617 130.765C494.482 129.127 493.787 127.75 495.726 125.018C495.726 125.018 499.212 124.103 499.158 121.093C499.103 118.083 495.452 117.968 494.208 120.096C494.208 120.096 491.97 117.968 491.417 115.782C490.959 113.952 490.397 112.286 489.687 111.513C489.566 111.374 489.42 111.258 489.257 111.17C489.257 111.17 484.257 108.933 481.855 113.604C479.453 118.275 478.195 126.816 479.783 130.293C480.37 131.618 481.373 132.715 482.639 133.419C483.905 134.123 485.366 134.396 486.801 134.196L487.048 135.866L487.382 138.089C486.581 138.39 485.848 138.848 485.226 139.436C484.604 140.023 484.105 140.729 483.758 141.511C483.758 141.511 478.41 142.403 476.169 143.368C476.169 143.368 475.533 141.383 473.625 140.802C471.717 140.221 469.315 139.612 469.096 136.904C468.876 134.196 464.923 134.9 464.04 132.155C463.158 129.41 465.033 127.626 466.25 126.848C467.467 126.071 468.821 124.501 467.911 122.676C467 120.851 467.883 119.14 469.928 117.785C471.973 116.431 471.658 114.949 471.713 113.412C471.777 111.486 473.085 110.937 474.375 109.962C475.784 108.91 473.799 105.785 477.806 105.236C480.021 104.93 480.332 104.436 481.979 103.077C483.223 102.057 485.296 103.8 487.469 102.665C489.642 101.531 490.785 101.064 492.78 103.191C494.775 105.319 497.689 104.257 498.046 107.268C498.394 110.164 497.026 110.763 496.925 110.845C497.035 110.845 500.887 110.873 501.788 114.359C502.689 117.845 501.097 118.531 503.307 120.764C505.517 122.996 506.482 124.099 505.448 125.874C504.867 126.867 505.105 128.225 507.232 128.619C509.36 129.012 510.023 129.827 509.895 130.655Z" fill="#604730"/>
<path d="M481.842 113.604C479.435 118.275 478.182 126.817 479.769 130.294C480.356 131.618 481.359 132.715 482.625 133.419C483.891 134.123 485.352 134.396 486.787 134.196L487.034 135.866C485.405 139.174 481.046 140.07 478.406 139.384C474.92 138.469 477.491 136.447 474.101 135.134C470.089 133.583 473.964 129.877 473.245 129.109C472.527 128.34 471.379 127.055 472.623 125.289C473.867 123.523 476.741 123.422 476.493 121.272C476.246 119.122 476.782 118.403 478.264 117.543C481.009 115.956 480.551 113.385 480.03 111.903C479.508 110.42 480.744 106.994 484.426 106.646C487.505 106.367 489.001 108.128 489.674 111.514C489.552 111.374 489.407 111.258 489.244 111.171C489.244 111.171 484.243 108.933 481.842 113.604Z" fill="#473526"/>
<path d="M489.674 111.514C489.015 108.128 487.505 106.367 484.426 106.646C480.766 106.984 479.508 110.425 480.03 111.903C480.551 113.38 481 115.956 478.264 117.543C476.782 118.403 476.256 119.122 476.493 121.272C476.731 123.422 473.932 123.559 472.623 125.289C471.747 126.381 471.188 127.693 471.008 129.081" stroke="#896442" stroke-width="0.343119" stroke-linecap="round" stroke-linejoin="round"/>
<path d="M479.092 127.123C477.802 127.581 476.804 128.688 476.987 129.772C477.207 131.117 476.795 131.533 475.967 131.78C475.139 132.027 474.316 131.945 473.899 133.404C473.778 133.902 473.697 134.408 473.657 134.919C473.575 135.651 473.46 136.232 472.742 136.657" stroke="#896442" stroke-width="0.343119" stroke-linecap="round" stroke-linejoin="round"/>
<path d="M492.112 111.403C493.274 111.074 494.467 110.872 495.671 110.799" stroke="#896442" stroke-width="0.343119" stroke-linecap="round" stroke-linejoin="round"/>
<path d="M476.965 137.246C477.482 135.691 479.279 136.688 479.398 135.009C479.433 134.421 479.687 133.866 480.11 133.456C480.534 133.046 481.096 132.81 481.686 132.795" stroke="#896442" stroke-width="0.343119" stroke-linecap="round" stroke-linejoin="round"/>
<path d="M495.26 122.373C495.772 120.84 497.305 120.511 497.684 120.739" stroke="#934735" stroke-width="0.343119" stroke-linecap="round" stroke-linejoin="round"/>
<path d="M495.543 121.785C497.03 121.328 497.346 123.455 495.832 123.313" stroke="#934735" stroke-width="0.343119" stroke-linecap="round" stroke-linejoin="round"/>
<path d="M485.57 114.692C485.369 115.387 486.412 115.676 487.08 115.516C487.748 115.355 488.091 115.872 488.388 115.589C488.686 115.305 487.976 114.381 487.171 114.084C487.026 114.017 486.87 113.981 486.71 113.975C486.551 113.97 486.392 113.996 486.243 114.053C486.094 114.11 485.958 114.195 485.843 114.305C485.727 114.415 485.634 114.546 485.57 114.692Z" fill="#604730"/>
<path d="M483.685 114.922C483.951 115.489 483.1 115.873 482.505 115.837C481.91 115.8 481.691 116.294 481.402 116.075C481.114 115.855 481.585 114.99 482.235 114.629C482.349 114.552 482.477 114.498 482.612 114.471C482.747 114.444 482.886 114.444 483.021 114.472C483.156 114.499 483.284 114.553 483.398 114.63C483.512 114.707 483.61 114.806 483.685 114.922Z" fill="#604730"/>
<path d="M485.89 119.962C486.229 119.962 486.503 119.688 486.503 119.349C486.503 119.011 486.229 118.736 485.89 118.736C485.552 118.736 485.277 119.011 485.277 119.349C485.277 119.688 485.552 119.962 485.89 119.962Z" fill="#683F1D"/>
<path d="M481.691 119.634C482.029 119.634 482.304 119.36 482.304 119.021C482.304 118.683 482.029 118.408 481.691 118.408C481.352 118.408 481.077 118.683 481.077 119.021C481.077 119.36 481.352 119.634 481.691 119.634Z" fill="#683F1D"/>
<path d="M482.848 123.508C481.933 122.954 481.018 121.714 482.235 121.339C483.452 120.964 483.841 120.424 483.877 117.322" stroke="#934735" stroke-width="0.343119" stroke-linecap="round" stroke-linejoin="round"/>
<path d="M484.646 126.76C486.018 126.349 486.018 124.043 486.018 124.043C484.912 124.691 483.755 125.25 482.56 125.713C482.56 125.713 483.145 127.209 484.646 126.76Z" fill="white" stroke="#934735" stroke-width="0.343119" stroke-linecap="round" stroke-linejoin="round"/>
<path d="M495.713 125.02C495.182 125.051 494.651 125.051 494.121 125.02" stroke="#934735" stroke-width="0.343119" stroke-linecap="round" stroke-linejoin="round"/>
<path d="M486.769 122.872C487.226 123.787 488.535 124.03 489.669 123.44C490.804 122.85 491.348 121.642 490.882 120.741C490.415 119.839 489.111 119.583 487.976 120.173C486.842 120.763 486.297 121.971 486.769 122.872Z" fill="#A0503D"/>
<path d="M616.027 225.363H188.399C184.511 225.363 181.359 227.737 181.359 230.665V231.151C181.359 234.079 184.511 236.453 188.399 236.453H616.027C619.915 236.453 623.067 234.079 623.067 231.151V230.665C623.067 227.737 619.915 225.363 616.027 225.363Z" fill="#EDEDED"/>
<path d="M194.604 236.453C205.917 232.375 222.712 231.476 235.506 236.453" stroke="#DDDDDD" stroke-width="0.3685" stroke-linecap="round" stroke-linejoin="round"/>
<path d="M190.695 225.363C201.859 230.026 209.277 229.658 223.051 229.52C233.301 229.422 245.645 233.352 253.873 236.453" stroke="#DDDDDD" stroke-width="0.3685" stroke-linecap="round" stroke-linejoin="round"/>
<path d="M243.669 225.363C251.766 232.217 257.37 233.072 260.104 231.308C262.988 229.432 265.976 228.925 269.023 230.906C272.566 233.2 277.505 228.547 280.285 225.363" stroke="#DDDDDD" stroke-width="0.3685" stroke-linecap="round" stroke-linejoin="round"/>
<path d="M275.241 236.454C278.503 234.179 284.375 231.369 293.425 230.907C304.191 230.362 317.879 234.115 325.213 236.454" stroke="#DDDDDD" stroke-width="0.3685" stroke-linecap="round" stroke-linejoin="round"/>
<path d="M311.042 225.363C323.673 230.35 337.479 233.274 348.63 230.906C359.519 228.601 385.513 231.466 394.954 225.363" stroke="#DDDDDD" stroke-width="0.3685" stroke-linecap="round" stroke-linejoin="round"/>
<path d="M358.952 236.452C367.042 232.979 379.648 230.861 389.474 236.452" stroke="#DDDDDD" stroke-width="0.3685" stroke-linecap="round" stroke-linejoin="round"/>
<path d="M403.384 236.453C418.391 227.643 448.45 226.036 473.524 230.851C503.191 236.551 516.508 229.977 521.903 225.363" stroke="#DDDDDD" stroke-width="0.3685" stroke-linecap="round" stroke-linejoin="round"/>
<path d="M430.416 236.452C441.305 232.762 455.972 232.006 471.423 236.452" stroke="#DDDDDD" stroke-width="0.3685" stroke-linecap="round" stroke-linejoin="round"/>
<path d="M525.362 236.454C543.591 230.066 558.187 230.798 571.686 236.454" stroke="#DDDDDD" stroke-width="0.3685" stroke-linecap="round" stroke-linejoin="round"/>
<path d="M551.075 225.363C581.121 232.959 605.986 238.845 622.363 228.532" stroke="#DDDDDD" stroke-width="0.3685" stroke-linecap="round" stroke-linejoin="round"/>
<path d="M575.046 225.363C590.294 232.104 608.107 231.598 619.061 225.973" stroke="#DDDDDD" stroke-width="0.3685" stroke-linecap="round" stroke-linejoin="round"/>
</g>
</g>
<defs>
<clipPath id="clip0_7350_17002">
<path d="M0 8C0 3.58173 3.58172 0 8 0H773.333C777.752 0 781.333 3.58172 781.333 8V232H0V8Z" fill="white"/>
</clipPath>
<clipPath id="clip1_7350_17002">
<rect width="491.333" height="294.8" fill="white" transform="translate(145)"/>
</clipPath>
</defs>
</svg>
