<svg width="380" height="232" viewBox="0 0 380 232" fill="none" xmlns="http://www.w3.org/2000/svg">
<g clip-path="url(#clip0_7350_17906)">
<path d="M0.666656 8C0.666656 3.58173 4.24838 0 8.66666 0H371.333C375.752 0 379.333 3.58172 379.333 8V232H0.666656V8Z" fill="#F0F2F5"/>
<path d="M96.3574 182.664H74.9426C73.8117 182.663 72.7276 182.213 71.9283 181.413C71.129 180.613 70.6801 179.528 70.6801 178.397C70.6801 177.267 71.1291 176.183 71.9285 175.383C72.7279 174.584 73.8121 174.135 74.9426 174.135H96.3574C97.4883 174.135 98.5729 174.584 99.3729 175.383C100.173 176.182 100.623 177.266 100.624 178.397C100.624 178.958 100.514 179.512 100.299 180.03C100.085 180.548 99.7704 181.018 99.3743 181.414C98.9781 181.81 98.5077 182.125 97.9901 182.339C97.4725 182.553 96.9177 182.664 96.3574 182.664Z" stroke="#DDDDDD" stroke-width="0.3925" stroke-miterlimit="10"/>
<path d="M151.535 89.7344H139.882C136.81 89.7344 134.32 92.2244 134.32 95.2961V95.3C134.32 98.3717 136.81 100.862 139.882 100.862H151.535C154.607 100.862 157.097 98.3717 157.097 95.3V95.2961C157.097 92.2244 154.607 89.7344 151.535 89.7344Z" stroke="#DDDDDD" stroke-width="0.3925" stroke-miterlimit="10"/>
<path d="M195.15 44.5212H173.735C172.604 44.5212 171.52 44.0721 170.721 43.2727C169.922 42.4734 169.472 41.3892 169.472 40.2587C169.472 39.6986 169.582 39.1439 169.796 38.6263C170.01 38.1086 170.324 37.6383 170.719 37.242C171.115 36.8458 171.585 36.5315 172.103 36.317C172.62 36.1026 173.175 35.9922 173.735 35.9922H195.15C195.71 35.9917 196.266 36.1017 196.784 36.3158C197.302 36.53 197.773 36.8442 198.169 37.2404C198.566 37.6367 198.88 38.1072 199.095 38.625C199.31 39.1429 199.42 39.6981 199.42 40.2587C199.42 40.8189 199.309 41.3736 199.094 41.8911C198.879 42.4085 198.564 42.8786 198.168 43.2744C197.771 43.6702 197.301 43.984 196.783 44.198C196.265 44.4119 195.71 44.5217 195.15 44.5212Z" stroke="#DDDDDD" stroke-width="0.3925" stroke-miterlimit="10"/>
<path d="M261.529 160.694H244.259C243.746 160.694 243.254 160.49 242.891 160.128C242.528 159.765 242.324 159.272 242.324 158.759C242.324 158.246 242.528 157.754 242.891 157.391C243.254 157.028 243.746 156.824 244.259 156.824H261.529C262.042 156.824 262.534 157.028 262.897 157.391C263.26 157.754 263.464 158.246 263.464 158.759C263.464 159.272 263.26 159.765 262.897 160.128C262.534 160.49 262.042 160.694 261.529 160.694Z" stroke="#DDDDDD" stroke-width="0.3925" stroke-miterlimit="10"/>
<path d="M119.036 60.2294H101.766C101.253 60.2294 100.761 60.0256 100.398 59.6627C100.035 59.2998 99.831 58.8076 99.831 58.2944C99.831 58.0403 99.881 57.7887 99.9783 57.5539C100.076 57.3191 100.218 57.1058 100.398 56.9261C100.577 56.7464 100.791 56.6039 101.026 56.5067C101.26 56.4094 101.512 56.3594 101.766 56.3594H119.036C119.29 56.3594 119.542 56.4094 119.777 56.5067C120.011 56.6039 120.225 56.7464 120.404 56.9261C120.584 57.1058 120.727 57.3191 120.824 57.5539C120.921 57.7887 120.971 58.0403 120.971 58.2944C120.971 58.8076 120.767 59.2998 120.404 59.6627C120.041 60.0256 119.549 60.2294 119.036 60.2294Z" stroke="#DDDDDD" stroke-width="0.3925" stroke-miterlimit="10"/>
<path d="M289.632 29.5026C294.876 32.0107 298.334 29.1101 301.372 27.6579C302.65 27.0418 304.102 26.8889 305.481 27.2254C306.859 27.5619 308.077 28.3669 308.928 29.5026L308.692 40.7988C308.692 40.7988 304.402 39.2759 301.961 40.7988C299.519 42.3217 296.599 46.074 289.625 41.0068L289.632 29.5026Z" fill="#EDEDED" stroke="#DDDDDD" stroke-width="0.785" stroke-linecap="round" stroke-linejoin="round"/>
<path d="M309.818 76.3696C309.529 76.3696 309.251 76.2548 309.045 76.0503C308.84 75.8458 308.724 75.5682 308.723 75.2785V27.4759C308.723 27.3323 308.752 27.1901 308.807 27.0574C308.862 26.9248 308.943 26.8043 309.044 26.703C309.146 26.6016 309.267 26.5213 309.4 26.4667C309.532 26.4121 309.675 26.3843 309.818 26.3848C309.962 26.3843 310.104 26.4121 310.237 26.4667C310.37 26.5213 310.491 26.6016 310.592 26.703C310.694 26.8043 310.775 26.9248 310.83 27.0574C310.885 27.1901 310.913 27.3323 310.913 27.4759V75.2785C310.912 75.5682 310.797 75.8458 310.591 76.0503C310.386 76.2548 310.108 76.3696 309.818 76.3696Z" fill="#F9F9F9" stroke="#EDEDED" stroke-width="0.785" stroke-linecap="round" stroke-linejoin="round"/>
<path d="M301.564 76.7305H318.159" stroke="#DDDDDD" stroke-width="0.785" stroke-linecap="round" stroke-linejoin="round"/>
<path d="M288.674 95.2969H282.006V109.474H265.034V125.833" stroke="#DDDDDD" stroke-width="0.785" stroke-linecap="round" stroke-linejoin="round"/>
<path d="M155.711 187.436H138.736V201.503H113.502V210.73H61.8409" stroke="#DDDDDD" stroke-width="0.785" stroke-linecap="round" stroke-linejoin="round"/>
<path d="M222.75 139.586V151.294H201.453V163.909H180.207V176.556H159.016V187.436" stroke="#EDEDED" stroke-width="0.785" stroke-linecap="round" stroke-linejoin="round"/>
<path d="M260.234 126.08H242.465V139.586H229.042" stroke="#DDDDDD" stroke-width="0.785" stroke-linecap="round" stroke-linejoin="round"/>
<path d="M96.3574 182.664H74.9426C73.8117 182.663 72.7276 182.213 71.9283 181.413C71.129 180.613 70.6801 179.528 70.6801 178.397C70.6801 177.267 71.1291 176.183 71.9285 175.383C72.7279 174.584 73.8121 174.135 74.9426 174.135H96.3574C97.4883 174.135 98.5729 174.584 99.3729 175.383C100.173 176.182 100.623 177.266 100.624 178.397C100.624 178.958 100.514 179.512 100.299 180.03C100.085 180.548 99.7704 181.018 99.3743 181.414C98.9781 181.81 98.5077 182.125 97.9901 182.339C97.4725 182.553 96.9177 182.664 96.3574 182.664Z" stroke="#DDDDDD" stroke-width="0.3925" stroke-miterlimit="10"/>
<path d="M151.535 89.7344H139.882C136.81 89.7344 134.32 92.2244 134.32 95.2961V95.3C134.32 98.3717 136.81 100.862 139.882 100.862H151.535C154.607 100.862 157.097 98.3717 157.097 95.3V95.2961C157.097 92.2244 154.607 89.7344 151.535 89.7344Z" stroke="#DDDDDD" stroke-width="0.3925" stroke-miterlimit="10"/>
<path d="M195.15 44.5212H173.735C172.604 44.5212 171.52 44.0721 170.721 43.2727C169.922 42.4734 169.472 41.3892 169.472 40.2587C169.472 39.6986 169.582 39.1439 169.796 38.6263C170.01 38.1086 170.324 37.6383 170.719 37.242C171.115 36.8458 171.585 36.5315 172.103 36.317C172.62 36.1026 173.175 35.9922 173.735 35.9922H195.15C195.71 35.9917 196.266 36.1017 196.784 36.3158C197.302 36.53 197.773 36.8442 198.169 37.2404C198.566 37.6367 198.88 38.1072 199.095 38.625C199.31 39.1429 199.42 39.6981 199.42 40.2587C199.42 40.8189 199.309 41.3736 199.094 41.8911C198.879 42.4085 198.564 42.8786 198.168 43.2744C197.771 43.6702 197.301 43.984 196.783 44.198C196.265 44.4119 195.71 44.5217 195.15 44.5212Z" stroke="#DDDDDD" stroke-width="0.3925" stroke-miterlimit="10"/>
<path d="M261.529 160.694H244.259C243.746 160.694 243.254 160.49 242.891 160.128C242.528 159.765 242.324 159.272 242.324 158.759C242.324 158.246 242.528 157.754 242.891 157.391C243.254 157.028 243.746 156.824 244.259 156.824H261.529C262.042 156.824 262.534 157.028 262.897 157.391C263.26 157.754 263.464 158.246 263.464 158.759C263.464 159.272 263.26 159.765 262.897 160.128C262.534 160.49 262.042 160.694 261.529 160.694Z" stroke="#DDDDDD" stroke-width="0.3925" stroke-miterlimit="10"/>
<path d="M119.036 60.2294H101.766C101.253 60.2294 100.761 60.0256 100.398 59.6627C100.035 59.2998 99.831 58.8076 99.831 58.2944C99.831 58.0403 99.881 57.7887 99.9783 57.5539C100.076 57.3191 100.218 57.1058 100.398 56.9261C100.577 56.7464 100.791 56.6039 101.026 56.5067C101.26 56.4094 101.512 56.3594 101.766 56.3594H119.036C119.29 56.3594 119.542 56.4094 119.777 56.5067C120.011 56.6039 120.225 56.7464 120.404 56.9261C120.584 57.1058 120.727 57.3191 120.824 57.5539C120.921 57.7887 120.971 58.0403 120.971 58.2944C120.971 58.8076 120.767 59.2998 120.404 59.6627C120.041 60.0256 119.549 60.2294 119.036 60.2294Z" stroke="#DDDDDD" stroke-width="0.3925" stroke-miterlimit="10"/>
<path d="M289.632 29.5026C294.876 32.0107 298.334 29.1101 301.372 27.6579C302.65 27.0418 304.102 26.8889 305.481 27.2254C306.859 27.5619 308.077 28.3669 308.928 29.5026L308.692 40.7988C308.692 40.7988 304.402 39.2759 301.961 40.7988C299.519 42.3217 296.599 46.074 289.625 41.0068L289.632 29.5026Z" fill="#EDEDED" stroke="#DDDDDD" stroke-width="0.785" stroke-linecap="round" stroke-linejoin="round"/>
<path d="M309.818 76.3696C309.529 76.3696 309.251 76.2548 309.045 76.0503C308.84 75.8458 308.724 75.5682 308.723 75.2785V27.4759C308.723 27.3323 308.752 27.1901 308.807 27.0574C308.862 26.9248 308.943 26.8043 309.044 26.703C309.146 26.6016 309.267 26.5213 309.4 26.4667C309.532 26.4121 309.675 26.3843 309.818 26.3848C309.962 26.3843 310.104 26.4121 310.237 26.4667C310.37 26.5213 310.491 26.6016 310.592 26.703C310.694 26.8043 310.775 26.9248 310.83 27.0574C310.885 27.1901 310.913 27.3323 310.913 27.4759V75.2785C310.912 75.5682 310.797 75.8458 310.591 76.0503C310.386 76.2548 310.108 76.3696 309.818 76.3696Z" fill="#F9F9F9" stroke="#EDEDED" stroke-width="0.785" stroke-linecap="round" stroke-linejoin="round"/>
<path d="M301.564 76.7305H318.159" stroke="#DDDDDD" stroke-width="0.785" stroke-linecap="round" stroke-linejoin="round"/>
<path d="M288.674 95.2969H282.006V109.474H265.034V125.833" stroke="#DDDDDD" stroke-width="0.785" stroke-linecap="round" stroke-linejoin="round"/>
<path d="M155.711 187.436H138.736V201.503H113.502V210.73H61.8409" stroke="#DDDDDD" stroke-width="0.785" stroke-linecap="round" stroke-linejoin="round"/>
<path d="M222.75 139.586V151.294H201.453V163.909H180.207V176.556H159.016V187.436" stroke="#EDEDED" stroke-width="0.785" stroke-linecap="round" stroke-linejoin="round"/>
<path d="M260.234 126.08H242.465V139.586H229.042" stroke="#DDDDDD" stroke-width="0.785" stroke-linecap="round" stroke-linejoin="round"/>
<path d="M251.87 36.5461C251.87 36.5461 251.791 36.7267 251.65 37.0328C251.509 37.339 251.371 37.6098 251.167 37.9944C251.03 38.2613 250.877 38.5479 250.704 38.8501C250.602 39.0346 250.492 39.2426 250.374 39.4192L250.26 39.6037C250.001 40.0315 249.715 40.475 249.401 40.9107C249.181 41.2169 248.949 41.523 248.706 41.8174C246.799 44.1292 245.197 43.1597 245.197 43.1597C244.75 43.5487 244.379 44.0171 244.102 44.5413C243.714 45.2593 243.434 46.0303 243.27 46.8296C238.768 50.1109 235.911 45.7856 237.249 41.9391C239.07 40.2237 240.695 38.3109 242.092 36.236C240.64 34.3049 243.058 32.6211 244.169 33.728L246.575 32.6132C251.646 31.2709 251.87 36.5461 251.87 36.5461Z" fill="#FEBD9D"/>
<path d="M242.74 34.2148C243.376 34.2148 243.918 34.4739 243.796 35.4512" stroke="#EF8A66" stroke-width="0.294375" stroke-linecap="round" stroke-linejoin="round"/>
<path d="M243.38 35.9139C242.457 35.3409 243.266 34.5873 243.772 35.0622" stroke="#EF8A66" stroke-width="0.294375" stroke-linecap="round" stroke-linejoin="round"/>
<path d="M247.894 40.7975C247.231 40.5895 246.944 39.7496 247.109 39.0234C245.343 40.2559 246.661 41.716 247.894 40.7975Z" fill="white" stroke="#EF8A66" stroke-width="0.294375" stroke-linecap="round" stroke-linejoin="round"/>
<path d="M248.349 39.772C248.946 39.772 249.468 39.8741 249.609 38.7476C249.644 38.4268 249.756 38.1193 249.936 37.8514C250.116 37.5834 250.358 37.363 250.641 37.209" stroke="#EF8A66" stroke-width="0.294375" stroke-linecap="round" stroke-linejoin="round"/>
<path d="M242.093 36.2363C242.309 36.5396 242.613 36.7696 242.964 36.8957" stroke="#EF8A66" stroke-width="0.294375" stroke-linecap="round" stroke-linejoin="round"/>
<path d="M248.302 37.6796C248.302 37.7572 248.325 37.8331 248.368 37.8977C248.411 37.9622 248.472 38.0125 248.544 38.0422C248.616 38.0719 248.695 38.0797 248.771 38.0646C248.847 38.0494 248.917 38.012 248.972 37.9571C249.027 37.9023 249.064 37.8323 249.079 37.7562C249.095 37.68 249.087 37.6011 249.057 37.5294C249.027 37.4577 248.977 37.3964 248.912 37.3533C248.848 37.3101 248.772 37.2871 248.694 37.2871C248.59 37.2871 248.49 37.3285 248.417 37.4021C248.343 37.4757 248.302 37.5755 248.302 37.6796Z" fill="#683F1D"/>
<path d="M250.704 38.8585C250.602 39.043 250.492 39.251 250.374 39.4276H250.347C250.243 39.4276 250.143 39.3863 250.069 39.3127C249.996 39.2391 249.954 39.1392 249.954 39.0351C249.954 38.931 249.996 38.8312 250.069 38.7576C250.143 38.684 250.243 38.6426 250.347 38.6426C250.421 38.6414 250.493 38.661 250.556 38.6992C250.62 38.7374 250.671 38.7926 250.704 38.8585Z" fill="#683F1D"/>
<path d="M254.197 36.1738C254.166 36.8136 253.577 37.4534 252.584 37.4691C251.662 37.4691 250.983 36.4289 251.136 35.4045C251.136 35.4045 249.566 35.7695 249.303 33.7246C249.303 33.7246 248.023 34.7687 247.34 33.0731C246.567 33.7561 245.86 34.5104 245.229 35.326C244.444 36.425 244.051 36.2719 244.028 35.8049C244.004 35.3378 244.495 34.5646 244.554 34.4704C244.499 34.1897 244.362 33.9315 244.161 33.7285C244.901 32.6846 245.705 31.6871 246.567 30.7416C248.07 29.0735 249.511 29.1952 249.279 30.459C250.826 29.5013 252.977 30.7377 251.96 32.657C253.393 32.2645 254.955 33.9915 253.456 35.0395C253.681 35.1291 253.873 35.2862 254.006 35.4892C254.139 35.6923 254.206 35.9314 254.197 36.1738Z" fill="#604730"/>
<path d="M248.153 35.7195C247.964 36.2886 249.723 36.897 249.986 36.3082C250.249 35.7195 248.392 34.9776 248.153 35.7195Z" fill="#604730"/>
<path d="M251.65 37.0329C251.532 37.2801 251.371 37.6099 251.167 37.9945C250.818 37.602 250.496 37.0839 250.61 36.8837C250.79 36.5658 251.281 36.7895 251.65 37.0329Z" fill="#604730"/>
<path d="M245.197 43.1769C244.75 43.5659 244.379 44.0344 244.102 44.5585C241.826 42.8433 243.274 40.8887 243.274 40.8887C243.671 41.8271 244.341 42.6244 245.197 43.1769Z" fill="#F4A789"/>
<path d="M254.197 36.174C254.166 36.8137 253.577 37.4535 252.584 37.4692C251.662 37.4692 250.983 36.4291 251.136 35.4047C251.136 35.4047 249.566 35.7697 249.303 33.7248C249.303 33.7248 248.023 34.7688 247.34 33.0732C246.567 33.7562 245.86 34.5105 245.229 35.3262C244.444 36.4252 244.051 36.2721 244.028 35.805C244.004 35.3379 244.495 34.5647 244.553 34.4705C245.063 34.1589 245.489 33.7278 245.794 33.2145C246.791 31.7269 247.815 30.8085 248.698 31.9075C249.581 33.0065 250.602 31.9075 250.99 33.2381C251.359 34.5137 252.192 36.4801 254.197 36.174Z" fill="#473526"/>
<path d="M248.483 30.0625C248.534 31.2125 247.517 32.5941 247.517 32.5941" stroke="#896442" stroke-width="0.294375" stroke-linecap="round" stroke-linejoin="round"/>
<path d="M249.621 33.2805C249.83 32.8992 250.12 32.5684 250.47 32.3114C250.821 32.0543 251.224 31.8774 251.65 31.793" stroke="#896442" stroke-width="0.294375" stroke-linecap="round" stroke-linejoin="round"/>
<path d="M251.332 35.0582C251.9 34.7116 252.56 34.5459 253.224 34.5833" stroke="#896442" stroke-width="0.294375" stroke-linecap="round" stroke-linejoin="round"/>
<path d="M245.127 32.9707C245.338 33.0626 245.523 33.2053 245.667 33.386C245.81 33.5668 245.906 33.78 245.947 34.0069" stroke="#896442" stroke-width="0.294375" stroke-linecap="round" stroke-linejoin="round"/>
<path d="M246.795 38.2964C246.273 38.4416 245.704 38.0099 245.519 37.3387C245.335 36.6675 245.609 36.0042 246.131 35.8629C246.653 35.7216 247.226 36.1494 247.407 36.8206C247.588 37.4918 247.305 38.1551 246.795 38.2964Z" fill="#F4AF90"/>
<path d="M250.26 39.6055C250.001 40.0333 249.715 40.4768 249.401 40.9125C249.366 40.8421 249.344 40.7665 249.334 40.6888C249.335 40.4276 249.428 40.1751 249.598 39.9766C249.768 39.7781 250.002 39.6465 250.26 39.6055Z" fill="#F4AF90"/>
<path d="M257.742 89.7052C257.165 95 253.232 92.4527 247.741 91.7226L244.695 91.601L224.438 90.816L222.746 90.7492L228.634 74.1465C241.653 78.0087 258.472 82.962 257.742 89.7052Z" fill="#FED81D"/>
<path d="M244.695 91.6021L224.438 90.8171L225.042 86.3897L227.809 79.2854C227.809 79.2854 232.48 79.0028 231.059 83.0887C229.638 87.1747 230.207 90.0713 237.586 88.1442C242.045 86.9706 243.914 89.4551 244.695 91.6021Z" fill="#FCC71F"/>
<path d="M233.768 67.9029C230.317 72.3971 228.449 82.135 228.017 87.9793C227.707 92.1869 227.075 103.024 225.494 112.087C220.034 123.795 212.51 118.265 212.934 110.014V109.971C213.668 103.927 213.326 98.7534 212.655 96.5908C211.744 93.7177 209.495 84.1407 209.122 80.2117C208.283 71.5767 210.225 64.2134 213.047 60.0098L233.768 67.9029Z" fill="#FED81D"/>
<path d="M227.809 90.937C227.892 89.7595 227.962 88.7664 228.017 87.9932C228.293 84.6127 228.836 81.2594 229.642 77.9648" stroke="#F7AD2B" stroke-width="0.294375" stroke-linecap="round" stroke-linejoin="round"/>
<path d="M215.12 66.2578C211.941 87.6412 218.056 95.6953 217.126 107.674C216.79 110.976 216.185 114.245 215.316 117.448" stroke="#F7AD2B" stroke-width="0.294375" stroke-linecap="round" stroke-linejoin="round"/>
<path d="M214.221 76.3676C216.548 73.8985 217.9 70.6682 218.024 67.2773" stroke="#F7AD2B" stroke-width="0.294375" stroke-linecap="round" stroke-linejoin="round"/>
<path d="M228.116 71.1328C228.116 71.1328 227.119 75.7251 226.718 77.0203C226.718 77.0203 228.116 77.244 228.614 76.3648C229.113 75.4856 230.047 71.6548 230.047 71.6548" stroke="#F7AD2B" stroke-width="0.294375" stroke-linecap="round" stroke-linejoin="round"/>
<path d="M251.336 62.1211L249.334 70.6383C248.785 73.4525 248.636 75.7408 248.325 77.405C247.898 79.7286 247.148 80.9061 244.632 80.7726L244.53 80.7452L244.169 80.6471L243.929 80.5764L243.615 80.4704C243.478 80.4194 243.345 80.3684 243.223 80.3134C242.995 80.2218 242.773 80.1183 242.556 80.0034L242.32 79.8738C241.972 79.6783 241.642 79.451 241.335 79.1948C241.275 79.1483 241.217 79.0986 241.162 79.0457C240.708 78.6485 240.318 78.1838 240.004 77.668C239.917 77.5283 239.837 77.3842 239.765 77.2362C239.574 76.8609 239.424 76.4661 239.318 76.0587C239.298 75.9881 239.282 75.9214 239.267 75.8546C239.251 75.7879 239.231 75.6976 239.219 75.6231C239.208 75.5485 239.196 75.4896 239.184 75.4229C239.129 75.079 239.115 74.73 239.141 74.3827C239.274 72.9462 241.052 58.1254 241.052 58.1254L241.704 56.5162L242.575 54.3613L251.336 62.1211Z" fill="#C5AFF9"/>
<path d="M248.325 77.4045C247.898 79.7281 247.148 80.9056 244.632 80.7721L244.522 80.7446L244.161 80.6465L243.922 80.5759L243.608 80.4699C243.47 80.4189 243.337 80.3678 243.215 80.3129C242.987 80.2213 242.765 80.1178 242.548 80.0028L242.312 79.8733C241.964 79.6778 241.634 79.4505 241.327 79.1943C241.267 79.1478 241.209 79.098 241.154 79.0451C240.7 78.6479 240.31 78.1833 239.997 77.6674C239.909 77.5278 239.829 77.3837 239.757 77.2357C239.566 76.8603 239.416 76.4656 239.31 76.0582C239.29 75.9875 239.274 75.9208 239.259 75.8541C239.243 75.7874 239.223 75.6971 239.212 75.6225C239.2 75.5479 239.188 75.4891 239.176 75.4223C239.122 75.0785 239.107 74.7294 239.133 74.3822C239.267 72.9457 241.045 58.1249 241.045 58.1249L241.696 56.5156C243.105 59.2121 244.773 63.5806 242.83 66.5518C239.84 71.1284 240.279 78.5545 246.21 77.5889C246.909 77.4731 247.617 77.4114 248.325 77.4045Z" fill="#9065F2"/>
<path d="M245.523 55.3742C245 55.7824 244.476 56.222 243.953 56.693C238.945 61.2421 234.396 68.468 233.112 69.253C231.263 70.3599 226.93 69.724 222.774 68.6682C219.646 67.8907 216.581 66.8791 213.605 65.642C211.089 64.4645 210.465 63.7384 210.885 62.8042C211.305 61.8701 213.805 56.0336 213.805 56.0336L213.189 55.4253L206.371 48.7056C210.41 45.6598 215.697 42.2569 220.552 40.365C223.845 39.0855 226.934 38.5046 229.301 39.1875L245.523 55.3742Z" fill="#C5AFF9"/>
<path d="M245.523 55.3743C245 55.7825 244.476 56.2221 243.953 56.6931C238.686 56.7794 233.662 60.3669 229.222 56.5125C223.727 51.7437 228.7 48.2112 225.297 43.56C224.098 42.0173 222.441 40.8935 220.564 40.3494C223.857 39.0698 226.946 38.4889 229.313 39.1719L245.523 55.3743Z" fill="#E1D4FB"/>
<path d="M222.778 68.661C219.65 67.8835 216.585 66.8719 213.609 65.6348C211.093 64.4573 210.469 63.7312 210.889 62.7971C211.309 61.8629 213.809 56.0264 213.809 56.0264L213.193 55.4181C215.155 53.3535 217.875 50.4883 218.024 50.3156C218.264 50.033 224.006 51.9484 224.006 51.9484C224.006 51.9484 223.814 58.3736 218.558 58.9859C213.303 59.5982 214.241 63.7822 218.9 64.3514C221.894 64.7085 222.632 67.0321 222.778 68.661Z" fill="#9065F2"/>
<path d="M206.748 48.418C198.423 53.2497 205.484 69.7543 223.833 53.2732C225.768 43.9985 215.344 42.8327 206.748 48.418Z" fill="#9065F2"/>
<path d="M245.523 55.375C244 56.5863 242.584 57.9271 241.292 59.3824" stroke="#7444DC" stroke-width="0.294375" stroke-linecap="round" stroke-linejoin="round"/>
<path d="M205.308 142.939C205.308 142.939 201.775 147.551 202.277 151.292H219.1C219.1 151.292 211.619 146.919 211.23 143.717L205.308 142.939Z" fill="#683F1D"/>
<path d="M225.663 111.096C225.608 111.434 225.553 111.768 225.494 112.097C224.881 115.63 224.124 118.872 223.186 121.364C219.83 130.274 214.158 144.212 214.158 144.212L203.345 143.313C204.13 141.205 208.055 132.252 211.819 116.203C212.3 114.155 212.666 112.082 212.914 109.993C212.934 109.844 212.949 109.691 212.965 109.542C213.778 104.679 224.073 99.9965 225.663 111.096Z" fill="#FED81D"/>
<path d="M217.224 104.836C217.224 105.762 217.204 106.704 217.13 107.674C216.195 119.661 206.728 143.128 206.654 143.591" stroke="#F7AD2B" stroke-width="0.294375" stroke-linecap="round" stroke-linejoin="round"/>
<path d="M246.441 117.723C246.441 117.723 244.84 122.338 245.323 126.079H260.238C260.238 126.079 252.76 121.707 252.388 118.5L246.441 117.723Z" fill="#683F1D"/>
<path d="M257.867 92.8549C256.638 102.047 254.287 119.027 254.287 119.027H244.518L247.74 91.7245C247.784 86.9713 251.01 81.912 254.307 84.1257C258.848 87.195 258.106 91.0612 257.867 92.8549Z" fill="#FED81D"/>
<path d="M265.462 81.3342C265.462 81.3342 261.537 81.4755 256.933 81.4755C253.137 81.4755 248.887 81.3813 246.033 81.028C245.813 81.0005 245.601 80.9691 245.393 80.9299C245.299 80.9299 245.205 80.8985 245.115 80.8789C245.024 80.8592 244.958 80.8514 244.879 80.8318C244.742 80.8043 244.608 80.769 244.487 80.7376L244.094 80.6237L244.004 80.5963L243.67 80.4824L243.611 80.4628L243.219 80.3137C243.204 80.3103 243.191 80.3036 243.18 80.294C238.729 77.4602 238.595 74.3477 241.025 72.444C242.732 71.086 245.711 70.3245 249.35 70.6582L264.783 73.7471L265.462 81.3342Z" fill="#C5AFF9"/>
<path d="M256.933 81.4767C253.137 81.4767 248.887 81.3825 246.033 81.0293C245.813 81.0018 245.601 80.9704 245.393 80.9312C245.299 80.9312 245.205 80.8998 245.115 80.8801C245.024 80.8605 244.958 80.8527 244.879 80.833C244.742 80.8056 244.608 80.7702 244.487 80.7388L244.094 80.625L244.004 80.5975L243.67 80.4837L243.611 80.4641L243.219 80.3149C243.204 80.3116 243.191 80.3049 243.18 80.2953C238.729 77.4615 238.595 74.3489 241.025 72.4453C240.986 75.5853 242.552 78.2033 246.214 77.6067C251.23 76.7667 255.567 78.7606 256.933 81.4767Z" fill="#9065F2"/>
<path d="M249.338 70.6502C248.298 70.4756 247.25 70.3537 246.198 70.2852" stroke="#7444DC" stroke-width="0.294375" stroke-linecap="round" stroke-linejoin="round"/>
<path d="M288.674 95.2961L284.165 93.5259L277.343 90.8412C277.343 90.8412 242.764 56.6113 226.2 40.1694C221.643 35.6439 218.448 32.4686 217.714 31.7228C215.273 29.2344 221.055 22.6953 224.144 25.4193C224.383 25.6352 227.59 28.7438 232.41 33.4341C248.969 49.5266 284.612 84.2864 284.612 84.2864L286.998 90.7391L288.674 95.2961Z" fill="#F9F9F9" stroke="#DDDDDD" stroke-width="0.785" stroke-linecap="round" stroke-linejoin="round"/>
<path d="M235.255 40.541L279.71 83.5472" stroke="#EDEDED" stroke-width="0.3925" stroke-linecap="round" stroke-linejoin="round"/>
<path d="M233.359 43.4512L277.421 86.0806" stroke="#EDEDED" stroke-width="0.3925" stroke-linecap="round" stroke-linejoin="round"/>
<path d="M286.987 90.7398C285.752 91.3144 284.755 92.2992 284.165 93.5266L277.343 90.8419C277.343 90.8419 277.532 88.5693 280.051 88.9186C279.51 87.4467 280.597 85.7786 282.457 86.9797C282.457 86.9797 282.065 84.5815 284.6 84.2871L286.987 90.7398Z" fill="#F9F9F9" stroke="#EDEDED" stroke-width="0.785" stroke-linecap="round" stroke-linejoin="round"/>
<path d="M288.675 95.2952L284.165 93.525C284.755 92.2977 285.752 91.3129 286.987 90.7383L288.675 95.2952Z" fill="#DDDDDD" stroke="#DDDDDD" stroke-width="0.785" stroke-linecap="round" stroke-linejoin="round"/>
<path d="M232.41 33.4341C230.341 35.6753 228.072 38.1441 226.2 40.1694C221.643 35.6439 218.448 32.4686 217.714 31.7228C215.273 29.2344 221.055 22.6953 224.144 25.4193C224.383 25.6352 227.59 28.7438 232.41 33.4341Z" stroke="#EDEDED" stroke-width="0.785" stroke-linecap="round" stroke-linejoin="round"/>
<path d="M230.141 31.2285L223.786 37.7754" stroke="#EDEDED" stroke-width="0.785" stroke-linecap="round" stroke-linejoin="round"/>
<path d="M261.941 76.3695C265.368 73.4964 266.145 73.5317 266.463 73.9085C266.781 74.2853 265.36 75.9338 264.893 76.3695C264.893 76.3695 267.794 74.1951 268.633 74.7171C269.473 75.2391 268.37 76.3695 268.37 76.3695C268.37 76.3695 269.988 76.342 268.947 78.0808C268.947 78.0808 269.787 78.0808 269.297 78.9482C268.806 79.8157 265.792 81.8841 264.693 81.3582C263.594 80.8322 260.285 77.7629 261.941 76.3695Z" fill="#FEBD9D"/>
<path d="M263.429 75.1768C265.611 73.5166 266.176 73.6068 266.463 73.9091C266.749 74.2113 265.36 75.9344 264.893 76.37C264.893 76.37 267.793 74.1956 268.633 74.7176C269.473 75.2396 268.37 76.37 268.37 76.37C268.37 76.37 269.988 76.3426 268.947 78.0813C268.947 78.0813 269.787 78.0813 269.297 78.9488" stroke="#EF8A66" stroke-width="0.294375" stroke-linecap="round" stroke-linejoin="round"/>
<path d="M268.374 76.3691L265.313 78.3473" stroke="#EF8A66" stroke-width="0.294375" stroke-linecap="round" stroke-linejoin="round"/>
<path d="M266.125 79.8385L268.951 78.0801" stroke="#EF8A66" stroke-width="0.294375" stroke-linecap="round" stroke-linejoin="round"/>
<path d="M264.897 76.3691L264.01 77.0953" stroke="#EF8A66" stroke-width="0.294375" stroke-linecap="round" stroke-linejoin="round"/>
<path d="M228.983 51.9234C229.354 50.3312 229.311 48.6704 228.858 47.0996L225.4 48.7481C225.4 48.7481 226.66 52.2021 228.983 51.9234Z" fill="#9065F2"/>
<path d="M225.352 42.7084C226.323 42.6109 227.287 42.451 228.237 42.2296C228.445 42.1118 229.937 40.9186 230.592 40.4869C231.248 40.0551 233.913 38.3321 234.164 38.493C234.415 38.6539 234.506 39.435 234.027 40.008C234.027 40.008 236.935 38.7717 238.191 38.6225C239.216 38.5008 239.015 39.4664 238.329 39.9099C239.428 39.4232 240.735 39.9099 239.247 40.9697C240.252 40.797 240.774 41.5702 239.2 42.7084C240.071 42.2296 240.664 42.8811 239.863 43.6936C238.56 45.0203 235.879 46.0486 235.032 46.3705C234.184 46.6923 228.81 47.8855 226.726 49.063C226.726 49.063 224.932 45.8406 225.352 42.7084Z" fill="#FEBD9D"/>
<path d="M230.596 40.4869C231.259 40.0551 233.917 38.3321 234.168 38.493C234.419 38.6539 234.509 39.435 234.03 40.008C234.03 40.008 236.939 38.7717 238.195 38.6225C239.219 38.5008 239.019 39.4664 238.332 39.9099C239.431 39.4232 240.738 39.9099 239.251 40.9697C240.255 40.797 240.778 41.5702 239.204 42.7084C240.075 42.2296 240.668 42.8811 239.867 43.6936" stroke="#EF8A66" stroke-width="0.294375" stroke-linecap="round" stroke-linejoin="round"/>
<path d="M234.031 40.0078L232.527 40.7457" stroke="#EF8A66" stroke-width="0.294375" stroke-linecap="round" stroke-linejoin="round"/>
<path d="M238.332 39.9102L235.255 41.3389" stroke="#EF8A66" stroke-width="0.294375" stroke-linecap="round" stroke-linejoin="round"/>
<path d="M239.251 40.9707L235.911 42.7095" stroke="#EF8A66" stroke-width="0.294375" stroke-linecap="round" stroke-linejoin="round"/>
<path d="M239.204 42.709L236.586 44.1966" stroke="#EF8A66" stroke-width="0.294375" stroke-linecap="round" stroke-linejoin="round"/>
<path d="M226.895 41.6367C221.522 42.1823 211.827 43.7915 204.558 49.051C201.744 51.0842 201.787 59.6485 209.468 58.9381C217.149 58.2277 228.995 51.9241 228.995 51.9241C228.995 51.9241 225.949 51.253 226.895 41.6367Z" fill="#C5AFF9"/>
<path d="M214.221 57.9961C221.243 56.0336 228.983 51.9241 228.983 51.9241C228.983 51.9241 225.949 51.253 226.883 41.6367C222.773 42.0344 218.715 42.8511 214.771 44.0741" stroke="#7444DC" stroke-width="0.294375" stroke-linecap="round" stroke-linejoin="round"/>
<path d="M175.352 126.469C175.352 126.469 164.217 151.538 158.694 161.896C149.494 168.38 148.061 161.707 149.526 156.338C150.161 155.011 152.03 149.085 153.984 142.392C155.641 136.717 157.356 130.496 158.435 126.076L171.031 126.367L175.352 126.469Z" fill="#824CF6"/>
<path d="M171.368 127.952C170.261 135.889 160.567 131.296 159.628 135.889C159.161 138.185 157.383 140.481 153.984 142.408C155.641 136.732 157.356 130.511 158.435 126.092L171.031 126.382C171.342 126.842 171.463 127.405 171.368 127.952Z" fill="#7444DC"/>
<path d="M163.173 131.988C162.148 132.459 162.78 133.036 163.071 133.892C163.361 134.748 161.842 134.54 161.893 135.697C161.944 136.855 162.506 136.208 161.893 137.95C161.301 139.634 154.581 156.551 152.277 160.248" stroke="#C5AFF9" stroke-width="0.294375" stroke-linecap="round" stroke-linejoin="round"/>
<path d="M189.011 126.614C189.011 126.614 175.273 129.44 165.94 130.311C160.237 130.849 156.406 128.977 154.538 126.163C153.946 125.263 153.538 124.255 153.335 123.197C153.133 122.139 153.142 121.051 153.36 119.996C158 114.501 163.412 112.877 167.914 112.7C171.105 112.579 174.286 113.134 177.248 114.329C188.56 113.367 194.879 113.846 198.282 115.314C204.13 122.3 197.155 124.871 189.011 126.614Z" fill="#824CF6"/>
<path d="M159.911 115.805C159.699 119.73 161.301 121.092 169.747 120.97C179.042 120.837 192.006 119.989 192.701 120.11C194.117 120.358 191.362 122.603 192.335 122.638C193.619 122.689 195.004 122.878 194.298 123.757C193.591 124.636 192.83 124.993 193.352 125.539" stroke="#C5AFF9" stroke-width="0.294375" stroke-linecap="round" stroke-linejoin="round"/>
<path d="M157.568 128.915C159.636 130.062 162.435 130.642 165.94 130.317C169.68 129.967 174.123 129.304 178.107 128.633" stroke="#7444DC" stroke-width="0.294375" stroke-linecap="round" stroke-linejoin="round"/>
<path d="M192.131 109.505C191.861 110.588 191.107 111.605 189.615 112.425C189.439 112.48 189.258 112.531 189.078 112.578C188.897 112.625 188.744 112.653 188.575 112.684L188.261 112.727L188.045 112.751H187.939C187.759 112.751 187.578 112.77 187.398 112.77C184.482 112.77 181.334 110.906 178.975 105.835C178.975 105.835 177.491 108.653 177.083 110.463C177.023 110.703 176.987 110.949 176.977 111.197C176.96 112.251 177.057 113.304 177.267 114.337C177.267 114.337 171.455 114.399 167.581 115.538C163.707 116.676 159.362 118.784 153.38 120.004C153.38 120.004 153.674 117.257 154.687 115.836C154.306 115.697 153.983 115.434 153.77 115.09C153.556 114.745 153.465 114.339 153.509 113.936C153.643 112.814 154.758 112.311 156.171 110.133C156.628 109.422 157.034 108.679 157.387 107.911C159.617 103.111 159.11 101.886 158.82 101.423L156.147 104.296C151.347 109.45 141.699 119.792 141.04 120.424C140.153 121.268 138.771 121.602 138.269 121.264C137.962 121.06 135.914 122.693 134.344 124.012C133.319 124.875 132.495 125.605 132.495 125.605L126.639 122.073C126.639 122.073 128.287 120.707 129.991 119.258C131.792 117.732 133.657 116.118 133.716 115.922C133.841 115.53 133.461 114.56 134.3 113.681C135.05 112.896 149.325 96.8585 154.263 91.1751C154.903 90.4372 155.389 89.8759 155.664 89.5423C158.07 86.6417 159.519 85.2248 162.98 84.3652L179.885 84.7303C179.885 84.7303 184.748 83.8393 185.773 86.8851C185.918 87.3325 186.071 87.9448 186.228 88.671C187.139 92.9335 188.085 101.043 188.085 101.043C188.085 101.043 193.073 105.682 192.131 109.505Z" fill="#FED81D"/>
<path d="M134.32 124.029C133.296 124.892 132.471 125.622 132.471 125.622L126.615 122.09C126.615 122.09 128.264 120.724 129.967 119.275C131.747 120.524 133.233 122.146 134.32 124.029Z" fill="#B25E47"/>
<path d="M163.098 96.7656C163.098 98.7713 162.062 101.648 160.853 102.724C159.377 104.027 161.599 108.757 159.13 110.118C158.685 110.398 158.17 110.547 157.644 110.547C157.119 110.547 156.604 110.398 156.159 110.118C156.616 109.407 157.022 108.665 157.375 107.897C159.605 103.097 159.099 101.872 158.808 101.409C160.492 99.6701 162.066 97.9235 163.098 96.7656Z" fill="#FCC71F"/>
<path d="M192.131 109.507C191.861 110.59 191.107 111.607 189.615 112.427C189.439 112.482 189.258 112.533 189.078 112.58C188.897 112.627 188.744 112.655 188.575 112.686L188.261 112.729L188.045 112.753H187.939C187.759 112.753 187.578 112.772 187.398 112.772C184.482 112.772 181.334 110.908 178.975 105.837C181.585 100.146 181.703 97.3117 181.094 94.6113C181.725 94.7603 182.303 95.0767 182.769 95.5271C183.234 95.9776 183.57 96.5453 183.74 97.1704C184.764 100.613 179.756 104.773 182.409 107.32C184.764 109.562 188.905 106.072 190.397 108.667C190.551 108.98 190.806 109.232 191.12 109.384C191.434 109.536 191.79 109.579 192.131 109.507Z" fill="#FCC71F"/>
<path d="M186.193 88.6613C184.58 88.5317 182.527 88.8732 181.389 91.0163C179.32 94.9413 172.448 100.044 167.632 94.0032C163.867 89.2932 160.464 88.9478 154.239 91.1497C154.879 90.4118 155.366 89.8505 155.641 89.5169C158.047 86.6163 159.495 85.1994 162.957 84.3398L179.862 84.7049C179.862 84.7049 184.725 83.8139 185.749 86.8597C185.883 87.3228 186.036 87.9194 186.193 88.6613Z" fill="#FFE05C"/>
<path d="M131.266 120.264L134.822 117.293" stroke="#F7AD2B" stroke-width="0.294375" stroke-linecap="round" stroke-linejoin="round"/>
<path d="M132.57 121.575L136.004 118.646" stroke="#F7AD2B" stroke-width="0.294375" stroke-linecap="round" stroke-linejoin="round"/>
<path d="M133.598 122.87L136.667 120.562" stroke="#F7AD2B" stroke-width="0.294375" stroke-linecap="round" stroke-linejoin="round"/>
<path d="M155.26 119.57L156.159 116.045" stroke="#F7AD2B" stroke-width="0.294375" stroke-linecap="round" stroke-linejoin="round"/>
<path d="M156.885 119.142L157.705 115.512" stroke="#F7AD2B" stroke-width="0.294375" stroke-linecap="round" stroke-linejoin="round"/>
<path d="M158.435 118.679L159.13 115.512" stroke="#F7AD2B" stroke-width="0.294375" stroke-linecap="round" stroke-linejoin="round"/>
<path d="M160.28 118.074L160.849 115.271" stroke="#F7AD2B" stroke-width="0.294375" stroke-linecap="round" stroke-linejoin="round"/>
<path d="M162.086 117.438L162.455 114.914" stroke="#F7AD2B" stroke-width="0.294375" stroke-linecap="round" stroke-linejoin="round"/>
<path d="M163.73 116.838L163.879 115.154" stroke="#F7AD2B" stroke-width="0.294375" stroke-linecap="round" stroke-linejoin="round"/>
<path d="M164.295 95.375C164.295 95.375 163.84 95.9049 163.098 96.7487C162.066 97.9262 160.492 99.6533 158.808 101.4" stroke="#F7AD2B" stroke-width="0.294375" stroke-linecap="round" stroke-linejoin="round"/>
<path d="M178.967 105.83C181.577 100.139 181.695 97.3054 181.086 94.605C180.835 93.4549 180.447 92.3363 180.07 91.0293" stroke="#F7AD2B" stroke-width="0.294375" stroke-linecap="round" stroke-linejoin="round"/>
<path d="M161.697 87.274L164.295 85.5312" stroke="#F7AD2B" stroke-width="0.294375" stroke-linecap="round" stroke-linejoin="round"/>
<path d="M164.519 88.7825L165.92 86.4707" stroke="#F7AD2B" stroke-width="0.294375" stroke-linecap="round" stroke-linejoin="round"/>
<path d="M166.96 89.3622L167.632 87.125" stroke="#F7AD2B" stroke-width="0.294375" stroke-linecap="round" stroke-linejoin="round"/>
<path d="M168.589 89.5941L169.072 87.4707" stroke="#F7AD2B" stroke-width="0.294375" stroke-linecap="round" stroke-linejoin="round"/>
<path d="M170.191 89.9385L170.481 87.6816" stroke="#F7AD2B" stroke-width="0.294375" stroke-linecap="round" stroke-linejoin="round"/>
<path d="M172.883 89.9397V87.8398" stroke="#F7AD2B" stroke-width="0.294375" stroke-linecap="round" stroke-linejoin="round"/>
<path d="M174.928 87.8398L175.238 89.9397" stroke="#F7AD2B" stroke-width="0.294375" stroke-linecap="round" stroke-linejoin="round"/>
<path d="M176.38 87.5801L176.906 89.939" stroke="#F7AD2B" stroke-width="0.294375" stroke-linecap="round" stroke-linejoin="round"/>
<path d="M177.691 87.2754L178.417 89.1908" stroke="#F7AD2B" stroke-width="0.294375" stroke-linecap="round" stroke-linejoin="round"/>
<path d="M178.747 86.748L179.697 88.7812" stroke="#F7AD2B" stroke-width="0.294375" stroke-linecap="round" stroke-linejoin="round"/>
<path d="M179.929 86.748L181.122 87.6822" stroke="#F7AD2B" stroke-width="0.294375" stroke-linecap="round" stroke-linejoin="round"/>
<path d="M180.525 85.668L181.993 86.4019" stroke="#F7AD2B" stroke-width="0.294375" stroke-linecap="round" stroke-linejoin="round"/>
<path d="M176.628 82.7569C176.337 82.6234 176.019 82.4861 175.678 82.3644C174.85 82.0556 173.97 81.9142 173.087 81.9483C170.057 81.9837 162.957 84.374 162.957 84.374C163.11 84.5859 164.966 86.6466 168.75 87.4276C172.534 88.2087 176.412 87.8201 178.072 87.1607C178.557 86.9508 178.979 86.6161 179.293 86.1908C179.607 85.7655 179.804 85.2647 179.862 84.739C179.862 84.739 179.073 83.8716 176.628 82.7569Z" fill="#B25E47"/>
<path d="M194.73 157.316C196.837 155.805 198.796 157.964 193.945 159.22" stroke="#7444DC" stroke-width="0.294375" stroke-linecap="round" stroke-linejoin="round"/>
<path d="M192.748 158.569C193.741 156.167 195.201 154.15 195.888 154.668C196.728 155.308 193.509 158.765 193.509 158.765" stroke="#7444DC" stroke-width="0.294375" stroke-linecap="round" stroke-linejoin="round"/>
<path d="M197.324 163.905H184.073C184.022 162.096 186.063 158.045 186.287 156.727C186.287 156.699 186.287 156.672 186.287 156.636C186.534 155.172 187.229 149.764 187.229 149.764L194.337 150.211L192.426 156.699C193.104 157.69 193.866 158.621 194.702 159.482C196.217 161.079 199.196 161.307 199.475 162.43C199.754 163.552 198.137 163.905 197.324 163.905Z" fill="#C5AFF9"/>
<path d="M194.349 150.211L192.437 156.699C192.437 156.699 188.583 156.668 186.299 156.636C186.546 155.172 187.241 149.764 187.241 149.764L194.349 150.211Z" fill="#B25E47"/>
<path d="M201.795 122.424C200.986 128.531 195.405 151.292 195.405 151.292H186.252L188.999 126.667C189.004 126.65 189.004 126.632 188.999 126.616C188.948 126.298 187.292 115.912 196.237 114.645C196.934 114.812 197.617 115.036 198.278 115.316C201.775 116.815 202.199 119.343 201.795 122.424Z" fill="#824CF6"/>
<path d="M189.482 120.206C191.307 120.12 192.504 120.077 192.7 120.112C194.117 120.359 191.362 122.604 192.335 122.64C193.619 122.691 195.004 122.879 194.298 123.758C193.513 124.708 192.779 125.018 193.415 125.603C194.62 126.706 192.563 127.754 192.422 129.022C192.281 130.289 189.973 149.369 189.973 149.369" stroke="#C5AFF9" stroke-width="0.294375" stroke-linecap="round" stroke-linejoin="round"/>
<path d="M199.868 87.2673C199.287 88.8373 198.663 90.2228 198.663 90.2228L198.6 90.4701L197.422 95.2547C197.422 95.2547 198.349 95.5019 198.325 96.3144C198.301 97.1269 196.59 103.799 194.938 107.563C194.867 107.732 194.781 107.897 194.694 108.066C194.608 108.235 194.565 108.309 194.494 108.427C194.348 108.673 194.191 108.912 194.023 109.145C193.945 109.255 193.866 109.361 193.784 109.463C193.701 109.565 193.603 109.687 193.505 109.793C193.407 109.899 193.321 110.001 193.226 110.103C193.026 110.311 192.834 110.495 192.595 110.7L192.261 110.974C191.705 111.416 191.097 111.789 190.451 112.085H190.424L190.032 112.25C189.898 112.301 189.765 112.352 189.639 112.395C186.927 111.7 186.036 109.922 185.973 107.976C185.867 104.734 188.077 101.02 188.077 101.02C188.075 101.014 188.075 101.007 188.077 101.001C188.206 100.632 190.338 94.6895 190.773 94.1988C191.209 93.7082 192.073 94.0301 192.073 94.0301L193.599 89.1748L193.933 88.1112C193.933 88.1112 193.811 87.856 193.646 87.4832C193.289 86.7182 193.026 85.913 192.861 85.085C192.771 84.1391 193.646 83.5464 194.353 83.4365C194.353 83.4365 194.42 81.8115 194.961 81.1521C195.046 81.0194 195.166 80.9132 195.308 80.8458C195.45 80.7785 195.608 80.7528 195.764 80.7717C195.92 80.7905 196.068 80.8533 196.19 80.9526C196.311 81.0519 196.403 81.1837 196.453 81.3327C196.622 80.7675 197.858 80.689 197.889 81.8037C197.937 81.6099 198.056 81.4414 198.223 81.3325C198.391 81.2237 198.593 81.1825 198.789 81.2175C198.986 81.2525 199.162 81.361 199.281 81.5209C199.4 81.6808 199.454 81.8802 199.432 82.0784C199.432 82.0784 200.339 81.1992 200.81 82.8634C201.025 83.7348 200.472 85.6188 199.868 87.2673Z" fill="#FED81D"/>
<path d="M194.734 89.9395C194.734 89.9395 193.482 94.0921 193.482 94.0175" stroke="#F7AD2B" stroke-width="0.294375" stroke-linecap="round" stroke-linejoin="round"/>
<path d="M195.711 90.332L194.844 93.9352" stroke="#F7AD2B" stroke-width="0.294375" stroke-linecap="round" stroke-linejoin="round"/>
<path d="M197.171 90.5469L196.398 94.2717" stroke="#F7AD2B" stroke-width="0.294375" stroke-linecap="round" stroke-linejoin="round"/>
<path d="M188.038 101.031C187.253 103.296 186.727 104.98 186.821 105.553" stroke="#F7AD2B" stroke-width="0.294375" stroke-linecap="round" stroke-linejoin="round"/>
<path d="M194.71 108.066C194.647 108.188 194.581 108.31 194.51 108.427C194.363 108.673 194.206 108.913 194.039 109.146C193.96 109.256 193.882 109.362 193.799 109.464C193.717 109.566 193.619 109.687 193.521 109.793C193.423 109.899 193.336 110.001 193.242 110.103C193.042 110.311 192.85 110.496 192.61 110.7L192.277 110.975C191.722 111.418 191.114 111.791 190.467 112.085H190.44L190.047 112.25C189.914 112.301 189.78 112.352 189.655 112.396C186.942 111.701 186.052 109.923 185.989 107.976C187.782 107.693 189.56 107.136 190.432 108.651C191.393 110.409 193.45 109.114 194.71 108.066Z" fill="#FCC71F"/>
<path d="M198.663 90.2208L198.6 90.4681C197.802 90.5941 196.988 90.5848 196.194 90.4406C195.231 90.2481 194.332 89.8161 193.58 89.1846L193.913 88.1209C193.913 88.1209 192.924 86.0407 192.834 85.0948C192.744 84.1488 193.619 83.5562 194.325 83.4463C194.325 83.4463 194.392 81.8213 194.934 81.1619C195.018 81.0291 195.138 80.9229 195.28 80.8556C195.422 80.7882 195.58 80.7625 195.737 80.7814C195.893 80.8003 196.04 80.863 196.162 80.9623C196.284 81.0616 196.375 81.1934 196.425 81.3425C196.594 80.7773 197.83 80.6948 197.862 81.8135C197.909 81.6196 198.029 81.4512 198.196 81.3423C198.363 81.2334 198.566 81.1923 198.762 81.2273C198.958 81.2623 199.134 81.3708 199.253 81.5307C199.373 81.6906 199.427 81.8899 199.404 82.0882C199.404 82.0882 200.311 81.209 200.782 82.8732C201.253 84.5374 198.663 90.2208 198.663 90.2208Z" fill="#B25E47"/>
<path d="M193.481 87.1338C193.184 86.4793 192.967 85.7914 192.834 85.085C192.744 84.1351 193.619 83.5464 194.325 83.4365C194.325 83.4365 194.392 81.8115 194.934 81.1521C195.018 81.0194 195.138 80.9132 195.28 80.8458C195.422 80.7785 195.58 80.7528 195.736 80.7717C195.893 80.7905 196.04 80.8533 196.162 80.9526C196.284 81.0519 196.375 81.1837 196.425 81.3327C196.594 80.7675 197.83 80.6851 197.862 81.8037C197.909 81.6099 198.029 81.4414 198.196 81.3325C198.363 81.2237 198.565 81.1825 198.762 81.2175C198.958 81.2525 199.134 81.361 199.253 81.5209C199.373 81.6808 199.427 81.8802 199.404 82.0784C199.404 82.0784 200.311 81.1992 200.782 82.8634" stroke="#934735" stroke-width="0.294375" stroke-linecap="round" stroke-linejoin="round"/>
<path d="M194.318 83.4473C195.554 83.2236 196.61 83.3413 196.645 83.7613C196.68 84.1813 195.209 84.7779 195.209 84.7779C195.209 84.7779 197.089 85.0291 196.453 87.2742" stroke="#934735" stroke-width="0.294375" stroke-linecap="round" stroke-linejoin="round"/>
<path d="M196.398 81.2656C196.398 81.2656 196.131 83.0279 196.005 83.3733" stroke="#934735" stroke-width="0.294375" stroke-linecap="round" stroke-linejoin="round"/>
<path d="M196.716 83.7698C197.191 83.8993 197.646 83.4166 197.893 81.666" stroke="#934735" stroke-width="0.294375" stroke-linecap="round" stroke-linejoin="round"/>
<path d="M197.301 83.5469C197.343 83.7601 197.462 83.9506 197.634 84.0828C197.807 84.215 198.022 84.2798 198.239 84.2652" stroke="#934735" stroke-width="0.294375" stroke-linecap="round" stroke-linejoin="round"/>
<path d="M199.42 82.0898C199.028 82.3921 198.007 84.2329 198.549 84.6882C199.181 85.2141 199.687 83.9032 199.687 83.9032" stroke="#934735" stroke-width="0.294375" stroke-linecap="round" stroke-linejoin="round"/>
<path d="M128.9 192.296C130.721 191.138 132.432 190.918 132.825 191.201C133.378 191.633 131.698 192.794 130.328 192.979" stroke="#7444DC" stroke-width="0.294375" stroke-linecap="round" stroke-linejoin="round"/>
<path d="M127.279 193.413C130.003 192.389 132.774 193.413 132.464 194.336C132.114 195.399 127.813 193.865 127.813 193.865" stroke="#7444DC" stroke-width="0.294375" stroke-linecap="round" stroke-linejoin="round"/>
<path d="M128.468 197.82C129.273 198.624 130.823 200.359 130.607 200.862C130.391 201.364 129.571 201.517 129.571 201.517H123.762C123.762 201.517 122.828 200.96 122.792 200.426C122.757 199.892 120.924 189.169 121.222 188.235C121.478 187.45 125.124 186.002 126.847 185.04C127.088 184.91 127.318 184.761 127.534 184.593C128.601 183.694 131.875 180.35 131.875 180.35L135.953 185.362C133.598 186.677 130.96 188.467 129.74 190.072C129.412 190.463 129.183 190.928 129.072 191.426C128.77 193.228 127.667 197.003 128.468 197.82Z" fill="#C5AFF9"/>
<path d="M135.953 185.348C133.598 186.663 130.96 188.453 129.74 190.058L126.847 185.026C127.088 184.897 127.318 184.747 127.534 184.579C128.601 183.68 131.875 180.336 131.875 180.336L135.953 185.348Z" fill="#B25E47"/>
<path d="M158.694 161.9C158.049 163.16 157.335 164.384 156.555 165.566C152.713 170.971 135.714 187.032 135.714 187.032L129.995 179.664L149.53 156.338C152.878 152.028 161.622 153.053 158.694 161.9Z" fill="#824CF6"/>
<path d="M151.064 161.848C146.723 167.052 132.315 182.65 132.315 182.65" stroke="#C5AFF9" stroke-width="0.294375" stroke-linecap="round" stroke-linejoin="round"/>
<path d="M155.362 153.92C154.457 156.086 153.433 158.199 152.293 160.251" stroke="#C5AFF9" stroke-width="0.294375" stroke-linecap="round" stroke-linejoin="round"/>
<path d="M181.911 81.5183C180.553 81.1258 180.525 82.1856 181.165 82.6173C181.805 83.0491 181.479 84.3954 179.885 84.5798C179.74 84.5995 179.363 84.6544 178.908 84.7015C178.056 84.7879 176.946 84.8585 176.616 84.674C176.286 84.4896 176.267 83.9754 176.384 83.4337C176.404 83.3238 176.439 83.2139 176.471 83.0962C176.654 82.5238 176.889 81.9694 177.173 81.4398C177.929 81.4234 178.667 81.2067 179.312 80.8118C180.769 79.8424 180.808 77.8995 180.219 75.8742C180.071 75.368 179.893 74.8712 179.685 74.3866C179.524 73.9941 179.344 73.6016 179.151 73.2366C177.377 69.7787 174.861 69.7826 174.861 69.7826C175.976 71.6901 174.916 72.9854 174.265 73.3151C173.613 73.6448 172.903 73.8685 172.938 75.1795C172.973 76.4904 172.385 76.6867 171.992 76.6199C170.756 76.3923 169.877 77.3304 170.422 78.3587C170.968 79.3871 172.499 79.0652 172.954 78.5785C172.954 78.5785 173.861 79.1869 173.912 79.913C173.963 80.6391 172.561 81.5105 173.225 82.6409C173.351 82.8396 173.419 83.0693 173.423 83.3046C173.427 83.5398 173.366 83.7716 173.247 83.9745C173.128 84.1773 172.955 84.3434 172.747 84.4543C172.54 84.5653 172.306 84.6168 172.071 84.6034C171.496 84.5347 170.914 84.6243 170.387 84.8624C170.26 84.9243 170.139 84.9979 170.026 85.0822C169.945 85.1423 169.869 85.2078 169.798 85.2785C169.202 85.8829 168.758 86.6248 167.337 86.299C165.916 85.9732 165.665 83.995 165.665 83.995C163.652 84.0853 162.305 84.3286 162.176 82.688C162.07 81.3849 163.53 80.9178 164.303 80.7765C164.455 80.7561 164.597 80.6919 164.713 80.5917C164.828 80.4915 164.912 80.3597 164.954 80.2125C164.995 80.0653 164.993 79.9091 164.947 79.7632C164.902 79.6172 164.814 79.4879 164.696 79.391C163.946 78.8179 164.507 77.9309 165.602 77.5541C166.697 77.1773 166.289 74.7438 166.387 73.5584C166.54 71.4389 168.503 69.5942 171.137 69.4686C171.137 69.4686 172.499 66.5209 175.796 67.0272C179.093 67.5336 180.588 70.7207 180.435 72.1886C180.282 73.6566 180.262 75.2187 181.852 75.2933C183.441 75.3679 184.336 76.3452 183.763 77.3225C183.19 78.2998 182.782 79.0338 183.987 79.8384C185.192 80.6431 183.269 81.8991 181.911 81.5183Z" fill="#604730"/>
<path d="M174.857 69.7638C175.972 71.6714 174.912 72.9666 174.261 73.2963C173.609 73.626 172.899 73.8497 172.934 75.1607C172.97 76.4716 172.381 76.6679 171.988 76.6012C170.752 76.3735 169.873 77.3116 170.418 78.3399C170.964 79.3683 172.495 79.0464 172.95 78.5597C172.95 78.5597 173.857 79.1681 173.908 79.8942C173.959 80.6204 172.557 81.4917 173.221 82.6221C173.347 82.8209 173.415 83.0505 173.419 83.2858C173.423 83.5211 173.362 83.7529 173.243 83.9557C173.124 84.1586 172.951 84.3246 172.743 84.4355C172.536 84.5465 172.302 84.5981 172.067 84.5846C171.492 84.516 170.91 84.6055 170.383 84.8437C170.256 84.9056 170.135 84.9792 170.022 85.0635C167.973 84.1607 166.415 82.7399 167.243 81.633C168.326 80.1886 169.076 80.9815 168.456 78.6775C167.836 76.3735 168.436 74.8977 169.947 74.7525C171.458 74.6073 172.887 73.575 172.134 72.056C171.38 70.537 173.782 67.2754 176.844 68.6413C178.453 69.3595 179.042 71.2475 179.175 73.2021C177.373 69.7599 174.857 69.7638 174.857 69.7638Z" fill="#473526"/>
<path d="M179.312 80.7988C179.159 81.9528 178.445 83.0793 176.384 83.4247C176.404 83.3148 176.439 83.2049 176.471 83.0871C176.654 82.5147 176.889 81.9603 177.173 81.4308C177.93 81.4132 178.668 81.1951 179.312 80.7988Z" fill="#473526"/>
<path d="M176.471 83.087C176.271 83.7503 176.212 84.4137 176.616 84.657C176.93 84.8415 178.056 84.7708 178.908 84.6845C175.733 87.2985 173.091 86.8982 170.371 84.8572C170.898 84.6191 171.481 84.5295 172.055 84.5981C172.29 84.6116 172.524 84.56 172.732 84.4491C172.939 84.3381 173.112 84.1721 173.231 83.9693C173.351 83.7664 173.412 83.5346 173.408 83.2993C173.404 83.064 173.335 82.8344 173.209 82.6356C172.546 81.5052 173.947 80.6378 173.896 79.9078C173.845 79.1777 172.938 78.5733 172.938 78.5733C172.483 79.06 170.94 79.3818 170.407 78.3535C169.873 77.3251 170.752 76.391 171.977 76.6147C172.369 76.6814 172.962 76.4852 172.923 75.1742C172.883 73.8633 173.598 73.6631 174.249 73.3098C174.901 72.9566 175.96 71.6692 174.846 69.7773C174.846 69.7773 177.366 69.7773 179.14 73.2392C179.332 73.6121 179.513 73.9967 179.674 74.3892C179.881 74.8738 180.06 75.3706 180.207 75.8768C180.992 78.6243 180.647 81.2187 177.162 81.4424C176.877 81.972 176.642 82.5264 176.459 83.0988L176.471 83.087Z" fill="#B25E47"/>
<path d="M180.219 75.8626C180.07 75.9171 179.908 75.9272 179.754 75.8916C179.599 75.8561 179.458 75.7765 179.348 75.6624C179.089 75.3288 179.238 74.7636 179.685 74.3711C179.893 74.8573 180.071 75.3553 180.219 75.8626Z" fill="#A0503D"/>
<path d="M176.294 74.7807C176.294 74.8339 176.305 74.8866 176.326 74.9356C176.347 74.9845 176.377 75.0287 176.416 75.0654C176.454 75.1021 176.5 75.1306 176.55 75.1491C176.6 75.1677 176.653 75.1758 176.706 75.1732C176.783 75.1693 176.857 75.1431 176.919 75.0977C176.981 75.0523 177.028 74.9898 177.055 74.9178C177.081 74.8458 177.086 74.7676 177.069 74.6928C177.052 74.618 177.013 74.5499 176.957 74.4969C176.902 74.444 176.832 74.4085 176.756 74.3949C176.681 74.3813 176.603 74.3901 176.532 74.4203C176.462 74.4505 176.401 74.5007 176.359 74.5648C176.317 74.6288 176.294 74.7039 176.294 74.7807Z" fill="#683F1D"/>
<path d="M178.049 73.9278C178.049 74.0318 178.09 74.1317 178.163 74.2053C178.237 74.2789 178.337 74.3203 178.441 74.3203C178.494 74.3203 178.547 74.3096 178.596 74.2886C178.645 74.2677 178.689 74.237 178.726 74.1984C178.762 74.1599 178.791 74.1143 178.809 74.0644C178.828 74.0145 178.836 73.9613 178.834 73.9081C178.834 73.804 178.792 73.7042 178.719 73.6306C178.645 73.557 178.545 73.5156 178.441 73.5156C178.388 73.5156 178.335 73.5263 178.286 73.5473C178.237 73.5682 178.193 73.5989 178.156 73.6374C178.12 73.676 178.091 73.7216 178.073 73.7715C178.054 73.8214 178.046 73.8746 178.049 73.9278Z" fill="#683F1D"/>
<path d="M177.173 81.4277C176.889 81.9572 176.654 82.5117 176.471 83.0841C176.051 82.9413 175.694 82.6584 175.459 82.2831C175.224 81.9078 175.125 81.463 175.179 81.0234C175.82 81.2573 176.492 81.3936 177.173 81.4277Z" fill="#914839"/>
<path d="M171.137 77.9214C171.407 77.2227 172.314 77.3523 172.707 77.7605" stroke="#934735" stroke-width="0.294375" stroke-linecap="round" stroke-linejoin="round"/>
<path d="M171.796 78.277C171.77 78.1895 171.766 78.0972 171.782 78.0074C171.798 77.9176 171.835 77.8329 171.89 77.7601C171.945 77.6872 172.016 77.6283 172.098 77.5878C172.18 77.5474 172.27 77.5267 172.361 77.5274" stroke="#934735" stroke-width="0.294375" stroke-linecap="round" stroke-linejoin="round"/>
<path d="M172.942 78.575C173.078 78.4071 173.176 78.2115 173.228 78.002" stroke="#934735" stroke-width="0.294375" stroke-linecap="round" stroke-linejoin="round"/>
<path d="M176.655 76.7656C176.943 77.0089 177.296 77.1614 177.671 77.204C178.045 77.2466 178.424 77.1774 178.759 77.0051" stroke="#934735" stroke-width="0.294375" stroke-linecap="round" stroke-linejoin="round"/>
<path d="M179.147 75.813C179.328 75.2321 179.21 74.816 178.539 74.7061C178.216 74.6324 177.929 74.4464 177.73 74.1812C177.531 73.916 177.432 73.5888 177.452 73.2578" stroke="#934735" stroke-width="0.294375" stroke-linecap="round" stroke-linejoin="round"/>
<path d="M174.838 73.3978C174.838 73.8648 176.581 73.649 176.726 73.1309C176.844 72.7227 174.826 72.5186 174.838 73.3978Z" fill="#604730"/>
<path d="M178.253 71.2626C177.829 71.0624 177.248 72.7463 177.774 72.8758C178.033 72.9425 179.246 71.7375 178.253 71.2626Z" fill="#604730"/>
<path d="M171.113 69.4727C171.77 69.5202 172.413 69.6934 173.005 69.9829" stroke="#896442" stroke-width="0.294375" stroke-linecap="round" stroke-linejoin="round"/>
<path d="M172.22 72.5059C170.917 72.9886 169.351 73.805 169.304 75.3711C169.257 76.9372 169.928 78.358 167.855 79.3785C165.783 80.399 167.745 83.0131 167.745 83.0131" stroke="#896442" stroke-width="0.294375" stroke-linecap="round" stroke-linejoin="round"/>
<path d="M170.053 83.4416C171.317 82.4093 169.943 81.1101 171.317 80.1406" stroke="#896442" stroke-width="0.294375" stroke-linecap="round" stroke-linejoin="round"/>
<path d="M173.586 71.3716C171.466 70.5356 169.017 71.5875 168.483 72.4824" stroke="#896442" stroke-width="0.294375" stroke-linecap="round" stroke-linejoin="round"/>
<path d="M176.286 76.1441C176.2 76.5837 175.619 76.8349 174.999 76.7054C174.379 76.5759 173.943 76.1206 174.029 75.6849C174.116 75.2492 174.697 74.9941 175.321 75.1236C175.945 75.2531 176.376 75.7163 176.286 76.1441Z" fill="#A0503D"/>
<path d="M75.8179 198.656C72.9801 201.702 72.2854 204.128 71.8301 205.721L78.2043 210.722H87.4987C87.4987 210.722 87.3338 208.477 85.5362 208.108C83.7385 207.739 82.6592 207.574 82.6592 207.574L80.8851 203.743L75.8179 198.656Z" fill="#FED81D"/>
<path d="M102.987 156.556C103.242 174.179 104.356 177.833 100.749 183.933C97.1423 190.032 80.8849 203.742 80.8849 203.742L74.028 198.605C74.028 198.605 82.2705 189.459 86.1209 184.584C89.9713 179.71 90.5404 177.727 90.4384 174.729C90.3363 171.73 87.4907 148.922 87.4907 148.922L102.987 156.556Z" fill="#683F1D"/>
<path d="M148.053 180.844C148.053 180.844 154.149 184.553 155.358 185.185C156.567 185.817 156.736 187.43 156.736 187.43H142.017C142.017 187.43 141.318 183.744 141.691 181.542L148.053 180.844Z" fill="#FED81D"/>
<path d="M148.053 180.845L140.616 182.317L131.125 156.836C128.915 150.925 126.537 145.661 131.408 143.805C136.867 143.993 139.469 145.732 141.699 151.977C144.038 158.567 148.053 180.845 148.053 180.845Z" fill="#683F1D"/>
<path d="M131.125 156.838C131.125 156.838 109.345 158.82 102.63 159.071C95.9139 159.323 89.3709 158.569 86.3801 148.023L103.513 142.061L105.707 143.788C115.5 143.945 124.39 143.756 130.489 143.788C130.807 143.788 131.113 143.788 131.412 143.807C140.313 145.291 136.946 155.056 131.125 156.838Z" fill="#683F1D"/>
<path d="M101.499 159.099C96.5851 159.186 91.8751 158.459 88.688 153.467" stroke="#91613D" stroke-width="0.294375" stroke-linecap="round" stroke-linejoin="round"/>
<path d="M115.967 130.759L111.017 134.994L106.857 143.845C106.857 143.845 100.604 143.625 96.8872 146.302C93.1703 148.979 87.7773 150.133 85.6931 150.098C85.5431 145.8 85.8417 141.499 86.5841 137.263C87.8126 130.496 90.827 120.181 90.827 120.181C90.7917 119.86 90.776 119.538 90.7642 119.224C90.5955 113.839 93.4372 109.576 98.0765 109.855C102.987 110.157 108.007 111.974 108.007 111.974C108.007 111.974 113.439 112.834 116.3 114.431C117.599 115.157 118.486 116.394 118.687 118.525C118.93 121.084 118.173 124.938 115.967 130.759Z" fill="#9065F2"/>
<path d="M105.036 135.872L103.387 133.596C104.627 133.058 105.66 132.571 106.068 132.375C105.526 129.879 105.024 127.685 104.533 125.82C105.424 125.985 106.676 126.809 107.022 129.945C107.281 132.336 110.77 128.521 112.05 131.633C113.329 134.746 105.036 135.872 105.036 135.872Z" fill="#824CF6"/>
<path d="M115.496 121.574C114.817 122.285 113.847 126.139 112.45 130.708" stroke="#7444DC" stroke-width="0.294375" stroke-linecap="round" stroke-linejoin="round"/>
<path d="M134.677 125.112C134.618 126.486 132.181 126.14 132.181 126.14C132.801 127.232 131.003 127.942 130.116 127.993C129.521 128.009 128.928 127.91 128.37 127.703C128.37 127.703 119.644 135.462 116.383 138.382C113.121 141.303 107.077 145.84 102.991 145.283C98.9047 144.725 97.7704 140.573 95.9531 135.863C96.9204 135.785 97.8776 135.612 98.8105 135.345C101.224 134.673 105.173 132.813 106.068 132.385C106.182 132.919 106.303 133.472 106.421 134.038C113.737 129.908 121.878 124.617 122.561 123.962C123.244 123.307 126.136 121.046 126.992 120.119C127.848 119.193 129.465 120.053 128.813 120.567C128.162 121.081 127.848 121.591 130.47 123.208C133.771 125.242 134.744 123.464 134.677 125.112Z" fill="#FEBD9D"/>
<path d="M118.687 118.533C117.329 117.677 115.665 117.324 113.977 118.69C109.973 121.916 106.127 121.763 100.706 115.518C95.4351 109.45 91.0194 118.698 90.7682 119.232C90.5995 113.846 93.4412 109.584 98.0805 109.863C102.991 110.165 108.011 111.982 108.011 111.982C108.011 111.982 113.443 112.842 116.304 114.439C117.6 115.157 118.487 116.394 118.687 118.533Z" fill="#C5AFF9"/>
<path d="M106.829 118.352C106.829 118.515 106.878 118.676 106.969 118.812C107.06 118.948 107.189 119.054 107.341 119.117C107.492 119.179 107.658 119.196 107.819 119.164C107.98 119.132 108.127 119.053 108.243 118.937C108.359 118.821 108.438 118.674 108.47 118.513C108.502 118.353 108.485 118.186 108.423 118.035C108.36 117.883 108.254 117.754 108.118 117.663C107.981 117.572 107.821 117.523 107.658 117.523C107.438 117.523 107.227 117.611 107.072 117.766C106.917 117.921 106.829 118.132 106.829 118.352Z" fill="white"/>
<path d="M90.7524 120.103C90.7524 120.103 93.6962 133.53 94.6774 135.803C95.0976 135.861 95.523 135.87 95.9452 135.83C96.9125 135.753 97.8697 135.579 98.8026 135.312C100.363 134.829 101.892 134.249 103.379 133.573C104.619 133.036 105.652 132.549 106.06 132.353C105.518 129.856 105.016 127.662 104.525 125.798C103.403 121.531 102.335 119.016 100.95 118.623" stroke="#7444DC" stroke-width="0.294375" stroke-linecap="round" stroke-linejoin="round"/>
<path d="M106.421 134.029C104.294 135.383 103.956 136.49 103.956 136.49" stroke="#EF8A66" stroke-width="0.294375" stroke-linecap="round" stroke-linejoin="round"/>
<path d="M132.177 126.14C130.607 126.003 129.877 125.889 129.877 125.889" stroke="#EF8A66" stroke-width="0.294375" stroke-linecap="round" stroke-linejoin="round"/>
<path d="M128.378 127.699C128.937 127.909 129.531 128.008 130.128 127.993C131.023 127.942 132.813 127.235 132.189 126.14C132.189 126.14 134.63 126.482 134.689 125.112C134.756 123.463 133.778 125.241 130.481 123.2C127.859 121.583 128.173 121.081 128.825 120.563C129.477 120.045 127.863 119.185 127.004 120.112C126.564 120.586 125.595 121.415 124.649 122.192" stroke="#EF8A66" stroke-width="0.294375" stroke-linecap="round" stroke-linejoin="round"/>
<path d="M123.923 121.107C124.873 119.78 126.176 120.714 126.203 121.825C126.231 122.936 124.009 124.376 123.377 123.787C122.745 123.199 123.389 121.848 123.923 121.107Z" fill="#B25E47"/>
<path d="M126.415 128.914C125.406 128.411 124.692 129.173 125.532 130.091C126.372 131.01 127.911 130.594 128.201 129.679L126.415 128.914Z" fill="#B25E47"/>
<path d="M126.415 128.914C125.406 128.411 124.692 129.173 125.532 130.091C126.372 131.01 127.911 130.594 128.201 129.679L126.415 128.914Z" stroke="#934735" stroke-width="0.294375" stroke-linecap="round" stroke-linejoin="round"/>
<path d="M127.706 127.954C126.651 127.757 125.767 128.107 126.101 128.947C126.435 129.787 128.849 130.733 129.877 128.947L127.706 127.954Z" fill="#B25E47"/>
<path d="M127.706 127.954C126.651 127.757 125.767 128.107 126.101 128.947C126.435 129.787 128.849 130.733 129.877 128.947L127.706 127.954Z" stroke="#934735" stroke-width="0.294375" stroke-linecap="round" stroke-linejoin="round"/>
<path d="M123.923 121.107C124.873 119.78 126.176 120.714 126.203 121.825C126.231 122.936 124.009 124.376 123.377 123.787C122.745 123.199 123.389 121.848 123.923 121.107Z" stroke="#934735" stroke-width="0.294375" stroke-linecap="round" stroke-linejoin="round"/>
<path d="M127.659 128.347C126.953 127.64 127.369 126.62 128.327 126.863C129.284 127.106 129.481 127.675 131.129 127.773C132.224 127.821 129.555 130.246 127.659 128.347Z" fill="#B25E47"/>
<path d="M127.659 128.347C126.953 127.64 127.369 126.62 128.327 126.863C129.284 127.106 129.481 127.675 131.129 127.773C132.224 127.821 129.555 130.246 127.659 128.347Z" stroke="#934735" stroke-width="0.294375" stroke-linecap="round" stroke-linejoin="round"/>
<path d="M111.233 103.889L109.875 104.403L107.795 105.169C107.117 104.488 106.518 103.734 106.009 102.92C105.196 101.597 104.788 100.192 106.126 99.7796C104.576 99.7796 104.396 98.4687 105.663 98.2096C103.909 98.1664 104.572 96.4355 106.386 96.6396C106.386 96.6396 105.263 95.1206 108.226 94.8066C110.318 94.5868 111.947 95.1089 112.936 95.8271L113.015 95.8899C113.418 96.1704 113.735 96.5578 113.929 97.0086C114.361 98.1468 111.233 103.889 111.233 103.889Z" fill="#D39933"/>
<path d="M111.233 103.89L109.875 104.404L107.795 105.169C107.117 104.489 106.518 103.734 106.009 102.92C106.758 102.116 107.971 102.265 108.16 101.704C108.434 100.919 106.346 97.1702 109.781 97.2566C111.716 97.3037 112.611 96.5501 113.019 95.8828C113.422 96.1633 113.739 96.5507 113.933 97.0014C114.361 98.1475 111.233 103.89 111.233 103.89Z" fill="#C4892A"/>
<path d="M106.397 96.6211C106.397 96.6211 109.192 96.7428 110.059 96.8841C111.237 97.0764 111.402 97.5356 111.402 97.5356" stroke="#EDB65F" stroke-width="0.294375" stroke-linecap="round" stroke-linejoin="round"/>
<path d="M109.137 99.0689L108.042 98.9551" stroke="#EDB65F" stroke-width="0.294375" stroke-linecap="round" stroke-linejoin="round"/>
<path d="M105.663 98.1699C106.48 98.2366 107.202 98.3662 107.202 98.3662" stroke="#EDB65F" stroke-width="0.294375" stroke-linecap="round" stroke-linejoin="round"/>
<path d="M106.127 99.7605C106.562 99.755 106.998 99.7813 107.43 99.839" stroke="#EDB65F" stroke-width="0.294375" stroke-linecap="round" stroke-linejoin="round"/>
<path d="M109.816 101.691C108.497 101.644 106.794 101.648 106.641 101.385" stroke="#EDB65F" stroke-width="0.294375" stroke-linecap="round" stroke-linejoin="round"/>
<path d="M112.677 109.06C112.419 109.833 112.2 110.619 112.022 111.415C111.991 111.553 111.959 111.695 111.928 111.839C111.331 113.613 110.601 115.72 108.175 115.418C106.637 115.23 104.863 114.186 103.98 111.627C103.638 110.634 104.596 109.684 104.718 109.503C105.66 108.137 106.539 106.72 106.837 105.661C106.837 105.661 106.103 104.738 106.609 103.773C106.685 103.632 106.778 103.5 106.884 103.38C107.689 102.485 109.184 102.897 109.683 103.588C109.805 103.501 109.917 103.399 110.016 103.286C110.109 103.206 110.185 103.108 110.24 102.999C110.294 102.889 110.326 102.769 110.333 102.647C110.34 102.525 110.323 102.402 110.282 102.287C110.241 102.171 110.178 102.065 110.095 101.975C110.003 101.87 109.913 101.772 109.824 101.681L109.789 101.645C109.169 100.99 108.643 100.468 108.909 99.569C108.96 99.3874 109.04 99.2151 109.145 99.0587C109.557 98.4778 110.322 98.4033 111.469 98.5563C112.909 98.7447 113.631 98.3326 113.941 96.9863C113.981 97.0452 114.295 97.5515 114.726 98.3561C114.852 98.5877 114.985 98.8428 115.119 99.1215C115.441 99.7574 115.794 100.511 116.124 101.327C116.254 101.639 116.376 101.957 116.489 102.281C116.612 102.618 116.715 102.961 116.799 103.309C117.505 106.175 117.058 109.652 112.677 109.06Z" fill="#FEBD9D"/>
<path d="M112.214 103.075C112.038 103.586 111.257 103.778 110.46 103.507C110.302 103.454 110.15 103.383 110.009 103.295C110.101 103.215 110.177 103.118 110.232 103.008C110.286 102.898 110.318 102.778 110.325 102.656C110.333 102.534 110.315 102.411 110.274 102.296C110.233 102.181 110.17 102.074 110.087 101.984C109.985 101.866 109.883 101.756 109.781 101.654C110.203 101.493 110.67 101.493 111.092 101.654C111.893 101.933 112.391 102.565 112.214 103.075Z" fill="#F4AF90"/>
<path d="M111.975 101.385C111.975 101.462 111.998 101.538 112.041 101.603C112.084 101.667 112.145 101.718 112.217 101.747C112.289 101.777 112.368 101.785 112.444 101.77C112.52 101.754 112.59 101.717 112.645 101.662C112.7 101.607 112.737 101.537 112.752 101.461C112.767 101.385 112.76 101.306 112.73 101.234C112.7 101.163 112.65 101.101 112.585 101.058C112.521 101.015 112.445 100.992 112.367 100.992C112.263 100.992 112.163 101.034 112.09 101.107C112.016 101.181 111.975 101.281 111.975 101.385Z" fill="#683F1D"/>
<path d="M114.852 101.012C115.073 101.012 115.252 100.832 115.252 100.611C115.252 100.39 115.073 100.211 114.852 100.211C114.631 100.211 114.452 100.39 114.452 100.611C114.452 100.832 114.631 101.012 114.852 101.012Z" fill="#683F1D"/>
<path d="M112.677 109.058C112.418 109.831 112.2 110.617 112.022 111.413C108.733 110.734 110.103 107.578 110.103 107.578C110.103 107.578 111.716 108.803 112.677 109.058Z" fill="#F4A789"/>
<path d="M106.829 105.664C107.43 106.508 108.972 106.484 109.494 106.057" stroke="#EF8A66" stroke-width="0.294375" stroke-linecap="round" stroke-linejoin="round"/>
<path d="M107.43 104.576C108.069 103.823 108.945 104.184 109.431 105.075" stroke="#EF8A66" stroke-width="0.294375" stroke-linecap="round" stroke-linejoin="round"/>
<path d="M108.87 105.502C107.826 105.474 108.16 104.234 109.137 104.646" stroke="#EF8A66" stroke-width="0.294375" stroke-linecap="round" stroke-linejoin="round"/>
<path d="M112.768 103.312C113.18 104.019 113.631 104.376 114.632 104.164" stroke="#EF8A66" stroke-width="0.294375" stroke-linecap="round" stroke-linejoin="round"/>
<path d="M113.776 99.5879C113.639 100.459 113.549 101.217 114.475 101.645C115.401 102.072 115.221 102.92 114.353 103.179" stroke="#EF8A66" stroke-width="0.294375" stroke-linecap="round" stroke-linejoin="round"/>
<path d="M110.515 100.085C110.864 100.556 112.658 99.7203 112.336 99.0884C112.136 98.692 109.899 99.2415 110.515 100.085Z" fill="#D39933"/>
<path d="M115.119 99.1326C114.648 99.3288 113.694 99.1875 113.694 98.901C113.694 98.6145 114.251 98.3829 114.722 98.3672C114.848 98.5988 114.981 98.8539 115.119 99.1326Z" fill="#D39933"/>
<path d="M116.799 103.32C116.651 103.418 116.478 103.472 116.301 103.476C116.124 103.479 115.949 103.432 115.798 103.34C115.374 103.014 115.437 102.209 115.947 101.538C116.006 101.467 116.065 101.397 116.123 101.338C116.254 101.649 116.376 101.967 116.488 102.292C116.612 102.628 116.715 102.971 116.799 103.32Z" fill="#F4AF90"/>
<path d="M104.71 109.507C103.725 109.291 102.449 109.758 102.304 110.374C102.158 110.99 101.994 116.124 103.14 116.14C104.286 116.156 106.197 113.82 107.194 115.661C108.431 117.941 108.819 114.935 110.409 116.477C110.97 117.023 111.645 118.126 112.34 117.262C113.035 116.399 113.553 113.337 113.337 112.835C113.121 112.333 112.587 111.716 111.912 111.842C111.457 111.924 110.735 115.061 108.297 115.19C107.795 115.218 104.404 111.658 104.199 110.931C103.995 110.205 104.71 109.507 104.71 109.507Z" fill="white"/>
</g>
<defs>
<clipPath id="clip0_7350_17906">
<path d="M0.666656 8C0.666656 3.58173 4.24838 0 8.66666 0H371.333C375.752 0 379.333 3.58172 379.333 8V232H0.666656V8Z" fill="white"/>
</clipPath>
</defs>
</svg>
