<svg width="379" height="232" viewBox="0 0 379 232" fill="none" xmlns="http://www.w3.org/2000/svg">
<g clip-path="url(#clip0_7350_17695)">
<path d="M0 8C0 3.58173 3.58172 0 8 0H370.667C375.085 0 378.667 3.58172 378.667 8V232H0V8Z" fill="#F0F2F5"/>
<path d="M270.422 39.0312H112.438C109.527 39.0312 107.168 41.3907 107.168 44.3012V140.052C107.168 142.963 109.527 145.323 112.438 145.323H270.422C273.332 145.323 275.692 142.963 275.692 140.052V44.3012C275.692 41.3907 273.332 39.0312 270.422 39.0312Z" stroke="#EDEDED" stroke-width="0.701375" stroke-linecap="round" stroke-linejoin="round"/>
<path d="M265.427 43.9883H117.437C114.526 43.9883 112.167 46.3477 112.167 49.2583V135.09C112.167 138 114.526 140.36 117.437 140.36H265.427C268.337 140.36 270.697 138 270.697 135.09V49.2583C270.697 46.3477 268.337 43.9883 265.427 43.9883Z" stroke="#DDDDDD" stroke-width="0.701375" stroke-linecap="round" stroke-linejoin="round"/>
<path d="M112.364 113.965C106.796 114.635 106.11 110.981 104.083 105.784C102.057 100.588 102.413 95.7095 101.038 87.7192C99.4294 78.4192 110.725 78.21 113.05 91.2494C113.147 91.7764 113.252 92.3886 113.364 93.059C113.693 94.9461 114.108 97.3215 114.705 99.6775C114.856 100.27 115.019 100.863 115.189 101.448C116.313 105.203 117.944 113.29 112.364 113.965Z" fill="#B25E47"/>
<path d="M114.72 99.6771C107.226 102.002 106.114 95.8718 106.195 93.3647L113.372 93.0586C113.709 94.9341 114.123 97.3095 114.72 99.6771Z" fill="#914839"/>
<path d="M141.671 138.451C141.38 138.729 141.072 138.987 140.748 139.226C140.504 139.42 140.21 139.641 139.869 139.869L139.578 140.067L139.245 140.28C138.776 140.575 138.245 140.885 137.648 141.187C137.369 141.33 137.075 141.478 136.765 141.613C136.606 141.687 136.443 141.76 136.273 141.83L135.765 142.039C135.606 142.101 135.447 142.163 135.281 142.222C135.114 142.28 134.893 142.369 134.669 142.439C134.444 142.508 134.281 142.567 134.087 142.625C133.894 142.683 133.7 142.745 133.487 142.799L132.944 142.942L132.797 142.977L132.239 143.101C131.793 143.202 131.336 143.283 130.859 143.353C130.666 143.388 130.472 143.415 130.267 143.438C130.193 143.438 130.119 143.458 130.042 143.462C129.836 143.489 129.631 143.508 129.422 143.527V143.566C129.53 144.636 130.708 164.879 131.011 170.199L131.038 170.672C131.038 170.78 131.038 170.877 131.038 170.963C116.15 170.575 101.316 170.432 87.0255 170.47C86.731 165.146 86.2001 155.307 85.6847 145.283C84.9679 131.236 84.2859 116.844 84.3634 114.046V114.004C84.5261 108.618 83.7705 104.584 88.3701 102.805C89.9744 102.185 92.2451 101.836 95.4071 101.805H96.0155H96.6859H97.3911C97.6314 101.805 97.8561 101.805 98.0731 101.782H98.5497L99.0031 101.759H99.3906L100.018 101.724L100.46 101.693C100.693 101.693 100.902 101.662 101.096 101.646H101.216L101.437 101.627L101.75 101.592H101.859C102.072 101.565 102.246 101.538 102.374 101.515C102.502 101.491 102.56 101.48 102.63 101.464C102.705 101.45 102.778 101.427 102.847 101.395C103.862 104.2 106.691 109.331 111.434 108.684C116.177 108.036 115.778 102.751 114.836 100.438L114.925 100.515L115.061 100.623L115.359 100.84C115.402 100.871 115.449 100.906 115.499 100.937L115.658 101.042L115.813 101.139L116.026 101.267C116.208 101.367 116.413 101.464 116.603 101.55L116.805 101.631C116.94 101.677 117.076 101.712 117.192 101.743C117.337 101.772 117.483 101.787 117.63 101.786C117.677 101.79 117.723 101.79 117.77 101.786C117.82 101.786 117.867 101.786 117.913 101.763C118.653 101.577 120.734 101.212 123.582 102.328C125.4 103.045 127.531 104.367 129.829 106.73C131.317 108.361 132.576 110.186 133.572 112.155C137.668 119.692 140.71 131.17 141.671 138.451Z" fill="#C5AFF9"/>
<path d="M133.599 112.089C131.108 111.734 128.57 112.214 126.38 113.453C124.66 114.498 123.306 116.051 122.505 117.898C118.506 126.717 108.028 130.03 101.026 120.269C100.053 118.887 98.9256 117.619 97.6663 116.491C93.9036 113.19 89.5288 112.279 84.3363 114.085V114.042C84.499 108.656 83.7434 104.622 88.343 102.843C89.9473 102.223 92.218 101.875 95.38 101.844C102.084 101.774 102.832 101.344 102.832 101.344C103.847 104.149 106.676 109.28 111.419 108.633C116.162 107.986 115.763 102.7 114.821 100.387C114.926 100.476 116.758 101.999 117.921 101.708C118.661 101.522 120.742 101.158 123.59 102.274C125.407 102.991 127.539 104.312 129.837 106.676C131.33 108.301 132.596 110.122 133.599 112.089Z" fill="#E1D4FB"/>
<path d="M140.396 171.273C137.273 171.172 134.151 171.082 131.03 171.002V170.711L131.003 170.238L129.414 143.605V143.567L140.396 136.088C140.543 137.064 140.667 138.126 140.783 139.25C141.775 150.735 140.566 168.793 140.396 171.273Z" fill="#B25E47"/>
<path d="M141.671 138.45C141.671 138.45 137.288 142.872 129.399 143.558C128.965 130.836 127.744 120.765 126.388 113.453C125.454 108.396 124.45 104.653 123.617 102.273C125.435 102.99 127.566 104.312 129.864 106.675C131.352 108.306 132.611 110.131 133.607 112.1C137.668 119.692 140.71 131.169 141.671 138.45Z" fill="#FED81D"/>
<path d="M133.599 112.089C131.108 111.734 128.57 112.214 126.38 113.453C125.446 108.396 124.443 104.653 123.609 102.273C125.427 102.99 127.558 104.312 129.856 106.675C131.343 108.302 132.602 110.123 133.599 112.089Z" fill="#FFE05C"/>
<path d="M129.391 143.56C128.957 130.838 127.736 120.767 126.38 113.455" stroke="#F7AD2B" stroke-width="0.2635" stroke-linecap="round" stroke-linejoin="round"/>
<path d="M102.607 99.949C100.282 100.864 100.282 101.887 100.282 102.999C100.282 104.111 102.367 110.179 106.443 114.488C107.238 115.329 108.419 110.14 109.586 109.838C110.752 109.536 111.798 110.071 112.341 109.993C112.883 109.916 114.321 108.49 115.255 109.137C116.189 109.784 118.165 113.012 118.553 113.097C118.94 113.182 118.979 105.452 118.088 102.735C117.854 101.968 117.415 101.278 116.819 100.741C116.223 100.203 115.492 99.8387 114.705 99.6855C114.705 99.6855 115.348 105.297 113.469 106.963C109.563 110.435 105.544 106.06 102.607 99.949Z" fill="white"/>
<path d="M101.503 84.5803C100.142 84.0765 98.0576 85.3553 98.3405 87.4749C98.6234 89.5945 101.758 90.2882 103.308 89.0598C102.532 87.643 101.926 86.1394 101.503 84.5803Z" fill="#B25E47"/>
<path d="M99.41 87.6157C99.2938 86.7051 100.394 85.2675 102.123 86.6315" stroke="#934735" stroke-width="0.2635" stroke-linecap="round" stroke-linejoin="round"/>
<path d="M101.425 88.2108C99.6232 88.1643 100.154 86.2229 101.782 86.3934" stroke="#934735" stroke-width="0.2635" stroke-linecap="round" stroke-linejoin="round"/>
<path d="M115.588 86.7518L114.612 87.0347L105.044 89.8014C105.044 89.8014 104.789 89.5534 104.401 89.1233C103.137 87.7322 102.131 86.1275 101.429 84.3842C101.218 83.8211 101.071 83.2362 100.991 82.6404C100.518 78.932 104.374 71.9842 110.791 75.1927C112.864 77.1689 114.042 80.6797 114.344 81.7104L114.445 82.0592C114.813 83.4348 115.588 86.7518 115.588 86.7518Z" fill="#B25E47"/>
<path d="M108.733 85.437C108.733 86.4266 108.34 87.3758 107.64 88.0756C106.94 88.7754 105.991 89.1686 105.002 89.1686C104.795 89.169 104.589 89.1534 104.385 89.1221C103.122 87.731 102.115 86.1263 101.413 84.383C101.666 83.5205 102.222 82.7781 102.978 82.2922C103.734 81.8062 104.64 81.6093 105.53 81.7374C106.42 81.8655 107.233 82.3101 107.822 82.9896C108.41 83.6692 108.734 84.5381 108.733 85.437Z" fill="#A0503D"/>
<path d="M115.588 86.7512L114.612 87.0341C114.207 86.7637 113.872 86.4007 113.635 85.9752C113.398 85.5497 113.266 85.0739 113.25 84.5872C113.234 84.1004 113.333 83.6169 113.541 83.1765C113.749 82.7361 114.059 82.3515 114.445 82.0547C114.813 83.4342 115.588 86.7512 115.588 86.7512Z" fill="#A0503D"/>
<path d="M108.578 81.6972C108.577 81.7956 108.606 81.8921 108.66 81.9742C108.714 82.0564 108.792 82.1206 108.883 82.1586C108.973 82.1966 109.073 82.2068 109.17 82.1877C109.267 82.1687 109.355 82.1214 109.425 82.0518C109.495 81.9822 109.542 81.8935 109.561 81.7969C109.58 81.7003 109.57 81.6003 109.532 81.5095C109.494 81.4187 109.43 81.3413 109.347 81.2871C109.265 81.2329 109.169 81.2043 109.07 81.2051C109.006 81.2051 108.942 81.2178 108.882 81.2426C108.822 81.2673 108.768 81.3035 108.722 81.3492C108.677 81.3949 108.64 81.4492 108.616 81.5089C108.591 81.5686 108.578 81.6326 108.578 81.6972Z" fill="#683F1D"/>
<path d="M112.151 81.205C112.151 81.3033 112.18 81.3993 112.235 81.481C112.29 81.5626 112.367 81.6262 112.458 81.6636C112.549 81.701 112.649 81.7106 112.745 81.6912C112.842 81.6717 112.93 81.6241 112.999 81.5543C113.068 81.4846 113.115 81.3958 113.134 81.2994C113.153 81.2029 113.142 81.1031 113.104 81.0125C113.066 80.9219 113.002 80.8447 112.92 80.7907C112.838 80.7367 112.741 80.7082 112.643 80.709C112.578 80.709 112.514 80.7219 112.454 80.7468C112.394 80.7718 112.34 80.8084 112.294 80.8545C112.248 80.9006 112.212 80.9553 112.187 81.0155C112.163 81.0756 112.15 81.14 112.151 81.205Z" fill="#683F1D"/>
<path d="M116.398 92.7412C114.309 98.0965 109.109 96.5426 106.788 95.0391C104.467 93.5356 103.301 89.6761 101.658 87.0372C99.5069 83.6001 99.5766 80.225 100.72 77.7372C101.436 76.0536 102.782 74.717 104.471 74.0134C108.106 72.6842 110.795 75.1759 110.795 75.1759C110.721 77.5009 106.277 76.8809 105.436 76.629C103.363 76.0206 102.522 78.2371 102.278 79.9886C101.991 82.023 102.301 84.1387 103.413 85.6926C104.525 87.2465 105.35 87.6301 105.955 86.8551C106.559 86.0801 107.71 85.2005 110.648 84.7277C113.585 84.255 114.933 85.6577 114.933 85.6577C114.933 85.1307 114.375 81.9145 114.344 81.7169C115.41 83.6013 116.182 85.6371 116.634 87.7541C116.956 89.4165 116.999 91.1874 116.398 92.7412Z" fill="#FFEACC"/>
<path d="M116.398 92.7423C114.309 98.0975 109.109 96.5437 106.788 95.0402C104.467 93.5367 103.301 89.6772 101.658 87.0383C99.5069 83.6012 99.5766 80.226 100.72 77.7383C100.642 84.3607 105.25 91.6883 108.082 93.0368C110.741 94.3078 115.53 93.8854 116.627 87.759C116.956 89.4175 116.999 91.1884 116.398 92.7423Z" fill="#EDD6B7"/>
<path d="M109.07 86.2734C110.26 86.3456 111.453 86.3456 112.643 86.2734C112.643 86.2734 112.167 87.8506 110.706 87.7149C110.311 87.6941 109.934 87.5404 109.637 87.2788C109.34 87.0171 109.141 86.6629 109.07 86.2734Z" fill="white" stroke="#934735" stroke-width="0.2635" stroke-linecap="round" stroke-linejoin="round"/>
<path d="M108.574 78.102C108.815 79.0514 106.424 80.7292 105.827 80.0395C105.23 79.3497 108.21 76.676 108.574 78.102Z" fill="#FFEACC"/>
<path d="M110.721 77.6874C110.648 78.3694 113.523 78.9429 113.562 78.4275C113.6 77.9122 110.857 76.4552 110.721 77.6874Z" fill="#FFEACC"/>
<path d="M110.237 78.8105C109.958 79.7909 109.779 81.0658 110.721 81.523C111.663 81.9803 112.938 81.802 113.065 83.6698" stroke="#934735" stroke-width="0.2635" stroke-linecap="round" stroke-linejoin="round"/>
<path d="M75.7957 142.719C75.2571 148.845 75.2416 161.667 81.6082 164.922C92.0979 170.282 94.3182 156.425 93.8571 142.719H75.7957Z" fill="#B25E47"/>
<path d="M97.7709 121.286C97.5732 129.389 94.078 144.966 94.078 144.966C90.8268 145.234 88.0485 145.354 85.6731 145.354C75.6679 145.354 72.8856 143.385 72.8856 143.385C72.8856 143.385 74.9122 127.769 77.7758 117.531C78.0626 116.497 78.361 115.516 78.6632 114.614C81.3021 106.79 84.6346 103.543 88.3507 102.876C89.3294 102.707 90.3288 102.696 91.3112 102.841C95.4265 103.399 97.2361 109.816 97.674 116.524C97.7825 118.093 97.8096 119.713 97.7709 121.286Z" fill="#FED81D"/>
<path d="M97.6818 116.493C93.9192 113.191 89.5443 112.281 84.3518 114.086C82.0169 114.933 79.8024 116.081 77.7643 117.5C78.051 116.466 78.3494 115.485 78.6517 114.582C81.2905 106.759 84.623 103.511 88.3392 102.845C89.3179 102.676 90.3172 102.664 91.2997 102.81C95.4343 103.368 97.2439 109.777 97.6818 116.493Z" fill="#FFE05C"/>
<path d="M97.7709 121.285C97.5732 129.388 94.078 144.965 94.078 144.965" stroke="#F7AD2B" stroke-width="0.2635" stroke-linecap="round" stroke-linejoin="round"/>
<path d="M134.982 129.428C134.982 129.428 136.145 130.28 134.909 132.613C134.909 132.613 136.199 133.803 134.471 135.798C134.706 136.259 134.769 136.789 134.648 137.292C134.528 137.795 134.231 138.238 133.812 138.542C132.066 140.069 130.212 141.468 128.263 142.727C127.356 143.285 126.109 144.103 124.14 145.498C123.365 146.048 122.466 146.691 121.428 147.435C119.103 149.128 116.072 151.38 112.081 154.41C95.9031 166.678 86.2427 168.36 80.624 164.318C76.16 161.11 81.7865 146.641 99.0186 140.851C107.888 137.868 113.333 136.306 116.665 135.368C118.018 134.981 119.025 134.71 119.765 134.485C120.75 134.183 121.28 133.973 121.571 133.729C122.61 132.838 123.09 131.792 123.594 130.536C124.098 129.281 125.283 124.576 125.578 123.29C125.872 122.003 128.1 121.259 127.728 128.533C127.728 128.533 134.103 126.456 135.258 126.157C136.412 125.859 136.87 128.389 134.982 129.428Z" fill="#B25E47"/>
<path d="M124.14 145.497C123.365 146.047 122.466 146.691 121.428 147.435C119.971 145.703 116.871 141.335 116.673 135.372C118.025 134.984 119.033 134.713 119.773 134.488C119.971 137.499 121.738 142.785 124.14 145.497Z" fill="#683F1D"/>
<path d="M119.308 143.564C120.928 143.564 122.242 142.251 122.242 140.631C122.242 139.011 120.928 137.697 119.308 137.697C117.688 137.697 116.375 139.011 116.375 140.631C116.375 142.251 117.688 143.564 119.308 143.564Z" fill="white" stroke="#683F1D" stroke-width="0.34875" stroke-linecap="round" stroke-linejoin="round"/>
<path d="M123.609 130.54C124.109 129.281 125.299 124.58 125.593 123.294C125.888 122.007 128.116 121.263 127.744 128.537C127.744 128.537 134.118 126.46 135.273 126.161C136.428 125.863 136.87 128.39 134.982 129.428C134.982 129.428 136.145 130.281 134.909 132.613C134.909 132.613 136.199 133.803 134.471 135.799C134.706 136.259 134.769 136.789 134.648 137.292C134.528 137.795 134.231 138.238 133.812 138.542" stroke="#934735" stroke-width="0.2635" stroke-linecap="round" stroke-linejoin="round"/>
<path d="M134.982 129.428C133.82 129.962 131.456 130.935 131.456 130.935" stroke="#934735" stroke-width="0.2635" stroke-linecap="round" stroke-linejoin="round"/>
<path d="M134.909 132.615C134.204 133.076 132.557 133.902 132.557 133.902" stroke="#934735" stroke-width="0.2635" stroke-linecap="round" stroke-linejoin="round"/>
<path d="M134.471 135.799C134.133 135.994 133.781 136.163 133.417 136.303" stroke="#934735" stroke-width="0.2635" stroke-linecap="round" stroke-linejoin="round"/>
<path d="M127.744 128.535C126.663 128.853 125.806 129.175 125.806 129.175" stroke="#934735" stroke-width="0.2635" stroke-linecap="round" stroke-linejoin="round"/>
<path d="M203.694 114.627C203.649 115.429 203.563 116.229 203.434 117.022C202.431 123.551 198.823 132.932 194.82 138.664C194.019 139.845 193.094 140.937 192.061 141.922C188.915 144.817 183.904 145.363 180.405 143.337C179.349 142.728 178.449 141.882 177.776 140.865C177.104 139.848 176.677 138.688 176.53 137.478C176.378 136.429 176.366 135.364 176.495 134.312C177.166 128.379 181.207 118.211 186.086 110.876C186.64 110.031 187.214 109.221 187.791 108.466C190.546 104.854 193.464 102.335 196.13 102.064C196.681 102 197.239 102.043 197.773 102.192C202.19 103.463 204.093 106.92 203.694 114.627Z" fill="#FED81D"/>
<path d="M195.611 118.188C194.272 122.793 193.734 127.595 194.022 132.382C194.176 134.495 194.443 136.598 194.82 138.683C194.019 139.864 193.094 140.956 192.061 141.942C188.915 144.836 183.904 145.383 180.405 143.356C179.349 142.747 178.449 141.901 177.776 140.884C177.104 139.867 176.677 138.707 176.53 137.497C179.63 140.822 182.885 141.539 185.443 140.698C189.155 139.504 191.484 135.091 190.054 130.576C187.539 122.64 193.212 118.103 195.921 116.781C195.851 117.223 195.742 117.692 195.611 118.188Z" fill="#FCC71F"/>
<path d="M203.694 114.627C203.649 115.429 203.563 116.229 203.434 117.022C202.97 116.333 202.588 115.593 202.295 114.817C200.923 111.155 198.451 109.093 195.707 108.198C193.115 107.394 190.327 107.488 187.795 108.466C190.55 104.854 193.468 102.335 196.134 102.064C196.685 102 197.243 102.043 197.777 102.192C202.19 103.463 204.093 106.92 203.694 114.627Z" fill="#FFE05C"/>
<path d="M234.648 179.218C224.309 177.47 213.99 176.071 204.109 175.13C201.195 174.856 198.251 174.597 195.278 174.355C195.836 167.624 197.091 156.576 199.401 153.891C199.523 153.721 199.68 153.579 199.862 153.475C200.044 153.372 200.246 153.309 200.455 153.29C201.764 153.267 205.043 153.158 208.941 153.015C217.594 152.689 229.3 152.205 229.3 152.205C229.467 152.856 229.633 153.503 229.796 154.143C229.796 154.17 229.796 154.201 229.823 154.232C231.873 162.469 233.483 170.809 234.648 179.218Z" fill="#7444DC"/>
<path d="M225.15 155.535C226.363 158.248 229.606 161.429 230.703 162.154" stroke="white" stroke-width="0.34875" stroke-miterlimit="10"/>
<path d="M214.219 108.334C209.228 108.942 208.15 104.943 208.119 99.2277C208.119 97.8831 208.166 96.4415 208.239 94.9381C208.28 94.056 208.374 93.1773 208.522 92.3069C210.223 82.5691 218.283 83.747 218.698 89.4859C218.857 91.6637 220.391 107.582 214.219 108.334Z" fill="#B25E47"/>
<path d="M214.102 93.2235C213.835 97.0675 211.072 99.036 208.123 99.2259C208.123 97.8813 208.17 96.4398 208.243 94.9363C208.283 94.0543 208.378 93.1756 208.526 92.3052C210.15 91.6115 214.312 90.1235 214.102 93.2235Z" fill="#914839"/>
<path d="M233.435 131.09C233.171 131.969 232.963 132.863 232.811 133.768C232.768 134.016 232.729 134.264 232.691 134.508C231.16 144.045 230.97 152.891 230.866 153.81C230.761 154.728 222.22 154.41 215.865 154.1C213.389 153.976 210.189 154.011 207.17 154.034C202.442 154.069 198.161 154.081 197.8 153.41C197.572 152.976 196.959 150.438 196.293 147.179C196.188 146.672 196.084 146.153 195.975 145.629C195.921 145.366 195.87 145.095 195.82 144.823C195.77 144.552 195.7 144.2 195.642 143.89C195.584 143.58 195.514 143.223 195.452 142.886C195.316 142.142 195.181 141.39 195.064 140.642C194.948 139.894 194.816 139.162 194.704 138.441C194.346 136.353 194.1 134.247 193.968 132.133C193.731 127.342 194.319 122.546 195.708 117.954C195.743 117.834 195.777 117.718 195.805 117.602C195.859 117.4 195.909 117.214 195.956 117.001L196.025 116.687C196.049 116.582 196.068 116.478 196.087 116.373C196.107 116.269 196.13 116.164 196.146 116.063C196.161 115.962 196.18 115.854 196.196 115.749C196.231 115.548 196.258 115.342 196.285 115.145C196.339 114.649 196.382 114.161 196.401 113.684C196.401 113.618 196.401 113.552 196.401 113.49C196.401 113.153 196.401 112.82 196.401 112.49C196.366 110.977 196.196 109.471 195.894 107.988C195.405 105.457 194.751 103.555 194.913 102.679C194.991 102.249 195.436 101.989 196.219 101.877C196.273 101.877 196.332 101.877 196.382 101.857C198.319 101.633 202.016 102.179 207.061 103.221C207.164 102.089 207.344 100.965 207.6 99.858C207.65 99.6853 207.756 99.534 207.901 99.4281C208.046 99.3222 208.223 99.2675 208.402 99.2729C208.952 99.2225 209.696 99.424 210.409 99.4899C211.622 99.6022 215.749 98.8505 217.873 97.7306C218.299 97.4814 218.771 97.3181 219.26 97.2501C220.279 97.1532 220.632 97.9554 220.763 99.052C220.763 99.0985 220.763 99.1489 220.763 99.1954C220.763 99.2419 220.763 99.2961 220.763 99.3504C220.763 99.4046 220.763 99.5519 220.787 99.6565C220.81 99.7611 220.787 99.8115 220.806 99.8929C220.825 99.9742 220.806 100.106 220.825 100.214C220.845 100.323 220.825 100.474 220.825 100.602C220.825 100.73 220.825 100.85 220.825 100.989C220.825 101.051 220.825 101.117 220.825 101.183C220.825 101.249 220.825 101.292 220.825 101.346C220.825 101.4 220.825 101.493 220.825 101.567C220.825 101.64 220.825 101.753 220.825 101.842C220.825 101.931 220.825 102.024 220.825 102.113V102.288C220.825 103.063 220.825 103.683 220.825 103.683C224.662 102.229 230.443 100.745 234.826 103.438H234.849C236.275 104.342 237.455 105.586 238.282 107.058C238.499 107.425 238.705 107.812 238.898 108.22C242.595 115.997 235.93 122.612 233.435 131.09Z" fill="#FED81D"/>
<path d="M238.371 107.044C234.671 107.498 230.528 109.9 226.642 114.519C226.037 115.237 225.441 116.012 224.852 116.844C218.601 125.59 207.716 123.273 203.539 116.894C203.082 116.203 202.707 115.461 202.423 114.682C201.086 111.004 198.637 108.916 195.905 107.994C195.417 105.463 194.762 103.561 194.925 102.685C195.002 102.255 195.448 101.995 196.231 101.883C196.285 101.883 196.343 101.883 196.394 101.863C198.331 101.639 202.028 102.185 207.073 103.227C207.175 102.095 207.355 100.971 207.612 99.8638C207.661 99.6911 207.767 99.5399 207.913 99.434C208.058 99.328 208.234 99.2734 208.414 99.2787C208.964 99.2284 209.708 99.4299 210.421 99.4957C211.634 99.6081 215.761 98.8564 217.884 97.7365C218.311 97.4872 218.782 97.324 219.272 97.256C220.291 97.1591 220.643 97.9612 220.775 99.0579C220.775 99.1044 220.775 99.1547 220.775 99.2012C220.775 99.2477 220.775 99.302 220.775 99.3562C220.775 99.4105 220.775 99.5577 220.798 99.6624C220.822 99.767 220.798 99.8173 220.818 99.8987C220.837 99.9801 220.818 100.112 220.837 100.22C220.856 100.329 220.837 100.48 220.837 100.608C220.837 100.736 220.837 100.856 220.837 100.995C220.837 101.057 220.837 101.123 220.837 101.189C220.837 101.255 220.837 101.298 220.837 101.352C220.837 101.406 220.837 101.499 220.837 101.573C220.837 101.646 220.837 101.759 220.837 101.848C220.837 101.937 220.837 102.03 220.837 102.119V102.293C220.837 103.068 220.837 103.688 220.837 103.688C224.673 102.235 230.455 100.751 234.837 103.444H234.861C236.313 104.333 237.52 105.57 238.371 107.044Z" fill="#FFE05C"/>
<path d="M196.27 113.49C196.257 114.588 196.148 115.682 195.944 116.761C195.851 117.222 195.743 117.691 195.611 118.167C194.272 122.773 193.734 127.574 194.022 132.361C194.176 134.474 194.443 136.578 194.82 138.662C194.94 139.379 195.072 140.115 195.208 140.859C195.619 143.091 196.08 145.381 196.518 147.396C197.219 150.644 197.858 153.178 198.091 153.596" stroke="#F7AD2B" stroke-width="0.2635" stroke-linecap="round" stroke-linejoin="round"/>
<path d="M232.78 134.343C231.35 143.898 231.253 152.741 231.156 153.66C231.059 154.578 222.519 154.357 216.164 154.109C213.688 154.012 210.487 154.082 207.468 154.136C209.948 152.071 215.079 148.676 220 150.823C226.832 153.803 230.052 144.402 225.882 143.561C221.713 142.72 221.496 137.977 220.682 134.141L224.092 132.758L232.78 134.343Z" fill="#FCC71F"/>
<path d="M206.825 103.316C206.783 104.056 206.783 104.797 206.825 105.537" stroke="#F7AD2B" stroke-width="0.2635" stroke-linecap="round" stroke-linejoin="round"/>
<path d="M220.682 103.482C220.628 104.939 220.562 105.889 220.562 105.889" stroke="#F7AD2B" stroke-width="0.2635" stroke-linecap="round" stroke-linejoin="round"/>
<path d="M210.134 105.73C212.01 106.269 214.893 106.3 216.544 105.73" stroke="#F7AD2B" stroke-width="0.2635" stroke-linecap="round" stroke-linejoin="round"/>
<path d="M250.702 139.963C248.764 142.424 243.498 142.896 239.212 139.475C238.017 138.509 236.994 137.349 236.186 136.042C235.713 135.29 235.105 134.151 234.427 132.81C234.128 132.213 233.81 131.578 233.489 130.919C231.687 127.23 229.614 122.758 228.304 120.201C227.647 118.909 227.155 117.539 226.839 116.124C226.708 115.562 226.603 114.993 226.522 114.419C225.533 107.533 228.006 100.302 234.682 103.228H234.702C236.031 103.813 237.445 105.08 238.867 106.743C242.316 110.788 245.78 117.205 247.989 122.03C248.493 123.126 248.927 124.141 249.283 125.029C251.864 131.446 253.116 136.871 250.702 139.963Z" fill="#FED81D"/>
<path d="M240.568 129.083C240.417 131.489 237.592 132.481 234.427 132.811C234.128 132.214 233.81 131.578 233.489 130.92C231.687 127.231 229.614 122.759 228.304 120.201C227.647 118.909 227.155 117.54 226.839 116.125C229.552 116.183 232.508 117.175 232.78 121.829C232.966 125.007 240.909 123.577 240.568 129.083Z" fill="#FCC71F"/>
<path d="M238.867 106.754C238.635 106.754 238.402 106.793 238.174 106.824C234.477 107.312 230.362 109.761 226.522 114.419C225.533 107.533 228.006 100.302 234.682 103.228H234.702C236.031 103.825 237.445 105.092 238.867 106.754Z" fill="#FFE05C"/>
<path d="M236.186 136.042C235.713 135.291 235.105 134.151 234.427 132.811C234.128 132.214 233.81 131.578 233.489 130.92C231.687 127.231 229.614 122.759 228.304 120.201C227.647 118.909 227.155 117.54 226.839 116.125C226.708 115.563 226.603 114.993 226.522 114.42" stroke="#F7AD2B" stroke-width="0.2635" stroke-linecap="round" stroke-linejoin="round"/>
<path d="M250.702 139.965C248.764 142.425 243.498 142.898 239.212 139.477C240.269 139.137 241.388 139.043 242.487 139.201C246.85 139.837 251.155 138.039 247.799 132.959C245.087 128.84 247.024 123.659 247.989 122.043C248.493 123.14 248.927 124.155 249.283 125.042C251.864 131.448 253.116 136.873 250.702 139.965Z" fill="#FCC71F"/>
<path d="M222.678 74.8434C221.86 75.4247 221.356 75.5177 221.376 76.3934C221.395 77.2692 221.015 77.5249 220.632 77.6683C220.248 77.8117 220.678 78.4627 220.558 79.0904C220.438 79.7182 218.826 80.3149 218.826 80.3149L208.119 75.2774C207.228 74.1924 207.615 73.5918 207.902 73.0105C207.93 72.956 207.945 72.8955 207.945 72.8342C207.945 72.7729 207.93 72.7125 207.902 72.6579C207.751 72.2704 207.1 71.9023 207.267 71.4489C207.48 70.8715 208.042 70.7747 208.731 70.7514C209.421 70.7282 209.27 68.8139 208.952 68.2947C208.635 67.7754 208.879 66.516 209.96 66.5897C211.041 66.6633 211.452 66.4463 211.549 65.9387C211.614 65.7619 211.715 65.6005 211.845 65.4645C211.975 65.3285 212.132 65.2208 212.306 65.1481C212.48 65.0754 212.667 65.0392 212.855 65.0419C213.043 65.0446 213.229 65.086 213.401 65.1637C214.242 65.6015 214.951 65.1172 215.47 64.6367C215.5 64.6065 215.532 64.5793 215.567 64.5553C216.121 64.1252 217.284 63.8888 217.756 64.6367C218.229 65.3845 218.865 65.7449 219.876 65.7992C220.887 65.8534 221.174 66.7137 220.957 67.5545C220.74 68.3954 221.054 68.686 221.705 69.0735C222.046 69.3427 222.297 69.7092 222.425 70.1244C222.553 70.5397 222.552 70.984 222.422 71.3985C222.291 71.6436 222.244 71.9248 222.288 72.1992C222.332 72.4735 222.465 72.7258 222.666 72.9175C222.988 73.2818 223.495 74.266 222.678 74.8434Z" fill="#473526"/>
<path d="M218.597 88.6067C217.752 88.9694 216.835 89.135 215.916 89.0911C212.238 88.9206 203.26 92.2454 203.26 92.2454C201.753 92.4314 200.834 92.9506 201.516 93.7023C202.198 94.4541 202.838 96.6241 201.094 96.8023C200.751 96.8347 200.406 96.8347 200.063 96.8023C199.04 96.7132 198.587 96.2831 198.715 95.8801C198.877 95.3647 199.986 95.4926 200.195 95.2679C200.404 95.0431 200.454 94.5859 199.772 93.9465C199.09 93.3071 198.61 92.3229 199.304 91.3192C199.997 90.3156 201.4 89.4011 200.551 88.692C199.703 87.9829 199.001 87.3474 199.389 86.4987C199.776 85.6501 201.745 84.4488 200.826 83.3987C199.908 82.3486 199.083 81.0195 200.873 79.392C202.663 77.7645 204.477 78.0745 204.217 76.6795C203.957 75.2845 204.174 73.9437 206.104 74.2731C208.034 74.6025 208.321 74.463 209.169 73.9902C210.018 73.5175 211.146 73.7771 212.234 74.7226C213.323 75.6681 214.354 74.6025 215.672 74.8621C216.989 75.1217 215.672 76.3927 217.346 76.6795C219.02 76.9662 219.585 77.0321 219.775 78.617C219.965 80.2019 221.073 80.2367 221.302 80.7405C221.779 81.7518 221.023 82.461 220.81 83.0655C220.597 83.67 221.066 84.0265 221.438 84.6465C222.03 85.6966 220.767 87.6845 218.597 88.6067Z" fill="#604730"/>
<path d="M219.171 85.7765C219.048 86.7342 218.852 87.6811 218.586 88.6091C217.74 88.9718 216.823 89.1374 215.904 89.0935C212.227 88.923 203.248 92.2477 203.248 92.2477C201.741 92.4337 200.823 92.953 201.505 93.7047C202.187 94.4565 202.826 96.6265 201.082 96.8047C200.739 96.8371 200.394 96.8371 200.051 96.8047C201.357 96.5916 201.706 95.6616 201.032 94.4294C200.106 92.736 200.439 91.7169 201.369 90.7597C202.299 89.8026 200.776 87.4931 201.369 86.2841C201.962 85.0751 202.969 84.6489 202.566 82.8237C202.163 80.9986 202.361 80.1112 203.814 79.1076C205.267 78.104 206.468 77.8986 207.24 76.6896C208.011 75.4806 210.022 74.7134 210.708 76.1626C211.394 77.6119 211.614 78.5922 213.54 78.0032C215.466 77.4142 216.757 78.1389 216.071 79.7935C215.385 81.4481 215.71 83.0175 216.919 83.219C218.128 83.4205 219.411 83.4825 219.171 85.7765Z" fill="#473526"/>
<path d="M217.799 91.3118C210.564 96.574 207.445 98.3061 203.985 95.396C202.373 94.0436 202.094 91.2808 202.411 88.4598C202.53 87.4536 202.711 86.4557 202.954 85.4721C203.316 83.8722 203.871 82.3224 204.608 80.857C206.158 78.0515 209.731 77.912 210.092 78.0515C210.452 78.191 210.564 78.4003 210.216 79.214C209.867 80.0278 210.25 80.6361 211.254 80.6671C212.258 80.6981 213.405 81.3956 213.296 82.3993C213.231 82.8879 213.311 83.385 213.526 83.8282C213.742 84.2715 214.084 84.6412 214.509 84.8909C215.443 85.4799 215.284 86.3828 215.408 86.933C215.532 87.4833 216.691 88.0955 217.005 87.3476C217.318 86.5998 219.113 84.9606 220.57 86.4525C222.027 87.9444 220.74 91.4164 217.799 91.3118Z" fill="#B25E47"/>
<path d="M209.127 87.5487C209.475 88.2733 210.731 88.3896 211.924 87.8122C213.118 87.2348 213.812 86.1808 213.474 85.4562C213.137 84.7316 211.874 84.6115 210.677 85.1927C209.479 85.774 208.778 86.8241 209.127 87.5487Z" fill="#A0503D"/>
<path d="M204.248 88.1813C203.919 88.6424 203.19 88.7277 202.411 88.4603C202.53 87.4541 202.711 86.4563 202.954 85.4727C203.019 85.5103 203.083 85.5517 203.144 85.5967C204.225 86.3717 204.717 87.5303 204.248 88.1813Z" fill="#A0503D"/>
<path d="M204.109 84.6835C204.108 84.7818 204.136 84.8781 204.19 84.9601C204.244 85.0422 204.322 85.1064 204.412 85.1445C204.503 85.1827 204.603 85.193 204.699 85.1743C204.795 85.1556 204.884 85.1087 204.954 85.0395C205.024 84.9703 205.071 84.8819 205.091 84.7856C205.11 84.6893 205.101 84.5894 205.063 84.4985C205.026 84.4076 204.962 84.33 204.881 84.2753C204.799 84.2206 204.703 84.1914 204.605 84.1914C204.474 84.1914 204.348 84.2431 204.255 84.3353C204.162 84.4275 204.11 84.5527 204.109 84.6835Z" fill="#683F1D"/>
<path d="M207.131 84.9452C207.131 85.0433 207.16 85.1392 207.215 85.2208C207.269 85.3024 207.347 85.3659 207.437 85.4035C207.528 85.441 207.628 85.4508 207.724 85.4317C207.82 85.4126 207.908 85.3653 207.978 85.2959C208.047 85.2266 208.094 85.1382 208.114 85.042C208.133 84.9458 208.123 84.846 208.085 84.7554C208.048 84.6648 207.984 84.5873 207.903 84.5328C207.821 84.4783 207.725 84.4492 207.627 84.4492C207.496 84.4492 207.369 84.5015 207.276 84.5945C207.183 84.6875 207.131 84.8137 207.131 84.9452Z" fill="#683F1D"/>
<path d="M217.532 89.0941C217.629 88.0285 218.845 86.5598 220.159 87.6448" stroke="#934735" stroke-width="0.2635" stroke-linecap="round" stroke-linejoin="round"/>
<path d="M217.578 88.8312C218.489 87.2812 220.322 89.4086 218.186 89.8348" stroke="#934735" stroke-width="0.2635" stroke-linecap="round" stroke-linejoin="round"/>
<path d="M205.523 87.8551C204.98 87.6032 204.767 87.1111 204.814 86.991C204.86 86.8709 206.558 85.6192 206.232 83.6934" stroke="#934735" stroke-width="0.2635" stroke-linecap="round" stroke-linejoin="round"/>
<path d="M207.627 81.2892C207.472 82.2928 209.909 83.2732 210.285 82.6416C210.607 82.0991 207.852 79.8283 207.627 81.2892Z" fill="#604730"/>
<path d="M203.535 81.9504C203.558 82.2372 206.174 82.179 206.139 81.1754C206.104 80.1718 203.469 81.1057 203.535 81.9504Z" fill="#604730"/>
<path d="M205.779 88.8694C206.686 88.6309 207.571 88.3172 208.425 87.9316C208.425 87.9316 208.697 89.6056 207.627 89.9118C207.437 89.9664 207.239 89.9827 207.042 89.9598C206.846 89.9368 206.657 89.875 206.485 89.778C206.312 89.6809 206.161 89.5506 206.04 89.3946C205.919 89.2386 205.83 89.0601 205.779 88.8694Z" fill="white" stroke="#934735" stroke-width="0.2635" stroke-linecap="round" stroke-linejoin="round"/>
<path d="M219.558 70.7782C219.171 72.0259 217.702 70.7355 217.586 72.518C217.47 74.3005 213.912 73.8007 212.823 72.0685C211.932 70.6425 209.406 71.1773 207.922 72.6847C207.77 72.2972 207.119 71.929 207.286 71.4757C207.499 70.8983 208.061 70.8014 208.751 70.7782C209.441 70.7549 209.289 68.8407 208.972 68.3214C208.654 67.8022 208.898 66.5428 209.979 66.6164C211.06 66.69 211.471 66.473 211.568 65.9654C211.633 65.7887 211.734 65.6273 211.864 65.4913C211.995 65.3552 212.152 65.2475 212.325 65.1748C212.499 65.1021 212.686 65.066 212.874 65.0686C213.063 65.0713 213.249 65.1128 213.42 65.1904C214.261 65.6283 214.97 65.1439 215.489 64.6634C215.519 64.6333 215.552 64.606 215.586 64.582C216.001 65.7445 216.303 67.3643 217.911 67.5077C220.155 67.713 219.946 69.5265 219.558 70.7782Z" fill="#604730"/>
<path d="M173.233 105.053C173.434 103.774 177.026 102.821 179.115 102.422L179.913 107.583C179.913 107.583 174.17 106.762 173.233 105.053Z" fill="#FCC71F"/>
<path d="M176.573 107.798C176.158 102.21 176.158 97.5096 176.042 95.7116C175.926 93.9136 176.015 92.0342 178.111 91.1701C178.111 91.1701 178.111 89.5232 180.502 89.2326C180.502 89.2326 180.2 87.7562 182.199 87.795C182.195 87.6567 182.223 87.5194 182.281 87.3937C182.339 87.2681 182.425 87.1576 182.533 87.0709C182.641 86.9841 182.767 86.9236 182.902 86.8939C183.037 86.8642 183.177 86.8663 183.311 86.8998C184.621 87.1285 185.044 87.9306 185.044 87.9306C186.78 87.5431 187.756 89.3605 187.663 90.8446C187.57 92.3287 187.465 93.9446 186.749 95.4403C186.032 96.9361 185.121 99.4122 185.121 99.4122L185.179 102.551C185.179 102.551 183.846 112.645 176.573 107.798Z" fill="#B25E47"/>
<path d="M176.042 95.7116C175.922 93.933 176.015 92.0342 178.111 91.1701C178.111 91.1701 178.111 89.5232 180.502 89.2326C180.502 89.2326 180.2 87.7562 182.199 87.795C182.195 87.6567 182.223 87.5194 182.281 87.3937C182.339 87.2681 182.425 87.1576 182.533 87.0709C182.641 86.9841 182.767 86.9236 182.902 86.8939C183.037 86.8642 183.177 86.8663 183.311 86.8998C184.621 87.1285 185.044 87.9306 185.044 87.9306C186.78 87.5431 187.756 89.3605 187.663 90.8446" stroke="#934735" stroke-width="0.2635" stroke-linecap="round" stroke-linejoin="round"/>
<path d="M185.044 87.9316C183.257 88.8113 181.944 90.462 182.482 91.2719C183.021 92.0818 185.047 91.0665 185.323 90.8069" stroke="#934735" stroke-width="0.2635" stroke-linecap="round" stroke-linejoin="round"/>
<path d="M182.048 87.7988C182.722 87.888 184.052 88.6358 184.052 88.6358" stroke="#934735" stroke-width="0.2635" stroke-linecap="round" stroke-linejoin="round"/>
<path d="M180.502 89.2324C181.285 89.2644 182.053 89.4625 182.753 89.8137" stroke="#934735" stroke-width="0.2635" stroke-linecap="round" stroke-linejoin="round"/>
<path d="M182.447 93.5679C183.044 93.1145 183.56 92.3163 183.405 91.5762" stroke="#934735" stroke-width="0.2635" stroke-linecap="round" stroke-linejoin="round"/>
<path d="M178.096 91.184C179.522 90.5988 180.971 89.9362 181.401 90.9088C181.831 91.8815 182.068 94.8768 181.401 95.2837C180.735 95.6906 179.619 95.3535 179.429 94.5707C179.239 93.788 179.095 92.7146 179.095 92.7146" stroke="#934735" stroke-width="0.2635" stroke-linecap="round" stroke-linejoin="round"/>
<path d="M180.758 95.457C181.358 96.1972 181.145 98.8167 180.502 99.6924" stroke="#934735" stroke-width="0.2635" stroke-linecap="round" stroke-linejoin="round"/>
<path d="M185.458 140.662C184.296 142.867 182.629 144.068 180.397 143.32C176.193 141.894 174.519 137.86 173.907 133.919C173.264 129.808 173.767 125.782 173.748 124.945C173.705 123.275 173.248 105.047 173.248 105.047C173.977 105.337 175.081 105.345 176.418 105.093C177.436 104.891 178.436 104.603 179.405 104.233C181.438 103.454 183.372 102.44 185.168 101.211L185.245 101.156C185.245 101.156 185.609 105.674 186.101 110.867C186.516 115.315 187.028 120.256 187.485 123.267C188.206 128.173 187.783 136.353 185.458 140.662Z" fill="#FED81D"/>
<path d="M185.458 140.66C184.296 142.865 182.629 144.067 180.397 143.319C176.193 141.893 174.519 137.859 173.907 133.918C174.656 135.191 175.539 136.38 176.542 137.464C179.646 140.8 182.889 141.517 185.458 140.66Z" fill="#FCC71F"/>
<path d="M185.233 101.166C185.233 101.166 186.489 116.736 187.473 123.288C188.01 127.456 187.879 131.682 187.086 135.809" stroke="#F7AD2B" stroke-width="0.2635" stroke-linecap="round" stroke-linejoin="round"/>
<path d="M229.688 119.902L214.738 113.657C213.559 113.165 212.204 113.721 211.712 114.9L202.834 136.154C202.342 137.333 202.898 138.688 204.077 139.18L219.027 145.424C220.206 145.917 221.561 145.36 222.053 144.181L230.931 122.928C231.423 121.749 230.867 120.394 229.688 119.902Z" fill="#EDEDED"/>
<path d="M228.006 119.196L214.737 113.653C213.558 113.161 212.203 113.717 211.71 114.896L202.833 136.15C202.341 137.329 202.897 138.684 204.076 139.176L217.345 144.719C218.524 145.211 219.879 144.654 220.371 143.476L229.249 122.222C229.741 121.043 229.185 119.688 228.006 119.196Z" fill="#F9F9F9" stroke="#DDDDDD" stroke-width="0.34875" stroke-linecap="round" stroke-linejoin="round"/>
<path d="M215.617 117.191C215.617 117.39 215.558 117.585 215.448 117.751C215.337 117.917 215.18 118.046 214.995 118.122C214.811 118.198 214.609 118.218 214.413 118.179C214.218 118.14 214.038 118.044 213.897 117.904C213.757 117.763 213.661 117.583 213.622 117.388C213.583 117.192 213.603 116.99 213.679 116.806C213.755 116.621 213.884 116.464 214.05 116.353C214.216 116.243 214.411 116.184 214.61 116.184C214.742 116.183 214.874 116.209 214.996 116.259C215.119 116.31 215.23 116.384 215.323 116.478C215.417 116.571 215.491 116.682 215.542 116.805C215.592 116.927 215.618 117.059 215.617 117.191Z" fill="#EDEDED"/>
<path d="M217.28 118.187C217.281 118.287 217.252 118.385 217.196 118.469C217.141 118.552 217.063 118.617 216.971 118.656C216.878 118.695 216.777 118.705 216.679 118.686C216.581 118.666 216.49 118.618 216.42 118.547C216.349 118.477 216.301 118.387 216.282 118.289C216.262 118.191 216.273 118.089 216.311 117.997C216.35 117.904 216.415 117.826 216.499 117.771C216.582 117.716 216.68 117.687 216.78 117.688C216.912 117.689 217.039 117.742 217.132 117.835C217.226 117.929 217.279 118.055 217.28 118.187Z" fill="#EDEDED"/>
<path d="M216.544 134.9C215.555 134.555 215.044 132.645 214.912 130.998L218.787 131.455C218.787 131.455 218.814 135.148 216.544 134.9Z" fill="#FCC71F"/>
<path d="M217.846 133.928C216.746 133.143 215.608 132.414 214.436 131.743C213.994 131.502 211.487 131.22 209.743 130.259C208.568 129.595 207.436 128.858 206.352 128.054L205.663 129.336C205.663 129.336 204.306 127.872 204.113 126.55C203.919 125.229 204.454 125.186 204.771 124.903C205.089 124.62 204.891 124.202 204.872 123.52C204.853 122.838 205.434 122.698 205.616 122.458C205.798 122.218 205.635 121.594 205.597 120.753C205.558 119.912 206.558 119.87 206.717 119.389C206.875 118.909 207.019 117.363 208.383 117.766C209.747 118.169 215.683 122.578 216.071 122.78C216.648 122.986 217.238 123.153 217.838 123.28C217.838 123.28 222.697 130.879 217.846 133.928Z" fill="#B25E47"/>
<path d="M206.352 128.054L205.663 129.336C205.663 129.336 204.306 127.872 204.113 126.55C203.919 125.229 204.454 125.186 204.771 124.903C205.089 124.62 204.891 124.202 204.872 123.52C204.853 122.838 205.434 122.698 205.616 122.458C205.798 122.218 205.635 121.594 205.597 120.753C205.558 119.912 206.558 119.87 206.717 119.389C206.875 118.909 207.019 117.363 208.383 117.766" stroke="#934735" stroke-width="0.2635" stroke-linecap="round" stroke-linejoin="round"/>
<path d="M206.352 128.053C205.674 127.484 205.535 127.391 205.535 127.391" stroke="#934735" stroke-width="0.2635" stroke-linecap="round" stroke-linejoin="round"/>
<path d="M251.461 138.939C250.217 142.76 245.579 146.147 235.004 142.148L234.427 141.923C223.433 137.563 216.54 134.897 216.54 134.897C217.49 130.878 217.49 126.692 216.54 122.672C222.852 124.439 239.546 127.864 245.474 129.604C245.862 129.72 246.249 129.841 246.594 129.992C251.57 131.828 252.662 135.238 251.461 138.939Z" fill="#FED81D"/>
<path d="M234.427 141.922C223.433 137.563 216.544 134.9 216.544 134.9" stroke="#F7AD2B" stroke-width="0.2635" stroke-linecap="round" stroke-linejoin="round"/>
<path d="M216.544 122.672C222.271 124.276 236.554 127.244 243.576 129.081" stroke="#F7AD2B" stroke-width="0.2635" stroke-linecap="round" stroke-linejoin="round"/>
<path d="M251.461 138.939C250.217 142.76 245.579 146.147 235.004 142.148C235.004 142.148 238.104 138.564 242.487 139.199C246.869 139.835 251.155 138.037 247.799 132.956C247.205 132.052 246.795 131.04 246.594 129.977C251.57 131.829 252.662 135.239 251.461 138.939Z" fill="#FCC71F"/>
<path d="M290.986 105.519C290.577 106.174 289.982 106.692 289.277 107.007C284.36 109.332 273.242 104.907 273.242 104.771C273.242 104.635 271.096 86.4113 274.165 79.8587C274.742 78.6303 275.502 77.8166 276.49 77.619C281.57 77.464 285.929 79.1883 286.673 82.8541C287.417 86.5198 285.205 90.7436 285.852 93.3515C286.499 95.9593 289.13 96.0136 290.234 96.5716C292.234 97.5752 294.105 100.338 290.986 105.519Z" fill="#DD6819"/>
<path d="M289.277 107.006C284.36 109.331 273.242 104.905 273.242 104.77C273.242 104.634 271.096 86.41 274.165 79.8574C282.473 80.1597 283.852 83.2248 283.228 87.4718C282.566 91.9862 279.543 98.1745 286.123 102.631C288.107 103.979 288.998 105.514 289.277 107.006Z" fill="#CC5E0D"/>
<path d="M278.737 88.7559C279.95 90.116 280.128 91.8287 279.628 93.7585C279.129 95.6882 278.354 98.5092 279.315 101.295" stroke="#FF79A0" stroke-width="0.2635" stroke-linecap="round" stroke-linejoin="round"/>
<path d="M284.309 87.0391C284.247 89.6237 283.469 91.4023 283.248 93.8358C283.027 96.2693 284.53 97.6721 286.433 98.4199C287.222 98.7491 287.849 99.3773 288.177 100.167C288.504 100.957 288.506 101.845 288.181 102.636" stroke="#FF79A0" stroke-width="0.2635" stroke-linecap="round" stroke-linejoin="round"/>
<path d="M282.973 102.333C281.144 100.21 280.787 98.6559 281.88 98.4931C282.973 98.3304 285.123 99.2681 284.906 100.21C284.689 101.151 283.298 100.752 283.356 100.291" stroke="#FF79A0" stroke-width="0.2635" stroke-linecap="round" stroke-linejoin="round"/>
<path d="M274.413 114.761C269.22 117.474 265.442 114.881 264.954 112.006C264.636 110.123 264.822 105.783 264.931 101.272C264.985 98.9123 265.024 96.4982 264.954 94.3747C264.954 94.0414 264.954 93.7198 264.954 93.4021C264.954 79.9791 275.207 83.0907 276.04 88.2871C276.567 91.5847 277.377 98.1528 277.772 101.617C278.168 105.081 279.621 112.049 274.413 114.761Z" fill="#FEBD9D"/>
<path d="M264.931 101.272C264.985 98.9126 265.024 96.4984 264.954 94.3749C264.954 94.0417 264.954 93.72 264.954 93.4023C267.504 93.2783 271.541 93.1543 271.541 93.1543C272.285 98.3894 269.302 101.768 264.931 101.272Z" fill="#F4A789"/>
<path d="M246.579 160.982C247.047 161.699 250.454 159.045 251.43 157.495L247.97 152.721C247.97 152.721 245.234 158.901 246.579 160.982Z" fill="#9065F2"/>
<path d="M254.983 148.177C259.246 154.683 261.222 156.737 261.528 159.445C261.834 162.154 260.699 168.877 257.688 170.012C254.677 171.148 247.729 166.385 247.466 165.296C247.202 164.208 250.5 164.684 252.042 165.424C252.042 165.424 249.097 161.472 249.097 157.043C249.097 155.907 245.021 153.679 245.021 153.679C245.021 153.679 248.396 143.546 254.983 148.177Z" fill="#FEBD9D"/>
<path d="M306.331 197.134C293.129 192.438 276.881 187.9 259.707 184.103V176.407C259.707 174.326 259.947 170.808 260.257 166.999C260.509 163.852 260.808 160.508 261.032 157.621C261.238 155.195 261.397 153.087 261.466 151.688L266.701 151.634L276.47 151.541L296.415 151.344L299.651 151.312C300.019 160.5 303.239 171.401 305.506 179.674C307.133 185.571 306.711 193.174 306.331 197.134Z" fill="#683F1D"/>
<path d="M295.121 166.652C293.807 170.857 295.206 175.038 297.748 176.41" stroke="#91613D" stroke-width="0.2635" stroke-linecap="round" stroke-linejoin="round"/>
<path d="M246.579 132.756L248.938 136.879L255.96 149.147" stroke="#7444DC" stroke-width="0.2635" stroke-linecap="round" stroke-linejoin="round"/>
<path d="M295.663 152.218C294.656 152.424 289.037 152.606 282.639 152.683C272.952 152.784 261.482 152.586 261.482 151.691C261.482 150.288 262.094 148.979 260.343 145.906C258.591 142.833 255.693 140.434 255.433 134.843C255.173 129.251 256.483 123.028 256.483 123.028L253.736 125.74L246.579 132.758L248.939 136.881L255.96 149.149C255.96 149.149 246.493 152.83 246.579 160.983C246.579 160.983 233.609 144.856 229.753 139.334C225.898 133.812 230.277 127.5 236.5 121.013C239.6 117.773 243.006 113.41 246.408 109.737C249.81 106.063 253.24 103.087 256.398 102.634C258.184 102.378 260.66 102.157 263.326 101.979C263.846 101.94 264.369 101.905 264.9 101.874C264.756 107.35 266.337 108.361 266.337 108.361C267.112 108.818 267.194 108.605 267.263 109.524C267.333 110.442 267.759 113.046 268.507 113.046C269.542 113.046 270.208 111.349 271.084 108.892C271.662 105.955 275.289 104.808 276.459 103.211C276.864 102.637 277.148 101.985 277.292 101.297H277.722C278.4 101.463 279.218 101.653 280.113 101.835C282.438 102.308 285.294 102.742 287.611 102.634C290.684 102.494 299.682 102.676 302.359 109.779C302.359 109.779 302.359 109.799 302.359 109.81C302.472 110.113 302.572 110.43 302.665 110.76C302.735 111.019 302.797 111.306 302.851 111.616C304.44 120.901 298.124 151.707 295.663 152.218Z" fill="#C5AFF9"/>
<path d="M286.983 127.934C281.713 129.782 280.303 137.059 281.496 139.989C282.69 142.918 278.617 144.352 274.73 144.352C270.255 144.352 264.934 149.06 267.213 155.795L290.075 145.332L286.983 127.934Z" fill="#9065F2"/>
<path d="M303.034 111.684C302.979 111.657 302.917 111.637 302.863 111.614C298.081 109.723 292.482 110.917 288.839 113.939C287.915 114.694 287.114 115.59 286.468 116.593C282.109 123.448 268.089 127.192 263.485 118.205C259.758 110.92 254.185 108.638 246.408 109.739C249.818 106.065 253.24 103.089 256.398 102.636C258.184 102.38 260.66 102.159 263.326 101.981C263.846 101.942 264.369 101.907 264.9 101.876C264.756 107.352 266.337 108.363 266.337 108.363C267.112 108.82 267.194 108.607 267.263 109.525C267.333 110.444 267.759 113.048 268.507 113.048C269.542 113.048 270.208 111.351 271.084 108.894C271.662 105.957 275.289 104.81 276.459 103.213C276.864 102.639 277.148 101.987 277.292 101.299H277.722C278.4 101.465 279.218 101.655 280.113 101.837C282.438 102.31 285.294 102.744 287.611 102.636C290.684 102.496 299.682 102.678 302.359 109.781C302.359 109.781 302.359 109.801 302.359 109.812C302.626 110.42 302.851 111.045 303.034 111.684Z" fill="#E1D4FB"/>
<path d="M269.778 115.63C270.225 115.63 270.588 115.267 270.588 114.82C270.588 114.372 270.225 114.01 269.778 114.01C269.331 114.01 268.968 114.372 268.968 114.82C268.968 115.267 269.331 115.63 269.778 115.63Z" fill="#7444DC"/>
<path d="M268.062 114.439C268.302 116.617 267.628 120.461 267.112 124.348C266.597 128.234 265.368 133.582 267.112 139.073C268.856 144.564 269.247 146.249 269.294 146.92C269.371 148.109 268.465 149.469 270.72 150.407" stroke="#7444DC" stroke-width="0.2635" stroke-linecap="round" stroke-linejoin="round"/>
<path d="M266.337 108.359C264.183 107.848 262.648 110.475 261.827 112.695C261.745 106.278 262.52 103.33 263.326 101.977C264.132 100.625 264.942 100.881 264.942 100.881C264.919 101.229 264.907 101.559 264.9 101.873C264.756 107.336 266.337 108.359 266.337 108.359Z" fill="#7444DC"/>
<path d="M280.136 104.362C279.563 108.016 277.273 113.053 277.273 113.053C277.273 113.053 275.451 110.992 274.173 109.434C272.894 107.876 272.154 108.132 271.073 108.899C271.65 105.962 275.277 104.815 276.447 103.219C276.853 102.644 277.136 101.993 277.28 101.304C277.432 100.654 277.5 99.9876 277.482 99.3203C278.123 99.4212 278.718 99.7164 279.187 100.166C279.655 100.616 279.974 101.198 280.101 101.835C280.273 102.667 280.285 103.525 280.136 104.362Z" fill="#7444DC"/>
<path d="M244.839 155.535C245.265 153.234 248.198 149.211 252.852 147.096" stroke="#7444DC" stroke-width="0.2635" stroke-linecap="round" stroke-linejoin="round"/>
<path d="M240.569 127.553C241.252 127.593 241.913 127.81 242.487 128.184C243.649 128.862 245.071 130.207 246.579 132.757" stroke="#7444DC" stroke-width="0.2635" stroke-linecap="round" stroke-linejoin="round"/>
<path d="M256.483 123.027L257.177 120.059" stroke="#7444DC" stroke-width="0.2635" stroke-linecap="round" stroke-linejoin="round"/>
<path d="M253.736 125.727L246.579 132.756C245.071 130.207 243.634 128.862 242.487 128.184C244.343 127.351 245.257 128.11 246.156 128.773C248.38 130.424 250.477 123.89 253.736 125.727Z" fill="#9065F2"/>
<path d="M303.367 136.284C302.534 143.213 301.212 149.881 299.848 154.462C297.217 163.281 290.61 163.785 286.344 160.972C283.872 159.336 282.182 156.589 282.515 153.694C282.546 153.408 282.589 153.071 282.639 152.683C283.414 146.747 286.007 129.325 287.568 119.42C287.844 117.557 288.269 115.72 288.839 113.925C290.87 107.725 294.264 105.807 298.442 106.237C300.17 106.416 301.449 107.702 302.359 109.767C302.359 109.767 302.359 109.787 302.359 109.798C302.622 110.408 302.844 111.035 303.022 111.674C304.704 117.502 304.463 127.1 303.367 136.284Z" fill="#C5AFF9"/>
<path d="M303.367 136.285C302.534 143.214 301.212 149.883 299.848 154.463C297.217 163.282 290.61 163.786 286.344 160.973C287.144 160.203 288.144 159.673 289.231 159.446C294.047 158.539 296.919 154.846 296.206 147.096C295.648 141.214 300.829 137.661 303.367 136.285Z" fill="#9065F2"/>
<path d="M303.033 111.686C302.979 111.659 302.917 111.639 302.863 111.616C298.081 109.725 292.482 110.918 288.839 113.941C290.87 107.741 294.264 105.823 298.442 106.253C300.17 106.431 301.449 107.718 302.359 109.783C302.359 109.783 302.359 109.802 302.359 109.814C302.626 110.422 302.851 111.047 303.033 111.686Z" fill="#E1D4FB"/>
<path d="M283.802 144.352C284.926 136.602 286.514 126.237 287.568 119.421C287.844 117.558 288.269 115.72 288.839 113.926C289.265 112.566 289.859 111.264 290.606 110.051" stroke="#7444DC" stroke-width="0.2635" stroke-linecap="round" stroke-linejoin="round"/>
<path d="M250.992 176.406C248.954 176.794 246.889 173.752 246.207 171.88C245.525 170.009 250.969 169.168 250.969 169.168C250.969 169.168 252.74 174.953 250.992 176.406Z" fill="#9065F2"/>
<path d="M245.951 162.828C241.967 164.157 232.629 168.799 232.129 169.187C231.629 169.574 230.141 172.969 230.087 173.48C230.032 173.992 229.424 179.293 230.416 179.634C231.408 179.975 231.908 177.774 232.129 176.41C232.339 175.396 232.674 174.412 233.125 173.48C233.125 173.48 232.52 175.623 233.404 176.41C233.915 176.867 235.058 176.41 235.058 176.41C235.058 176.41 235.337 177.809 237.162 177.146C237.162 177.146 237.054 178.63 238.255 178.921C239.456 179.212 240.58 177.871 241.057 177.08C241.227 176.813 240.797 176.03 240.239 176.03C240.239 176.03 240.735 175.709 242.227 175.709C243.719 175.709 245.497 175.794 246.637 174.069C247.776 172.345 249.062 171.524 250.124 171.248L245.951 162.828Z" fill="#FEBD9D"/>
<path d="M230.087 173.479C230.029 173.994 229.424 179.291 230.416 179.632C231.408 179.973 231.908 177.772 232.129 176.408C232.339 175.394 232.674 174.41 233.125 173.479C233.125 173.479 232.52 175.621 233.404 176.408C233.915 176.865 235.058 176.408 235.058 176.408C235.058 176.408 235.337 177.807 237.162 177.144C237.162 177.144 237.054 178.628 238.255 178.919C239.456 179.21 240.58 177.869 241.057 177.078C241.227 176.811 240.797 176.028 240.239 176.028" stroke="#EF8A66" stroke-width="0.2635" stroke-linecap="round" stroke-linejoin="round"/>
<path d="M240.46 176.067C240.157 176.023 239.848 176.044 239.553 176.129" stroke="#EF8A66" stroke-width="0.2635" stroke-linecap="round" stroke-linejoin="round"/>
<path d="M239.836 175.148C239.538 175.923 239.166 177.109 239.313 177.45" stroke="#EF8A66" stroke-width="0.2635" stroke-linecap="round" stroke-linejoin="round"/>
<path d="M237.166 177.436C237.139 175.859 237.541 174.304 238.329 172.938" stroke="#EF8A66" stroke-width="0.2635" stroke-linecap="round" stroke-linejoin="round"/>
<path d="M235.058 176.409C234.768 175.247 235.663 172.29 236.38 171.43" stroke="#EF8A66" stroke-width="0.2635" stroke-linecap="round" stroke-linejoin="round"/>
<path d="M233.121 173.479C233.233 172.704 233.392 170.584 234.551 169.604" stroke="#EF8A66" stroke-width="0.2635" stroke-linecap="round" stroke-linejoin="round"/>
<path d="M293.985 161.975C292.261 162.882 288.126 164.44 283.066 166.207C270.096 170.729 251.043 176.615 250.992 176.406C250.922 176.115 249.248 168.481 243.506 163.393C243.506 163.393 270.15 150.66 278.687 146.673C283.813 144.278 291.656 140.209 295.88 144.08C296.035 144.22 296.182 144.367 296.322 144.518C300.875 149.312 299.933 158.84 293.985 161.975Z" fill="#C5AFF9"/>
<path d="M293.985 161.974C292.261 162.881 288.126 164.439 283.066 166.206C283.961 163.881 285.91 160.068 289.231 159.444C294.047 158.537 296.919 154.844 296.206 147.094C296.123 146.234 296.167 145.366 296.334 144.518C300.875 149.311 299.933 158.84 293.985 161.974Z" fill="#9065F2"/>
<path d="M243.506 163.393C243.506 163.393 270.15 150.66 278.687 146.673C281.136 145.53 284.205 144.003 287.212 143.143" stroke="#7444DC" stroke-width="0.2635" stroke-linecap="round" stroke-linejoin="round"/>
<path d="M249.097 162.494C252.317 166.443 254.983 173.48 254.983 173.48" stroke="#7444DC" stroke-width="0.2635" stroke-linecap="round" stroke-linejoin="round"/>
<path d="M278.113 77.6602C280.528 78.8227 282.523 83.9028 278.249 87.0377C273.975 90.1725 275.924 82.686 276.029 82.5427C276.133 82.3993 276.269 77.8345 278.113 77.6602Z" fill="#FED81D"/>
<path d="M278.265 84.1211C278.082 84.4704 277.832 84.7799 277.528 85.0317C277.528 85.0317 272.933 88.1898 270.069 86.5042C267.205 84.8186 263.698 80.8196 263.698 80.8196C262.408 79.8586 261.703 79.1068 261.447 78.2659C261.323 77.8326 261.3 77.3764 261.381 76.9329C261.618 75.4372 263.206 72.0892 268.263 73.3292C268.263 73.3292 269.151 72.2054 270.976 72.8836C272.801 73.5617 274.39 75.5534 274.39 75.5534C274.39 75.5534 276.168 74.9218 278.11 77.6614C279.64 79.8237 279.125 82.6098 278.265 84.1211Z" fill="#DD6819"/>
<path d="M278.265 84.1214C278.082 84.4707 277.832 84.7803 277.528 85.0321C277.528 85.0321 272.933 88.1902 270.069 86.5046C267.205 84.8189 263.698 80.8199 263.698 80.8199C262.408 79.8589 261.703 79.1072 261.447 78.2663C261.68 75.8289 262.803 74.0852 265.171 74.8137C268.527 75.8483 270.146 77.7044 273.487 76.8093C273.487 76.8093 274.331 83.4046 278.265 84.1214Z" fill="#CC5E0D"/>
<path d="M263.109 76.1351C263.714 75.4763 264.95 75.5035 266.787 77.4138" stroke="#FF79A0" stroke-width="0.2635" stroke-linecap="round" stroke-linejoin="round"/>
<path d="M267.178 73.125C268.56 73.4135 269.866 73.9891 271.011 74.8145" stroke="#FF79A0" stroke-width="0.2635" stroke-linecap="round" stroke-linejoin="round"/>
<path d="M274.393 75.5605C274.704 75.9447 274.964 76.3665 275.168 76.816" stroke="#FF79A0" stroke-width="0.2635" stroke-linecap="round" stroke-linejoin="round"/>
<path d="M275.358 89.7781C271.278 95.5209 266.008 98.6519 262.827 95.9781C260.478 94.0135 260.463 90.1036 261.017 86.9533C261.177 86.0367 261.393 85.1308 261.664 84.2408C261.687 84.1633 261.714 84.0896 261.738 84.016C262.734 80.916 264.206 76.266 266.578 77.2309C266.578 77.2309 268.43 78.8894 271.941 78.1764C271.941 78.1764 270.139 84.7639 274.219 85.5389C274.219 85.5389 276.021 83.2139 278.094 84.45C280.167 85.6861 280.19 89.7278 275.358 89.7781Z" fill="#FEBD9D"/>
<path d="M266.88 82.9648C266.879 83.063 266.907 83.1593 266.961 83.2414C267.015 83.3235 267.093 83.3876 267.183 83.4258C267.274 83.4639 267.374 83.4743 267.47 83.4556C267.567 83.4369 267.655 83.39 267.725 83.3208C267.795 83.2515 267.842 83.1632 267.862 83.0669C267.881 82.9705 267.872 82.8706 267.834 82.7798C267.797 82.6889 267.733 82.6112 267.652 82.5565C267.57 82.5018 267.474 82.4727 267.376 82.4727C267.245 82.4727 267.119 82.5244 267.026 82.6166C266.933 82.7087 266.881 82.8339 266.88 82.9648Z" fill="#683F1D"/>
<path d="M263.485 82.9648C263.484 83.063 263.513 83.1593 263.567 83.2414C263.621 83.3235 263.698 83.3876 263.789 83.4258C263.879 83.4639 263.979 83.4743 264.076 83.4556C264.172 83.4369 264.261 83.39 264.331 83.3208C264.4 83.2515 264.448 83.1632 264.467 83.0669C264.487 82.9705 264.477 82.8706 264.44 82.7798C264.402 82.6889 264.339 82.6112 264.257 82.5565C264.176 82.5018 264.08 82.4727 263.981 82.4727C263.85 82.4727 263.725 82.5244 263.632 82.6166C263.539 82.7087 263.486 82.8339 263.485 82.9648Z" fill="#683F1D"/>
<path d="M274.196 85.5566C273.823 85.9763 273.571 86.4892 273.467 87.0408" stroke="#EF8A66" stroke-width="0.2635" stroke-linecap="round" stroke-linejoin="round"/>
<path d="M274.738 87.2488C275.598 85.3113 277.451 85.1951 278.516 86.0592" stroke="#EF8A66" stroke-width="0.2635" stroke-linecap="round" stroke-linejoin="round"/>
<path d="M275.176 86.503C276.823 85.4064 277.788 88.2855 275.634 88.2855" stroke="#EF8A66" stroke-width="0.2635" stroke-linecap="round" stroke-linejoin="round"/>
<path d="M262.466 80.805C262.594 81.2158 265.241 80.9794 265.179 80.0533C265.078 78.8094 262.226 80.0262 262.466 80.805Z" fill="#DD6819"/>
<path d="M267.163 79.9885C267.077 80.8216 269.635 81.5385 269.875 81.1006C270.115 80.6627 267.322 78.4075 267.163 79.9885Z" fill="#DD6819"/>
<path d="M263.884 85.711C263.807 84.936 264.218 84.0641 264.776 83.8665C265.334 83.6689 266.198 83.1303 266.004 81.1191" stroke="#EF8A66" stroke-width="0.2635" stroke-linecap="round" stroke-linejoin="round"/>
<path d="M264.477 87.2473C265.469 87.2473 267.015 86.4956 267.263 86.1895C267.263 86.1895 267.38 88.5726 266.031 88.7431C264.896 88.8903 264.477 87.2473 264.477 87.2473Z" fill="white" stroke="#EF8A66" stroke-width="0.2635" stroke-linecap="round" stroke-linejoin="round"/>
<path d="M275.695 91.102C276.549 91.102 277.242 90.4098 277.242 89.5559C277.242 88.702 276.549 88.0098 275.695 88.0098C274.841 88.0098 274.149 88.702 274.149 89.5559C274.149 90.4098 274.841 91.102 275.695 91.102Z" fill="white"/>
<path d="M272.355 84.8939C272.638 85.5914 271.995 86.5136 270.91 86.9554C269.825 87.3971 268.72 87.1918 268.434 86.4943C268.147 85.7968 268.794 84.8706 269.879 84.4289C270.964 83.9871 272.068 84.1964 272.355 84.8939Z" fill="#F4AF90"/>
<path d="M262.985 86.5965C262.675 87.1312 261.858 87.2669 261.009 86.984C261.169 86.0674 261.385 85.1616 261.656 84.2715L261.835 84.3684C262.85 84.9419 263.365 85.9455 262.985 86.5965Z" fill="#F4AF90"/>
<path d="M211.518 187.317L231.079 182.822L248.315 188.72L231.493 194.467L211.518 187.317Z" stroke="#DDDDDD" stroke-width="0.34875" stroke-linecap="round" stroke-linejoin="round"/>
<path d="M222.844 183.646V187.316C222.844 188.537 225.983 189.525 229.858 189.525C233.733 189.525 236.876 188.537 236.876 187.316V183.646H222.844Z" fill="#DDDDDD" stroke="#DDDDDD" stroke-width="0.34875" stroke-miterlimit="10"/>
<path d="M229.858 185.68C225.766 185.68 223.019 184.63 223.019 183.646C223.019 182.661 225.766 181.611 229.858 181.611C233.95 181.611 236.697 182.665 236.697 183.646C236.697 184.626 233.95 185.68 229.858 185.68Z" fill="#F9F9F9"/>
<path d="M229.858 181.786C233.989 181.786 236.523 182.871 236.523 183.646C236.523 184.421 233.989 185.506 229.858 185.506C225.727 185.506 223.193 184.421 223.193 183.646C223.193 182.871 225.727 181.786 229.858 181.786ZM229.858 181.438C225.983 181.438 222.844 182.426 222.844 183.646C222.844 184.867 225.983 185.855 229.858 185.855C233.733 185.855 236.876 184.867 236.876 183.646C236.876 182.426 233.733 181.438 229.858 181.438Z" fill="#DDDDDD"/>
<path d="M216.974 187.424C216.974 187.664 217.388 187.862 217.9 187.862C218.411 187.862 218.826 187.664 218.826 187.424C218.826 187.184 218.411 186.986 217.9 186.986C217.388 186.986 216.974 187.184 216.974 187.424Z" fill="#DDDDDD"/>
<path d="M230.742 192.477C230.742 192.717 231.156 192.915 231.668 192.915C232.179 192.915 232.59 192.717 232.59 192.477C232.59 192.237 232.175 192.039 231.668 192.039C231.16 192.039 230.742 192.237 230.742 192.477Z" fill="#DDDDDD"/>
<path d="M242.285 188.643C242.285 188.883 242.7 189.081 243.211 189.081C243.723 189.081 244.137 188.883 244.137 188.643C244.137 188.403 243.723 188.205 243.211 188.205C242.7 188.205 242.285 188.403 242.285 188.643Z" fill="#DDDDDD"/>
<path d="M42.0098 171.248C55.9249 170.814 71.1459 170.547 87.0334 170.5C101.324 170.461 116.158 170.609 131.046 170.992C134.164 171.07 137.286 171.16 140.412 171.264C159.062 171.872 177.666 172.864 195.293 174.344C198.267 174.587 201.21 174.845 204.124 175.119C214.006 176.061 224.325 177.444 234.663 179.207C243.08 180.626 251.508 182.272 259.723 184.094C276.908 187.891 293.145 192.429 306.347 197.125C320.002 201.988 330.411 207.03 335.258 211.626" stroke="#EDEDED" stroke-width="0.701375" stroke-linecap="round" stroke-linejoin="round"/>
<path d="M212.661 191.81C206.403 195.05 169.672 204.598 169.672 204.598L166.308 201.269L144.841 180.038C144.841 180.038 165.328 175.923 169.149 176.384C172.342 176.771 200.989 184.409 210.142 188.977C211.932 189.892 213.122 191.574 212.661 191.81Z" stroke="#EDEDED" stroke-width="0.34875" stroke-linecap="round" stroke-linejoin="round"/>
<path d="M145.771 183.334C161.026 180.753 167.037 179.072 169.191 179.661C171.346 180.25 200.458 188.511 199.97 188.639C186.303 192.22 161.941 197.92 161.941 197.92L145.771 183.334Z" stroke="#DDDDDD" stroke-width="0.34875" stroke-linecap="round" stroke-linejoin="round"/>
<path d="M212.661 191.809C206.403 195.049 169.672 204.597 169.672 204.597L166.308 201.268L210.142 189C211.932 189.891 213.122 191.573 212.661 191.809Z" fill="#EDEDED"/>
<path d="M123.61 169.174C119.804 162.106 122.09 150.505 128.5 149.637C134.909 148.769 143.407 157.061 146.712 152.946C150.301 148.462 147.383 126.828 147.41 122.918L163.487 121.287C163.487 121.287 160.422 150.679 164.623 154.101C167.083 156.104 169.962 155.825 171.687 152.206C173.237 148.92 175.426 146.273 179.351 149.319C179.351 149.319 181.552 144.2 190.077 146.219C198.602 148.238 193.673 158.069 191.689 159.394C191.689 159.394 195.564 162.815 194.336 167.144C193.108 171.472 186.857 173.46 186.857 173.46C186.857 173.46 189.45 179.369 184.265 181.253C179.08 183.136 175.717 182.473 172.311 181.253C168.904 180.032 163.011 176.99 159.694 181.66C156.377 186.329 133.347 187.274 123.61 169.174Z" fill="#F9F9F9" stroke="#EDEDED" stroke-width="0.701375" stroke-linecap="round" stroke-linejoin="round"/>
<path d="M145.771 130.931C142.616 131.826 141.016 135.193 140.179 138.53C139.342 141.866 139.675 142.424 138.745 141.606C137.749 140.731 135.591 134.503 136.75 125.002C137.61 117.946 140.783 114.687 142.612 113.377C143.136 119.209 144.185 124.982 145.747 130.625C145.761 130.726 145.769 130.828 145.771 130.931Z" fill="#EDEDED" stroke="#EDEDED" stroke-width="0.701375" stroke-linecap="round" stroke-linejoin="round"/>
<path d="M171.822 141.606C170.892 142.424 171.214 141.858 170.385 138.53C169.555 135.201 167.951 131.826 164.797 130.931C164.798 130.83 164.804 130.729 164.816 130.628C166.384 124.982 167.434 119.206 167.955 113.369C169.784 114.691 172.958 117.949 173.818 124.994C174.973 134.503 172.822 140.731 171.822 141.606Z" fill="#EDEDED" stroke="#EDEDED" stroke-width="0.701375" stroke-linecap="round" stroke-linejoin="round"/>
<path d="M167.955 113.365C167.434 119.201 166.384 124.978 164.816 130.624C164.669 131.128 164.526 131.624 164.374 132.104H146.189C146.038 131.62 145.891 131.12 145.747 130.613C144.185 124.97 143.136 119.197 142.612 113.365C141.775 104.452 141.954 94.4937 143.899 84.9418C144.151 83.7135 144.422 82.5355 144.713 81.4156C148.487 66.7836 155.284 60.7773 155.284 60.7773C155.284 60.7773 162.084 66.7836 165.855 81.4156C166.145 82.5355 166.42 83.7135 166.668 84.9418C168.614 94.4937 168.796 104.437 167.955 113.365Z" fill="#F9F9F9" stroke="#DDDDDD" stroke-width="0.701375" stroke-linecap="round" stroke-linejoin="round"/>
<path d="M165.855 81.4156H144.713C148.487 66.7836 155.284 60.7773 155.284 60.7773C155.284 60.7773 162.084 66.7836 165.855 81.4156Z" fill="#DDDDDD" stroke="#DDDDDD" stroke-width="0.34875" stroke-miterlimit="10"/>
<path d="M160.337 99.0749C159.674 99.7403 158.887 100.268 158.02 100.629C157.152 100.989 156.223 101.175 155.284 101.175C154.345 101.175 153.415 100.989 152.548 100.629C151.681 100.268 150.893 99.7403 150.231 99.0749C148.896 97.7324 148.147 95.9166 148.147 94.0238C148.147 92.131 148.896 90.3151 150.231 88.9727C150.893 88.3072 151.681 87.7792 152.548 87.4189C153.415 87.0585 154.345 86.873 155.284 86.873C156.223 86.873 157.152 87.0585 158.02 87.4189C158.887 87.7792 159.674 88.3072 160.337 88.9727C160.77 89.4043 161.145 89.8901 161.453 90.4181C162.248 91.7819 162.57 93.3706 162.368 94.9364C162.166 96.5023 161.452 97.9573 160.337 99.0749Z" fill="#EDEDED" stroke="#F9F9F9" stroke-width="0.701375" stroke-linecap="round" stroke-linejoin="round"/>
<path d="M161.453 90.4188L151.676 100.195C151.149 99.885 150.663 99.5087 150.231 99.0755C149.799 98.6425 149.425 98.1554 149.119 97.6263L158.891 87.8535C159.419 88.1639 159.905 88.5402 160.337 88.9734C160.77 89.4049 161.145 89.8908 161.453 90.4188Z" fill="#F9F9F9"/>
<path d="M155.284 111.846C152.23 115.899 150.634 136.402 155.284 141.939C159.942 136.398 158.333 115.899 155.284 111.846Z" fill="#DDDDDD" stroke="#DDDDDD" stroke-width="0.34875" stroke-miterlimit="10"/>
<path d="M160.337 99.0749C159.674 99.7403 158.887 100.268 158.02 100.629C157.152 100.989 156.223 101.175 155.284 101.175C154.345 101.175 153.415 100.989 152.548 100.629C151.681 100.268 150.893 99.7403 150.231 99.0749C148.896 97.7324 148.147 95.9166 148.147 94.0238C148.147 92.131 148.896 90.3151 150.231 88.9727C150.893 88.3072 151.681 87.7792 152.548 87.4189C153.415 87.0585 154.345 86.873 155.284 86.873C156.223 86.873 157.152 87.0585 158.02 87.4189C158.887 87.7792 159.674 88.3072 160.337 88.9727C160.77 89.4043 161.145 89.8901 161.453 90.4181C162.248 91.7819 162.57 93.3706 162.368 94.9364C162.166 96.5023 161.452 97.9573 160.337 99.0749Z" stroke="#DDDDDD" stroke-width="0.701375" stroke-linecap="round" stroke-linejoin="round"/>
<path d="M191.689 159.396C190.912 159.975 190.1 160.505 189.256 160.981" stroke="#EDEDED" stroke-width="0.701375" stroke-linecap="round" stroke-linejoin="round"/>
<path d="M185.098 162.152C183.075 160.094 178.15 161.012 177.371 165.751C176.592 170.491 180.75 174.629 186.857 173.478" stroke="#EDEDED" stroke-width="0.701375" stroke-linecap="round" stroke-linejoin="round"/>
<path d="M152.773 143.156C153.548 148.643 153.238 158.172 153.191 158.776" stroke="#EDEDED" stroke-width="0.701375" stroke-linecap="round" stroke-linejoin="round"/>
<path d="M162.983 166.678C159.961 163.516 158.519 161.47 158.519 148.039" stroke="#EDEDED" stroke-width="0.701375" stroke-linecap="round" stroke-linejoin="round"/>
<path d="M107.803 144.852L151.091 161.809L172.051 203.604L125.462 183.059L105.424 145.871L107.803 144.852Z" fill="#EDEDED"/>
<path d="M105.424 145.871L148.712 162.828L169.672 204.624L123.086 184.079L105.424 145.871Z" fill="#F9F9F9" stroke="#DDDDDD" stroke-width="0.34875" stroke-linecap="round" stroke-linejoin="round"/>
</g>
<defs>
<clipPath id="clip0_7350_17695">
<path d="M0 8C0 3.58173 3.58172 0 8 0H370.667C375.085 0 378.667 3.58172 378.667 8V232H0V8Z" fill="white"/>
</clipPath>
</defs>
</svg>
