<svg width="379" height="232" viewBox="0 0 379 232" fill="none" xmlns="http://www.w3.org/2000/svg">
<g clip-path="url(#clip0_7350_18149)">
<path d="M0.333496 8C0.333496 3.58173 3.91522 0 8.3335 0H371C375.418 0 379 3.58172 379 8V232H0.333496V8Z" fill="#F0F2F5"/>
<path d="M172.753 71.3923C172.754 71.6542 172.677 71.9103 172.533 72.1285C172.388 72.3466 172.182 72.5169 171.94 72.6177C171.698 72.7185 171.432 72.7454 171.175 72.6949C170.918 72.6443 170.682 72.5187 170.497 72.3339C170.311 72.1491 170.185 71.9134 170.134 71.6567C170.082 71.4 170.108 71.1338 170.208 70.8919C170.308 70.6499 170.478 70.443 170.695 70.2975C170.913 70.1519 171.169 70.0742 171.431 70.0742C171.781 70.0742 172.116 70.2129 172.364 70.46C172.612 70.7071 172.752 71.0423 172.753 71.3923Z" fill="#DDDDDD"/>
<path d="M178.881 71.3926H204.559" stroke="#EDEDED" stroke-width="0.925" stroke-linecap="round" stroke-linejoin="round"/>
<path d="M172.753 77.5122C172.753 77.7738 172.676 78.0296 172.53 78.2471C172.385 78.4646 172.178 78.6342 171.937 78.7343C171.695 78.8344 171.429 78.8606 171.172 78.8095C170.916 78.7585 170.68 78.6325 170.495 78.4475C170.31 78.2625 170.184 78.0269 170.133 77.7703C170.082 77.5137 170.108 77.2477 170.208 77.006C170.309 76.7643 170.478 76.5577 170.696 76.4124C170.913 76.267 171.169 76.1895 171.431 76.1895C171.604 76.1889 171.777 76.2226 171.937 76.2889C172.098 76.3552 172.244 76.4526 172.367 76.5755C172.49 76.6985 172.588 76.8445 172.654 77.0053C172.72 77.1661 172.754 77.3383 172.753 77.5122Z" fill="#DDDDDD"/>
<path d="M178.881 77.5117H188.779" stroke="#EDEDED" stroke-width="0.925" stroke-linecap="round" stroke-linejoin="round"/>
<path d="M96.8478 71.3923C96.8487 71.6542 96.7719 71.9103 96.6271 72.1285C96.4823 72.3466 96.276 72.5169 96.0344 72.6177C95.7928 72.7185 95.5267 72.7454 95.2698 72.6949C95.0129 72.6443 94.7768 72.5187 94.5913 72.3339C94.4059 72.1491 94.2794 71.9134 94.228 71.6567C94.1766 71.4 94.2025 71.1338 94.3025 70.8919C94.4025 70.6499 94.572 70.443 94.7897 70.2975C95.0073 70.1519 95.2632 70.0742 95.525 70.0742C95.875 70.0742 96.2108 70.2129 96.4587 70.46C96.7066 70.7071 96.8465 71.0423 96.8478 71.3923Z" fill="#DDDDDD"/>
<path d="M102.981 71.3926H137.192" stroke="#EDEDED" stroke-width="0.925" stroke-linecap="round" stroke-linejoin="round"/>
<path d="M95.525 78.835C96.2556 78.835 96.8478 78.2427 96.8478 77.5122C96.8478 76.7817 96.2556 76.1895 95.525 76.1895C94.7945 76.1895 94.2023 76.7817 94.2023 77.5122C94.2023 78.2427 94.7945 78.835 95.525 78.835Z" fill="#DDDDDD"/>
<path d="M102.981 77.5117H119.543" stroke="#EDEDED" stroke-width="0.925" stroke-linecap="round" stroke-linejoin="round"/>
<path d="M96.8478 83.7419C96.8487 84.0038 96.7719 84.26 96.6271 84.4781C96.4823 84.6962 96.276 84.8665 96.0344 84.9673C95.7928 85.0681 95.5267 85.095 95.2698 85.0445C95.0129 84.994 94.7768 84.8683 94.5913 84.6835C94.4059 84.4987 94.2794 84.2631 94.228 84.0063C94.1766 83.7496 94.2025 83.4834 94.3025 83.2415C94.4025 82.9995 94.572 82.7926 94.7897 82.6471C95.0073 82.5015 95.2632 82.4238 95.525 82.4238C95.875 82.4238 96.2108 82.5625 96.4587 82.8096C96.7066 83.0567 96.8465 83.3919 96.8478 83.7419Z" fill="#DDDDDD"/>
<path d="M102.981 83.7422H124.542" stroke="#EDEDED" stroke-width="0.925" stroke-linecap="round" stroke-linejoin="round"/>
<path d="M224.415 56.9805H167.74V63.9133H224.415V56.9805Z" stroke="#DDDDDD" stroke-width="0.4625" stroke-linecap="round" stroke-linejoin="round"/>
<path d="M149.961 56.9805H93.2865V63.9133H149.961V56.9805Z" stroke="#DDDDDD" stroke-width="0.4625" stroke-linecap="round" stroke-linejoin="round"/>
<path d="M299.358 43.7168H69.4169V190.329H299.358V43.7168Z" stroke="#EDEDED" stroke-width="0.925" stroke-linecap="round" stroke-linejoin="round"/>
<path d="M303.183 190.514H65.5874V196.924H303.183V190.514Z" stroke="#DDDDDD" stroke-width="0.925" stroke-linecap="round" stroke-linejoin="round"/>
<path d="M303.183 37.3066H65.5874V43.7169H303.183V37.3066Z" stroke="#DDDDDD" stroke-width="0.925" stroke-linecap="round" stroke-linejoin="round"/>
<path d="M266.16 64.8343C255.416 60.4406 250.088 72.7569 254.135 80.4946C255.088 82.3076 254.949 83.7829 254.047 85.9844C253.145 88.1859 253.122 89.7584 255.559 90.7482C257.997 91.7379 259.074 90.6094 259.976 88.4079C260.878 86.2064 261.826 85.0594 263.759 84.4304C272.075 81.7479 276.908 69.2281 266.16 64.8343Z" fill="#F9F9F9" stroke="#DDDDDD" stroke-width="0.4625" stroke-linecap="round" stroke-linejoin="round"/>
<path d="M256.766 88.3761C256.142 85.7537 256.35 83.9314 258.228 83.4874C260.106 83.0434 261.613 81.9797 260.79 80.6061C259.967 79.2325 256.554 78.9133 257.488 80.5783C258.422 82.2433 263.339 81.6467 262.187 80.0187C261.035 78.3907 258.288 77.0402 259.412 76.7812C260.536 76.5222 263.972 78.0762 262.862 76.8645C260.633 74.4363 263.237 73.923 263.954 71.3145" stroke="#DDDDDD" stroke-width="0.4625" stroke-linecap="round" stroke-linejoin="round"/>
<path d="M261.354 87.6088C260.975 88.2507 260.647 88.922 260.374 89.6161C260.168 90.1422 259.921 90.651 259.634 91.1377C258.607 92.8628 257.234 93.5519 254.805 92.5622C252.377 91.5724 251.892 90.1156 252.368 88.1684C252.502 87.618 252.682 87.0797 252.905 86.5589C253.192 85.8728 253.429 85.1663 253.612 84.4453C255.976 85.9668 258.601 87.0393 261.354 87.6088Z" fill="#F9F9F9" stroke="#EDEDED" stroke-width="0.4625" stroke-linecap="round" stroke-linejoin="round"/>
<path d="M261.354 87.6076C261.013 88.1816 260.718 88.7817 260.471 89.4021C260.434 89.4715 260.406 89.5454 260.374 89.6148C260.168 90.1409 259.921 90.6498 259.634 91.1365C258.64 91.3585 257.363 91.1734 255.661 90.4751C253.959 89.7767 252.918 89.0182 252.368 88.1626C252.502 87.6122 252.682 87.0738 252.905 86.5531L252.988 86.3357C253.24 85.7192 253.449 85.0855 253.612 84.4395C255.976 85.9626 258.601 87.0366 261.354 87.6076Z" fill="#F9F9F9" stroke="#EDEDED" stroke-width="0.4625" stroke-linecap="round" stroke-linejoin="round"/>
<path d="M261.354 87.6088C261.013 88.1829 260.718 88.7829 260.471 89.4033C257.795 88.8999 255.249 87.8582 252.988 86.3416C253.24 85.725 253.449 85.0913 253.612 84.4453C255.976 85.9668 258.601 87.0393 261.354 87.6088Z" fill="#F9F9F9" stroke="#EDEDED" stroke-width="0.4625" stroke-linecap="round" stroke-linejoin="round"/>
<path d="M267.987 61.9523L270.017 56.9805" stroke="#DDDDDD" stroke-width="0.925" stroke-linecap="round" stroke-linejoin="round"/>
<path d="M275.877 69.5839L280.765 68.8809" stroke="#DDDDDD" stroke-width="0.925" stroke-linecap="round" stroke-linejoin="round"/>
<path d="M254.121 62.8082L249.75 58.123" stroke="#DDDDDD" stroke-width="0.925" stroke-linecap="round" stroke-linejoin="round"/>
<path d="M261.109 60.8433V57.541" stroke="#EDEDED" stroke-width="0.4625" stroke-linecap="round" stroke-linejoin="round"/>
<path d="M249.736 70.6855L246.069 71.2128" stroke="#EDEDED" stroke-width="0.4625" stroke-linecap="round" stroke-linejoin="round"/>
<path d="M273.99 79.8281L275.34 82.1452" stroke="#EDEDED" stroke-width="0.4625" stroke-linecap="round" stroke-linejoin="round"/>
<path d="M273.037 65.7221L275.678 64.4688" stroke="#EDEDED" stroke-width="0.4625" stroke-linecap="round" stroke-linejoin="round"/>
<path d="M88.1944 87.748H77.3627C76.4291 91.8296 76.6958 96.094 78.1304 100.027L89.4848 99.847C89.4848 99.847 86.4231 93.1963 88.1944 87.748Z" fill="#DDDDDD" stroke="#DDDDDD" stroke-width="0.4625" stroke-miterlimit="10"/>
<path d="M85.7524 90.8086H80.2394" stroke="#F9F9F9" stroke-width="0.4625" stroke-linecap="round" stroke-linejoin="round"/>
<path d="M85.4009 93.1992H81.2338" stroke="#F9F9F9" stroke-width="0.4625" stroke-linecap="round" stroke-linejoin="round"/>
<path d="M85.6691 95.4805H79.8925" stroke="#F9F9F9" stroke-width="0.4625" stroke-linecap="round" stroke-linejoin="round"/>
<path d="M79.9619 69.6543H90.3866C91.2007 73.3127 90.5499 77.1443 88.5736 80.3288L77.2933 79.8663C77.2933 79.8663 80.7343 74.9268 79.9619 69.6543Z" stroke="#DDDDDD" stroke-width="0.4625" stroke-linecap="round" stroke-linejoin="round"/>
<path d="M81.8674 72.1465H88.6754" stroke="#DDDDDD" stroke-width="0.4625" stroke-linecap="round" stroke-linejoin="round"/>
<path d="M81.9645 74.4316H87.3989" stroke="#DDDDDD" stroke-width="0.4625" stroke-linecap="round" stroke-linejoin="round"/>
<path d="M81.8674 77.4199H84.4342" stroke="#DDDDDD" stroke-width="0.4625" stroke-linecap="round" stroke-linejoin="round"/>
<path d="M85.017 77.4199H86.7237" stroke="#DDDDDD" stroke-width="0.4625" stroke-linecap="round" stroke-linejoin="round"/>
<path d="M105.645 103.861L116.074 103.884C116.892 107.539 116.248 111.369 114.279 114.554L103.004 114.092C103.004 114.092 106.417 109.125 105.645 103.861Z" stroke="#EDEDED" stroke-width="0.4625" stroke-linecap="round" stroke-linejoin="round"/>
<path d="M107.55 106.357H114.358" stroke="#EDEDED" stroke-width="0.4625" stroke-linecap="round" stroke-linejoin="round"/>
<path d="M107.647 108.639H113.082" stroke="#EDEDED" stroke-width="0.4625" stroke-linecap="round" stroke-linejoin="round"/>
<path d="M107.55 111.625H110.117" stroke="#EDEDED" stroke-width="0.4625" stroke-linecap="round" stroke-linejoin="round"/>
<path d="M110.7 111.625H112.406" stroke="#EDEDED" stroke-width="0.4625" stroke-linecap="round" stroke-linejoin="round"/>
<path d="M192.442 109.207H202.867C203.679 112.864 203.029 116.694 201.054 119.877L189.773 119.414C189.773 119.414 193.21 114.47 192.442 109.207Z" stroke="#EDEDED" stroke-width="0.4625" stroke-linecap="round" stroke-linejoin="round"/>
<path d="M194.343 111.705H201.151" stroke="#EDEDED" stroke-width="0.4625" stroke-linecap="round" stroke-linejoin="round"/>
<path d="M194.44 113.984H199.874" stroke="#EDEDED" stroke-width="0.4625" stroke-linecap="round" stroke-linejoin="round"/>
<path d="M194.343 116.973H196.91" stroke="#EDEDED" stroke-width="0.4625" stroke-linecap="round" stroke-linejoin="round"/>
<path d="M197.492 116.973H199.199" stroke="#EDEDED" stroke-width="0.4625" stroke-linecap="round" stroke-linejoin="round"/>
<path d="M227.592 68.6699L217.167 68.693C216.354 72.3499 217.005 76.1797 218.98 79.3629L230.261 78.9004C230.261 78.9004 226.829 73.9332 227.592 68.6699Z" stroke="#DDDDDD" stroke-width="0.4625" stroke-linecap="round" stroke-linejoin="round"/>
<path d="M225.696 71.166H218.888" stroke="#DDDDDD" stroke-width="0.4625" stroke-linecap="round" stroke-linejoin="round"/>
<path d="M225.599 73.4473H220.169" stroke="#DDDDDD" stroke-width="0.4625" stroke-linecap="round" stroke-linejoin="round"/>
<path d="M225.696 76.4336H223.129" stroke="#DDDDDD" stroke-width="0.4625" stroke-linecap="round" stroke-linejoin="round"/>
<path d="M222.546 76.4336H220.839" stroke="#DDDDDD" stroke-width="0.4625" stroke-linecap="round" stroke-linejoin="round"/>
<path d="M159.137 55.7051V164.86" stroke="#EDEDED" stroke-width="0.4625" stroke-linecap="round" stroke-linejoin="round"/>
<path d="M213.573 83.2043C211.044 75.7118 209.929 73.0293 208.486 71.406C207.043 69.7826 202.959 68.0575 202.959 68.0575C202.959 68.0575 201.257 61.4622 199.079 61.675C196.9 61.8877 200.512 70.6613 200.512 70.6613L198.598 79.2731C199.219 80.2837 199.702 81.3724 200.036 82.5106C201.525 87.4038 205.609 87.8663 206.733 91.9733C206.664 91.7375 213.55 87.612 213.573 83.2043Z" fill="#FEBD9D"/>
<path d="M213.573 83.2043C211.044 75.7118 209.929 73.0293 208.486 71.406C207.043 69.7826 202.959 68.0575 202.959 68.0575C202.959 68.0575 201.257 61.4622 199.079 61.675C196.9 61.8877 200.512 70.6613 200.512 70.6613L198.598 79.2731C199.219 80.2837 199.702 81.3724 200.036 82.5106C201.525 87.4038 205.609 87.8663 206.733 91.9733C206.664 91.7375 213.55 87.612 213.573 83.2043Z" fill="#FEBD9D"/>
<path d="M208.491 71.406C207.057 69.7548 202.964 68.0575 202.964 68.0575C202.964 68.0575 201.262 61.4622 199.083 61.675C196.905 61.8877 200.517 70.6613 200.517 70.6613L198.602 79.2731" stroke="#EF8A66" stroke-width="0.346875" stroke-linecap="round" stroke-linejoin="round"/>
<path d="M196.438 75.9022C198.237 74.4777 201.322 79.6947 199.458 81.1192C198.121 82.1413 194.727 77.2388 196.438 75.9022Z" fill="#FEBD9D" stroke="#EF8A66" stroke-width="0.4625" stroke-miterlimit="10"/>
<path d="M202.964 68.0571C201.53 67.4928 201.35 69.9071 202.603 70.8321C203.856 71.7571 204.656 71.9513 204.837 72.5341C205.017 73.1168 205.373 74.9437 205.373 74.9437C204.971 76.098 204.818 77.3241 204.922 78.5419C205.026 79.7597 205.387 80.9417 205.979 82.0107" stroke="#EF8A66" stroke-width="0.346875" stroke-linecap="round" stroke-linejoin="round"/>
<path d="M197.784 72.9173C199.583 71.4928 203.394 78.0047 201.53 79.42C200.198 80.4375 196.073 74.2678 197.784 72.9173Z" fill="#FEBD9D" stroke="#EF8A66" stroke-width="0.4625" stroke-miterlimit="10"/>
<path d="M199.347 70.8098C201.146 69.3853 204.962 75.8973 203.098 77.3126C201.766 78.3301 197.64 72.1511 199.347 70.8098Z" fill="#FEBD9D" stroke="#EF8A66" stroke-width="0.4625" stroke-miterlimit="10"/>
<path d="M206.987 96.7195L204.559 91.9789C204.559 91.9789 210.498 87.9135 213.573 83.1914L215.613 86.6093C215.613 86.6093 213.176 97.3254 206.987 96.7195Z" fill="white"/>
<path d="M242.484 119.567C234.201 107.63 223.591 95.8823 222.083 94.2404C221.285 93.2978 220.163 92.6875 218.938 92.5292L215.238 85.957C215.238 85.957 211.201 91.9695 204.559 95.207L207.917 101.645C207.917 101.645 206.89 102.427 209.147 107.167C211.404 111.908 220.141 130.015 224.558 133.608C235.121 142.202 253.372 135.26 242.484 119.567Z" fill="#9065F2"/>
<path d="M213.296 97.9725L209.559 91.9785" stroke="#7444DC" stroke-width="0.346875" stroke-linecap="round" stroke-linejoin="round"/>
<path d="M211.067 99.4618L207.394 93.5742" stroke="#7444DC" stroke-width="0.346875" stroke-linecap="round" stroke-linejoin="round"/>
<path d="M213.573 88.0801L217.514 94.4025" stroke="#7444DC" stroke-width="0.346875" stroke-linecap="round" stroke-linejoin="round"/>
<path d="M211.599 90.0723L215.544 96.3946" stroke="#7444DC" stroke-width="0.346875" stroke-linecap="round" stroke-linejoin="round"/>
<path d="M242.484 119.567C234.201 107.63 223.591 95.8823 222.083 94.2404C221.285 93.2978 220.163 92.6875 218.938 92.5292L215.238 85.957" stroke="#7444DC" stroke-width="0.346875" stroke-linecap="round" stroke-linejoin="round"/>
<path d="M319.717 232.673H273.985V196.639L314.884 196.07C318.034 209.358 319.717 232.673 319.717 232.673Z" fill="#683F1D"/>
<path d="M296.25 232.675C296.25 232.675 294.752 218.161 294.599 216.779C294.554 216.413 294.391 216.071 294.133 215.807C293.876 215.543 293.539 215.371 293.174 215.317C292.297 215.136 291.392 215.136 290.515 215.317" stroke="#91613D" stroke-width="0.346875" stroke-linecap="round" stroke-linejoin="round"/>
<path d="M323.01 145.145C322.28 157.212 319.773 175.971 318.038 187.922C317.063 194.651 316.346 199.225 316.346 199.225C316.346 199.225 287.083 200.363 279.133 200.15C271.183 199.938 270.313 199.35 270.313 196.145C270.313 192.94 270.447 152.915 270.447 152.915C270.447 152.915 231.19 139.04 225.538 134.327C219.887 129.615 226.653 114.125 241.185 117.303C244.839 118.103 248.469 118.917 252.178 119.736C263.204 122.182 274.901 124.643 289.567 126.724C305.495 128.999 315.467 129.129 322.275 133.606C323.283 134.267 323.399 138.777 323.01 145.145Z" fill="#9065F2"/>
<path d="M312.442 157.277C306.259 161.199 306.245 166.717 308.663 170.99C314.241 180.828 298.026 174.436 297.328 186.637L320.804 181.059L312.442 157.277Z" fill="#824CF6"/>
<path d="M331.594 148.924C328.912 147.295 326.026 146.03 323.01 145.163C318.02 143.776 313.205 144.067 310.009 147.36C309.438 147.947 308.939 148.601 308.525 149.307C300.519 162.72 278.134 160.273 273.985 146.13C270.456 134.105 265.013 126.631 252.178 119.768C263.204 122.182 274.901 124.642 289.567 126.724C305.495 128.999 315.467 129.129 322.275 133.606C325.429 134.938 328.717 141.033 331.594 148.924Z" fill="#C5AFF9"/>
<path d="M291.061 125.85C285.844 125.85 281.612 129.184 281.612 133.291C281.612 135.604 282.953 137.676 285.062 139.04C286.082 139.697 287.212 140.167 288.397 140.428C289.27 140.63 290.164 140.731 291.061 140.728C291.26 140.728 291.454 140.728 291.648 140.728C292.906 140.673 294.145 140.409 295.316 139.947C296.424 139.525 297.442 138.897 298.317 138.097C298.995 137.496 299.54 136.761 299.919 135.939C300.298 135.116 300.502 134.224 300.519 133.319C300.519 129.184 296.287 125.85 291.061 125.85ZM294.192 136.899C293.268 137.184 292.309 137.34 291.343 137.361H291.061C290.304 137.364 289.549 137.287 288.808 137.13C287.856 136.944 286.943 136.597 286.107 136.103C284.766 135.294 283.934 134.156 283.934 132.898C283.934 130.428 287.125 128.43 291.061 128.43C294.997 128.43 298.193 130.428 298.193 132.898C298.193 133.985 297.573 134.979 296.537 135.756C295.828 136.271 295.034 136.658 294.192 136.899Z" stroke="#7444DC" stroke-width="0.346875" stroke-linecap="round" stroke-linejoin="round"/>
<path d="M286.362 123.949C284.595 124.287 282.629 124.874 281.644 126.567C280.659 128.26 280.613 135.313 281.515 136.085C282.417 136.858 283.619 133.167 288.998 131.368L286.362 123.949Z" fill="white"/>
<path d="M293.521 131.7L299.011 123.023C299.011 123.023 301.925 124.568 302.397 127.357C302.868 130.146 301.592 139.29 299.279 136.972C297.637 135.354 298.007 134.017 293.521 131.7Z" fill="white"/>
<path d="M285.062 139.041L286.107 136.09" stroke="#7444DC" stroke-width="0.346875" stroke-linecap="round" stroke-linejoin="round"/>
<path d="M288.397 140.433L288.808 137.117" stroke="#7444DC" stroke-width="0.346875" stroke-linecap="round" stroke-linejoin="round"/>
<path d="M291.648 140.72L291.343 137.344" stroke="#7444DC" stroke-width="0.346875" stroke-linecap="round" stroke-linejoin="round"/>
<path d="M295.316 139.938L294.192 136.891" stroke="#7444DC" stroke-width="0.346875" stroke-linecap="round" stroke-linejoin="round"/>
<path d="M298.317 138.069L296.537 135.742" stroke="#7444DC" stroke-width="0.346875" stroke-linecap="round" stroke-linejoin="round"/>
<path d="M299.844 124.199C299.885 125.281 297.679 132.394 291.556 132.986C285.432 133.578 284.535 126.909 284.572 125.156C284.572 124.449 284.65 123.2 284.738 121.637C284.859 119.491 285.02 116.757 285.141 114.047L285.168 113.455C285.844 97.73 299.344 100.87 298.502 109.205C297.989 114.343 299.793 123.121 299.844 124.199Z" fill="#FEBD9D"/>
<path d="M284.738 121.637C284.859 119.491 285.021 116.757 285.141 114.047L292.619 112.891C292.892 117.659 290.589 121.761 284.738 121.637Z" fill="#F4A789"/>
<path d="M315.004 179.8C315.004 179.707 314.954 179.615 314.93 179.518C312.835 171.096 311.096 162.285 310.365 154.594" stroke="#7444DC" stroke-width="0.346875" stroke-linecap="round" stroke-linejoin="round"/>
<path d="M280.779 169.227C280.104 166.295 281.871 165.434 283.411 164.907C283.268 164.079 283.573 162.738 285.409 162.451C287.148 162.178 287.772 163.89 287.772 163.89C287.772 163.89 291.431 162.65 292.356 166.373L280.779 169.227Z" fill="#DDDDDD"/>
<path d="M271.895 170.045L299.529 163.658L310.009 208.063L282.134 213.673L271.895 170.045Z" fill="#F9F9F9" stroke="#DDDDDD" stroke-width="0.4625" stroke-linecap="round" stroke-linejoin="round"/>
<path d="M284.479 164.704C284.478 164.951 284.551 165.192 284.687 165.397C284.823 165.602 285.017 165.762 285.244 165.857C285.471 165.952 285.722 165.977 285.963 165.93C286.205 165.882 286.427 165.764 286.602 165.59C286.776 165.417 286.895 165.195 286.943 164.953C286.992 164.712 286.967 164.462 286.873 164.234C286.779 164.006 286.62 163.812 286.415 163.675C286.21 163.538 285.97 163.465 285.724 163.465C285.394 163.465 285.079 163.595 284.845 163.828C284.612 164.06 284.481 164.375 284.479 164.704Z" fill="#F9F9F9" stroke="#DDDDDD" stroke-width="0.4625" stroke-linecap="round" stroke-linejoin="round"/>
<path d="M339.979 188.854C339.988 189.735 339.948 190.615 339.859 191.491V191.62C339.83 191.798 339.79 191.974 339.739 192.147C338.61 195.847 331.469 199.339 324.837 195.501C324.256 195.164 323.699 194.785 323.172 194.367C321.024 192.594 319.273 190.388 318.034 187.892C316.713 185.323 315.696 182.608 315.004 179.803C315.004 179.711 314.953 179.618 314.93 179.521C312.155 168.292 309.972 156.368 309.991 147.345C309.991 136.467 313.196 129.798 322.275 133.618C325.411 134.941 328.699 141.018 331.576 148.908C334.01 155.745 335.974 162.741 337.454 169.846C339.054 177.232 339.979 184.16 339.979 188.854Z" fill="#9065F2"/>
<path d="M339.878 191.505V191.634C339.849 191.812 339.808 191.988 339.757 192.161C338.629 195.861 331.488 199.353 324.856 195.514C324.274 195.177 323.718 194.799 323.191 194.381C325.213 193.337 327.489 192.883 329.758 193.072C341.963 194.173 329.013 180.691 337.486 169.846C339.045 177.246 339.998 184.16 340.012 188.854C340.07 189.74 340.025 190.629 339.878 191.505Z" fill="#824CF6"/>
<path d="M331.594 148.926C328.913 147.297 326.026 146.033 323.01 145.166C318.02 143.778 313.205 144.07 310.009 147.363C310.009 136.485 313.215 129.815 322.293 133.636C325.429 134.94 328.718 141.036 331.594 148.926Z" fill="#C5AFF9"/>
<path d="M285.437 189.053C284.683 188.59 280.22 186.01 278.925 185.926C277.63 185.843 274.869 187.753 274.869 187.753C274.869 187.753 269.388 188.077 268.782 189.053C268.176 190.029 269.406 191.402 270.35 191.893C271.293 192.383 270.405 193.391 270.526 194.205C270.646 195.019 271.663 195.593 271.784 196.152C271.904 196.712 271.377 198.238 272.635 198.613C273.893 198.987 273.097 199.76 273.731 200.856C274.364 201.952 278.236 201.749 288.068 199.801L285.437 189.053Z" fill="#FEBD9D"/>
<path d="M278.929 185.926C277.63 185.848 274.873 187.753 274.873 187.753C274.873 187.753 269.393 188.077 268.787 189.053C268.181 190.029 269.411 191.402 270.355 191.892C271.298 192.383 270.41 193.391 270.53 194.205C270.651 195.019 271.668 195.592 271.788 196.152C271.909 196.712 271.381 198.238 272.639 198.613C273.897 198.987 273.102 199.76 273.735 200.856C273.99 201.286 274.744 201.517 276.159 201.517" stroke="#EF8A66" stroke-width="0.346875" stroke-linecap="round" stroke-linejoin="round"/>
<path d="M284.748 188.165L286.722 200.801L290.89 200.186L289.595 187.855L284.748 188.165Z" fill="white"/>
<path d="M339.864 191.633C339.827 191.809 339.79 191.99 339.743 192.161C338.643 196.494 333.999 199.297 321.271 200.185C320.161 200.265 319.062 200.336 317.974 200.398C302.878 201.295 289.821 201.036 289.821 201.036L287.856 187.536C294.701 185.505 306.073 181.657 315.023 179.803C318.723 179.04 321.983 178.609 324.365 178.785C327.078 178.932 329.768 179.374 332.385 180.103C333.082 180.304 333.764 180.55 334.429 180.839C337.491 182.226 339.549 184.409 339.938 187.97C339.97 188.266 339.993 188.562 340.016 188.845C340.077 189.777 340.025 190.713 339.864 191.633Z" fill="#9065F2"/>
<path d="M324.365 178.785C321.983 178.609 318.709 179.04 315.023 179.803C306.073 181.653 294.701 185.505 287.856 187.536L289.821 201.036" stroke="#7444DC" stroke-width="0.346875" stroke-linecap="round" stroke-linejoin="round"/>
<path d="M288.091 189.137L296.102 187.855" stroke="#7444DC" stroke-width="0.346875" stroke-linecap="round" stroke-linejoin="round"/>
<path d="M288.471 191.731L296.255 190.76" stroke="#7444DC" stroke-width="0.346875" stroke-linecap="round" stroke-linejoin="round"/>
<path d="M288.757 193.724L296.444 193.072" stroke="#7444DC" stroke-width="0.346875" stroke-linecap="round" stroke-linejoin="round"/>
<path d="M289.183 196.648L296.602 196.074" stroke="#7444DC" stroke-width="0.346875" stroke-linecap="round" stroke-linejoin="round"/>
<path d="M289.595 199.03L296.87 198.299" stroke="#7444DC" stroke-width="0.346875" stroke-linecap="round" stroke-linejoin="round"/>
<path d="M274.869 187.777C276.853 187.573 278.638 187.49 278.638 187.49" stroke="#EF8A66" stroke-width="0.346875" stroke-linecap="round" stroke-linejoin="round"/>
<path d="M339.864 191.633C339.835 191.811 339.795 191.987 339.744 192.16C338.643 196.494 333.999 199.297 321.271 200.185C320.161 200.265 319.062 200.336 317.974 200.398C320.804 193.395 327.09 192.831 329.744 193.072C337.917 193.812 334.832 188.016 334.411 180.848C337.473 182.235 339.531 184.418 339.919 187.979C339.952 188.275 339.975 188.571 339.998 188.854C340.063 189.782 340.018 190.715 339.864 191.633Z" fill="#824CF6"/>
<path d="M297.619 98.7715C297.315 101.015 296.774 103.219 296.005 105.348C294.807 108.465 292.869 111.19 289.71 111.166C289.377 111.162 289.044 111.131 288.716 111.074L280.317 107.628C280.317 107.628 280.354 107.466 280.437 107.166C281.027 105.124 281.891 103.172 283.004 101.361C283.101 101.209 283.207 101.056 283.309 100.899C285.307 97.8696 287.305 95.4461 287.305 95.4461C287.305 95.4461 287.421 92.5462 289.789 92.1207C292.157 91.6952 298.276 94.35 297.619 98.7715Z" fill="#FEBD9D"/>
<path d="M296.005 105.347C294.807 108.464 292.869 111.188 289.71 111.165C289.139 110.8 288.659 110.31 288.308 109.73C287.956 109.151 287.742 108.499 287.681 107.824C287.621 107.149 287.717 106.469 287.96 105.837C288.204 105.205 288.59 104.637 289.087 104.177C289.585 103.717 290.181 103.377 290.831 103.184C291.48 102.991 292.165 102.949 292.834 103.062C293.502 103.175 294.135 103.44 294.685 103.836C295.235 104.232 295.686 104.749 296.005 105.347Z" fill="#F4AF90"/>
<path d="M283.619 103.428C283.619 104.327 283.301 105.197 282.721 105.884C282.141 106.571 281.337 107.032 280.451 107.183C281.041 105.142 281.905 103.189 283.018 101.379C283.411 101.99 283.62 102.701 283.619 103.428Z" fill="#F4AF90"/>
<path d="M303.049 99.3674C302.669 100.45 301.379 103.784 300.667 105.62C300.375 106.365 300.177 106.865 300.177 106.865L298.132 106.12L296.666 105.588L296.148 105.403C296.148 105.403 296.148 105.62 296.093 106C295.945 107.408 295.674 108.801 295.283 110.162C294.821 111.856 294.064 113.456 293.049 114.889C290.274 118.589 283.069 118.21 279.743 115.351C277.431 113.344 277.893 109.672 279.905 105.852C280.859 104.087 282.005 102.434 283.323 100.921C283.323 100.921 281.7 104.728 281.436 105.546C281.117 106.569 282.315 106.471 282.777 105.602C283.24 104.732 284.132 104.131 286.722 104.825C289.312 105.519 290.367 106.86 289.886 108.733C289.604 109.838 291.657 110.222 293.17 108.765C293.299 108.642 293.42 108.509 293.53 108.368C293.738 108.111 293.917 107.832 294.062 107.535C295.45 104.709 296.259 100.385 296.338 98.6829C294.788 98.78 293.452 97.6006 294.331 96.1345C292.513 96.8976 291.162 95.5934 291.472 93.8544C290.686 95.0893 288.919 95.0106 288.697 93.5491L287.31 95.4454C287.042 94.7271 286.917 93.9638 286.94 93.1976C287.042 90.8851 289.007 90.0434 290.561 90.5753C290.802 88.9056 294.724 88.5726 295.01 90.9591C295.852 89.4051 298.641 89.7243 298.71 92.1246C299.073 91.9277 299.489 91.8519 299.898 91.9084C300.306 91.9648 300.686 92.1505 300.982 92.4384C301.278 92.7262 301.473 93.1011 301.541 93.5081C301.608 93.9152 301.543 94.3331 301.356 94.7008C302.628 94.4233 303.442 96.0883 302.346 97.2815C302.36 97.3046 303.59 97.8458 303.049 99.3674Z" fill="#BF8228"/>
<path d="M289.567 101.286C289.567 101.408 289.603 101.528 289.671 101.63C289.739 101.732 289.836 101.811 289.949 101.858C290.063 101.905 290.187 101.918 290.307 101.894C290.428 101.87 290.538 101.811 290.625 101.724C290.711 101.637 290.77 101.527 290.794 101.407C290.818 101.286 290.806 101.162 290.759 101.049C290.712 100.935 290.633 100.839 290.531 100.77C290.429 100.702 290.309 100.666 290.187 100.666C290.022 100.666 289.865 100.731 289.748 100.848C289.632 100.964 289.567 101.121 289.567 101.286Z" fill="#683F1D"/>
<path d="M285.603 99.9589C285.602 100.082 285.638 100.202 285.706 100.305C285.773 100.408 285.87 100.488 285.984 100.535C286.097 100.583 286.222 100.595 286.343 100.572C286.463 100.548 286.574 100.489 286.661 100.402C286.748 100.315 286.807 100.204 286.831 100.083C286.855 99.9626 286.842 99.8376 286.795 99.7242C286.747 99.6108 286.667 99.514 286.564 99.4463C286.462 99.3785 286.341 99.3429 286.218 99.3438C286.056 99.345 285.9 99.4102 285.785 99.5253C285.67 99.6404 285.604 99.7961 285.603 99.9589Z" fill="#683F1D"/>
<path d="M290.816 98.0208C290.496 99.1262 293.739 100.218 293.877 99.5424C293.979 99.0568 291.287 96.3835 290.816 98.0208Z" fill="#BF8228"/>
<path d="M286.218 96.5559C286.029 97.1479 288.753 98.17 289.072 97.1757C289.451 95.9917 286.385 96.0472 286.218 96.5559Z" fill="#BF8228"/>
<path d="M298.132 106.119L296.148 105.402C296.024 107.018 295.734 108.617 295.283 110.175C294.64 110.272 293.896 109.934 293.17 108.787C293.536 108.432 293.838 108.016 294.062 107.557C295.45 104.731 296.259 100.407 296.338 98.7048C294.788 98.8019 293.452 97.6225 294.331 96.1564C292.513 96.9195 291.162 95.6153 291.472 93.8763C290.686 95.1111 288.919 95.0325 288.697 93.571L287.31 95.4673C287.042 94.7489 286.917 93.9856 286.94 93.2195C287.689 92.4564 288.716 91.9291 289.576 92.1928C289.576 92.1928 291.838 92.7385 292.633 91.6562C292.194 93.3952 293.97 95.051 296.065 94.3388C296.065 94.3388 296.796 97.4976 299.353 97.493C299.353 97.493 299.076 100.319 300.537 100.578C301.643 100.768 299.409 103.954 298.132 106.119Z" fill="#B57724"/>
<path d="M296.093 106C295.945 107.408 295.674 108.801 295.283 110.162C294.821 111.856 294.064 113.456 293.049 114.889C290.274 118.589 283.069 118.21 279.743 115.351C277.431 113.344 277.893 109.672 279.905 105.852C280.192 112.461 286.473 116.249 293.17 108.788L293.53 108.391C294.316 107.523 295.173 106.724 296.093 106Z" fill="#B57724"/>
<path d="M300.667 105.62C300.376 106.364 300.177 106.864 300.177 106.864L298.132 106.119L296.666 105.587C298.933 104.084 300.084 104.732 300.667 105.62Z" fill="#B57724"/>
<path d="M295.367 109.866C295.77 108.406 296.032 106.912 296.148 105.402C297.425 104.246 299.663 104.283 300.685 105.569C300.966 105.926 301.143 106.353 301.199 106.804C301.592 109.611 299.247 112.567 295.367 109.866Z" fill="#FEBD9D"/>
<path d="M298.303 110.929C297.237 110.894 296.208 110.522 295.367 109.865" stroke="#EF8A66" stroke-width="0.346875" stroke-linecap="round" stroke-linejoin="round"/>
<path d="M284.567 102.761C284.771 101.587 285.423 101.587 286.653 101.374C287.883 101.161 288.836 100.065 288.702 98.9551" stroke="#EF8A66" stroke-width="0.346875" stroke-linecap="round" stroke-linejoin="round"/>
<path d="M296.99 107.299C297.189 107.078 297.437 106.907 297.714 106.801C297.992 106.694 298.291 106.655 298.586 106.686C298.881 106.717 299.165 106.818 299.415 106.98C299.664 107.142 299.871 107.36 300.019 107.618" stroke="#EF8A66" stroke-width="0.346875" stroke-linecap="round" stroke-linejoin="round"/>
<path d="M297.577 106.884C299.677 106.685 299.358 109.839 297.328 109.257" stroke="#EF8A66" stroke-width="0.346875" stroke-linecap="round" stroke-linejoin="round"/>
<path d="M278.638 113.876C280.617 112.549 283.263 113.219 285.395 115.125C288.23 117.659 292.864 115.125 292.864 115.125" stroke="#9B621F" stroke-width="0.346875" stroke-linecap="round" stroke-linejoin="round"/>
<path d="M294.964 111.166C293.808 112.091 289.414 114.639 286.251 112.285C283.087 109.931 278.314 112.882 278.314 112.882" stroke="#9B621F" stroke-width="0.346875" stroke-linecap="round" stroke-linejoin="round"/>
<path d="M278.402 109.768C279.424 108.843 283.147 106.868 285.571 109.505C287.994 112.141 291.153 109.731 291.153 109.731" stroke="#9B621F" stroke-width="0.346875" stroke-linecap="round" stroke-linejoin="round"/>
<path d="M282.629 105.852C283.217 106.494 287.416 107.97 289.858 107.077" stroke="#9B621F" stroke-width="0.346875" stroke-linecap="round" stroke-linejoin="round"/>
<path d="M288.688 93.5715C288.429 92.2442 289.613 90.6855 290.57 90.5977" stroke="#9B621F" stroke-width="0.346875" stroke-linecap="round" stroke-linejoin="round"/>
<path d="M291.472 93.8855C291.662 92.831 292.92 90.3012 294.71 90.1855" stroke="#9B621F" stroke-width="0.346875" stroke-linecap="round" stroke-linejoin="round"/>
<path d="M294.331 96.1578C294.793 94.1043 296.148 91.8935 298.303 90.9824" stroke="#9B621F" stroke-width="0.346875" stroke-linecap="round" stroke-linejoin="round"/>
<path d="M296.338 98.706C296.625 96.4629 299.728 94.6083 301.37 94.7239" stroke="#9B621F" stroke-width="0.346875" stroke-linecap="round" stroke-linejoin="round"/>
<path d="M295.848 102.009C297.859 100.279 301.347 98.7479 303.187 98.623" stroke="#9B621F" stroke-width="0.346875" stroke-linecap="round" stroke-linejoin="round"/>
<path d="M284.798 106.422C286.616 106.815 288.651 106.602 288.586 106.685C288.522 106.769 288.207 109.46 286.218 109.178C284.23 108.896 284.798 106.422 284.798 106.422Z" fill="white" stroke="#EF8A66" stroke-width="0.346875" stroke-linecap="round" stroke-linejoin="round"/>
<path d="M232.744 115.13C233.993 111.647 235.639 108.114 236.407 108.581C237.707 109.372 235.131 116.143 235.131 116.143L232.744 115.13Z" fill="#B25E47" stroke="#934735" stroke-width="0.346875" stroke-miterlimit="10"/>
<path d="M231.135 115.925C231.135 115.707 231.902 105.75 233.355 105.976C235.325 106.272 233.757 116.151 233.757 116.151L231.135 115.925Z" fill="#B25E47" stroke="#934735" stroke-width="0.346875" stroke-miterlimit="10"/>
<path d="M228.757 117.331C228.702 107.355 228.896 104.788 230.108 104.783C231.782 104.783 231.999 116.276 231.999 116.276L228.757 117.331Z" fill="#B25E47" stroke="#934735" stroke-width="0.346875" stroke-miterlimit="10"/>
<path d="M234.349 116.725C234.058 121.438 233.919 123.94 233.919 123.94C233.919 123.94 229.701 126.253 229.428 120.592C229.155 114.931 234.349 116.725 234.349 116.725Z" fill="#B25E47" stroke="#934735" stroke-width="0.346875" stroke-miterlimit="10"/>
<path d="M210.234 146.042C204.661 154.307 197.853 165.796 203.352 169.482C208.851 173.168 216.177 171.665 220.557 161.527C224.937 151.389 230.339 133.74 231.421 132.001C232.504 130.262 235.02 128.217 236.643 124.86C238.266 121.502 239.043 121.317 238.493 120.36C237.943 119.402 236.574 119.758 235.852 120.822C235.131 121.886 233.211 123.944 232.129 123.343C231.047 122.741 230.589 121.53 230.57 120.045C230.552 118.56 231.435 116.965 233.133 117.483C234.83 118.001 235.612 120.225 237.05 119.444C238.488 118.662 235.431 115.665 234.349 114.703C233.267 113.741 232.43 114.403 230.649 115.004C228.868 115.605 228.309 115.665 227.411 117.779C226.514 119.892 223.092 126.811 222.551 128.069C222.009 129.327 215.456 138.286 210.234 146.042Z" fill="#B25E47"/>
<path d="M236.643 124.873C238.262 121.511 239.043 121.331 238.493 120.373C237.943 119.416 236.574 119.772 235.852 120.836C235.131 121.9 233.211 123.958 232.129 123.356C231.047 122.755 230.589 121.543 230.57 120.059C230.552 118.574 231.435 116.979 233.133 117.497C234.83 118.015 235.612 120.239 237.05 119.458C238.488 118.676 235.431 115.679 234.349 114.717C233.267 113.755 232.43 114.416 230.649 115.018C228.868 115.619 228.309 115.679 227.411 117.793" stroke="#934735" stroke-width="0.346875" stroke-linecap="round" stroke-linejoin="round"/>
<path d="M208.856 148.119C207.899 149.59 206.937 151.125 206.035 152.675" stroke="#934735" stroke-width="0.346875" stroke-linecap="round" stroke-linejoin="round"/>
<path d="M124.644 153.902C123.118 156.275 126.263 158.064 129.102 159.914C131.942 161.764 132.687 153.347 132.687 153.347C132.687 153.347 125.486 152.593 124.644 153.902Z" fill="#F7AD2B"/>
<path d="M209.601 143.62C210.563 144.342 209.138 146.742 206.405 149.411L204.162 146.515C204.162 146.515 207.358 142.792 209.601 143.62Z" fill="#F7AD2B"/>
<path d="M205.068 144.342C211.469 151.117 218.897 160.034 214.952 166.805C211.007 173.576 201.59 169.983 195.892 164.789C195.892 164.789 191.253 155.863 205.068 144.342Z" fill="#B25E47"/>
<path d="M129.047 153.713C126.586 159.175 119.469 171.376 127.012 176.408C134.555 181.44 143.731 163.786 143.731 163.786C143.731 163.786 140.929 153.232 129.047 153.713Z" fill="#B25E47"/>
<path d="M209.601 143.621C204.438 147.444 200.393 152.58 197.885 158.495C196.987 160.511 196.318 162.623 195.892 164.789C194.412 163.716 190.916 161.089 190.916 161.089C190.657 162.722 190.319 164.6 189.991 166.496C188.978 171.939 187.812 177.489 187.812 177.489H153.213L152.63 175.177L148.107 157.25L143.731 163.776C143.643 163.67 143.556 163.568 143.458 163.471C138.371 157.972 124.644 153.893 124.644 153.893C128.374 147.601 132.825 141.766 137.908 136.507C139.397 134.988 140.96 133.545 142.594 132.183C144.881 130.371 147.389 128.857 150.058 127.678C153.093 126.3 156.239 125.178 159.461 124.325C159.461 124.325 159.535 116.962 160.34 108.258C160.696 104.331 168.665 103.563 170.515 110.242C172.365 116.92 173.752 121.212 173.752 121.212C175.742 120.919 177.755 120.812 179.765 120.893C182.313 120.995 185.213 121.462 187.484 122.771C188.705 123.479 191.142 125.592 193.959 128.215C200.688 134.472 209.601 143.621 209.601 143.621Z" fill="#FED81D"/>
<path d="M197.885 158.494C196.987 160.511 196.318 162.623 195.892 164.789C194.412 163.716 190.916 161.089 190.916 161.089C191.951 156.021 192.462 150.86 192.442 145.688C192.43 143.41 191.885 141.168 190.851 139.139C194.061 140.947 196.725 142.917 195.166 147.209C193.691 151.187 193.917 157.828 197.885 158.494Z" fill="#FCC71F"/>
<path d="M164.322 176.545L152.63 175.158L148.107 157.25C149.35 155.209 150.432 153.076 151.344 150.867C156.015 156.417 146.173 162.892 161.487 166.268C169.127 167.961 164.322 176.545 164.322 176.545Z" fill="#FCC71F"/>
<path d="M193.973 128.224C189.917 128.594 185.976 131.684 183.502 139.94C179.043 154.818 162.745 153.07 157.139 142.775C152.75 134.709 147.343 133.802 137.899 136.517C139.387 134.998 140.951 133.555 142.584 132.193C144.872 130.381 147.38 128.867 150.049 127.688C153.084 126.309 156.229 125.188 159.452 124.335C159.452 124.335 159.526 116.972 160.33 108.268C160.687 104.341 168.655 103.573 170.505 110.252C172.355 116.93 173.743 121.222 173.743 121.222C175.733 120.928 177.746 120.822 179.755 120.903C182.304 121.005 185.204 121.472 187.475 122.781C188.714 123.488 191.151 125.602 193.973 128.224Z" fill="#FFE05C"/>
<path d="M179.774 120.902C179.848 125.892 175.524 129.227 170.561 130.008C165.598 130.79 157.366 130.207 150.058 127.696C153.093 126.317 156.239 125.195 159.461 124.343C159.461 124.343 159.535 116.98 160.34 108.275C160.696 104.349 168.665 103.581 170.515 110.26C170.936 111.763 171.333 113.146 171.689 114.385C172.453 116.998 173.049 118.982 173.401 120.12C173.623 120.842 173.748 121.23 173.748 121.23C175.742 120.932 177.759 120.822 179.774 120.902Z" fill="#B25E47"/>
<path d="M173.41 120.112C169.026 120.463 166.473 117.864 166.505 114.391C166.505 114.391 169.576 114.391 171.699 114.391C172.462 117.013 173.059 118.974 173.41 120.112Z" fill="#914839"/>
<path d="M191.707 232.674H144.342C144.342 232.674 142.423 209.152 145.304 196.641C146.469 191.614 148.015 186.683 149.929 181.892C150.763 179.745 151.705 177.641 152.75 175.588L187.817 177.493C188.168 178.909 188.488 180.379 188.784 181.892C192.904 203.195 191.707 232.674 191.707 232.674Z" fill="#9065F2"/>
<mask id="mask0_7350_18149" style="mask-type:luminance" maskUnits="userSpaceOnUse" x="143" y="175" width="49" height="58">
<path d="M191.706 232.676H144.342C144.342 232.676 142.422 209.153 145.304 196.643C146.469 191.616 148.015 186.685 149.929 181.894C150.763 179.747 151.705 177.643 152.75 175.59L187.817 177.495C188.168 178.911 188.487 180.381 188.783 181.894C192.904 203.196 191.706 232.676 191.706 232.676Z" fill="white"/>
</mask>
<g mask="url(#mask0_7350_18149)">
<path d="M155.802 203.462C157.443 201.671 157.321 198.889 155.53 197.248C153.738 195.607 150.956 195.729 149.315 197.52C147.675 199.312 147.797 202.094 149.588 203.735C151.379 205.375 154.161 205.253 155.802 203.462Z" stroke="white" stroke-width="0.4625" stroke-miterlimit="10"/>
<path d="M160.07 233.44C161.788 231.723 161.788 228.938 160.07 227.22C158.352 225.502 155.567 225.502 153.85 227.22C152.132 228.938 152.132 231.723 153.85 233.44C155.567 235.158 158.352 235.158 160.07 233.44Z" stroke="white" stroke-width="0.4625" stroke-miterlimit="10"/>
<path d="M178.209 204.434C179.927 202.717 179.927 199.932 178.209 198.214C176.492 196.496 173.707 196.496 171.989 198.214C170.271 199.932 170.271 202.717 171.989 204.434C173.707 206.152 176.492 206.152 178.209 204.434Z" stroke="white" stroke-width="0.4625" stroke-miterlimit="10"/>
<path d="M179.784 235.877C182.149 235.321 183.615 232.953 183.059 230.589C182.503 228.224 180.136 226.758 177.771 227.314C175.406 227.87 173.94 230.237 174.496 232.602C175.052 234.967 177.42 236.433 179.784 235.877Z" stroke="white" stroke-width="0.4625" stroke-miterlimit="10"/>
<path d="M173.804 188.279C176.168 187.718 177.629 185.348 177.069 182.984C176.508 180.621 174.138 179.159 171.774 179.72C169.411 180.28 167.949 182.65 168.509 185.014C169.07 187.378 171.44 188.839 173.804 188.279Z" stroke="white" stroke-width="0.4625" stroke-miterlimit="10"/>
<path d="M166.491 218.24C167.972 218.24 169.173 217.039 169.173 215.558C169.173 214.076 167.972 212.875 166.491 212.875C165.009 212.875 163.808 214.076 163.808 215.558C163.808 217.039 165.009 218.24 166.491 218.24Z" stroke="white" stroke-width="0.4625" stroke-miterlimit="10"/>
<path d="M191.443 211.502C192.924 211.502 194.125 210.301 194.125 208.819C194.125 207.338 192.924 206.137 191.443 206.137C189.961 206.137 188.76 207.338 188.76 208.819C188.76 210.301 189.961 211.502 191.443 211.502Z" stroke="white" stroke-width="0.4625" stroke-miterlimit="10"/>
<path d="M192.118 189.866C192.118 190.397 191.961 190.915 191.666 191.356C191.371 191.798 190.952 192.141 190.462 192.344C189.972 192.547 189.433 192.601 188.912 192.497C188.392 192.394 187.914 192.138 187.539 191.763C187.164 191.388 186.908 190.91 186.805 190.389C186.701 189.869 186.754 189.33 186.957 188.84C187.16 188.349 187.504 187.93 187.945 187.636C188.386 187.341 188.905 187.184 189.436 187.184C190.147 187.184 190.829 187.466 191.332 187.969C191.836 188.472 192.118 189.155 192.118 189.866Z" stroke="white" stroke-width="0.4625" stroke-miterlimit="10"/>
<path d="M147.579 216.964C147.579 217.494 147.422 218.013 147.127 218.454C146.833 218.895 146.414 219.239 145.923 219.442C145.433 219.645 144.894 219.698 144.374 219.595C143.853 219.491 143.375 219.236 143 218.861C142.625 218.485 142.369 218.007 142.266 217.487C142.162 216.967 142.216 216.427 142.419 215.937C142.622 215.447 142.965 215.028 143.407 214.733C143.848 214.439 144.366 214.281 144.897 214.281C145.608 214.282 146.29 214.565 146.792 215.068C147.295 215.571 147.578 216.253 147.579 216.964Z" stroke="white" stroke-width="0.4625" stroke-miterlimit="10"/>
<path d="M156.959 189.867C158.44 189.867 159.641 188.666 159.641 187.184C159.641 185.703 158.44 184.502 156.959 184.502C155.477 184.502 154.276 185.703 154.276 187.184C154.276 188.666 155.477 189.867 156.959 189.867Z" stroke="white" stroke-width="0.4625" stroke-miterlimit="10"/>
</g>
<path d="M158.679 124.539C158.679 124.539 164.47 134.538 171.528 138.816C171.528 138.816 175.45 133.081 174.807 121.084" stroke="#683F1D" stroke-width="0.4625" stroke-miterlimit="10"/>
<path d="M169.613 139.12C169.613 139.522 169.732 139.914 169.955 140.248C170.178 140.582 170.495 140.842 170.866 140.996C171.237 141.15 171.645 141.19 172.039 141.112C172.433 141.033 172.795 140.84 173.079 140.556C173.363 140.272 173.556 139.91 173.635 139.516C173.713 139.122 173.673 138.714 173.519 138.343C173.365 137.972 173.105 137.655 172.771 137.432C172.437 137.209 172.045 137.09 171.643 137.09C171.105 137.09 170.588 137.304 170.208 137.685C169.827 138.065 169.613 138.582 169.613 139.12Z" fill="white"/>
<path d="M190.916 161.093C191.951 156.024 192.463 150.861 192.442 145.687C192.43 143.41 191.885 141.167 190.851 139.138C189.991 137.288 189.061 135.591 188.867 133.311" stroke="#F7AD2B" stroke-width="0.346875" stroke-linecap="round" stroke-linejoin="round"/>
<path d="M151.936 149.449C151.936 149.449 151.719 150.013 151.349 150.878C150.437 153.087 149.355 155.221 148.111 157.261" stroke="#F7AD2B" stroke-width="0.346875" stroke-linecap="round" stroke-linejoin="round"/>
<path d="M188.742 181.892H149.892C150.726 179.745 151.668 177.641 152.713 175.588L187.817 177.493C188.145 178.909 188.464 180.375 188.742 181.892Z" fill="#7444DC"/>
<path d="M173.308 181.893V192.47" stroke="#7444DC" stroke-width="0.346875" stroke-linecap="round" stroke-linejoin="round"/>
<path d="M174.122 193.182C175.223 192.577 175.857 192.29 175.972 191.624C176.088 190.958 176.638 183.613 176.638 183.613" stroke="#7444DC" stroke-width="0.346875" stroke-linecap="round" stroke-linejoin="round"/>
<path d="M172.786 232.675C172.786 232.675 173.063 203.181 173.294 201.84C173.293 201.826 173.293 201.812 173.294 201.798C173.53 201.359 174.007 200.707 176.624 199.176" stroke="#7444DC" stroke-width="0.346875" stroke-linecap="round" stroke-linejoin="round"/>
<path d="M115.436 125.732C117.776 124.835 120.324 125.015 123.58 126.569C127.391 128.391 130.693 133.076 129.084 139.519C128.82 140.56 124.769 142.724 124.098 142.248C123.428 141.771 128.737 128.576 115.436 125.732Z" fill="white"/>
<path d="M157.454 108.399C155.382 108.201 154.077 109.052 153.111 110.814C152.144 112.576 150.923 114.333 150.923 114.333C150.923 114.333 153.439 115.36 155.895 112.571C158.18 109.972 157.454 108.399 157.454 108.399Z" fill="#FED81D"/>
<path d="M158.966 109.205C156.626 109.829 155.53 110.773 155.109 113.608C154.688 116.443 154.836 117.743 154.535 118.811C154.535 118.811 157.532 118.117 158.966 115.426C160.33 112.85 159.984 111.198 158.966 109.205Z" fill="#FED81D"/>
<path d="M161.917 94.0719C161.917 94.0719 159.66 98.9744 159.604 103.086C159.569 104.016 159.707 104.944 160.011 105.824L157.509 106.115C155.368 108.174 151.497 107.466 152.884 104.839C150.572 106.282 147.542 104.307 149.045 102.221C147.246 102.647 146.331 99.7376 148.648 98.9837C146.719 98.7756 146.335 95.3346 148.948 95.1357C148.72 94.8991 148.564 94.603 148.497 94.2814C148.43 93.9597 148.455 93.6258 148.57 93.3179C148.684 93.01 148.884 92.7407 149.144 92.5411C149.405 92.3415 149.717 92.2196 150.044 92.1896C150.317 92.1815 150.588 92.2356 150.836 92.3478C151.085 92.46 151.304 92.6273 151.478 92.8371C150.359 88.8041 155.09 87.5183 156.543 89.6366C156.797 87.9299 159.997 87.7542 160.474 89.9557C162.888 88.6237 164.461 91.8612 161.917 94.0719Z" fill="#604730"/>
<path d="M160.03 105.824L157.528 106.115C155.386 108.173 151.515 107.466 152.903 104.839C150.59 106.282 147.561 104.307 149.064 102.221C147.265 102.647 146.349 99.7375 148.666 98.9836C146.738 98.7755 146.354 95.3345 148.967 95.1356C148.739 94.899 148.582 94.6029 148.515 94.2813C148.448 93.9596 148.474 93.6256 148.588 93.3178C148.703 93.0099 148.902 92.7406 149.163 92.541C149.424 92.3414 149.736 92.2195 150.063 92.1895C149.896 93.614 150.525 95.6305 151.913 95.7692C150.017 96.4676 150.031 98.7153 151.913 99.5062C150.734 100.815 152.5 102.656 153.976 101.62C153.92 103.063 156.089 105.412 159.595 103.063C159.566 104.002 159.714 104.939 160.03 105.824Z" fill="#473526"/>
<path d="M173.854 116.713C167.134 117.638 161.269 110.071 161.269 110.071C158.203 111.144 155.826 108.762 156.783 106.371C156.956 105.927 157.249 105.539 157.629 105.252C157.937 105.021 158.293 104.863 158.67 104.789C158.96 104.735 159.256 104.724 159.549 104.757C160.111 104.821 160.647 105.027 161.108 105.354C161.569 105.682 161.94 106.121 162.185 106.63C162.398 107 163.827 106.935 163.189 105.307C162.629 103.892 162.019 103.998 162.019 103.998C162.944 103.707 162.208 101.635 161.094 101.931C162.019 101.533 162.342 99.7804 161.306 99.156C162.421 99.0959 163.642 98.6519 163.189 96.9545C163.394 97.2024 163.666 97.3853 163.973 97.4812C164.28 97.577 164.609 97.5816 164.918 97.4944C165.228 97.4072 165.505 97.232 165.717 96.99C165.929 96.748 166.066 96.4497 166.112 96.1313C166.317 96.3321 166.577 96.4689 166.859 96.525C167.141 96.581 167.433 96.5541 167.7 96.4473C167.967 96.3405 168.197 96.1586 168.363 95.9235C168.528 95.6884 168.622 95.4103 168.632 95.123C168.771 95.7474 169.502 95.9324 170.08 95.5855C171.384 97.0102 172.546 98.5593 173.549 100.211L173.586 100.271C174.15 101.149 174.682 102.037 175.163 102.921C178.812 109.613 179.769 115.894 173.854 116.713Z" fill="#B25E47"/>
<path d="M165.732 104.086C165.487 104.913 163.984 105.196 162.379 104.719C160.774 104.243 159.664 103.184 159.91 102.356C160.155 101.528 161.658 101.25 163.263 101.727C164.868 102.203 165.978 103.262 165.732 104.086Z" fill="#A0503D"/>
<path d="M175.191 102.953C174.529 103.415 173.877 103.563 173.452 103.267C172.809 102.833 172.901 101.565 173.613 100.303C174.178 101.181 174.71 102.069 175.191 102.953Z" fill="#A0503D"/>
<path d="M159.553 104.783C159.261 104.749 158.964 104.76 158.675 104.815C158.297 104.889 157.942 105.047 157.634 105.277C155.497 98.9967 161.131 95.8008 161.131 95.8008C158.985 98.9227 159.318 103.136 159.553 104.783Z" fill="white"/>
<path d="M170.538 100.145C170.537 100.267 170.572 100.387 170.639 100.489C170.707 100.591 170.803 100.672 170.915 100.719C171.028 100.767 171.152 100.781 171.272 100.758C171.393 100.736 171.503 100.678 171.591 100.592C171.678 100.507 171.739 100.397 171.764 100.277C171.789 100.158 171.779 100.033 171.733 99.9195C171.688 99.8058 171.61 99.7081 171.509 99.6387C171.408 99.5693 171.289 99.5313 171.167 99.5295C171.085 99.5276 171.003 99.5421 170.927 99.5722C170.851 99.6023 170.781 99.6473 170.723 99.7046C170.664 99.7619 170.618 99.8304 170.586 99.9059C170.554 99.9815 170.538 100.063 170.538 100.145Z" fill="#683F1D"/>
<path d="M166.505 101.454C166.505 101.576 166.541 101.696 166.609 101.798C166.677 101.9 166.774 101.979 166.887 102.026C167.001 102.073 167.125 102.085 167.245 102.062C167.366 102.038 167.476 101.979 167.563 101.892C167.649 101.805 167.708 101.695 167.732 101.575C167.756 101.454 167.744 101.33 167.697 101.217C167.65 101.103 167.571 101.007 167.469 100.938C167.367 100.87 167.247 100.834 167.125 100.834C167.043 100.834 166.963 100.85 166.887 100.881C166.812 100.912 166.744 100.958 166.686 101.016C166.629 101.073 166.583 101.141 166.552 101.217C166.521 101.292 166.505 101.372 166.505 101.454Z" fill="#683F1D"/>
<path d="M170.63 94.9969C170.517 95.2439 170.335 95.4539 170.108 95.6028C169.53 95.9681 168.799 95.7831 168.66 95.1403C168.65 95.4276 168.556 95.7056 168.39 95.9407C168.225 96.1758 167.995 96.3578 167.728 96.4645C167.461 96.5713 167.169 96.5983 166.887 96.5422C166.605 96.4861 166.345 96.3493 166.139 96.1485C166.094 96.4669 165.957 96.7652 165.745 97.0072C165.533 97.2492 165.256 97.4244 164.946 97.5116C164.636 97.5988 164.308 97.5942 164.001 97.4984C163.694 97.4025 163.421 97.2196 163.216 96.9718C163.679 98.6691 162.449 99.1131 161.334 99.1733C162.37 99.7884 162.023 101.541 161.121 101.948C162.213 101.652 162.971 103.724 162.046 104.016C162.046 104.016 162.657 103.909 163.216 105.325C163.855 106.953 162.426 107.017 162.213 106.647C161.907 105.999 161.399 105.468 160.765 105.135C160.131 104.801 159.405 104.683 158.698 104.797C158.393 103.522 158.332 102.201 158.517 100.903C158.806 98.9503 159.731 97.1474 161.149 95.7739C160.15 94.1921 162.032 92.1248 163.605 93.318C163.401 91.8796 165.88 90.9685 166.819 92.689C167.36 91.1443 169.659 92.0878 169.4 93.2301C170.149 92.8231 171.167 93.8869 170.63 94.9969Z" fill="#604730"/>
<path d="M168.332 99.5293C169.853 102.79 172.161 101.005 172.744 103.465" stroke="#934735" stroke-width="0.346875" stroke-linecap="round" stroke-linejoin="round"/>
<path d="M167.046 104.988C169.682 105.733 171.523 105.247 171.958 104.988C171.958 104.988 172.217 107.329 169.858 107.139C169.222 107.124 168.607 106.908 168.102 106.521C167.597 106.135 167.227 105.598 167.046 104.988Z" fill="white" stroke="#934735" stroke-width="0.346875" stroke-linecap="round" stroke-linejoin="round"/>
<path d="M158.166 107.664C158.494 106.003 161.084 106.022 161.565 108.399" stroke="#934735" stroke-width="0.346875" stroke-linecap="round" stroke-linejoin="round"/>
<path d="M160.252 109.205C158.804 108.83 159.489 106.638 161.07 107.267" stroke="#934735" stroke-width="0.346875" stroke-linecap="round" stroke-linejoin="round"/>
<path d="M164.34 99.9822C164.225 100.755 167.115 99.085 166.519 98.1322C165.922 97.1795 164.447 99.233 164.34 99.9822Z" fill="#604730"/>
<path d="M171.699 97.1474C172.3 97.6469 169.03 98.3453 168.854 97.2492C168.679 96.153 171.116 96.6618 171.699 97.1474Z" fill="#604730"/>
<path d="M143.5 164.248C141.146 163.78 138.768 163.44 136.378 163.23" stroke="#934735" stroke-width="0.346875" stroke-linecap="round" stroke-linejoin="round"/>
<path d="M136.378 163.231C127.886 162.481 121.642 169.576 125.43 175.015C130.222 181.892 160.895 180.135 164.044 180.056C166.042 180.01 165.894 181.481 168.952 181.768C170.802 181.948 173.632 181.957 174.229 181.657C174.677 181.356 175.039 180.943 175.279 180.459C175.279 180.459 177.027 181.157 177.725 179.159C177.725 179.159 179.506 179.561 179.797 177.059C179.797 177.059 180.875 178.401 181.869 177.91C183.007 177.351 183.169 176.523 182.369 175.464C181.569 174.405 178.276 170.663 177.179 170.27C176.083 169.877 167.851 171.334 166.445 171.019C159.382 169.442 149.716 164.405 136.378 163.231Z" fill="#B25E47"/>
<path d="M172.309 181.888C172.957 181.911 173.605 181.833 174.229 181.656C174.677 181.355 175.039 180.942 175.279 180.458C175.279 180.458 177.027 181.157 177.725 179.159C177.725 179.159 179.506 179.561 179.797 177.059C179.797 177.059 180.875 178.4 181.869 177.91C183.007 177.35 183.169 176.523 182.369 175.463C181.569 174.404 178.276 170.663 177.179 170.27" stroke="#934735" stroke-width="0.346875" stroke-linecap="round" stroke-linejoin="round"/>
<path d="M180.024 177.31L177.517 174.562" stroke="#934735" stroke-width="0.346875" stroke-linecap="round" stroke-linejoin="round"/>
<path d="M177.725 179.159L175.098 177.494" stroke="#934735" stroke-width="0.346875" stroke-linecap="round" stroke-linejoin="round"/>
<path d="M175.279 180.459L173.484 179.908" stroke="#934735" stroke-width="0.346875" stroke-linecap="round" stroke-linejoin="round"/>
<path d="M128.658 82.5101L126.771 82.7044L124.542 82.9449L126.055 81.3631L127.451 79.9062L128.658 82.5101Z" fill="white"/>
<path d="M121.282 138.814C127.137 142.514 132.47 138.426 133.94 130.979C136.109 119.986 137.973 92.2127 137.973 92.2127C137.973 92.2127 140.947 85.7747 141.895 83.4483C142.843 81.122 142.691 79.0546 141.313 78.458C141.313 78.458 139.925 74.1567 137.788 74.0226C137.378 73.8033 136.949 73.6191 136.507 73.4722C135.439 73.2548 133.473 74.24 132.955 74.7857C132.437 75.3315 134.158 75.905 135.138 75.7431C136.119 75.5812 136.836 78.0556 136.396 79.1008C135.957 80.1461 134.084 82.2458 133.418 81.7001C132.752 81.1543 132.544 79.2673 132.816 77.792C133.089 76.3166 132.9 75.5766 131.915 76.1501C130.929 76.7236 129.019 81.5058 129.237 82.38C129.454 83.2541 130.712 86.8616 130.795 87.4675C130.879 88.0733 121.268 119.704 119.372 125.194C117.475 130.683 117.142 136.201 121.282 138.814Z" fill="#FEBD9D"/>
<path d="M141.312 78.457C141.425 79.1937 141.49 79.9367 141.507 80.6817" stroke="#EF8A66" stroke-width="0.346875" stroke-linecap="round" stroke-linejoin="round"/>
<path d="M138.792 77.2363C139.069 78.2534 139.224 79.2999 139.254 80.3536" stroke="#EF8A66" stroke-width="0.346875" stroke-linecap="round" stroke-linejoin="round"/>
<path d="M127.451 79.9044L130.592 78.1191C129.87 79.5991 129.204 81.4815 129.204 82.2123L128.645 82.5083C128.395 82.4161 128.166 82.2756 127.971 82.0947C127.776 81.9138 127.618 81.6961 127.507 81.4542C127.396 81.2123 127.334 80.9508 127.325 80.6848C127.315 80.4189 127.358 80.1537 127.451 79.9044Z" fill="#683F1D"/>
<path d="M126.771 82.7026L124.542 82.9431L126.055 81.3613L126.771 82.7026Z" fill="#683F1D"/>
<path d="M129.237 82.3839C129.019 81.5098 130.934 76.7229 131.915 76.1541C132.641 75.7286 132.937 76.0153 132.932 76.7923C132.924 77.1281 132.885 77.4625 132.816 77.7913C132.725 78.3072 132.685 78.8308 132.696 79.3546C132.696 79.4239 132.696 79.4933 132.696 79.5581V79.7569C132.696 79.854 132.696 79.9512 132.729 80.0437L132.77 80.3212C132.814 80.8414 133.034 81.3311 133.395 81.7087C134.079 82.259 135.938 80.1778 136.373 79.1187C136.464 78.8779 136.51 78.6222 136.507 78.3648" stroke="#EF8A66" stroke-width="0.346875" stroke-linecap="round" stroke-linejoin="round"/>
<path d="M134.722 75.7708C133.741 75.7708 132.502 75.2621 132.951 74.7857C133.473 74.24 135.439 73.2548 136.507 73.4722C136.949 73.618 137.377 73.8006 137.788 74.018" stroke="#EF8A66" stroke-width="0.346875" stroke-linecap="round" stroke-linejoin="round"/>
<path d="M140.369 76.3105C140.736 76.9962 141.045 77.7108 141.294 78.4473C142.191 78.8358 142.571 79.8348 142.46 81.1529" stroke="#EF8A66" stroke-width="0.346875" stroke-linecap="round" stroke-linejoin="round"/>
<path d="M142.358 75.2759L140.369 76.3211L136.53 78.3515L132.779 80.3218C132.642 79.4834 132.65 78.6276 132.802 77.7919C132.871 77.4631 132.91 77.1287 132.918 76.7929L134.708 75.7708L137.788 74.0179L140.808 72.3066L142.358 75.2759Z" fill="#683F1D"/>
<path d="M140.249 72.3058C140.078 73.0874 140.633 75.3722 142.071 75.8301L142.996 75.2566L141.215 71.7832L140.249 72.3058Z" fill="white"/>
<path d="M142.834 73.0739C143.371 74.0544 143.486 75.0164 143.098 75.2291C142.709 75.4419 141.96 74.8221 141.428 73.8416C140.896 72.8611 140.776 71.8991 141.165 71.6864C141.553 71.4736 142.298 72.0934 142.834 73.0739Z" fill="#683F1D"/>
<path d="M129.237 82.3839C129.019 81.5098 130.934 76.7229 131.915 76.1541C132.641 75.7286 132.937 76.0153 132.932 76.7923C132.924 77.1281 132.885 77.4625 132.816 77.7913C132.725 78.3072 132.685 78.8308 132.696 79.3546C132.696 79.4239 132.696 79.4933 132.696 79.5581V79.7569C132.696 79.854 132.696 79.9512 132.729 80.0437L132.77 80.3212C132.814 80.8414 133.034 81.3311 133.395 81.7087C134.079 82.259 135.938 80.1778 136.373 79.1187C136.464 78.8779 136.51 78.6222 136.507 78.3648" stroke="#EF8A66" stroke-width="0.346875" stroke-linecap="round" stroke-linejoin="round"/>
<path d="M77.0111 130.253C75.656 136.265 66.2811 134.341 65.7539 131.261C65.2266 128.181 66.0776 127.418 66.7991 121.775C67.3911 117.15 75.2443 117.062 76.6365 120.166C76.8608 120.667 76.9128 121.228 76.7845 121.761C76.492 123.337 76.4842 124.952 76.7614 126.53C76.9602 128.01 77.2285 129.268 77.0111 130.253Z" fill="#FEBD9D"/>
<path d="M76.7845 121.762C76.492 123.337 76.4842 124.952 76.7614 126.53C72.7561 125.374 72.0577 120.878 72.0577 120.878L76.6365 120.166C76.8608 120.667 76.9128 121.228 76.7845 121.762Z" fill="#F4A789"/>
<path d="M52.9519 172.812L61.9706 176.272C61.9706 176.272 60.7172 186.697 60.6201 186.544C60.523 186.392 45.4409 184.819 45.4409 184.819L52.9519 172.812Z" fill="#FEBD9D"/>
<path d="M39.8169 178.88C41.0749 183.427 44.2291 185.083 47.2493 184.981C50.2694 184.879 54.4504 183.293 56.0044 178.524C57.193 174.875 54.6169 170.5 54.6169 170.5L39.8169 178.88Z" fill="white"/>
<path d="M56.9849 232.673C56.9849 232.673 58.1411 226.365 55.6945 215.926C54.6485 211.849 54.1815 207.645 54.307 203.438C54.5891 197 56.5825 189.809 61.4896 180.027L92.9396 178.736C94.3456 183.112 95.6221 187.132 96.7691 190.798C100.252 201.898 102.624 209.9 104.285 215.311C106.496 222.507 110.233 232.678 110.233 232.678L56.9849 232.673Z" fill="#FED81D"/>
<path d="M96.7876 190.802C93.4715 200.441 88.754 204.807 76.5532 200.316C65.5827 196.283 61.559 193.378 54.3255 203.442C54.6076 197.004 56.601 189.812 61.5081 180.031L92.9581 178.74C94.3641 183.115 95.6406 187.136 96.7876 190.802Z" fill="#FFE05C"/>
<path d="M93.86 162.47C92.1256 169.199 93.7305 176.507 94.4335 178.107C95.1365 179.707 94.563 180.803 93.5409 180.993C92.5188 181.183 62.3869 182.085 61.0364 181.89C59.6859 181.696 59.2465 180.674 59.2465 179.522C59.2465 178.371 56.8739 170.272 55.7176 167.035C55.7176 167.035 55.5927 176.072 53.0906 178.764C50.5885 181.456 44.7656 182.547 41.1072 180.563C40.425 180.131 39.94 179.448 39.7568 178.662C38.3693 174.342 40.5153 164.477 42.0045 157.424C42.5965 154.594 43.4521 151.055 44.5436 147.522C46.7405 140.404 49.8994 133.291 53.7936 132.019C62.4794 129.184 68.8018 130.289 73.4083 129.859C74.842 129.72 76.2295 129.554 77.5708 129.397H77.6216C84.9245 128.472 90.5161 127.625 93.2911 132.32C93.7205 133.064 94.059 133.858 94.2994 134.683C96.0153 140.344 95.303 144.076 94.9284 149.303C94.9284 149.511 94.9053 149.719 94.8914 149.932C95.2486 154.139 94.9001 158.377 93.86 162.47Z" fill="#C5AFF9"/>
<path d="M55.7176 167.018C55.7176 167.018 55.5927 176.055 53.0906 178.747C50.5885 181.439 44.7656 182.53 41.1072 180.546C40.425 180.114 39.9399 179.432 39.7567 178.645C51.5366 182.146 55.4586 169.613 52.3182 167.3C49.2611 165.048 49.3073 159.008 51.1758 155.867C52.42 159.47 54.7602 164.058 55.7176 167.018Z" fill="#9065F2"/>
<path d="M93.2865 132.274C89.9519 134.818 87.1584 138.074 86.0345 142.296C85.276 145.136 84.0458 147.351 82.3854 148.924C77.8853 153.207 70.217 152.753 60.2964 147.171C53.4283 143.314 48.7339 144.132 44.5436 147.49C46.7405 140.372 49.8994 133.259 53.7936 131.987C62.4794 129.152 68.8018 130.257 73.4083 129.827C74.842 129.688 76.2295 129.522 77.5708 129.365H77.6216C84.9199 128.458 90.5115 127.598 93.2865 132.274Z" fill="#E1D4FB"/>
<path d="M50.3804 152.656C50.5167 153.756 50.7838 154.835 51.1759 155.871C52.42 159.469 54.7602 164.057 55.7176 167.017" stroke="#7444DC" stroke-width="0.346875" stroke-linecap="round" stroke-linejoin="round"/>
<path d="M126.554 140.461C124.644 141.733 113.845 144.748 105.339 147.19C101.934 148.183 98.449 148.881 94.9238 149.276C91.8133 149.636 88.6751 149.694 85.5535 149.447C84.4791 149.358 83.4136 149.183 82.3669 148.924C69.0978 145.715 71.2114 130.512 77.5476 129.356H77.5985C86.6389 127.763 95.7565 126.644 104.914 126.003C108.882 125.758 112.934 125.647 116.842 125.749C132.039 126.16 128.464 139.212 126.554 140.461Z" fill="#C5AFF9"/>
<path d="M126.554 140.461C124.644 141.733 113.845 144.748 105.339 147.19C101.934 148.183 98.449 148.881 94.9238 149.276C91.8133 149.637 88.6751 149.694 85.5535 149.447" stroke="#7444DC" stroke-width="0.346875" stroke-linecap="round" stroke-linejoin="round"/>
<path d="M104.932 126.018C101.44 127.465 97.0235 129.435 93.2865 132.294C89.9519 134.837 87.1584 138.093 86.0345 142.316C85.276 145.156 84.0457 147.371 82.3854 148.944C69.1162 145.734 71.2299 130.532 77.5661 129.375H77.617C86.6574 127.781 95.7749 126.66 104.932 126.018Z" fill="#E1D4FB"/>
<path d="M115.436 125.73C117.776 124.833 120.324 125.013 123.58 126.567C127.391 128.389 130.693 133.075 129.084 139.517C128.82 140.558 124.769 142.722 124.098 142.246C123.428 141.77 128.737 128.574 115.436 125.73Z" fill="white"/>
<path d="M68.0293 122.304C76.063 124.204 80.1191 123.386 81.1551 119.154C82.1911 114.922 77.876 108.489 77.876 108.489L78.2182 106.176C77.2601 105.735 76.3247 105.245 75.4155 104.71C74.9807 104.363 73.5655 100.779 72.2612 100.432C70.957 100.085 61.8133 104.793 64.5328 112.563C67.2523 120.333 68.0293 122.304 68.0293 122.304Z" fill="#FEBD9D"/>
<path d="M75.8271 110.695C75.5496 111.574 74.102 111.907 72.5896 111.435C71.0772 110.963 70.0828 109.862 70.3557 108.979C70.6286 108.096 72.0808 107.763 73.5932 108.239C75.1056 108.715 76.1046 109.811 75.8271 110.695Z" fill="#F4AF90"/>
<path d="M77.8621 108.488L78.2044 106.175C77.2462 105.734 76.3108 105.244 75.4016 104.709" stroke="#EF8A66" stroke-width="0.346875" stroke-linecap="round" stroke-linejoin="round"/>
<path d="M71.29 138.555C67.5114 139.48 66.5771 135.655 66.5771 135.655C63.5292 138.814 59.9264 137.908 59.0939 136.238C59.0939 136.238 55.9905 137.519 53.5069 135.655C50.0936 133.098 52.3182 129.291 52.3182 129.291C48.7385 128.366 49.3952 124.791 51.4487 123.279L51.754 123.066C53.8907 121.678 57.7295 120.753 56.3189 117.978C54.8481 115.023 53.641 110.953 57.4381 108.678C57.4381 108.678 57.6324 104.288 60.3611 102.85C63.0899 101.412 63.2702 100.843 63.3304 100.029C63.5385 97.0318 66.369 94.2013 69.5787 96.4074C69.6805 96.4768 69.7869 96.5508 69.8886 96.6294C73.325 96.2872 74.2315 99.5201 73.6534 101.079C74.8836 105.112 71.9514 108.136 72.7839 109.547C73.7366 111.157 73.0105 113.081 73.0105 113.081C71.5906 110.828 69.8424 110.116 68.6399 112.045C67.664 113.617 68.4595 115.675 71.6184 117.636C74.9992 119.736 73.399 122.432 72.659 124.463C72.2272 125.651 72.0822 126.925 72.2357 128.181C72.3892 129.436 72.8369 130.637 73.5424 131.687C75.175 134.013 75.0686 137.649 71.29 138.555Z" fill="#7F542D"/>
<path d="M71.29 138.554C67.5114 139.479 66.5771 135.655 66.5771 135.655C63.5292 138.813 59.9264 137.907 59.0939 136.237C59.0939 136.237 55.9905 137.518 53.5069 135.655C50.0936 133.097 52.3182 129.291 52.3182 129.291C48.7385 128.366 49.3952 124.79 51.4487 123.278L51.754 123.065C53.1924 127.103 55.8101 129.286 58.4787 128.657C62.0261 127.834 64.0287 125.882 67.3495 127.926C70.6702 129.97 71.6646 120.434 66.7991 118.995C61.9336 117.557 60.9994 109.375 65.2081 108.358C68.3577 107.618 71.1882 101.249 69.5787 96.3652C69.6805 96.4346 69.7869 96.5086 69.8886 96.5872C73.325 96.245 74.2315 99.4779 73.6534 101.036C74.8836 105.069 71.9514 108.094 72.7839 109.505C73.7366 111.114 73.0105 113.038 73.0105 113.038C71.5906 110.786 69.8424 110.074 68.6399 112.002C67.664 113.575 68.4595 115.633 71.6184 117.594C74.9992 119.694 73.399 122.39 72.659 124.42C72.2272 125.609 72.0822 126.883 72.2357 128.138C72.3892 129.394 72.8369 130.595 73.5424 131.645C75.175 134.013 75.0686 137.648 71.29 138.554Z" fill="#704725"/>
<path d="M74.361 106.961C74.361 107.083 74.3971 107.201 74.4646 107.303C74.5322 107.404 74.6283 107.483 74.7407 107.529C74.8531 107.576 74.9768 107.588 75.0961 107.564C75.2154 107.54 75.325 107.482 75.4111 107.396C75.4971 107.31 75.5557 107.2 75.5794 107.081C75.6031 106.962 75.591 106.838 75.5444 106.725C75.4978 106.613 75.419 106.517 75.3178 106.449C75.2167 106.382 75.0978 106.346 74.9761 106.346C74.8952 106.345 74.8149 106.361 74.74 106.391C74.6651 106.422 74.597 106.467 74.5398 106.525C74.4825 106.582 74.4372 106.65 74.4065 106.725C74.3759 106.8 74.3604 106.88 74.361 106.961Z" fill="#683F1D"/>
<path d="M52.3043 129.296C54.0572 125.823 55.6528 125.924 57.1421 124.777C58.6313 123.63 59.2834 121.244 58.9921 120.152" stroke="#A56F42" stroke-width="0.346875" stroke-linecap="round" stroke-linejoin="round"/>
<path d="M59.0939 136.239C58.6207 135.471 58.4099 134.57 58.4934 133.671C58.5768 132.773 58.9498 131.926 59.5564 131.258" stroke="#A56F42" stroke-width="0.346875" stroke-linecap="round" stroke-linejoin="round"/>
<path d="M66.5771 135.655C66.3509 135.067 66.2509 134.439 66.2836 133.81C66.3162 133.182 66.4809 132.567 66.7667 132.006" stroke="#A56F42" stroke-width="0.346875" stroke-linecap="round" stroke-linejoin="round"/>
<path d="M63.7142 103.063C65.7677 102.601 65.9666 101.135 66.5817 99.9277C67.1969 98.7205 68.1496 96.852 69.8886 96.5977" stroke="#A56F42" stroke-width="0.346875" stroke-linecap="round" stroke-linejoin="round"/>
<path d="M73.6534 101.047C73.029 99.6596 71.0495 97.9993 69.2134 99.6596" stroke="#A56F42" stroke-width="0.346875" stroke-linecap="round" stroke-linejoin="round"/>
<path d="M70.0875 114.616C70.0458 112.877 71.7617 112.47 73.0937 113.798" stroke="#EF8A66" stroke-width="0.346875" stroke-linecap="round" stroke-linejoin="round"/>
<path d="M72.3954 115.37C71.0541 115.37 71.0079 113.358 72.7145 113.474" stroke="#EF8A66" stroke-width="0.346875" stroke-linecap="round" stroke-linejoin="round"/>
<path d="M76.5532 111.086C76.8004 111.399 77.1318 111.636 77.5086 111.768C77.8854 111.9 78.292 111.922 78.6807 111.831" stroke="#EF8A66" stroke-width="0.346875" stroke-linecap="round" stroke-linejoin="round"/>
<path d="M69.8793 116.295C70.8968 117.114 72.733 116.998 72.733 116.998" stroke="#EF8A66" stroke-width="0.346875" stroke-linecap="round" stroke-linejoin="round"/>
<path d="M73.8291 117.978C74.5494 117.978 75.1333 117.394 75.1333 116.673C75.1333 115.953 74.5494 115.369 73.8291 115.369C73.1088 115.369 72.5248 115.953 72.5248 116.673C72.5248 117.394 73.1088 117.978 73.8291 117.978Z" fill="white"/>
<path d="M72.8393 106.374C73.4776 106.79 75.0131 103.84 73.8106 103.03C72.6081 102.221 71.9791 105.815 72.8393 106.374Z" fill="#7F542D"/>
<path d="M331.844 230.33H45.0153C42.4891 230.33 40.4412 232.378 40.4412 234.904V235.621C40.4412 238.147 42.4891 240.195 45.0153 240.195H331.844C334.37 240.195 336.418 238.147 336.418 235.621V234.904C336.418 232.378 334.37 230.33 331.844 230.33Z" fill="#EDEDED"/>
<path d="M46.6942 230.326C54.1728 234.489 59.1447 234.151 68.3716 234.026C75.2443 233.938 83.5185 237.439 89.0268 240.191" stroke="#DDDDDD" stroke-width="0.346875" stroke-linecap="round" stroke-linejoin="round"/>
<path d="M82.1911 230.326C87.6162 236.427 91.381 237.19 93.2032 235.617C95.1365 233.948 97.1252 233.494 99.1787 235.256C101.556 237.301 104.863 233.161 106.722 230.326" stroke="#DDDDDD" stroke-width="0.346875" stroke-linecap="round" stroke-linejoin="round"/>
<path d="M127.336 230.326C135.799 234.766 145.049 237.365 152.523 235.256C159.817 233.208 177.235 235.761 183.571 230.326" stroke="#DDDDDD" stroke-width="0.346875" stroke-linecap="round" stroke-linejoin="round"/>
<path d="M189.204 240.195C199.282 232.36 219.401 230.945 236.204 235.219C256.091 240.283 265.008 234.437 268.62 230.33" stroke="#DDDDDD" stroke-width="0.346875" stroke-linecap="round" stroke-linejoin="round"/>
<path d="M288.179 230.326C308.312 237.088 324.971 242.323 335.946 233.147" stroke="#DDDDDD" stroke-width="0.346875" stroke-linecap="round" stroke-linejoin="round"/>
<path d="M304.237 230.326C314.454 236.339 326.386 235.876 333.731 230.867" stroke="#DDDDDD" stroke-width="0.346875" stroke-linecap="round" stroke-linejoin="round"/>
</g>
<defs>
<clipPath id="clip0_7350_18149">
<path d="M0.333496 8C0.333496 3.58173 3.91522 0 8.3335 0H371C375.418 0 379 3.58172 379 8V232H0.333496V8Z" fill="white"/>
</clipPath>
</defs>
</svg>
