<svg width="20" height="20" viewBox="0 0 20 20" fill="none" xmlns="http://www.w3.org/2000/svg">
<g clip-path="url(#clip0_7246_2716)">
<path fill-rule="evenodd" clip-rule="evenodd" d="M6.68661 2.04853C6.14638 0.427834 3.85395 0.427835 3.31372 2.04853C3.11468 2.64564 2.64613 3.11419 2.04902 3.31323C0.428323 3.85346 0.428323 6.14589 2.04902 6.68612C2.64613 6.88515 3.11468 7.35371 3.31372 7.95082C3.85395 9.57151 6.14638 9.57151 6.68661 7.95082C6.88564 7.35371 7.3542 6.88515 7.95131 6.68612C9.572 6.14589 9.572 3.85346 7.95131 3.31323C7.3542 3.11419 6.88564 2.64564 6.68661 2.04853ZM4.89486 2.57557C4.90828 2.53531 4.92393 2.52339 4.93205 2.5179C4.94532 2.50891 4.96884 2.49967 5.00016 2.49967C5.03149 2.49967 5.05501 2.50891 5.06828 2.5179C5.0764 2.52339 5.09204 2.53531 5.10547 2.57557C5.4704 3.67036 6.32948 4.52944 7.42426 4.89437C7.46453 4.90779 7.47645 4.92344 7.48194 4.93156C7.49092 4.94483 7.50016 4.96835 7.50016 4.99967C7.50016 5.031 7.49092 5.05452 7.48194 5.06779C7.47645 5.07591 7.46453 5.09156 7.42426 5.10498C6.32948 5.46991 5.4704 6.32899 5.10547 7.42377C5.09204 7.46404 5.0764 7.47596 5.06828 7.48145C5.05501 7.49043 5.03149 7.49967 5.00016 7.49967C4.96884 7.49967 4.94532 7.49043 4.93205 7.48145C4.92393 7.47596 4.90828 7.46404 4.89486 7.42377C4.52993 6.32899 3.67085 5.46991 2.57606 5.10498C2.53579 5.09156 2.52388 5.07591 2.51838 5.06779C2.5094 5.05452 2.50016 5.031 2.50016 4.99967C2.50016 4.96835 2.5094 4.94483 2.51838 4.93156C2.52388 4.92344 2.53579 4.90779 2.57606 4.89437C3.67085 4.52944 4.52993 3.67036 4.89486 2.57557Z" fill="#344054"/>
<path fill-rule="evenodd" clip-rule="evenodd" d="M14.8585 7.53281C14.103 5.26641 10.8973 5.26641 10.1418 7.53281C9.73129 8.76438 8.76487 9.7308 7.5333 10.1413C5.26689 10.8968 5.26689 14.1026 7.5333 14.858C8.76487 15.2685 9.73129 16.235 10.1418 17.4665C10.8973 19.7329 14.103 19.7329 14.8585 17.4665C15.269 16.235 16.2355 15.2685 17.467 14.858C19.7334 14.1026 19.7334 10.8968 17.467 10.1413C16.2355 9.7308 15.269 8.76438 14.8585 7.53281ZM11.723 8.05986C11.9719 7.31295 13.0284 7.31295 13.2774 8.05986C13.8538 9.7891 15.2107 11.146 16.94 11.7225C17.6869 11.9714 17.6869 13.0279 16.94 13.2769C15.2107 13.8533 13.8538 15.2102 13.2774 16.9395C13.0284 17.6864 11.9719 17.6864 11.723 16.9395C11.1465 15.2102 9.78959 13.8533 8.06034 13.2769C7.31344 13.0279 7.31344 11.9714 8.06035 11.7225C9.78959 11.146 11.1465 9.7891 11.723 8.05986Z" fill="#344054"/>
</g>
<defs>
<clipPath id="clip0_7246_2716">
<rect width="20" height="20" fill="white"/>
</clipPath>
</defs>
</svg>
