<svg width="1440" height="60" viewBox="0 0 1440 60" fill="none" xmlns="http://www.w3.org/2000/svg">
<mask id="path-1-outside-1_2_43378" maskUnits="userSpaceOnUse" x="0" y="0" width="1440" height="60" fill="black">
<rect fill="white" width="1440" height="60"/>
<path d="M0 0H1440V58.5885H0V0Z"/>
</mask>
<path d="M0 0H1440V58.5885H0V0Z" fill="white"/>
<path d="M1440 57.5885H0V59.5885H1440V57.5885Z" fill="#D7D7EB" mask="url(#path-1-outside-1_2_43378)"/>
<path d="M698.818 23.9504L698.827 23.8214H698.947V22.1325V22.0443L698.865 22.0123C698.551 21.8904 698.174 21.8437 697.782 21.8437C696.271 21.8437 695.082 22.5216 694.444 23.7089V22.1552V22.0262H694.315H692.424H692.295V22.1552V33.7041V33.833H692.424H694.315H694.444V33.7041V27.7927C694.444 26.4529 694.761 25.4786 695.332 24.8402C695.9 24.2042 696.739 23.8818 697.827 23.8818C698.121 23.8818 698.398 23.8993 698.689 23.9347V23.9504H698.818H698.818Z" fill="#101928" stroke="#101928" stroke-width="0.257966"/>
<path d="M710.865 33.833H710.994V33.7041V22.2842V22.1552V22.1546H710.865V22.0262H708.974H708.845V22.1552V23.7587C708.054 22.4907 706.512 21.7065 704.764 21.7065C701.55 21.7065 699.208 24.311 699.208 27.9293C699.208 31.5476 701.55 34.1528 704.764 34.1528C706.512 34.1528 708.054 33.3686 708.845 32.1005V33.7041V33.833H708.974H710.865ZM707.886 24.9097L707.886 24.9097L707.888 24.9112C708.583 25.682 708.935 26.6991 708.935 27.9287C708.935 29.1583 708.583 30.1755 707.888 30.9463L707.886 30.9478C707.215 31.7162 706.306 32.1135 705.191 32.1135C704.078 32.1135 703.168 31.7166 702.473 30.947C701.8 30.1758 701.448 29.158 701.448 27.9287C701.448 26.6995 701.8 25.6817 702.473 24.9105C703.168 24.1408 704.078 23.744 705.191 23.744C706.306 23.744 707.215 24.1413 707.886 24.9097Z" fill="#101928" stroke="#101928" stroke-width="0.257966"/>
<path d="M723.328 22.1548V22.0258H723.199H723.198H721.307H721.178V22.1548V28.705C721.178 29.6284 720.821 30.3976 720.219 30.9372C719.616 31.4779 718.758 31.7945 717.75 31.7945C716.883 31.7945 716.273 31.5617 715.875 31.0874C715.474 30.608 715.267 29.8572 715.267 28.7736V22.1548V22.0258H715.138H713.247H713.118V22.1548V29.23C713.118 30.7006 713.501 31.8542 714.224 32.6411C714.949 33.4297 716 33.8326 717.3 33.8326C719.003 33.8326 720.413 33.1623 721.178 31.9375V32.5851C721.178 33.97 720.845 34.9901 720.241 35.6629C719.638 36.3335 718.749 36.6786 717.593 36.6786C716.27 36.6786 714.997 36.2095 714.1 35.3886L713.998 35.2959L713.912 35.4029L712.809 36.7726L712.738 36.8612L712.817 36.9431C713.906 38.0705 715.699 38.7173 717.638 38.7173C719.42 38.7173 720.848 38.184 721.83 37.139C722.81 36.0952 723.328 34.5588 723.328 32.5857V22.1548Z" fill="#101928" stroke="#101928" stroke-width="0.257966"/>
<path d="M735.51 33.8327H735.639V33.7037V33.7031V26.3081C735.639 24.8607 735.268 23.7074 734.55 22.9147C733.831 22.1201 732.78 21.7055 731.457 21.7055C729.761 21.7055 728.371 22.3714 727.624 23.5887V22.1542V22.0252H727.495H725.604H725.475V22.1542V33.7037V33.8327H725.604H727.495H727.624V33.7037V26.8337C727.624 25.898 727.976 25.1289 728.569 24.5926C729.164 24.0553 730.01 23.7442 731.007 23.7442C731.886 23.7442 732.495 23.9772 732.89 24.451C733.289 24.9302 733.49 25.6809 733.49 26.7651V33.7037V33.8327H733.619H735.51Z" fill="#101928" stroke="#101928" stroke-width="0.257966"/>
<path d="M749.065 33.833H749.194V33.7041V22.2842V22.1552V22.1546H749.065V22.0262H747.174H747.045V22.1552V23.7587C746.254 22.4907 744.712 21.7065 742.963 21.7065C739.75 21.7065 737.408 24.311 737.408 27.9293C737.408 31.5476 739.75 34.1528 742.963 34.1528C744.712 34.1528 746.254 33.3686 747.045 32.1005V33.7041V33.833H747.174H749.065ZM746.086 24.9097L746.086 24.9097L746.087 24.9112C746.783 25.682 747.135 26.6991 747.135 27.9287C747.135 29.1583 746.783 30.1755 746.087 30.9463L746.086 30.9478C745.415 31.7162 744.506 32.1135 743.391 32.1135C742.278 32.1135 741.368 31.7166 740.673 30.947C740 30.1758 739.647 29.158 739.647 27.9287C739.647 26.6995 740 25.6817 740.673 24.9105C741.368 24.1408 742.278 23.744 743.391 23.744C744.506 23.744 745.415 24.1413 746.086 24.9097Z" fill="#101928" stroke="#101928" stroke-width="0.257966"/>
<path d="M757.779 22.1548V22.0258H757.65H755.759H755.758H755.629V22.1548V29.3905C755.629 30.7918 756.131 31.9852 757.017 32.8278C757.903 33.6699 759.164 34.153 760.667 34.153C762.169 34.153 763.43 33.6699 764.316 32.8278C765.202 31.9852 765.704 30.7918 765.704 29.3905V22.1548V22.0258H765.575H763.684H763.555V22.1548V29.276C763.555 30.2101 763.287 30.9147 762.803 31.3863C762.319 31.8583 761.601 32.1143 760.667 32.1143C759.733 32.1143 759.015 31.8583 758.531 31.3863C758.048 30.9147 757.779 30.2101 757.779 29.276V22.1548Z" fill="#101928" stroke="#101928" stroke-width="0.257966"/>
<path d="M768.109 22.0258H767.98V22.1548V33.7042V33.8332H768.109H770H770.129V33.7042V22.1548V22.0258H770H768.109Z" fill="#101928" stroke="#101928" stroke-width="0.257966"/>
<path d="M683.963 29.9578L682.95 28.9443C682.924 28.9186 682.933 28.8757 682.966 28.8613C683.324 28.7068 683.659 28.5076 683.963 28.2719C684.073 28.1872 684.178 28.0983 684.278 28.0047C684.573 27.7315 684.831 27.4206 685.046 27.0794C685.046 27.0782 685.047 27.0776 685.047 27.0764C685.178 26.8694 685.292 26.6511 685.389 26.4238C685.622 25.8749 685.752 25.2718 685.754 24.6383C685.754 24.6383 685.754 24.6377 685.754 24.6371C685.754 24.6311 685.754 24.6252 685.754 24.6192C685.754 23.9862 685.627 23.3837 685.397 22.8343C685.32 22.6499 685.231 22.4716 685.132 22.3003C685.132 22.2992 685.13 22.2986 685.13 22.298C684.682 21.5284 684.018 20.9008 683.222 20.4969C683.219 20.4951 683.215 20.4934 683.212 20.4922C682.596 20.1814 681.555 20.0048 680.818 20C680.808 20 681.145 20 681.135 20C681.125 20 681.116 20 681.105 20H671.376C670.616 20 670 20.6162 670 21.3763V31.1897C670 31.5077 670.032 31.8185 670.093 32.1186C670.093 32.1192 670.093 32.1198 670.093 32.121C670.208 32.6805 670.424 33.2037 670.721 33.6696C670.721 33.6708 670.722 33.6714 670.723 33.6726C671.22 34.4523 671.946 35.0728 672.805 35.4396C672.808 35.4408 672.811 35.442 672.814 35.4432C672.82 35.4462 672.827 35.4492 672.834 35.4522C673.276 35.6377 673.753 35.7558 674.252 35.7952C674.373 35.8047 674.495 35.8095 674.618 35.8095C675.255 35.8095 675.862 35.6806 676.414 35.4474C676.804 35.2827 677.166 35.0662 677.493 34.8061C677.494 34.8061 677.494 34.8055 677.495 34.8049C677.501 34.8001 677.507 34.7954 677.513 34.79C677.515 34.7888 677.517 34.787 677.519 34.7858C677.942 34.444 678.303 34.0294 678.584 33.5605C678.981 32.8965 679.217 32.1251 679.236 31.3001V31.2983C679.236 31.2625 679.237 31.2267 679.237 31.1909C679.237 31.1551 679.237 31.1193 679.236 31.0835V29.434C679.236 29.3631 679.322 29.3273 679.372 29.3774L683.555 33.5605L684.534 34.5394C684.985 34.991 685.757 34.6713 685.757 34.0329V32.2653C685.757 31.9384 685.627 31.6246 685.395 31.3932L683.961 29.959L683.963 29.9578ZM681.133 26.4238H676.727C676.555 26.4238 676.415 26.5634 676.415 26.7364V31.2285V31.2291C676.358 32.489 675.09 33.3051 673.926 32.8177C673.298 32.5547 672.872 31.948 672.834 31.2613V23.1099C672.834 22.9595 672.956 22.8373 673.107 22.8373L676.873 22.8349C676.873 22.8349 676.873 22.8361 676.873 22.8367C677.663 22.8367 678.479 22.8367 679.237 22.8367C679.944 22.8367 680.601 22.8367 681.138 22.8378C682.11 22.839 682.912 23.648 682.915 24.6168C682.919 25.6101 682.131 26.4101 681.133 26.4244V26.4238Z" fill="#E8562E"/>
</svg>
