<svg width="374" height="341" viewBox="0 0 374 341" fill="none" xmlns="http://www.w3.org/2000/svg">
<g clip-path="url(#clip0_7395_6129)">
<path d="M0 62.2758C0 27.8818 27.8818 0 62.2758 0C96.6697 0 124.552 27.8818 124.552 62.2758V114.75H0V62.2758Z" fill="#FEA900"/>
<path d="M124.552 62.2758C124.552 27.8818 152.433 0 186.827 0H191.728C223.415 0 249.103 25.6877 249.103 57.375C249.103 89.0623 223.415 114.75 191.728 114.75H124.552V62.2758Z" fill="#00AAFE"/>
<path d="M249.103 0H316.28C347.967 0 373.655 25.6877 373.655 57.375C373.655 89.0623 347.967 114.75 316.28 114.75H249.103V0Z" fill="#9065F2"/>
<path d="M0 177.026C0 142.632 27.8818 114.75 62.2758 114.75C96.6697 114.75 124.552 142.632 124.552 177.026V229.5H47.9256C21.457 229.5 0 208.043 0 181.574V177.026Z" fill="#00AAFE"/>
<rect x="124.552" y="114.75" width="124.552" height="114.75" rx="57.375" fill="#9065F2"/>
<path d="M249.103 114.75H316.28C347.967 114.75 373.655 140.438 373.655 172.125C373.655 203.812 347.967 229.5 316.28 229.5H311.379C276.985 229.5 249.103 201.618 249.103 167.224V114.75Z" fill="#FEA900"/>
<path d="M0 292.526C0 258.132 27.8818 230.25 62.2758 230.25H67.1765C98.8639 230.25 124.552 255.938 124.552 287.625C124.552 319.312 98.8639 345 67.1766 345H0V292.526Z" fill="#9065F2"/>
<path d="M124.552 230.25H249.103V282.724C249.103 317.118 221.221 345 186.827 345C152.433 345 124.552 317.118 124.552 282.724V230.25Z" fill="#00AAFE"/>
<path d="M249.103 230.25H316.28C347.967 230.25 373.655 255.938 373.655 287.625C373.655 319.312 347.967 345 316.28 345H311.379C276.985 345 249.103 317.118 249.103 282.724V230.25Z" fill="#FEA900"/>
</g>
<defs>
<clipPath id="clip0_7395_6129">
<rect width="373.655" height="345" fill="white"/>
</clipPath>
</defs>
</svg>
