<svg width="134" height="29" viewBox="0 0 134 29" fill="none" xmlns="http://www.w3.org/2000/svg">
<path fill-rule="evenodd" clip-rule="evenodd" d="M16.9858 23.3526C16.0433 23.6885 15.0282 23.8714 13.9704 23.8714C9.01037 23.8714 4.98944 19.8504 4.98944 14.8904C4.98944 9.93029 9.01037 5.90937 13.9704 5.90937C15.2029 5.90937 16.3774 6.15763 17.4466 6.60686L21.15 2.90346C19.0519 1.64405 16.5957 0.919922 13.9704 0.919922C6.25478 0.919922 0 7.1747 0 14.8904C0 22.606 6.25478 28.8608 13.9704 28.8608C16.4284 28.8608 18.7381 28.226 20.7446 27.1115L16.9858 23.3526Z" fill="#824CF6"/>
<path fill-rule="evenodd" clip-rule="evenodd" d="M18.6606 19.1807C21.0304 19.1807 22.9515 17.2595 22.9515 14.8897C22.9515 12.5199 21.0304 10.5988 18.6606 10.5988C16.2908 10.5988 14.3696 12.5199 14.3696 14.8897C14.3696 17.2595 16.2908 19.1807 18.6606 19.1807ZM18.6606 24.1701C23.786 24.1701 27.9409 20.0151 27.9409 14.8897C27.9409 9.76434 23.786 5.60938 18.6606 5.60938C13.5352 5.60938 9.38021 9.76434 9.38021 14.8897C9.38021 20.0151 13.5352 24.1701 18.6606 24.1701Z" fill="#662AE7"/>
<path d="M44.9787 24.4092C39.9877 24.4092 36.4556 20.8772 36.4556 14.9392C36.4556 9.15479 39.8085 5.41797 45.0299 5.41797C49.7905 5.41797 52.3499 7.84946 53.1434 12.175L49.0994 12.3285C48.6643 10.0506 47.2822 8.69409 45.0299 8.69409C42.1377 8.69409 40.4484 11.1512 40.4484 14.9392C40.4484 18.7784 42.2144 21.1331 45.0043 21.1331C47.4614 21.1331 48.7923 19.6742 49.1506 17.2171L53.2202 17.3707C52.4779 21.7986 49.6881 24.4092 44.9787 24.4092Z" fill="black"/>
<path d="M62.0873 24.3069C57.8898 24.3069 55.1256 21.4914 55.1256 17.1403C55.1256 12.8148 57.8898 9.97382 62.0873 9.97382C66.2849 9.97382 69.0491 12.8148 69.0491 17.1403C69.0491 21.4914 66.2849 24.3069 62.0873 24.3069ZM62.0873 21.3635C64.0069 21.3635 65.0819 19.8022 65.0819 17.1403C65.0819 14.4785 64.0069 12.9172 62.0873 12.9172C60.1677 12.9172 59.0672 14.4785 59.0672 17.1403C59.0672 19.8022 60.1677 21.3635 62.0873 21.3635Z" fill="black"/>
<path d="M75.1966 23.9997C72.9699 23.9997 71.6133 22.9503 71.6133 20.4165V5.82748H75.4526V20.0069C75.4526 20.826 75.8365 21.1331 76.5531 21.1331H77.4745V23.9997H75.1966Z" fill="black"/>
<path d="M83.3449 23.9997C81.1182 23.9997 79.7617 22.9503 79.7617 20.4165V5.82748H83.6009V20.0069C83.6009 20.826 83.9848 21.1331 84.7014 21.1331H85.6229V23.9997H83.3449Z" fill="black"/>
<path d="M92.2307 24.3069C89.3641 24.3069 87.4189 22.9247 87.4189 20.57C87.4189 18.1641 88.929 16.9356 91.9236 16.3213L96.3514 15.4511C96.3514 13.6595 95.5324 12.7636 93.9967 12.7636C92.5634 12.7636 91.7444 13.4547 91.4884 14.7344L87.6492 14.5553C88.1611 11.5351 90.4391 9.97382 93.9967 9.97382C98.0919 9.97382 100.191 11.9702 100.191 15.707V20.3909C100.191 21.1587 100.447 21.3635 100.958 21.3635H101.342V23.9997C101.086 24.0765 100.498 24.1533 99.9603 24.1533C98.5526 24.1533 97.2984 23.667 96.9657 21.9266C96.2491 23.3855 94.5598 24.3069 92.2307 24.3069ZM93.1521 21.6706C95.0717 21.6706 96.3514 20.4932 96.3514 18.5225V17.857L93.2289 18.5225C91.9747 18.7784 91.3605 19.3159 91.3605 20.2117C91.3605 21.1331 91.9747 21.6706 93.1521 21.6706Z" fill="black"/>
<path d="M111.64 24.3069C109.72 24.3069 108.261 23.4622 107.494 21.9777L107.417 23.9997H103.757V5.82748H107.596V12.2262C108.313 10.9464 109.771 9.97382 111.64 9.97382C115.121 9.97382 117.347 12.7892 117.347 17.1403C117.347 21.4914 115.121 24.3069 111.64 24.3069ZM110.565 21.3635C112.28 21.3635 113.406 19.8022 113.406 17.1403C113.406 14.4785 112.305 12.9172 110.59 12.9172C108.696 12.9172 107.596 14.4785 107.596 17.1403C107.596 19.7766 108.696 21.3635 110.565 21.3635Z" fill="black"/>
<path d="M126.099 24.3069C121.902 24.3069 119.137 21.4914 119.137 17.1403C119.137 12.8148 121.902 9.97382 126.099 9.97382C130.297 9.97382 133.061 12.8148 133.061 17.1403C133.061 21.4914 130.297 24.3069 126.099 24.3069ZM126.099 21.3635C128.019 21.3635 129.094 19.8022 129.094 17.1403C129.094 14.4785 128.019 12.9172 126.099 12.9172C124.179 12.9172 123.079 14.4785 123.079 17.1403C123.079 19.8022 124.179 21.3635 126.099 21.3635Z" fill="black"/>
</svg>
